<svg width="318" height="64" viewBox="0 0 318 64" fill="none" xmlns="http://www.w3.org/2000/svg">
<g filter="url(#filter0_d_181_27)">
<rect x="4" width="310" height="56" rx="23" fill="#00008F"/>
</g>
<path d="M91.1334 27.672C91.1334 25.4533 91.592 23.48 92.5094 21.752C93.448 20.0027 94.7707 18.648 96.4774 17.688C98.184 16.7067 100.147 16.216 102.365 16.216C105.181 16.216 107.549 16.9733 109.469 18.488C111.389 19.9813 112.627 22.0187 113.181 24.6H106.429C106.024 23.7467 105.459 23.096 104.733 22.648C104.029 22.2 103.208 21.976 102.269 21.976C100.819 21.976 99.656 22.4987 98.7814 23.544C97.928 24.568 97.5014 25.944 97.5014 27.672C97.5014 29.4213 97.928 30.8187 98.7814 31.864C99.656 32.888 100.819 33.4 102.269 33.4C103.208 33.4 104.029 33.176 104.733 32.728C105.459 32.28 106.024 31.6293 106.429 30.776H113.181C112.627 33.3573 111.389 35.4053 109.469 36.92C107.549 38.4133 105.181 39.16 102.365 39.16C100.147 39.16 98.184 38.68 96.4774 37.72C94.7707 36.7387 93.448 35.384 92.5094 33.656C91.592 31.9067 91.1334 29.912 91.1334 27.672ZM124.503 39.224C122.711 39.224 121.101 38.8507 119.671 38.104C118.263 37.3573 117.154 36.2907 116.343 34.904C115.533 33.5173 115.127 31.8853 115.127 30.008C115.127 28.152 115.533 26.5307 116.343 25.144C117.175 23.7573 118.295 22.6907 119.703 21.944C121.133 21.1973 122.743 20.824 124.535 20.824C126.327 20.824 127.927 21.1973 129.335 21.944C130.765 22.6907 131.885 23.7573 132.695 25.144C133.527 26.5307 133.943 28.152 133.943 30.008C133.943 31.864 133.527 33.496 132.695 34.904C131.885 36.2907 130.765 37.3573 129.335 38.104C127.906 38.8507 126.295 39.224 124.503 39.224ZM124.503 33.784C125.378 33.784 126.103 33.464 126.679 32.824C127.277 32.1627 127.575 31.224 127.575 30.008C127.575 28.792 127.277 27.864 126.679 27.224C126.103 26.584 125.389 26.264 124.535 26.264C123.682 26.264 122.967 26.584 122.391 27.224C121.815 27.864 121.527 28.792 121.527 30.008C121.527 31.2453 121.805 32.184 122.359 32.824C122.914 33.464 123.629 33.784 124.503 33.784ZM148.239 20.888C150.308 20.888 151.951 21.5813 153.167 22.968C154.383 24.3333 154.991 26.1893 154.991 28.536V39H148.719V29.368C148.719 28.344 148.452 27.544 147.919 26.968C147.386 26.3707 146.671 26.072 145.775 26.072C144.836 26.072 144.1 26.3707 143.567 26.968C143.034 27.544 142.767 28.344 142.767 29.368V39H136.495V21.048H142.767V23.608C143.322 22.7973 144.068 22.1467 145.007 21.656C145.946 21.144 147.023 20.888 148.239 20.888ZM168.129 26.264H165.313V39H159.009V26.264H157.057V21.048H159.009V20.888C159.009 18.584 159.681 16.824 161.025 15.608C162.39 14.3707 164.342 13.752 166.881 13.752C167.393 13.752 167.787 13.7627 168.065 13.784V19.128C167.894 19.1067 167.659 19.096 167.361 19.096C166.678 19.096 166.177 19.256 165.857 19.576C165.537 19.8747 165.355 20.3653 165.313 21.048H168.129V26.264ZM173.538 19.384C172.429 19.384 171.533 19.0853 170.85 18.488C170.189 17.8693 169.858 17.1013 169.858 16.184C169.858 15.2453 170.189 14.4667 170.85 13.848C171.533 13.2293 172.429 12.92 173.538 12.92C174.626 12.92 175.501 13.2293 176.162 13.848C176.845 14.4667 177.186 15.2453 177.186 16.184C177.186 17.1013 176.845 17.8693 176.162 18.488C175.501 19.0853 174.626 19.384 173.538 19.384ZM176.642 21.048V39H170.37V21.048H176.642ZM186.486 24.216C187.19 23.192 188.043 22.3813 189.046 21.784C190.049 21.1867 191.126 20.888 192.278 20.888V27.576H190.518C189.153 27.576 188.139 27.8427 187.478 28.376C186.817 28.9093 186.486 29.8373 186.486 31.16V39H180.214V21.048H186.486V24.216ZM217.982 20.888C220.244 20.888 222.014 21.5707 223.294 22.936C224.596 24.3013 225.246 26.168 225.246 28.536V39H218.974V29.368C218.974 28.408 218.708 27.6613 218.174 27.128C217.641 26.5947 216.916 26.328 215.998 26.328C215.081 26.328 214.356 26.5947 213.822 27.128C213.289 27.6613 213.022 28.408 213.022 29.368V39H206.75V29.368C206.75 28.408 206.484 27.6613 205.95 27.128C205.438 26.5947 204.724 26.328 203.806 26.328C202.868 26.328 202.132 26.5947 201.598 27.128C201.065 27.6613 200.798 28.408 200.798 29.368V39H194.526V21.048H200.798V23.416C201.353 22.648 202.068 22.04 202.942 21.592C203.838 21.1227 204.862 20.888 206.014 20.888C207.337 20.888 208.51 21.176 209.534 21.752C210.58 22.328 211.401 23.1387 211.998 24.184C212.638 23.2027 213.481 22.4133 214.526 21.816C215.572 21.1973 216.724 20.888 217.982 20.888Z" fill="white"/>
<defs>
<filter id="filter0_d_181_27" x="0" y="0" width="318" height="64" filterUnits="userSpaceOnUse" color-interpolation-filters="sRGB">
<feFlood flood-opacity="0" result="BackgroundImageFix"/>
<feColorMatrix in="SourceAlpha" type="matrix" values="0 0 0 0 0 0 0 0 0 0 0 0 0 0 0 0 0 0 127 0" result="hardAlpha"/>
<feOffset dy="4"/>
<feGaussianBlur stdDeviation="2"/>
<feComposite in2="hardAlpha" operator="out"/>
<feColorMatrix type="matrix" values="0 0 0 0 0 0 0 0 0 0 0 0 0 0 0 0 0 0 0.25 0"/>
<feBlend mode="normal" in2="BackgroundImageFix" result="effect1_dropShadow_181_27"/>
<feBlend mode="normal" in="SourceGraphic" in2="effect1_dropShadow_181_27" result="shape"/>
</filter>
</defs>
</svg>
