<svg width="29" height="29" viewBox="0 0 29 29" fill="none" xmlns="http://www.w3.org/2000/svg">
<path d="M24.2365 18.2374C21.662 20.8133 17.9752 21.6049 14.7383 20.5871L8.85193 26.4928C8.42701 26.9326 7.58967 27.1965 6.98978 27.1085L4.2653 26.7316C3.36547 26.6059 2.52813 25.7515 2.39066 24.8468L2.01573 22.1075C1.92825 21.5044 2.21569 20.6625 2.62811 20.2353L8.50199 14.3296C7.50218 11.0627 8.27704 7.35595 10.8515 4.78007C14.5383 1.07331 20.5247 1.07331 24.224 4.78007C27.9233 8.48683 27.9233 14.5307 24.2365 18.2374Z" stroke="#00008F" stroke-width="2.25867" stroke-miterlimit="10" stroke-linecap="round" stroke-linejoin="round"/>
<path d="M8.11462 21.4542L10.9891 24.3442" stroke="#00008F" stroke-width="2.25867" stroke-miterlimit="10" stroke-linecap="round" stroke-linejoin="round"/>
<path d="M17.6251 13.2994C18.6604 13.2994 19.4998 12.4555 19.4998 11.4146C19.4998 10.3736 18.6604 9.52979 17.6251 9.52979C16.5898 9.52979 15.7505 10.3736 15.7505 11.4146C15.7505 12.4555 16.5898 13.2994 17.6251 13.2994Z" stroke="#00008F" stroke-width="2.25867" stroke-linecap="round" stroke-linejoin="round"/>
</svg>
