<svg width="288" height="67" viewBox="0 0 288 67" fill="none" xmlns="http://www.w3.org/2000/svg">
<path d="M42.7544 3.084C42.7544 3.78 42.5144 4.36 42.0344 4.824C41.5624 5.28 40.8384 5.508 39.8624 5.508H38.2544V9H37.1624V0.636H39.8624C40.8064 0.636 41.5224 0.864 42.0104 1.32C42.5064 1.776 42.7544 2.364 42.7544 3.084ZM39.8624 4.608C40.4704 4.608 40.9184 4.476 41.2064 4.212C41.4944 3.948 41.6384 3.572 41.6384 3.084C41.6384 2.052 41.0464 1.536 39.8624 1.536H38.2544V4.608H39.8624ZM46.0436 5.688C46.0436 5.016 46.1796 4.428 46.4516 3.924C46.7236 3.412 47.0956 3.016 47.5676 2.736C48.0476 2.456 48.5796 2.316 49.1636 2.316C49.7396 2.316 50.2396 2.44 50.6636 2.688C51.0876 2.936 51.4036 3.248 51.6116 3.624V2.424H52.7156V9H51.6116V7.776C51.3956 8.16 51.0716 8.48 50.6396 8.736C50.2156 8.984 49.7196 9.108 49.1516 9.108C48.5676 9.108 48.0396 8.964 47.5676 8.676C47.0956 8.388 46.7236 7.984 46.4516 7.464C46.1796 6.944 46.0436 6.352 46.0436 5.688ZM51.6116 5.7C51.6116 5.204 51.5116 4.772 51.3116 4.404C51.1116 4.036 50.8396 3.756 50.4956 3.564C50.1596 3.364 49.7876 3.264 49.3796 3.264C48.9716 3.264 48.5996 3.36 48.2636 3.552C47.9276 3.744 47.6596 4.024 47.4596 4.392C47.2596 4.76 47.1596 5.192 47.1596 5.688C47.1596 6.192 47.2596 6.632 47.4596 7.008C47.6596 7.376 47.9276 7.66 48.2636 7.86C48.5996 8.052 48.9716 8.148 49.3796 8.148C49.7876 8.148 50.1596 8.052 50.4956 7.86C50.8396 7.66 51.1116 7.376 51.3116 7.008C51.5116 6.632 51.6116 6.196 51.6116 5.7ZM59.229 9.108C58.725 9.108 58.273 9.024 57.873 8.856C57.473 8.68 57.157 8.44 56.925 8.136C56.693 7.824 56.565 7.468 56.541 7.068H57.669C57.701 7.396 57.853 7.664 58.125 7.872C58.405 8.08 58.769 8.184 59.217 8.184C59.633 8.184 59.961 8.092 60.201 7.908C60.441 7.724 60.561 7.492 60.561 7.212C60.561 6.924 60.433 6.712 60.177 6.576C59.921 6.432 59.525 6.292 58.989 6.156C58.501 6.028 58.101 5.9 57.789 5.772C57.485 5.636 57.221 5.44 56.997 5.184C56.781 4.92 56.673 4.576 56.673 4.152C56.673 3.816 56.773 3.508 56.973 3.228C57.173 2.948 57.457 2.728 57.825 2.568C58.193 2.4 58.613 2.316 59.085 2.316C59.813 2.316 60.401 2.5 60.849 2.868C61.297 3.236 61.537 3.74 61.569 4.38H60.477C60.453 4.036 60.313 3.76 60.057 3.552C59.809 3.344 59.473 3.24 59.049 3.24C58.657 3.24 58.345 3.324 58.113 3.492C57.881 3.66 57.765 3.88 57.765 4.152C57.765 4.368 57.833 4.548 57.969 4.692C58.113 4.828 58.289 4.94 58.497 5.028C58.713 5.108 59.009 5.2 59.385 5.304C59.857 5.432 60.241 5.56 60.537 5.688C60.833 5.808 61.085 5.992 61.293 6.24C61.509 6.488 61.621 6.812 61.629 7.212C61.629 7.572 61.529 7.896 61.329 8.184C61.129 8.472 60.845 8.7 60.477 8.868C60.117 9.028 59.701 9.108 59.229 9.108ZM67.8385 9.108C67.3345 9.108 66.8825 9.024 66.4825 8.856C66.0825 8.68 65.7665 8.44 65.5345 8.136C65.3025 7.824 65.1745 7.468 65.1505 7.068H66.2785C66.3105 7.396 66.4625 7.664 66.7345 7.872C67.0145 8.08 67.3785 8.184 67.8265 8.184C68.2425 8.184 68.5705 8.092 68.8105 7.908C69.0505 7.724 69.1705 7.492 69.1705 7.212C69.1705 6.924 69.0425 6.712 68.7865 6.576C68.5305 6.432 68.1345 6.292 67.5985 6.156C67.1105 6.028 66.7105 5.9 66.3985 5.772C66.0945 5.636 65.8305 5.44 65.6065 5.184C65.3905 4.92 65.2825 4.576 65.2825 4.152C65.2825 3.816 65.3825 3.508 65.5825 3.228C65.7825 2.948 66.0665 2.728 66.4345 2.568C66.8025 2.4 67.2225 2.316 67.6945 2.316C68.4225 2.316 69.0105 2.5 69.4585 2.868C69.9065 3.236 70.1465 3.74 70.1785 4.38H69.0865C69.0625 4.036 68.9225 3.76 68.6665 3.552C68.4185 3.344 68.0825 3.24 67.6585 3.24C67.2665 3.24 66.9545 3.324 66.7225 3.492C66.4905 3.66 66.3745 3.88 66.3745 4.152C66.3745 4.368 66.4425 4.548 66.5785 4.692C66.7225 4.828 66.8985 4.94 67.1065 5.028C67.3225 5.108 67.6185 5.2 67.9945 5.304C68.4665 5.432 68.8505 5.56 69.1465 5.688C69.4425 5.808 69.6945 5.992 69.9025 6.24C70.1185 6.488 70.2305 6.812 70.2385 7.212C70.2385 7.572 70.1385 7.896 69.9385 8.184C69.7385 8.472 69.4545 8.7 69.0865 8.868C68.7265 9.028 68.3105 9.108 67.8385 9.108ZM82.88 2.424L80.828 9H79.7L78.116 3.78L76.532 9H75.404L73.34 2.424H74.456L75.968 7.944L77.6 2.424H78.716L80.312 7.956L81.8 2.424H82.88ZM89.1718 9.108C88.5558 9.108 87.9958 8.968 87.4918 8.688C86.9958 8.408 86.6038 8.012 86.3158 7.5C86.0358 6.98 85.8958 6.38 85.8958 5.7C85.8958 5.028 86.0398 4.436 86.3278 3.924C86.6238 3.404 87.0238 3.008 87.5278 2.736C88.0318 2.456 88.5958 2.316 89.2198 2.316C89.8438 2.316 90.4078 2.456 90.9118 2.736C91.4158 3.008 91.8118 3.4 92.0998 3.912C92.3958 4.424 92.5438 5.02 92.5438 5.7C92.5438 6.38 92.3918 6.98 92.0878 7.5C91.7918 8.012 91.3878 8.408 90.8758 8.688C90.3638 8.968 89.7958 9.108 89.1718 9.108ZM89.1718 8.148C89.5638 8.148 89.9318 8.056 90.2758 7.872C90.6198 7.688 90.8958 7.412 91.1038 7.044C91.3198 6.676 91.4278 6.228 91.4278 5.7C91.4278 5.172 91.3238 4.724 91.1158 4.356C90.9078 3.988 90.6358 3.716 90.2998 3.54C89.9638 3.356 89.5998 3.264 89.2078 3.264C88.8078 3.264 88.4398 3.356 88.1038 3.54C87.7758 3.716 87.5118 3.988 87.3118 4.356C87.1118 4.724 87.0118 5.172 87.0118 5.7C87.0118 6.236 87.1078 6.688 87.2998 7.056C87.4998 7.424 87.7638 7.7 88.0918 7.884C88.4198 8.06 88.7798 8.148 89.1718 8.148ZM97.4115 3.492C97.6035 3.116 97.8755 2.824 98.2275 2.616C98.5875 2.408 99.0235 2.304 99.5355 2.304V3.432H99.2475C98.0235 3.432 97.4115 4.096 97.4115 5.424V9H96.3195V2.424H97.4115V3.492ZM102.728 5.688C102.728 5.016 102.864 4.428 103.136 3.924C103.408 3.412 103.78 3.016 104.252 2.736C104.732 2.456 105.268 2.316 105.86 2.316C106.372 2.316 106.848 2.436 107.288 2.676C107.728 2.908 108.064 3.216 108.296 3.6V0.12H109.4V9H108.296V7.764C108.08 8.156 107.76 8.48 107.336 8.736C106.912 8.984 106.416 9.108 105.848 9.108C105.264 9.108 104.732 8.964 104.252 8.676C103.78 8.388 103.408 7.984 103.136 7.464C102.864 6.944 102.728 6.352 102.728 5.688ZM108.296 5.7C108.296 5.204 108.196 4.772 107.996 4.404C107.796 4.036 107.524 3.756 107.18 3.564C106.844 3.364 106.472 3.264 106.064 3.264C105.656 3.264 105.284 3.36 104.948 3.552C104.612 3.744 104.344 4.024 104.144 4.392C103.944 4.76 103.844 5.192 103.844 5.688C103.844 6.192 103.944 6.632 104.144 7.008C104.344 7.376 104.612 7.66 104.948 7.86C105.284 8.052 105.656 8.148 106.064 8.148C106.472 8.148 106.844 8.052 107.18 7.86C107.524 7.66 107.796 7.376 107.996 7.008C108.196 6.632 108.296 6.196 108.296 5.7ZM127.033 2.304C127.545 2.304 128.001 2.412 128.401 2.628C128.801 2.836 129.117 3.152 129.349 3.576C129.581 4 129.697 4.516 129.697 5.124V9H128.617V5.28C128.617 4.624 128.453 4.124 128.125 3.78C127.805 3.428 127.369 3.252 126.817 3.252C126.249 3.252 125.797 3.436 125.461 3.804C125.125 4.164 124.957 4.688 124.957 5.376V9H123.877V5.28C123.877 4.624 123.713 4.124 123.385 3.78C123.065 3.428 122.629 3.252 122.077 3.252C121.509 3.252 121.057 3.436 120.721 3.804C120.385 4.164 120.217 4.688 120.217 5.376V9H119.125V2.424H120.217V3.372C120.433 3.028 120.721 2.764 121.081 2.58C121.449 2.396 121.853 2.304 122.293 2.304C122.845 2.304 123.333 2.428 123.757 2.676C124.181 2.924 124.497 3.288 124.705 3.768C124.889 3.304 125.193 2.944 125.617 2.688C126.041 2.432 126.513 2.304 127.033 2.304ZM139.66 2.424V9H138.568V8.028C138.36 8.364 138.068 8.628 137.692 8.82C137.324 9.004 136.916 9.096 136.468 9.096C135.956 9.096 135.496 8.992 135.088 8.784C134.68 8.568 134.356 8.248 134.116 7.824C133.884 7.4 133.768 6.884 133.768 6.276V2.424H134.848V6.132C134.848 6.78 135.012 7.28 135.34 7.632C135.668 7.976 136.116 8.148 136.684 8.148C137.268 8.148 137.728 7.968 138.064 7.608C138.4 7.248 138.568 6.724 138.568 6.036V2.424H139.66ZM146.172 9.108C145.668 9.108 145.216 9.024 144.816 8.856C144.416 8.68 144.1 8.44 143.868 8.136C143.636 7.824 143.508 7.468 143.484 7.068H144.612C144.644 7.396 144.796 7.664 145.068 7.872C145.348 8.08 145.712 8.184 146.16 8.184C146.576 8.184 146.904 8.092 147.144 7.908C147.384 7.724 147.504 7.492 147.504 7.212C147.504 6.924 147.376 6.712 147.12 6.576C146.864 6.432 146.468 6.292 145.932 6.156C145.444 6.028 145.044 5.9 144.732 5.772C144.428 5.636 144.164 5.44 143.94 5.184C143.724 4.92 143.616 4.576 143.616 4.152C143.616 3.816 143.716 3.508 143.916 3.228C144.116 2.948 144.4 2.728 144.768 2.568C145.136 2.4 145.556 2.316 146.028 2.316C146.756 2.316 147.344 2.5 147.792 2.868C148.24 3.236 148.48 3.74 148.512 4.38H147.42C147.396 4.036 147.256 3.76 147 3.552C146.752 3.344 146.416 3.24 145.992 3.24C145.6 3.24 145.288 3.324 145.056 3.492C144.824 3.66 144.708 3.88 144.708 4.152C144.708 4.368 144.776 4.548 144.912 4.692C145.056 4.828 145.232 4.94 145.44 5.028C145.656 5.108 145.952 5.2 146.328 5.304C146.8 5.432 147.184 5.56 147.48 5.688C147.776 5.808 148.028 5.992 148.236 6.24C148.452 6.488 148.564 6.812 148.572 7.212C148.572 7.572 148.472 7.896 148.272 8.184C148.072 8.472 147.788 8.7 147.42 8.868C147.06 9.028 146.644 9.108 146.172 9.108ZM153.785 3.324V7.2C153.785 7.52 153.853 7.748 153.989 7.884C154.125 8.012 154.361 8.076 154.697 8.076H155.501V9H154.517C153.909 9 153.453 8.86 153.149 8.58C152.845 8.3 152.693 7.84 152.693 7.2V3.324H151.841V2.424H152.693V0.767999H153.785V2.424H155.501V3.324H153.785ZM165.796 3.648C166.02 3.256 166.348 2.936 166.78 2.688C167.212 2.44 167.704 2.316 168.256 2.316C168.848 2.316 169.38 2.456 169.852 2.736C170.324 3.016 170.696 3.412 170.968 3.924C171.24 4.428 171.376 5.016 171.376 5.688C171.376 6.352 171.24 6.944 170.968 7.464C170.696 7.984 170.32 8.388 169.84 8.676C169.368 8.964 168.84 9.108 168.256 9.108C167.688 9.108 167.188 8.984 166.756 8.736C166.332 8.488 166.012 8.172 165.796 7.788V9H164.704V0.12H165.796V3.648ZM170.26 5.688C170.26 5.192 170.16 4.76 169.96 4.392C169.76 4.024 169.488 3.744 169.144 3.552C168.808 3.36 168.436 3.264 168.028 3.264C167.628 3.264 167.256 3.364 166.912 3.564C166.576 3.756 166.304 4.04 166.096 4.416C165.896 4.784 165.796 5.212 165.796 5.7C165.796 6.196 165.896 6.632 166.096 7.008C166.304 7.376 166.576 7.66 166.912 7.86C167.256 8.052 167.628 8.148 168.028 8.148C168.436 8.148 168.808 8.052 169.144 7.86C169.488 7.66 169.76 7.376 169.96 7.008C170.16 6.632 170.26 6.192 170.26 5.688ZM181.153 5.46C181.153 5.668 181.141 5.888 181.117 6.12H175.861C175.901 6.768 176.121 7.276 176.521 7.644C176.929 8.004 177.421 8.184 177.997 8.184C178.469 8.184 178.861 8.076 179.173 7.86C179.493 7.636 179.717 7.34 179.845 6.972H181.021C180.845 7.604 180.493 8.12 179.965 8.52C179.437 8.912 178.781 9.108 177.997 9.108C177.373 9.108 176.813 8.968 176.317 8.688C175.829 8.408 175.445 8.012 175.165 7.5C174.885 6.98 174.745 6.38 174.745 5.7C174.745 5.02 174.881 4.424 175.153 3.912C175.425 3.4 175.805 3.008 176.293 2.736C176.789 2.456 177.357 2.316 177.997 2.316C178.621 2.316 179.173 2.452 179.653 2.724C180.133 2.996 180.501 3.372 180.757 3.852C181.021 4.324 181.153 4.86 181.153 5.46ZM180.025 5.232C180.025 4.816 179.933 4.46 179.749 4.164C179.565 3.86 179.313 3.632 178.993 3.48C178.681 3.32 178.333 3.24 177.949 3.24C177.397 3.24 176.925 3.416 176.533 3.768C176.149 4.12 175.929 4.608 175.873 5.232H180.025ZM190.066 5.688C190.066 5.016 190.202 4.428 190.474 3.924C190.746 3.412 191.118 3.016 191.59 2.736C192.07 2.456 192.602 2.316 193.186 2.316C193.762 2.316 194.262 2.44 194.686 2.688C195.11 2.936 195.426 3.248 195.634 3.624V2.424H196.738V9H195.634V7.776C195.418 8.16 195.094 8.48 194.662 8.736C194.238 8.984 193.742 9.108 193.174 9.108C192.59 9.108 192.062 8.964 191.59 8.676C191.118 8.388 190.746 7.984 190.474 7.464C190.202 6.944 190.066 6.352 190.066 5.688ZM195.634 5.7C195.634 5.204 195.534 4.772 195.334 4.404C195.134 4.036 194.862 3.756 194.518 3.564C194.182 3.364 193.81 3.264 193.402 3.264C192.994 3.264 192.622 3.36 192.286 3.552C191.95 3.744 191.682 4.024 191.482 4.392C191.282 4.76 191.182 5.192 191.182 5.688C191.182 6.192 191.282 6.632 191.482 7.008C191.682 7.376 191.95 7.66 192.286 7.86C192.622 8.052 192.994 8.148 193.402 8.148C193.81 8.148 194.182 8.052 194.518 7.86C194.862 7.66 195.134 7.376 195.334 7.008C195.534 6.632 195.634 6.196 195.634 5.7ZM202.015 3.648C202.239 3.256 202.567 2.936 202.999 2.688C203.431 2.44 203.923 2.316 204.475 2.316C205.067 2.316 205.599 2.456 206.071 2.736C206.543 3.016 206.915 3.412 207.187 3.924C207.459 4.428 207.595 5.016 207.595 5.688C207.595 6.352 207.459 6.944 207.187 7.464C206.915 7.984 206.539 8.388 206.059 8.676C205.587 8.964 205.059 9.108 204.475 9.108C203.907 9.108 203.407 8.984 202.975 8.736C202.551 8.488 202.231 8.172 202.015 7.788V9H200.923V0.12H202.015V3.648ZM206.479 5.688C206.479 5.192 206.379 4.76 206.179 4.392C205.979 4.024 205.707 3.744 205.363 3.552C205.027 3.36 204.655 3.264 204.247 3.264C203.847 3.264 203.475 3.364 203.131 3.564C202.795 3.756 202.523 4.04 202.315 4.416C202.115 4.784 202.015 5.212 202.015 5.7C202.015 6.196 202.115 6.632 202.315 7.008C202.523 7.376 202.795 7.66 203.131 7.86C203.475 8.052 203.847 8.148 204.247 8.148C204.655 8.148 205.027 8.052 205.363 7.86C205.707 7.66 205.979 7.376 206.179 7.008C206.379 6.632 206.479 6.192 206.479 5.688ZM214.24 9.108C213.624 9.108 213.064 8.968 212.56 8.688C212.064 8.408 211.672 8.012 211.384 7.5C211.104 6.98 210.964 6.38 210.964 5.7C210.964 5.028 211.108 4.436 211.396 3.924C211.692 3.404 212.092 3.008 212.596 2.736C213.1 2.456 213.664 2.316 214.288 2.316C214.912 2.316 215.476 2.456 215.98 2.736C216.484 3.008 216.88 3.4 217.168 3.912C217.464 4.424 217.612 5.02 217.612 5.7C217.612 6.38 217.46 6.98 217.156 7.5C216.86 8.012 216.456 8.408 215.944 8.688C215.432 8.968 214.864 9.108 214.24 9.108ZM214.24 8.148C214.632 8.148 215 8.056 215.344 7.872C215.688 7.688 215.964 7.412 216.172 7.044C216.388 6.676 216.496 6.228 216.496 5.7C216.496 5.172 216.392 4.724 216.184 4.356C215.976 3.988 215.704 3.716 215.368 3.54C215.032 3.356 214.668 3.264 214.276 3.264C213.876 3.264 213.508 3.356 213.172 3.54C212.844 3.716 212.58 3.988 212.38 4.356C212.18 4.724 212.08 5.172 212.08 5.7C212.08 6.236 212.176 6.688 212.368 7.056C212.568 7.424 212.832 7.7 213.16 7.884C213.488 8.06 213.848 8.148 214.24 8.148ZM223.836 7.992L225.876 2.424H227.04L224.46 9H223.188L220.608 2.424H221.784L223.836 7.992ZM236.455 5.46C236.455 5.668 236.443 5.888 236.419 6.12H231.163C231.203 6.768 231.423 7.276 231.823 7.644C232.231 8.004 232.723 8.184 233.299 8.184C233.771 8.184 234.163 8.076 234.475 7.86C234.795 7.636 235.019 7.34 235.147 6.972H236.323C236.147 7.604 235.795 8.12 235.267 8.52C234.739 8.912 234.083 9.108 233.299 9.108C232.675 9.108 232.115 8.968 231.619 8.688C231.131 8.408 230.747 8.012 230.467 7.5C230.187 6.98 230.047 6.38 230.047 5.7C230.047 5.02 230.183 4.424 230.455 3.912C230.727 3.4 231.107 3.008 231.595 2.736C232.091 2.456 232.659 2.316 233.299 2.316C233.923 2.316 234.475 2.452 234.955 2.724C235.435 2.996 235.803 3.372 236.059 3.852C236.323 4.324 236.455 4.86 236.455 5.46ZM235.327 5.232C235.327 4.816 235.235 4.46 235.051 4.164C234.867 3.86 234.615 3.632 234.295 3.48C233.983 3.32 233.635 3.24 233.251 3.24C232.699 3.24 232.227 3.416 231.835 3.768C231.451 4.12 231.231 4.608 231.175 5.232H235.327ZM247.179 4.488C246.731 4.312 246.387 4.056 246.147 3.72C245.907 3.384 245.787 2.976 245.787 2.496C245.787 2.064 245.895 1.676 246.111 1.332C246.327 0.98 246.647 0.704 247.071 0.504C247.503 0.296 248.023 0.192 248.631 0.192C249.239 0.192 249.755 0.296 250.179 0.504C250.611 0.704 250.935 0.98 251.151 1.332C251.375 1.676 251.487 2.064 251.487 2.496C251.487 2.96 251.363 3.368 251.115 3.72C250.867 4.064 250.527 4.32 250.095 4.488C250.591 4.64 250.983 4.908 251.271 5.292C251.567 5.668 251.715 6.124 251.715 6.66C251.715 7.18 251.587 7.636 251.331 8.028C251.075 8.412 250.711 8.712 250.239 8.928C249.775 9.136 249.239 9.24 248.631 9.24C248.023 9.24 247.487 9.136 247.023 8.928C246.567 8.712 246.211 8.412 245.955 8.028C245.699 7.636 245.571 7.18 245.571 6.66C245.571 6.124 245.715 5.664 246.003 5.28C246.291 4.896 246.683 4.632 247.179 4.488ZM250.431 2.628C250.431 2.14 250.271 1.764 249.951 1.5C249.631 1.236 249.191 1.104 248.631 1.104C248.079 1.104 247.643 1.236 247.323 1.5C247.003 1.764 246.843 2.144 246.843 2.64C246.843 3.088 247.007 3.448 247.335 3.72C247.671 3.992 248.103 4.128 248.631 4.128C249.167 4.128 249.599 3.992 249.927 3.72C250.263 3.44 250.431 3.076 250.431 2.628ZM248.631 4.968C248.039 4.968 247.555 5.108 247.179 5.388C246.803 5.66 246.615 6.072 246.615 6.624C246.615 7.136 246.795 7.548 247.155 7.86C247.523 8.172 248.015 8.328 248.631 8.328C249.247 8.328 249.735 8.172 250.095 7.86C250.455 7.548 250.635 7.136 250.635 6.624C250.635 6.088 250.451 5.68 250.083 5.4C249.715 5.112 249.231 4.968 248.631 4.968ZM0.61889 23.7C0.61889 23.02 0.75489 22.428 1.02689 21.924C1.29889 21.412 1.67489 21.016 2.15489 20.736C2.64289 20.456 3.19889 20.316 3.82289 20.316C4.63089 20.316 5.29489 20.512 5.81489 20.904C6.34289 21.296 6.69089 21.84 6.85889 22.536H5.68289C5.57089 22.136 5.35089 21.82 5.02289 21.588C4.70289 21.356 4.30289 21.24 3.82289 21.24C3.19889 21.24 2.69489 21.456 2.31089 21.888C1.92689 22.312 1.73489 22.916 1.73489 23.7C1.73489 24.492 1.92689 25.104 2.31089 25.536C2.69489 25.968 3.19889 26.184 3.82289 26.184C4.30289 26.184 4.70289 26.072 5.02289 25.848C5.34289 25.624 5.56289 25.304 5.68289 24.888H6.85889C6.68289 25.56 6.33089 26.1 5.80289 26.508C5.27489 26.908 4.61489 27.108 3.82289 27.108C3.19889 27.108 2.64289 26.968 2.15489 26.688C1.67489 26.408 1.29889 26.012 1.02689 25.5C0.75489 24.988 0.61889 24.388 0.61889 23.7ZM13.92 20.304C14.416 20.304 14.864 20.412 15.264 20.628C15.664 20.836 15.976 21.152 16.2 21.576C16.432 22 16.548 22.516 16.548 23.124V27H15.468V23.28C15.468 22.624 15.304 22.124 14.976 21.78C14.648 21.428 14.2 21.252 13.632 21.252C13.056 21.252 12.596 21.432 12.252 21.792C11.916 22.152 11.748 22.676 11.748 23.364V27H10.656V18.12H11.748V21.36C11.964 21.024 12.26 20.764 12.636 20.58C13.02 20.396 13.448 20.304 13.92 20.304ZM20.2637 23.688C20.2637 23.016 20.3997 22.428 20.6717 21.924C20.9437 21.412 21.3157 21.016 21.7877 20.736C22.2677 20.456 22.7997 20.316 23.3837 20.316C23.9597 20.316 24.4597 20.44 24.8837 20.688C25.3077 20.936 25.6237 21.248 25.8317 21.624V20.424H26.9357V27H25.8317V25.776C25.6157 26.16 25.2917 26.48 24.8597 26.736C24.4357 26.984 23.9397 27.108 23.3717 27.108C22.7877 27.108 22.2597 26.964 21.7877 26.676C21.3157 26.388 20.9437 25.984 20.6717 25.464C20.3997 24.944 20.2637 24.352 20.2637 23.688ZM25.8317 23.7C25.8317 23.204 25.7317 22.772 25.5317 22.404C25.3317 22.036 25.0597 21.756 24.7157 21.564C24.3797 21.364 24.0077 21.264 23.5997 21.264C23.1917 21.264 22.8197 21.36 22.4837 21.552C22.1477 21.744 21.8797 22.024 21.6797 22.392C21.4797 22.76 21.3797 23.192 21.3797 23.688C21.3797 24.192 21.4797 24.632 21.6797 25.008C21.8797 25.376 22.1477 25.66 22.4837 25.86C22.8197 26.052 23.1917 26.148 23.5997 26.148C24.0077 26.148 24.3797 26.052 24.7157 25.86C25.0597 25.66 25.3317 25.376 25.5317 25.008C25.7317 24.632 25.8317 24.196 25.8317 23.7ZM32.2131 21.492C32.4051 21.116 32.6771 20.824 33.0291 20.616C33.3891 20.408 33.8251 20.304 34.3371 20.304V21.432H34.0491C32.8251 21.432 32.2131 22.096 32.2131 23.424V27H31.1211V20.424H32.2131V21.492ZM37.5297 23.688C37.5297 23.016 37.6657 22.428 37.9377 21.924C38.2097 21.412 38.5817 21.016 39.0537 20.736C39.5337 20.456 40.0657 20.316 40.6497 20.316C41.2257 20.316 41.7257 20.44 42.1497 20.688C42.5737 20.936 42.8897 21.248 43.0977 21.624V20.424H44.2017V27H43.0977V25.776C42.8817 26.16 42.5577 26.48 42.1257 26.736C41.7017 26.984 41.2057 27.108 40.6377 27.108C40.0537 27.108 39.5257 26.964 39.0537 26.676C38.5817 26.388 38.2097 25.984 37.9377 25.464C37.6657 24.944 37.5297 24.352 37.5297 23.688ZM43.0977 23.7C43.0977 23.204 42.9977 22.772 42.7977 22.404C42.5977 22.036 42.3257 21.756 41.9817 21.564C41.6457 21.364 41.2737 21.264 40.8657 21.264C40.4577 21.264 40.0857 21.36 39.7497 21.552C39.4137 21.744 39.1457 22.024 38.9457 22.392C38.7457 22.76 38.6457 23.192 38.6457 23.688C38.6457 24.192 38.7457 24.632 38.9457 25.008C39.1457 25.376 39.4137 25.66 39.7497 25.86C40.0857 26.052 40.4577 26.148 40.8657 26.148C41.2737 26.148 41.6457 26.052 41.9817 25.86C42.3257 25.66 42.5977 25.376 42.7977 25.008C42.9977 24.632 43.0977 24.196 43.0977 23.7ZM47.979 23.7C47.979 23.02 48.115 22.428 48.387 21.924C48.659 21.412 49.035 21.016 49.515 20.736C50.003 20.456 50.559 20.316 51.183 20.316C51.991 20.316 52.655 20.512 53.175 20.904C53.703 21.296 54.051 21.84 54.219 22.536H53.043C52.931 22.136 52.711 21.82 52.383 21.588C52.063 21.356 51.663 21.24 51.183 21.24C50.559 21.24 50.055 21.456 49.671 21.888C49.287 22.312 49.095 22.916 49.095 23.7C49.095 24.492 49.287 25.104 49.671 25.536C50.055 25.968 50.559 26.184 51.183 26.184C51.663 26.184 52.063 26.072 52.383 25.848C52.703 25.624 52.923 25.304 53.043 24.888H54.219C54.043 25.56 53.691 26.1 53.163 26.508C52.635 26.908 51.975 27.108 51.183 27.108C50.559 27.108 50.003 26.968 49.515 26.688C49.035 26.408 48.659 26.012 48.387 25.5C48.115 24.988 47.979 24.388 47.979 23.7ZM59.3481 21.324V25.2C59.3481 25.52 59.4161 25.748 59.5521 25.884C59.6881 26.012 59.9241 26.076 60.2601 26.076H61.0641V27H60.0801C59.4721 27 59.0161 26.86 58.7121 26.58C58.4081 26.3 58.2561 25.84 58.2561 25.2V21.324H57.4041V20.424H58.2561V18.768H59.3481V20.424H61.0641V21.324H59.3481ZM70.7272 23.46C70.7272 23.668 70.7152 23.888 70.6912 24.12H65.4352C65.4752 24.768 65.6952 25.276 66.0952 25.644C66.5032 26.004 66.9952 26.184 67.5712 26.184C68.0432 26.184 68.4352 26.076 68.7472 25.86C69.0672 25.636 69.2912 25.34 69.4192 24.972H70.5952C70.4192 25.604 70.0672 26.12 69.5392 26.52C69.0112 26.912 68.3552 27.108 67.5712 27.108C66.9472 27.108 66.3872 26.968 65.8912 26.688C65.4032 26.408 65.0192 26.012 64.7392 25.5C64.4592 24.98 64.3192 24.38 64.3192 23.7C64.3192 23.02 64.4552 22.424 64.7272 21.912C64.9992 21.4 65.3792 21.008 65.8672 20.736C66.3632 20.456 66.9312 20.316 67.5712 20.316C68.1952 20.316 68.7472 20.452 69.2272 20.724C69.7072 20.996 70.0752 21.372 70.3312 21.852C70.5952 22.324 70.7272 22.86 70.7272 23.46ZM69.5992 23.232C69.5992 22.816 69.5072 22.46 69.3232 22.164C69.1392 21.86 68.8872 21.632 68.5672 21.48C68.2552 21.32 67.9072 21.24 67.5232 21.24C66.9712 21.24 66.4992 21.416 66.1072 21.768C65.7232 22.12 65.5032 22.608 65.4472 23.232H69.5992ZM75.6006 21.492C75.7926 21.116 76.0646 20.824 76.4166 20.616C76.7766 20.408 77.2126 20.304 77.7246 20.304V21.432H77.4366C76.2126 21.432 75.6006 22.096 75.6006 23.424V27H74.5086V20.424H75.6006V21.492ZM83.6532 27.108C83.1492 27.108 82.6972 27.024 82.2972 26.856C81.8972 26.68 81.5812 26.44 81.3492 26.136C81.1172 25.824 80.9892 25.468 80.9652 25.068H82.0932C82.1252 25.396 82.2772 25.664 82.5492 25.872C82.8292 26.08 83.1932 26.184 83.6412 26.184C84.0572 26.184 84.3852 26.092 84.6252 25.908C84.8652 25.724 84.9852 25.492 84.9852 25.212C84.9852 24.924 84.8572 24.712 84.6012 24.576C84.3452 24.432 83.9492 24.292 83.4132 24.156C82.9252 24.028 82.5252 23.9 82.2132 23.772C81.9092 23.636 81.6452 23.44 81.4212 23.184C81.2052 22.92 81.0972 22.576 81.0972 22.152C81.0972 21.816 81.1972 21.508 81.3972 21.228C81.5972 20.948 81.8812 20.728 82.2492 20.568C82.6172 20.4 83.0372 20.316 83.5092 20.316C84.2372 20.316 84.8252 20.5 85.2732 20.868C85.7212 21.236 85.9612 21.74 85.9932 22.38H84.9012C84.8772 22.036 84.7372 21.76 84.4812 21.552C84.2332 21.344 83.8972 21.24 83.4732 21.24C83.0812 21.24 82.7692 21.324 82.5372 21.492C82.3052 21.66 82.1892 21.88 82.1892 22.152C82.1892 22.368 82.2572 22.548 82.3932 22.692C82.5372 22.828 82.7132 22.94 82.9212 23.028C83.1372 23.108 83.4332 23.2 83.8092 23.304C84.2812 23.432 84.6652 23.56 84.9612 23.688C85.2572 23.808 85.5092 23.992 85.7172 24.24C85.9332 24.488 86.0452 24.812 86.0532 25.212C86.0532 25.572 85.9532 25.896 85.7532 26.184C85.5532 26.472 85.2692 26.7 84.9012 26.868C84.5412 27.028 84.1252 27.108 83.6532 27.108ZM96.5659 18.12V27H95.4739V18.12H96.5659ZM103.635 27.108C103.019 27.108 102.459 26.968 101.955 26.688C101.459 26.408 101.067 26.012 100.779 25.5C100.499 24.98 100.359 24.38 100.359 23.7C100.359 23.028 100.503 22.436 100.791 21.924C101.087 21.404 101.487 21.008 101.991 20.736C102.495 20.456 103.059 20.316 103.683 20.316C104.307 20.316 104.871 20.456 105.375 20.736C105.879 21.008 106.275 21.4 106.563 21.912C106.859 22.424 107.007 23.02 107.007 23.7C107.007 24.38 106.855 24.98 106.551 25.5C106.255 26.012 105.851 26.408 105.339 26.688C104.827 26.968 104.259 27.108 103.635 27.108ZM103.635 26.148C104.027 26.148 104.395 26.056 104.739 25.872C105.083 25.688 105.359 25.412 105.567 25.044C105.783 24.676 105.891 24.228 105.891 23.7C105.891 23.172 105.787 22.724 105.579 22.356C105.371 21.988 105.099 21.716 104.763 21.54C104.427 21.356 104.063 21.264 103.671 21.264C103.271 21.264 102.903 21.356 102.567 21.54C102.239 21.716 101.975 21.988 101.775 22.356C101.575 22.724 101.475 23.172 101.475 23.7C101.475 24.236 101.571 24.688 101.763 25.056C101.963 25.424 102.227 25.7 102.555 25.884C102.883 26.06 103.243 26.148 103.635 26.148ZM113.987 20.304C114.787 20.304 115.435 20.548 115.931 21.036C116.427 21.516 116.675 22.212 116.675 23.124V27H115.595V23.28C115.595 22.624 115.431 22.124 115.103 21.78C114.775 21.428 114.327 21.252 113.759 21.252C113.183 21.252 112.723 21.432 112.379 21.792C112.043 22.152 111.875 22.676 111.875 23.364V27H110.783V20.424H111.875V21.36C112.091 21.024 112.383 20.764 112.751 20.58C113.127 20.396 113.539 20.304 113.987 20.304ZM123.511 20.316C124.079 20.316 124.575 20.44 124.999 20.688C125.431 20.936 125.751 21.248 125.959 21.624V20.424H127.063V27.144C127.063 27.744 126.935 28.276 126.679 28.74C126.423 29.212 126.055 29.58 125.575 29.844C125.103 30.108 124.551 30.24 123.919 30.24C123.055 30.24 122.335 30.036 121.759 29.628C121.183 29.22 120.843 28.664 120.739 27.96H121.819C121.939 28.36 122.187 28.68 122.563 28.92C122.939 29.168 123.391 29.292 123.919 29.292C124.519 29.292 125.007 29.104 125.383 28.728C125.767 28.352 125.959 27.824 125.959 27.144V25.764C125.743 26.148 125.423 26.468 124.999 26.724C124.575 26.98 124.079 27.108 123.511 27.108C122.927 27.108 122.395 26.964 121.915 26.676C121.443 26.388 121.071 25.984 120.799 25.464C120.527 24.944 120.391 24.352 120.391 23.688C120.391 23.016 120.527 22.428 120.799 21.924C121.071 21.412 121.443 21.016 121.915 20.736C122.395 20.456 122.927 20.316 123.511 20.316ZM125.959 23.7C125.959 23.204 125.859 22.772 125.659 22.404C125.459 22.036 125.187 21.756 124.843 21.564C124.507 21.364 124.135 21.264 123.727 21.264C123.319 21.264 122.947 21.36 122.611 21.552C122.275 21.744 122.007 22.024 121.807 22.392C121.607 22.76 121.507 23.192 121.507 23.688C121.507 24.192 121.607 24.632 121.807 25.008C122.007 25.376 122.275 25.66 122.611 25.86C122.947 26.052 123.319 26.148 123.727 26.148C124.135 26.148 124.507 26.052 124.843 25.86C125.187 25.66 125.459 25.376 125.659 25.008C125.859 24.632 125.959 24.196 125.959 23.7ZM136.379 23.688C136.379 23.016 136.515 22.428 136.787 21.924C137.059 21.412 137.431 21.016 137.903 20.736C138.383 20.456 138.915 20.316 139.499 20.316C140.075 20.316 140.575 20.44 140.999 20.688C141.423 20.936 141.739 21.248 141.947 21.624V20.424H143.051V27H141.947V25.776C141.731 26.16 141.407 26.48 140.975 26.736C140.551 26.984 140.055 27.108 139.487 27.108C138.903 27.108 138.375 26.964 137.903 26.676C137.431 26.388 137.059 25.984 136.787 25.464C136.515 24.944 136.379 24.352 136.379 23.688ZM141.947 23.7C141.947 23.204 141.847 22.772 141.647 22.404C141.447 22.036 141.175 21.756 140.831 21.564C140.495 21.364 140.123 21.264 139.715 21.264C139.307 21.264 138.935 21.36 138.599 21.552C138.263 21.744 137.995 22.024 137.795 22.392C137.595 22.76 137.495 23.192 137.495 23.688C137.495 24.192 137.595 24.632 137.795 25.008C137.995 25.376 138.263 25.66 138.599 25.86C138.935 26.052 139.307 26.148 139.715 26.148C140.123 26.148 140.495 26.052 140.831 25.86C141.175 25.66 141.447 25.376 141.647 25.008C141.847 24.632 141.947 24.196 141.947 23.7ZM150.441 20.304C151.241 20.304 151.889 20.548 152.385 21.036C152.881 21.516 153.129 22.212 153.129 23.124V27H152.049V23.28C152.049 22.624 151.885 22.124 151.557 21.78C151.229 21.428 150.781 21.252 150.213 21.252C149.637 21.252 149.177 21.432 148.833 21.792C148.497 22.152 148.329 22.676 148.329 23.364V27H147.237V20.424H148.329V21.36C148.545 21.024 148.837 20.764 149.205 20.58C149.581 20.396 149.993 20.304 150.441 20.304ZM156.844 23.688C156.844 23.016 156.98 22.428 157.252 21.924C157.524 21.412 157.896 21.016 158.368 20.736C158.848 20.456 159.384 20.316 159.976 20.316C160.488 20.316 160.964 20.436 161.404 20.676C161.844 20.908 162.18 21.216 162.412 21.6V18.12H163.516V27H162.412V25.764C162.196 26.156 161.876 26.48 161.452 26.736C161.028 26.984 160.532 27.108 159.964 27.108C159.38 27.108 158.848 26.964 158.368 26.676C157.896 26.388 157.524 25.984 157.252 25.464C156.98 24.944 156.844 24.352 156.844 23.688ZM162.412 23.7C162.412 23.204 162.312 22.772 162.112 22.404C161.912 22.036 161.64 21.756 161.296 21.564C160.96 21.364 160.588 21.264 160.18 21.264C159.772 21.264 159.4 21.36 159.064 21.552C158.728 21.744 158.46 22.024 158.26 22.392C158.06 22.76 157.96 23.192 157.96 23.688C157.96 24.192 158.06 24.632 158.26 25.008C158.46 25.376 158.728 25.66 159.064 25.86C159.4 26.052 159.772 26.148 160.18 26.148C160.588 26.148 160.96 26.052 161.296 25.86C161.64 25.66 161.912 25.376 162.112 25.008C162.312 24.632 162.412 24.196 162.412 23.7ZM172.833 23.688C172.833 23.016 172.969 22.428 173.241 21.924C173.513 21.412 173.885 21.016 174.357 20.736C174.837 20.456 175.369 20.316 175.953 20.316C176.529 20.316 177.029 20.44 177.453 20.688C177.877 20.936 178.193 21.248 178.401 21.624V20.424H179.505V27H178.401V25.776C178.185 26.16 177.861 26.48 177.429 26.736C177.005 26.984 176.509 27.108 175.941 27.108C175.357 27.108 174.829 26.964 174.357 26.676C173.885 26.388 173.513 25.984 173.241 25.464C172.969 24.944 172.833 24.352 172.833 23.688ZM178.401 23.7C178.401 23.204 178.301 22.772 178.101 22.404C177.901 22.036 177.629 21.756 177.285 21.564C176.949 21.364 176.577 21.264 176.169 21.264C175.761 21.264 175.389 21.36 175.053 21.552C174.717 21.744 174.449 22.024 174.249 22.392C174.049 22.76 173.949 23.192 173.949 23.688C173.949 24.192 174.049 24.632 174.249 25.008C174.449 25.376 174.717 25.66 175.053 25.86C175.389 26.052 175.761 26.148 176.169 26.148C176.577 26.148 176.949 26.052 177.285 25.86C177.629 25.66 177.901 25.376 178.101 25.008C178.301 24.632 178.401 24.196 178.401 23.7ZM188.822 23.7C188.822 23.02 188.958 22.428 189.23 21.924C189.502 21.412 189.878 21.016 190.358 20.736C190.846 20.456 191.402 20.316 192.026 20.316C192.834 20.316 193.498 20.512 194.018 20.904C194.546 21.296 194.894 21.84 195.062 22.536H193.886C193.774 22.136 193.554 21.82 193.226 21.588C192.906 21.356 192.506 21.24 192.026 21.24C191.402 21.24 190.898 21.456 190.514 21.888C190.13 22.312 189.938 22.916 189.938 23.7C189.938 24.492 190.13 25.104 190.514 25.536C190.898 25.968 191.402 26.184 192.026 26.184C192.506 26.184 192.906 26.072 193.226 25.848C193.546 25.624 193.766 25.304 193.886 24.888H195.062C194.886 25.56 194.534 26.1 194.006 26.508C193.478 26.908 192.818 27.108 192.026 27.108C191.402 27.108 190.846 26.968 190.358 26.688C189.878 26.408 189.502 26.012 189.23 25.5C188.958 24.988 188.822 24.388 188.822 23.7ZM201.727 27.108C201.111 27.108 200.551 26.968 200.047 26.688C199.551 26.408 199.159 26.012 198.871 25.5C198.591 24.98 198.451 24.38 198.451 23.7C198.451 23.028 198.595 22.436 198.883 21.924C199.179 21.404 199.579 21.008 200.083 20.736C200.587 20.456 201.151 20.316 201.775 20.316C202.399 20.316 202.963 20.456 203.467 20.736C203.971 21.008 204.367 21.4 204.655 21.912C204.951 22.424 205.099 23.02 205.099 23.7C205.099 24.38 204.947 24.98 204.643 25.5C204.347 26.012 203.943 26.408 203.431 26.688C202.919 26.968 202.351 27.108 201.727 27.108ZM201.727 26.148C202.119 26.148 202.487 26.056 202.831 25.872C203.175 25.688 203.451 25.412 203.659 25.044C203.875 24.676 203.983 24.228 203.983 23.7C203.983 23.172 203.879 22.724 203.671 22.356C203.463 21.988 203.191 21.716 202.855 21.54C202.519 21.356 202.155 21.264 201.763 21.264C201.363 21.264 200.995 21.356 200.659 21.54C200.331 21.716 200.067 21.988 199.867 22.356C199.667 22.724 199.567 23.172 199.567 23.7C199.567 24.236 199.663 24.688 199.855 25.056C200.055 25.424 200.319 25.7 200.647 25.884C200.975 26.06 201.335 26.148 201.727 26.148ZM216.782 20.304C217.294 20.304 217.75 20.412 218.15 20.628C218.55 20.836 218.866 21.152 219.098 21.576C219.33 22 219.446 22.516 219.446 23.124V27H218.366V23.28C218.366 22.624 218.202 22.124 217.874 21.78C217.554 21.428 217.118 21.252 216.566 21.252C215.998 21.252 215.546 21.436 215.21 21.804C214.874 22.164 214.706 22.688 214.706 23.376V27H213.626V23.28C213.626 22.624 213.462 22.124 213.134 21.78C212.814 21.428 212.378 21.252 211.826 21.252C211.258 21.252 210.806 21.436 210.47 21.804C210.134 22.164 209.966 22.688 209.966 23.376V27H208.874V20.424H209.966V21.372C210.182 21.028 210.47 20.764 210.83 20.58C211.198 20.396 211.602 20.304 212.042 20.304C212.594 20.304 213.082 20.428 213.506 20.676C213.93 20.924 214.246 21.288 214.454 21.768C214.638 21.304 214.942 20.944 215.366 20.688C215.79 20.432 216.262 20.304 216.782 20.304ZM224.67 21.648C224.894 21.256 225.222 20.936 225.654 20.688C226.086 20.44 226.578 20.316 227.13 20.316C227.722 20.316 228.254 20.456 228.726 20.736C229.198 21.016 229.57 21.412 229.842 21.924C230.114 22.428 230.25 23.016 230.25 23.688C230.25 24.352 230.114 24.944 229.842 25.464C229.57 25.984 229.194 26.388 228.714 26.676C228.242 26.964 227.714 27.108 227.13 27.108C226.562 27.108 226.062 26.984 225.63 26.736C225.206 26.488 224.886 26.172 224.67 25.788V27H223.578V18.12H224.67V21.648ZM229.134 23.688C229.134 23.192 229.034 22.76 228.834 22.392C228.634 22.024 228.362 21.744 228.018 21.552C227.682 21.36 227.31 21.264 226.902 21.264C226.502 21.264 226.13 21.364 225.786 21.564C225.45 21.756 225.178 22.04 224.97 22.416C224.77 22.784 224.67 23.212 224.67 23.7C224.67 24.196 224.77 24.632 224.97 25.008C225.178 25.376 225.45 25.66 225.786 25.86C226.13 26.052 226.502 26.148 226.902 26.148C227.31 26.148 227.682 26.052 228.018 25.86C228.362 25.66 228.634 25.376 228.834 25.008C229.034 24.632 229.134 24.192 229.134 23.688ZM234.591 19.356C234.383 19.356 234.207 19.284 234.063 19.14C233.919 18.996 233.847 18.82 233.847 18.612C233.847 18.404 233.919 18.228 234.063 18.084C234.207 17.94 234.383 17.868 234.591 17.868C234.791 17.868 234.959 17.94 235.095 18.084C235.239 18.228 235.311 18.404 235.311 18.612C235.311 18.82 235.239 18.996 235.095 19.14C234.959 19.284 234.791 19.356 234.591 19.356ZM235.119 20.424V27H234.027V20.424H235.119ZM242.524 20.304C243.324 20.304 243.972 20.548 244.468 21.036C244.964 21.516 245.212 22.212 245.212 23.124V27H244.132V23.28C244.132 22.624 243.968 22.124 243.64 21.78C243.312 21.428 242.864 21.252 242.296 21.252C241.72 21.252 241.26 21.432 240.916 21.792C240.58 22.152 240.412 22.676 240.412 23.364V27H239.32V20.424H240.412V21.36C240.628 21.024 240.92 20.764 241.288 20.58C241.664 20.396 242.076 20.304 242.524 20.304ZM248.928 23.688C248.928 23.016 249.064 22.428 249.336 21.924C249.608 21.412 249.98 21.016 250.452 20.736C250.932 20.456 251.464 20.316 252.048 20.316C252.624 20.316 253.124 20.44 253.548 20.688C253.972 20.936 254.288 21.248 254.496 21.624V20.424H255.6V27H254.496V25.776C254.28 26.16 253.956 26.48 253.524 26.736C253.1 26.984 252.604 27.108 252.036 27.108C251.452 27.108 250.924 26.964 250.452 26.676C249.98 26.388 249.608 25.984 249.336 25.464C249.064 24.944 248.928 24.352 248.928 23.688ZM254.496 23.7C254.496 23.204 254.396 22.772 254.196 22.404C253.996 22.036 253.724 21.756 253.38 21.564C253.044 21.364 252.672 21.264 252.264 21.264C251.856 21.264 251.484 21.36 251.148 21.552C250.812 21.744 250.544 22.024 250.344 22.392C250.144 22.76 250.044 23.192 250.044 23.688C250.044 24.192 250.144 24.632 250.344 25.008C250.544 25.376 250.812 25.66 251.148 25.86C251.484 26.052 251.856 26.148 252.264 26.148C252.672 26.148 253.044 26.052 253.38 25.86C253.724 25.66 253.996 25.376 254.196 25.008C254.396 24.632 254.496 24.196 254.496 23.7ZM261.117 21.324V25.2C261.117 25.52 261.185 25.748 261.321 25.884C261.457 26.012 261.693 26.076 262.029 26.076H262.833V27H261.849C261.241 27 260.785 26.86 260.481 26.58C260.177 26.3 260.025 25.84 260.025 25.2V21.324H259.173V20.424H260.025V18.768H261.117V20.424H262.833V21.324H261.117ZM267.06 19.356C266.852 19.356 266.676 19.284 266.532 19.14C266.388 18.996 266.316 18.82 266.316 18.612C266.316 18.404 266.388 18.228 266.532 18.084C266.676 17.94 266.852 17.868 267.06 17.868C267.26 17.868 267.428 17.94 267.564 18.084C267.708 18.228 267.78 18.404 267.78 18.612C267.78 18.82 267.708 18.996 267.564 19.14C267.428 19.284 267.26 19.356 267.06 19.356ZM267.588 20.424V27H266.496V20.424H267.588ZM274.658 27.108C274.042 27.108 273.482 26.968 272.978 26.688C272.482 26.408 272.09 26.012 271.802 25.5C271.522 24.98 271.382 24.38 271.382 23.7C271.382 23.028 271.526 22.436 271.814 21.924C272.11 21.404 272.51 21.008 273.014 20.736C273.518 20.456 274.082 20.316 274.706 20.316C275.33 20.316 275.894 20.456 276.398 20.736C276.902 21.008 277.298 21.4 277.586 21.912C277.882 22.424 278.03 23.02 278.03 23.7C278.03 24.38 277.878 24.98 277.574 25.5C277.278 26.012 276.874 26.408 276.362 26.688C275.85 26.968 275.282 27.108 274.658 27.108ZM274.658 26.148C275.05 26.148 275.418 26.056 275.762 25.872C276.106 25.688 276.382 25.412 276.59 25.044C276.806 24.676 276.914 24.228 276.914 23.7C276.914 23.172 276.81 22.724 276.602 22.356C276.394 21.988 276.122 21.716 275.786 21.54C275.45 21.356 275.086 21.264 274.694 21.264C274.294 21.264 273.926 21.356 273.59 21.54C273.262 21.716 272.998 21.988 272.798 22.356C272.598 22.724 272.498 23.172 272.498 23.7C272.498 24.236 272.594 24.688 272.786 25.056C272.986 25.424 273.25 25.7 273.578 25.884C273.906 26.06 274.266 26.148 274.658 26.148ZM285.009 20.304C285.809 20.304 286.457 20.548 286.953 21.036C287.449 21.516 287.697 22.212 287.697 23.124V27H286.617V23.28C286.617 22.624 286.453 22.124 286.125 21.78C285.797 21.428 285.349 21.252 284.781 21.252C284.205 21.252 283.745 21.432 283.401 21.792C283.065 22.152 282.897 22.676 282.897 23.364V27H281.805V20.424H282.897V21.36C283.113 21.024 283.405 20.764 283.773 20.58C284.149 20.396 284.561 20.304 285.009 20.304ZM19.3482 45.108C18.7322 45.108 18.1722 44.968 17.6682 44.688C17.1722 44.408 16.7802 44.012 16.4922 43.5C16.2122 42.98 16.0722 42.38 16.0722 41.7C16.0722 41.028 16.2162 40.436 16.5042 39.924C16.8002 39.404 17.2002 39.008 17.7042 38.736C18.2082 38.456 18.7722 38.316 19.3962 38.316C20.0202 38.316 20.5842 38.456 21.0882 38.736C21.5922 39.008 21.9882 39.4 22.2762 39.912C22.5722 40.424 22.7202 41.02 22.7202 41.7C22.7202 42.38 22.5682 42.98 22.2642 43.5C21.9682 44.012 21.5642 44.408 21.0522 44.688C20.5402 44.968 19.9722 45.108 19.3482 45.108ZM19.3482 44.148C19.7402 44.148 20.1082 44.056 20.4522 43.872C20.7962 43.688 21.0722 43.412 21.2802 43.044C21.4962 42.676 21.6042 42.228 21.6042 41.7C21.6042 41.172 21.5002 40.724 21.2922 40.356C21.0842 39.988 20.8122 39.716 20.4762 39.54C20.1402 39.356 19.7762 39.264 19.3842 39.264C18.9842 39.264 18.6162 39.356 18.2802 39.54C17.9522 39.716 17.6882 39.988 17.4882 40.356C17.2882 40.724 17.1882 41.172 17.1882 41.7C17.1882 42.236 17.2842 42.688 17.4762 43.056C17.6762 43.424 17.9402 43.7 18.2682 43.884C18.5962 44.06 18.9562 44.148 19.3482 44.148ZM29.1719 39.324H27.7919V45H26.6999V39.324H25.8479V38.424H26.6999V37.956C26.6999 37.22 26.8879 36.684 27.2639 36.348C27.6479 36.004 28.2599 35.832 29.0999 35.832V36.744C28.6199 36.744 28.2799 36.84 28.0799 37.032C27.8879 37.216 27.7919 37.524 27.7919 37.956V38.424H29.1719V39.324ZM44.1564 38.424V45H43.0644V44.028C42.8564 44.364 42.5644 44.628 42.1884 44.82C41.8204 45.004 41.4124 45.096 40.9644 45.096C40.4524 45.096 39.9924 44.992 39.5844 44.784C39.1764 44.568 38.8524 44.248 38.6124 43.824C38.3804 43.4 38.2644 42.884 38.2644 42.276V38.424H39.3444V42.132C39.3444 42.78 39.5084 43.28 39.8364 43.632C40.1644 43.976 40.6124 44.148 41.1804 44.148C41.7644 44.148 42.2244 43.968 42.5604 43.608C42.8964 43.248 43.0644 42.724 43.0644 42.036V38.424H44.1564ZM49.4322 39.636C49.6482 39.26 49.9682 38.948 50.3922 38.7C50.8242 38.444 51.3242 38.316 51.8922 38.316C52.4762 38.316 53.0042 38.456 53.4762 38.736C53.9562 39.016 54.3322 39.412 54.6042 39.924C54.8762 40.428 55.0122 41.016 55.0122 41.688C55.0122 42.352 54.8762 42.944 54.6042 43.464C54.3322 43.984 53.9562 44.388 53.4762 44.676C53.0042 44.964 52.4762 45.108 51.8922 45.108C51.3322 45.108 50.8362 44.984 50.4042 44.736C49.9802 44.48 49.6562 44.164 49.4322 43.788V48.12H48.3402V38.424H49.4322V39.636ZM53.8962 41.688C53.8962 41.192 53.7962 40.76 53.5962 40.392C53.3962 40.024 53.1242 39.744 52.7802 39.552C52.4442 39.36 52.0722 39.264 51.6642 39.264C51.2642 39.264 50.8922 39.364 50.5482 39.564C50.2122 39.756 49.9402 40.04 49.7322 40.416C49.5322 40.784 49.4322 41.212 49.4322 41.7C49.4322 42.196 49.5322 42.632 49.7322 43.008C49.9402 43.376 50.2122 43.66 50.5482 43.86C50.8922 44.052 51.2642 44.148 51.6642 44.148C52.0722 44.148 52.4442 44.052 52.7802 43.86C53.1242 43.66 53.3962 43.376 53.5962 43.008C53.7962 42.632 53.8962 42.192 53.8962 41.688ZM59.8815 39.636C60.0975 39.26 60.4175 38.948 60.8415 38.7C61.2735 38.444 61.7735 38.316 62.3415 38.316C62.9255 38.316 63.4535 38.456 63.9255 38.736C64.4055 39.016 64.7815 39.412 65.0535 39.924C65.3255 40.428 65.4615 41.016 65.4615 41.688C65.4615 42.352 65.3255 42.944 65.0535 43.464C64.7815 43.984 64.4055 44.388 63.9255 44.676C63.4535 44.964 62.9255 45.108 62.3415 45.108C61.7815 45.108 61.2855 44.984 60.8535 44.736C60.4295 44.48 60.1055 44.164 59.8815 43.788V48.12H58.7895V38.424H59.8815V39.636ZM64.3455 41.688C64.3455 41.192 64.2455 40.76 64.0455 40.392C63.8455 40.024 63.5735 39.744 63.2295 39.552C62.8935 39.36 62.5215 39.264 62.1135 39.264C61.7135 39.264 61.3415 39.364 60.9975 39.564C60.6615 39.756 60.3895 40.04 60.1815 40.416C59.9815 40.784 59.8815 41.212 59.8815 41.7C59.8815 42.196 59.9815 42.632 60.1815 43.008C60.3895 43.376 60.6615 43.66 60.9975 43.86C61.3415 44.052 61.7135 44.148 62.1135 44.148C62.5215 44.148 62.8935 44.052 63.2295 43.86C63.5735 43.66 63.8455 43.376 64.0455 43.008C64.2455 42.632 64.3455 42.192 64.3455 41.688ZM75.2389 41.46C75.2389 41.668 75.2269 41.888 75.2029 42.12H69.9469C69.9869 42.768 70.2069 43.276 70.6069 43.644C71.0149 44.004 71.5069 44.184 72.0829 44.184C72.5549 44.184 72.9469 44.076 73.2589 43.86C73.5789 43.636 73.8029 43.34 73.9309 42.972H75.1069C74.9309 43.604 74.5789 44.12 74.0509 44.52C73.5229 44.912 72.8669 45.108 72.0829 45.108C71.4589 45.108 70.8989 44.968 70.4029 44.688C69.9149 44.408 69.5309 44.012 69.2509 43.5C68.9709 42.98 68.8309 42.38 68.8309 41.7C68.8309 41.02 68.9669 40.424 69.2389 39.912C69.5109 39.4 69.8909 39.008 70.3789 38.736C70.8749 38.456 71.4429 38.316 72.0829 38.316C72.7069 38.316 73.2589 38.452 73.7389 38.724C74.2189 38.996 74.5869 39.372 74.8429 39.852C75.1069 40.324 75.2389 40.86 75.2389 41.46ZM74.1109 41.232C74.1109 40.816 74.0189 40.46 73.8349 40.164C73.6509 39.86 73.3989 39.632 73.0789 39.48C72.7669 39.32 72.4189 39.24 72.0349 39.24C71.4829 39.24 71.0109 39.416 70.6189 39.768C70.2349 40.12 70.0149 40.608 69.9589 41.232H74.1109ZM80.1123 39.492C80.3043 39.116 80.5763 38.824 80.9283 38.616C81.2883 38.408 81.7243 38.304 82.2363 38.304V39.432H81.9483C80.7243 39.432 80.1123 40.096 80.1123 41.424V45H79.0203V38.424H80.1123V39.492ZM85.4289 41.7C85.4289 41.02 85.5649 40.428 85.8369 39.924C86.1089 39.412 86.4849 39.016 86.9649 38.736C87.4529 38.456 88.0089 38.316 88.6329 38.316C89.4409 38.316 90.1049 38.512 90.6249 38.904C91.1529 39.296 91.5009 39.84 91.6689 40.536H90.4929C90.3809 40.136 90.1609 39.82 89.8329 39.588C89.5129 39.356 89.1129 39.24 88.6329 39.24C88.0089 39.24 87.5049 39.456 87.1209 39.888C86.7369 40.312 86.5449 40.916 86.5449 41.7C86.5449 42.492 86.7369 43.104 87.1209 43.536C87.5049 43.968 88.0089 44.184 88.6329 44.184C89.1129 44.184 89.5129 44.072 89.8329 43.848C90.1529 43.624 90.3729 43.304 90.4929 42.888H91.6689C91.4929 43.56 91.1409 44.1 90.6129 44.508C90.0849 44.908 89.4249 45.108 88.6329 45.108C88.0089 45.108 87.4529 44.968 86.9649 44.688C86.4849 44.408 86.1089 44.012 85.8369 43.5C85.5649 42.988 85.4289 42.388 85.4289 41.7ZM95.0579 41.688C95.0579 41.016 95.1939 40.428 95.4659 39.924C95.7379 39.412 96.1099 39.016 96.5819 38.736C97.0619 38.456 97.5939 38.316 98.1779 38.316C98.7539 38.316 99.2539 38.44 99.6779 38.688C100.102 38.936 100.418 39.248 100.626 39.624V38.424H101.73V45H100.626V43.776C100.41 44.16 100.086 44.48 99.6539 44.736C99.2299 44.984 98.7339 45.108 98.1659 45.108C97.5819 45.108 97.0539 44.964 96.5819 44.676C96.1099 44.388 95.7379 43.984 95.4659 43.464C95.1939 42.944 95.0579 42.352 95.0579 41.688ZM100.626 41.7C100.626 41.204 100.526 40.772 100.326 40.404C100.126 40.036 99.8539 39.756 99.5099 39.564C99.1739 39.364 98.8019 39.264 98.3939 39.264C97.9859 39.264 97.6139 39.36 97.2779 39.552C96.9419 39.744 96.6739 40.024 96.4739 40.392C96.2739 40.76 96.1739 41.192 96.1739 41.688C96.1739 42.192 96.2739 42.632 96.4739 43.008C96.6739 43.376 96.9419 43.66 97.2779 43.86C97.6139 44.052 97.9859 44.148 98.3939 44.148C98.8019 44.148 99.1739 44.052 99.5099 43.86C99.8539 43.66 100.126 43.376 100.326 43.008C100.526 42.632 100.626 42.196 100.626 41.7ZM108.243 45.108C107.739 45.108 107.287 45.024 106.887 44.856C106.487 44.68 106.171 44.44 105.939 44.136C105.707 43.824 105.579 43.468 105.555 43.068H106.683C106.715 43.396 106.867 43.664 107.139 43.872C107.419 44.08 107.783 44.184 108.231 44.184C108.647 44.184 108.975 44.092 109.215 43.908C109.455 43.724 109.575 43.492 109.575 43.212C109.575 42.924 109.447 42.712 109.191 42.576C108.935 42.432 108.539 42.292 108.003 42.156C107.515 42.028 107.115 41.9 106.803 41.772C106.499 41.636 106.235 41.44 106.011 41.184C105.795 40.92 105.687 40.576 105.687 40.152C105.687 39.816 105.787 39.508 105.987 39.228C106.187 38.948 106.471 38.728 106.839 38.568C107.207 38.4 107.627 38.316 108.099 38.316C108.827 38.316 109.415 38.5 109.863 38.868C110.311 39.236 110.551 39.74 110.583 40.38H109.491C109.467 40.036 109.327 39.76 109.071 39.552C108.823 39.344 108.487 39.24 108.063 39.24C107.671 39.24 107.359 39.324 107.127 39.492C106.895 39.66 106.779 39.88 106.779 40.152C106.779 40.368 106.847 40.548 106.983 40.692C107.127 40.828 107.303 40.94 107.511 41.028C107.727 41.108 108.023 41.2 108.399 41.304C108.871 41.432 109.255 41.56 109.551 41.688C109.847 41.808 110.099 41.992 110.307 42.24C110.523 42.488 110.635 42.812 110.643 43.212C110.643 43.572 110.543 43.896 110.343 44.184C110.143 44.472 109.859 44.7 109.491 44.868C109.131 45.028 108.715 45.108 108.243 45.108ZM120.525 41.46C120.525 41.668 120.513 41.888 120.489 42.12H115.233C115.273 42.768 115.493 43.276 115.893 43.644C116.301 44.004 116.793 44.184 117.369 44.184C117.841 44.184 118.233 44.076 118.545 43.86C118.865 43.636 119.089 43.34 119.217 42.972H120.393C120.217 43.604 119.865 44.12 119.337 44.52C118.809 44.912 118.153 45.108 117.369 45.108C116.745 45.108 116.185 44.968 115.689 44.688C115.201 44.408 114.817 44.012 114.537 43.5C114.257 42.98 114.117 42.38 114.117 41.7C114.117 41.02 114.253 40.424 114.525 39.912C114.797 39.4 115.177 39.008 115.665 38.736C116.161 38.456 116.729 38.316 117.369 38.316C117.993 38.316 118.545 38.452 119.025 38.724C119.505 38.996 119.873 39.372 120.129 39.852C120.393 40.324 120.525 40.86 120.525 41.46ZM119.397 41.232C119.397 40.816 119.305 40.46 119.121 40.164C118.937 39.86 118.685 39.632 118.365 39.48C118.053 39.32 117.705 39.24 117.321 39.24C116.769 39.24 116.297 39.416 115.905 39.768C115.521 40.12 115.301 40.608 115.245 41.232H119.397ZM130.937 36.12V45H129.845V36.12H130.937ZM141.139 41.46C141.139 41.668 141.127 41.888 141.103 42.12H135.847C135.887 42.768 136.107 43.276 136.507 43.644C136.915 44.004 137.407 44.184 137.983 44.184C138.455 44.184 138.847 44.076 139.159 43.86C139.479 43.636 139.703 43.34 139.831 42.972H141.007C140.831 43.604 140.479 44.12 139.951 44.52C139.423 44.912 138.767 45.108 137.983 45.108C137.359 45.108 136.799 44.968 136.303 44.688C135.815 44.408 135.431 44.012 135.151 43.5C134.871 42.98 134.731 42.38 134.731 41.7C134.731 41.02 134.867 40.424 135.139 39.912C135.411 39.4 135.791 39.008 136.279 38.736C136.775 38.456 137.343 38.316 137.983 38.316C138.607 38.316 139.159 38.452 139.639 38.724C140.119 38.996 140.487 39.372 140.743 39.852C141.007 40.324 141.139 40.86 141.139 41.46ZM140.011 41.232C140.011 40.816 139.919 40.46 139.735 40.164C139.551 39.86 139.299 39.632 138.979 39.48C138.667 39.32 138.319 39.24 137.935 39.24C137.383 39.24 136.911 39.416 136.519 39.768C136.135 40.12 135.915 40.608 135.859 41.232H140.011ZM146.252 39.324V43.2C146.252 43.52 146.32 43.748 146.456 43.884C146.592 44.012 146.828 44.076 147.164 44.076H147.968V45H146.984C146.376 45 145.92 44.86 145.616 44.58C145.312 44.3 145.16 43.84 145.16 43.2V39.324H144.308V38.424H145.16V36.768H146.252V38.424H147.968V39.324H146.252ZM152.963 39.324V43.2C152.963 43.52 153.031 43.748 153.167 43.884C153.303 44.012 153.539 44.076 153.875 44.076H154.679V45H153.695C153.087 45 152.631 44.86 152.327 44.58C152.023 44.3 151.871 43.84 151.871 43.2V39.324H151.019V38.424H151.871V36.768H152.963V38.424H154.679V39.324H152.963ZM164.342 41.46C164.342 41.668 164.33 41.888 164.306 42.12H159.05C159.09 42.768 159.31 43.276 159.71 43.644C160.118 44.004 160.61 44.184 161.186 44.184C161.658 44.184 162.05 44.076 162.362 43.86C162.682 43.636 162.906 43.34 163.034 42.972H164.21C164.034 43.604 163.682 44.12 163.154 44.52C162.626 44.912 161.97 45.108 161.186 45.108C160.562 45.108 160.002 44.968 159.506 44.688C159.018 44.408 158.634 44.012 158.354 43.5C158.074 42.98 157.934 42.38 157.934 41.7C157.934 41.02 158.07 40.424 158.342 39.912C158.614 39.4 158.994 39.008 159.482 38.736C159.978 38.456 160.546 38.316 161.186 38.316C161.81 38.316 162.362 38.452 162.842 38.724C163.322 38.996 163.69 39.372 163.946 39.852C164.21 40.324 164.342 40.86 164.342 41.46ZM163.214 41.232C163.214 40.816 163.122 40.46 162.938 40.164C162.754 39.86 162.502 39.632 162.182 39.48C161.87 39.32 161.522 39.24 161.138 39.24C160.586 39.24 160.114 39.416 159.722 39.768C159.338 40.12 159.118 40.608 159.062 41.232H163.214ZM169.216 39.492C169.408 39.116 169.68 38.824 170.032 38.616C170.392 38.408 170.828 38.304 171.34 38.304V39.432H171.052C169.828 39.432 169.216 40.096 169.216 41.424V45H168.124V38.424H169.216V39.492ZM177.268 45.108C176.764 45.108 176.312 45.024 175.912 44.856C175.512 44.68 175.196 44.44 174.964 44.136C174.732 43.824 174.604 43.468 174.58 43.068H175.708C175.74 43.396 175.892 43.664 176.164 43.872C176.444 44.08 176.808 44.184 177.256 44.184C177.672 44.184 178 44.092 178.24 43.908C178.48 43.724 178.6 43.492 178.6 43.212C178.6 42.924 178.472 42.712 178.216 42.576C177.96 42.432 177.564 42.292 177.028 42.156C176.54 42.028 176.14 41.9 175.828 41.772C175.524 41.636 175.26 41.44 175.036 41.184C174.82 40.92 174.712 40.576 174.712 40.152C174.712 39.816 174.812 39.508 175.012 39.228C175.212 38.948 175.496 38.728 175.864 38.568C176.232 38.4 176.652 38.316 177.124 38.316C177.852 38.316 178.44 38.5 178.888 38.868C179.336 39.236 179.576 39.74 179.608 40.38H178.516C178.492 40.036 178.352 39.76 178.096 39.552C177.848 39.344 177.512 39.24 177.088 39.24C176.696 39.24 176.384 39.324 176.152 39.492C175.92 39.66 175.804 39.88 175.804 40.152C175.804 40.368 175.872 40.548 176.008 40.692C176.152 40.828 176.328 40.94 176.536 41.028C176.752 41.108 177.048 41.2 177.424 41.304C177.896 41.432 178.28 41.56 178.576 41.688C178.872 41.808 179.124 41.992 179.332 42.24C179.548 42.488 179.66 42.812 179.668 43.212C179.668 43.572 179.568 43.896 179.368 44.184C179.168 44.472 178.884 44.7 178.516 44.868C178.156 45.028 177.74 45.108 177.268 45.108ZM184.678 43.488L183.334 46.716H182.602L183.478 43.488H184.678ZM194.9 36.12V45H193.808V36.12H194.9ZM201.969 45.108C201.353 45.108 200.793 44.968 200.289 44.688C199.793 44.408 199.401 44.012 199.113 43.5C198.833 42.98 198.693 42.38 198.693 41.7C198.693 41.028 198.837 40.436 199.125 39.924C199.421 39.404 199.821 39.008 200.325 38.736C200.829 38.456 201.393 38.316 202.017 38.316C202.641 38.316 203.205 38.456 203.709 38.736C204.213 39.008 204.609 39.4 204.897 39.912C205.193 40.424 205.341 41.02 205.341 41.7C205.341 42.38 205.189 42.98 204.885 43.5C204.589 44.012 204.185 44.408 203.673 44.688C203.161 44.968 202.593 45.108 201.969 45.108ZM201.969 44.148C202.361 44.148 202.729 44.056 203.073 43.872C203.417 43.688 203.693 43.412 203.901 43.044C204.117 42.676 204.225 42.228 204.225 41.7C204.225 41.172 204.121 40.724 203.913 40.356C203.705 39.988 203.433 39.716 203.097 39.54C202.761 39.356 202.397 39.264 202.005 39.264C201.605 39.264 201.237 39.356 200.901 39.54C200.573 39.716 200.309 39.988 200.109 40.356C199.909 40.724 199.809 41.172 199.809 41.7C199.809 42.236 199.905 42.688 200.097 43.056C200.297 43.424 200.561 43.7 200.889 43.884C201.217 44.06 201.577 44.148 201.969 44.148ZM217.877 38.424L215.825 45H214.697L213.113 39.78L211.529 45H210.401L208.337 38.424H209.453L210.965 43.944L212.597 38.424H213.713L215.309 43.956L216.797 38.424H217.877ZM227.3 41.46C227.3 41.668 227.288 41.888 227.264 42.12H222.008C222.048 42.768 222.268 43.276 222.668 43.644C223.076 44.004 223.568 44.184 224.144 44.184C224.616 44.184 225.008 44.076 225.32 43.86C225.64 43.636 225.864 43.34 225.992 42.972H227.168C226.992 43.604 226.64 44.12 226.112 44.52C225.584 44.912 224.928 45.108 224.144 45.108C223.52 45.108 222.96 44.968 222.464 44.688C221.976 44.408 221.592 44.012 221.312 43.5C221.032 42.98 220.892 42.38 220.892 41.7C220.892 41.02 221.028 40.424 221.3 39.912C221.572 39.4 221.952 39.008 222.44 38.736C222.936 38.456 223.504 38.316 224.144 38.316C224.768 38.316 225.32 38.452 225.8 38.724C226.28 38.996 226.648 39.372 226.904 39.852C227.168 40.324 227.3 40.86 227.3 41.46ZM226.172 41.232C226.172 40.816 226.08 40.46 225.896 40.164C225.712 39.86 225.46 39.632 225.14 39.48C224.828 39.32 224.48 39.24 224.096 39.24C223.544 39.24 223.072 39.416 222.68 39.768C222.296 40.12 222.076 40.608 222.02 41.232H226.172ZM232.174 39.492C232.366 39.116 232.638 38.824 232.99 38.616C233.35 38.408 233.786 38.304 234.298 38.304V39.432H234.01C232.786 39.432 232.174 40.096 232.174 41.424V45H231.082V38.424H232.174V39.492ZM237.49 41.7C237.49 41.02 237.626 40.428 237.898 39.924C238.17 39.412 238.546 39.016 239.026 38.736C239.514 38.456 240.07 38.316 240.694 38.316C241.502 38.316 242.166 38.512 242.686 38.904C243.214 39.296 243.562 39.84 243.73 40.536H242.554C242.442 40.136 242.222 39.82 241.894 39.588C241.574 39.356 241.174 39.24 240.694 39.24C240.07 39.24 239.566 39.456 239.182 39.888C238.798 40.312 238.606 40.916 238.606 41.7C238.606 42.492 238.798 43.104 239.182 43.536C239.566 43.968 240.07 44.184 240.694 44.184C241.174 44.184 241.574 44.072 241.894 43.848C242.214 43.624 242.434 43.304 242.554 42.888H243.73C243.554 43.56 243.202 44.1 242.674 44.508C242.146 44.908 241.486 45.108 240.694 45.108C240.07 45.108 239.514 44.968 239.026 44.688C238.546 44.408 238.17 44.012 237.898 43.5C237.626 42.988 237.49 42.388 237.49 41.7ZM247.12 41.688C247.12 41.016 247.256 40.428 247.528 39.924C247.8 39.412 248.172 39.016 248.644 38.736C249.124 38.456 249.656 38.316 250.24 38.316C250.816 38.316 251.316 38.44 251.74 38.688C252.164 38.936 252.48 39.248 252.688 39.624V38.424H253.792V45H252.688V43.776C252.472 44.16 252.148 44.48 251.716 44.736C251.292 44.984 250.796 45.108 250.228 45.108C249.644 45.108 249.116 44.964 248.644 44.676C248.172 44.388 247.8 43.984 247.528 43.464C247.256 42.944 247.12 42.352 247.12 41.688ZM252.688 41.7C252.688 41.204 252.588 40.772 252.388 40.404C252.188 40.036 251.916 39.756 251.572 39.564C251.236 39.364 250.864 39.264 250.456 39.264C250.048 39.264 249.676 39.36 249.34 39.552C249.004 39.744 248.736 40.024 248.536 40.392C248.336 40.76 248.236 41.192 248.236 41.688C248.236 42.192 248.336 42.632 248.536 43.008C248.736 43.376 249.004 43.66 249.34 43.86C249.676 44.052 250.048 44.148 250.456 44.148C250.864 44.148 251.236 44.052 251.572 43.86C251.916 43.66 252.188 43.376 252.388 43.008C252.588 42.632 252.688 42.196 252.688 41.7ZM260.305 45.108C259.801 45.108 259.349 45.024 258.949 44.856C258.549 44.68 258.233 44.44 258.001 44.136C257.769 43.824 257.641 43.468 257.617 43.068H258.745C258.777 43.396 258.929 43.664 259.201 43.872C259.481 44.08 259.845 44.184 260.293 44.184C260.709 44.184 261.037 44.092 261.277 43.908C261.517 43.724 261.637 43.492 261.637 43.212C261.637 42.924 261.509 42.712 261.253 42.576C260.997 42.432 260.601 42.292 260.065 42.156C259.577 42.028 259.177 41.9 258.865 41.772C258.561 41.636 258.297 41.44 258.073 41.184C257.857 40.92 257.749 40.576 257.749 40.152C257.749 39.816 257.849 39.508 258.049 39.228C258.249 38.948 258.533 38.728 258.901 38.568C259.269 38.4 259.689 38.316 260.161 38.316C260.889 38.316 261.477 38.5 261.925 38.868C262.373 39.236 262.613 39.74 262.645 40.38H261.553C261.529 40.036 261.389 39.76 261.133 39.552C260.885 39.344 260.549 39.24 260.125 39.24C259.733 39.24 259.421 39.324 259.189 39.492C258.957 39.66 258.841 39.88 258.841 40.152C258.841 40.368 258.909 40.548 259.045 40.692C259.189 40.828 259.365 40.94 259.573 41.028C259.789 41.108 260.085 41.2 260.461 41.304C260.933 41.432 261.317 41.56 261.613 41.688C261.909 41.808 262.161 41.992 262.369 42.24C262.585 42.488 262.697 42.812 262.705 43.212C262.705 43.572 262.605 43.896 262.405 44.184C262.205 44.472 261.921 44.7 261.553 44.868C261.193 45.028 260.777 45.108 260.305 45.108ZM272.586 41.46C272.586 41.668 272.574 41.888 272.55 42.12H267.294C267.334 42.768 267.554 43.276 267.954 43.644C268.362 44.004 268.854 44.184 269.43 44.184C269.902 44.184 270.294 44.076 270.606 43.86C270.926 43.636 271.15 43.34 271.278 42.972H272.454C272.278 43.604 271.926 44.12 271.398 44.52C270.87 44.912 270.214 45.108 269.43 45.108C268.806 45.108 268.246 44.968 267.75 44.688C267.262 44.408 266.878 44.012 266.598 43.5C266.318 42.98 266.178 42.38 266.178 41.7C266.178 41.02 266.314 40.424 266.586 39.912C266.858 39.4 267.238 39.008 267.726 38.736C268.222 38.456 268.79 38.316 269.43 38.316C270.054 38.316 270.606 38.452 271.086 38.724C271.566 38.996 271.934 39.372 272.19 39.852C272.454 40.324 272.586 40.86 272.586 41.46ZM271.458 41.232C271.458 40.816 271.366 40.46 271.182 40.164C270.998 39.86 270.746 39.632 270.426 39.48C270.114 39.32 269.766 39.24 269.382 39.24C268.83 39.24 268.358 39.416 267.966 39.768C267.582 40.12 267.362 40.608 267.306 41.232H271.458ZM22.3321 54.12V63H21.2401V54.12H22.3321ZM32.5332 59.46C32.5332 59.668 32.5212 59.888 32.4972 60.12H27.2412C27.2812 60.768 27.5012 61.276 27.9012 61.644C28.3092 62.004 28.8012 62.184 29.3772 62.184C29.8492 62.184 30.2412 62.076 30.5532 61.86C30.8732 61.636 31.0972 61.34 31.2252 60.972H32.4012C32.2252 61.604 31.8732 62.12 31.3452 62.52C30.8172 62.912 30.1612 63.108 29.3772 63.108C28.7532 63.108 28.1932 62.968 27.6972 62.688C27.2092 62.408 26.8252 62.012 26.5452 61.5C26.2652 60.98 26.1252 60.38 26.1252 59.7C26.1252 59.02 26.2612 58.424 26.5332 57.912C26.8052 57.4 27.1852 57.008 27.6732 56.736C28.1692 56.456 28.7372 56.316 29.3772 56.316C30.0012 56.316 30.5532 56.452 31.0332 56.724C31.5132 56.996 31.8812 57.372 32.1372 57.852C32.4012 58.324 32.5332 58.86 32.5332 59.46ZM31.4052 59.232C31.4052 58.816 31.3132 58.46 31.1292 58.164C30.9452 57.86 30.6932 57.632 30.3732 57.48C30.0612 57.32 29.7132 57.24 29.3292 57.24C28.7772 57.24 28.3052 57.416 27.9132 57.768C27.5292 58.12 27.3092 58.608 27.2532 59.232H31.4052ZM37.6466 57.324V61.2C37.6466 61.52 37.7146 61.748 37.8506 61.884C37.9866 62.012 38.2226 62.076 38.5586 62.076H39.3626V63H38.3786C37.7706 63 37.3146 62.86 37.0106 62.58C36.7066 62.3 36.5546 61.84 36.5546 61.2V57.324H35.7026V56.424H36.5546V54.768H37.6466V56.424H39.3626V57.324H37.6466ZM44.3577 57.324V61.2C44.3577 61.52 44.4257 61.748 44.5617 61.884C44.6977 62.012 44.9337 62.076 45.2697 62.076H46.0737V63H45.0897C44.4817 63 44.0257 62.86 43.7217 62.58C43.4177 62.3 43.2657 61.84 43.2657 61.2V57.324H42.4137V56.424H43.2657V54.768H44.3577V56.424H46.0737V57.324H44.3577ZM55.7368 59.46C55.7368 59.668 55.7248 59.888 55.7008 60.12H50.4448C50.4848 60.768 50.7048 61.276 51.1048 61.644C51.5128 62.004 52.0048 62.184 52.5808 62.184C53.0528 62.184 53.4448 62.076 53.7568 61.86C54.0768 61.636 54.3008 61.34 54.4288 60.972H55.6048C55.4288 61.604 55.0768 62.12 54.5488 62.52C54.0208 62.912 53.3648 63.108 52.5808 63.108C51.9568 63.108 51.3968 62.968 50.9008 62.688C50.4128 62.408 50.0288 62.012 49.7488 61.5C49.4688 60.98 49.3288 60.38 49.3288 59.7C49.3288 59.02 49.4648 58.424 49.7368 57.912C50.0088 57.4 50.3888 57.008 50.8768 56.736C51.3728 56.456 51.9408 56.316 52.5808 56.316C53.2048 56.316 53.7568 56.452 54.2368 56.724C54.7168 56.996 55.0848 57.372 55.3408 57.852C55.6048 58.324 55.7368 58.86 55.7368 59.46ZM54.6088 59.232C54.6088 58.816 54.5168 58.46 54.3328 58.164C54.1488 57.86 53.8968 57.632 53.5768 57.48C53.2648 57.32 52.9168 57.24 52.5328 57.24C51.9808 57.24 51.5088 57.416 51.1168 57.768C50.7328 58.12 50.5128 58.608 50.4568 59.232H54.6088ZM60.6102 57.492C60.8022 57.116 61.0742 56.824 61.4262 56.616C61.7862 56.408 62.2222 56.304 62.7342 56.304V57.432H62.4462C61.2222 57.432 60.6102 58.096 60.6102 59.424V63H59.5182V56.424H60.6102V57.492ZM68.6628 63.108C68.1588 63.108 67.7068 63.024 67.3068 62.856C66.9068 62.68 66.5908 62.44 66.3588 62.136C66.1268 61.824 65.9988 61.468 65.9748 61.068H67.1028C67.1348 61.396 67.2868 61.664 67.5588 61.872C67.8388 62.08 68.2028 62.184 68.6508 62.184C69.0668 62.184 69.3948 62.092 69.6348 61.908C69.8748 61.724 69.9948 61.492 69.9948 61.212C69.9948 60.924 69.8668 60.712 69.6108 60.576C69.3548 60.432 68.9588 60.292 68.4228 60.156C67.9348 60.028 67.5348 59.9 67.2228 59.772C66.9188 59.636 66.6548 59.44 66.4308 59.184C66.2148 58.92 66.1068 58.576 66.1068 58.152C66.1068 57.816 66.2068 57.508 66.4068 57.228C66.6068 56.948 66.8908 56.728 67.2588 56.568C67.6268 56.4 68.0468 56.316 68.5188 56.316C69.2468 56.316 69.8348 56.5 70.2828 56.868C70.7308 57.236 70.9708 57.74 71.0028 58.38H69.9108C69.8868 58.036 69.7468 57.76 69.4908 57.552C69.2428 57.344 68.9068 57.24 68.4828 57.24C68.0908 57.24 67.7788 57.324 67.5468 57.492C67.3148 57.66 67.1988 57.88 67.1988 58.152C67.1988 58.368 67.2668 58.548 67.4028 58.692C67.5468 58.828 67.7228 58.94 67.9308 59.028C68.1468 59.108 68.4428 59.2 68.8188 59.304C69.2908 59.432 69.6748 59.56 69.9708 59.688C70.2668 59.808 70.5188 59.992 70.7268 60.24C70.9428 60.488 71.0548 60.812 71.0628 61.212C71.0628 61.572 70.9628 61.896 70.7628 62.184C70.5628 62.472 70.2788 62.7 69.9108 62.868C69.5508 63.028 69.1348 63.108 68.6628 63.108ZM76.0723 61.488L74.7283 64.716H73.9963L74.8723 61.488H76.0723ZM88.4064 56.304C89.2064 56.304 89.8544 56.548 90.3504 57.036C90.8464 57.516 91.0944 58.212 91.0944 59.124V63H90.0144V59.28C90.0144 58.624 89.8504 58.124 89.5224 57.78C89.1944 57.428 88.7464 57.252 88.1784 57.252C87.6024 57.252 87.1424 57.432 86.7984 57.792C86.4624 58.152 86.2944 58.676 86.2944 59.364V63H85.2024V56.424H86.2944V57.36C86.5104 57.024 86.8024 56.764 87.1704 56.58C87.5464 56.396 87.9584 56.304 88.4064 56.304ZM101.05 56.424V63H99.9582V62.028C99.7502 62.364 99.4582 62.628 99.0822 62.82C98.7142 63.004 98.3062 63.096 97.8582 63.096C97.3462 63.096 96.8862 62.992 96.4782 62.784C96.0702 62.568 95.7462 62.248 95.5062 61.824C95.2742 61.4 95.1582 60.884 95.1582 60.276V56.424H96.2382V60.132C96.2382 60.78 96.4022 61.28 96.7302 61.632C97.0582 61.976 97.5062 62.148 98.0742 62.148C98.6582 62.148 99.1182 61.968 99.4542 61.608C99.7902 61.248 99.9582 60.724 99.9582 60.036V56.424H101.05ZM113.142 56.304C113.654 56.304 114.11 56.412 114.51 56.628C114.91 56.836 115.226 57.152 115.458 57.576C115.69 58 115.806 58.516 115.806 59.124V63H114.726V59.28C114.726 58.624 114.562 58.124 114.234 57.78C113.914 57.428 113.478 57.252 112.926 57.252C112.358 57.252 111.906 57.436 111.57 57.804C111.234 58.164 111.066 58.688 111.066 59.376V63H109.986V59.28C109.986 58.624 109.822 58.124 109.494 57.78C109.174 57.428 108.738 57.252 108.186 57.252C107.618 57.252 107.166 57.436 106.83 57.804C106.494 58.164 106.326 58.688 106.326 59.376V63H105.234V56.424H106.326V57.372C106.542 57.028 106.83 56.764 107.19 56.58C107.558 56.396 107.962 56.304 108.402 56.304C108.954 56.304 109.442 56.428 109.866 56.676C110.29 56.924 110.606 57.288 110.814 57.768C110.998 57.304 111.302 56.944 111.726 56.688C112.15 56.432 112.622 56.304 113.142 56.304ZM121.029 57.648C121.253 57.256 121.581 56.936 122.013 56.688C122.445 56.44 122.937 56.316 123.489 56.316C124.081 56.316 124.613 56.456 125.085 56.736C125.557 57.016 125.929 57.412 126.201 57.924C126.473 58.428 126.609 59.016 126.609 59.688C126.609 60.352 126.473 60.944 126.201 61.464C125.929 61.984 125.553 62.388 125.073 62.676C124.601 62.964 124.073 63.108 123.489 63.108C122.921 63.108 122.421 62.984 121.989 62.736C121.565 62.488 121.245 62.172 121.029 61.788V63H119.937V54.12H121.029V57.648ZM125.493 59.688C125.493 59.192 125.393 58.76 125.193 58.392C124.993 58.024 124.721 57.744 124.377 57.552C124.041 57.36 123.669 57.264 123.261 57.264C122.861 57.264 122.489 57.364 122.145 57.564C121.809 57.756 121.537 58.04 121.329 58.416C121.129 58.784 121.029 59.212 121.029 59.7C121.029 60.196 121.129 60.632 121.329 61.008C121.537 61.376 121.809 61.66 122.145 61.86C122.489 62.052 122.861 62.148 123.261 62.148C123.669 62.148 124.041 62.052 124.377 61.86C124.721 61.66 124.993 61.376 125.193 61.008C125.393 60.632 125.493 60.192 125.493 59.688ZM136.387 59.46C136.387 59.668 136.375 59.888 136.351 60.12H131.095C131.135 60.768 131.355 61.276 131.755 61.644C132.163 62.004 132.655 62.184 133.231 62.184C133.703 62.184 134.095 62.076 134.407 61.86C134.727 61.636 134.951 61.34 135.079 60.972H136.255C136.079 61.604 135.727 62.12 135.199 62.52C134.671 62.912 134.015 63.108 133.231 63.108C132.607 63.108 132.047 62.968 131.551 62.688C131.063 62.408 130.679 62.012 130.399 61.5C130.119 60.98 129.979 60.38 129.979 59.7C129.979 59.02 130.115 58.424 130.387 57.912C130.659 57.4 131.039 57.008 131.527 56.736C132.023 56.456 132.591 56.316 133.231 56.316C133.855 56.316 134.407 56.452 134.887 56.724C135.367 56.996 135.735 57.372 135.991 57.852C136.255 58.324 136.387 58.86 136.387 59.46ZM135.259 59.232C135.259 58.816 135.167 58.46 134.983 58.164C134.799 57.86 134.547 57.632 134.227 57.48C133.915 57.32 133.567 57.24 133.183 57.24C132.631 57.24 132.159 57.416 131.767 57.768C131.383 58.12 131.163 58.608 131.107 59.232H135.259ZM141.26 57.492C141.452 57.116 141.724 56.824 142.076 56.616C142.436 56.408 142.872 56.304 143.384 56.304V57.432H143.096C141.872 57.432 141.26 58.096 141.26 59.424V63H140.168V56.424H141.26V57.492ZM149.313 63.108C148.809 63.108 148.357 63.024 147.957 62.856C147.557 62.68 147.241 62.44 147.009 62.136C146.777 61.824 146.649 61.468 146.625 61.068H147.753C147.785 61.396 147.937 61.664 148.209 61.872C148.489 62.08 148.853 62.184 149.301 62.184C149.717 62.184 150.045 62.092 150.285 61.908C150.525 61.724 150.645 61.492 150.645 61.212C150.645 60.924 150.517 60.712 150.261 60.576C150.005 60.432 149.609 60.292 149.073 60.156C148.585 60.028 148.185 59.9 147.873 59.772C147.569 59.636 147.305 59.44 147.081 59.184C146.865 58.92 146.757 58.576 146.757 58.152C146.757 57.816 146.857 57.508 147.057 57.228C147.257 56.948 147.541 56.728 147.909 56.568C148.277 56.4 148.697 56.316 149.169 56.316C149.897 56.316 150.485 56.5 150.933 56.868C151.381 57.236 151.621 57.74 151.653 58.38H150.561C150.537 58.036 150.397 57.76 150.141 57.552C149.893 57.344 149.557 57.24 149.133 57.24C148.741 57.24 148.429 57.324 148.197 57.492C147.965 57.66 147.849 57.88 147.849 58.152C147.849 58.368 147.917 58.548 148.053 58.692C148.197 58.828 148.373 58.94 148.581 59.028C148.797 59.108 149.093 59.2 149.469 59.304C149.941 59.432 150.325 59.56 150.621 59.688C150.917 59.808 151.169 59.992 151.377 60.24C151.593 60.488 151.705 60.812 151.713 61.212C151.713 61.572 151.613 61.896 151.413 62.184C151.213 62.472 150.929 62.7 150.561 62.868C150.201 63.028 149.785 63.108 149.313 63.108ZM156.722 61.488L155.378 64.716H154.646L155.522 61.488H156.722ZM165.444 59.688C165.444 59.016 165.58 58.428 165.852 57.924C166.124 57.412 166.496 57.016 166.968 56.736C167.448 56.456 167.98 56.316 168.564 56.316C169.14 56.316 169.64 56.44 170.064 56.688C170.488 56.936 170.804 57.248 171.012 57.624V56.424H172.116V63H171.012V61.776C170.796 62.16 170.472 62.48 170.04 62.736C169.616 62.984 169.12 63.108 168.552 63.108C167.968 63.108 167.44 62.964 166.968 62.676C166.496 62.388 166.124 61.984 165.852 61.464C165.58 60.944 165.444 60.352 165.444 59.688ZM171.012 59.7C171.012 59.204 170.912 58.772 170.712 58.404C170.512 58.036 170.24 57.756 169.896 57.564C169.56 57.364 169.188 57.264 168.78 57.264C168.372 57.264 168 57.36 167.664 57.552C167.328 57.744 167.06 58.024 166.86 58.392C166.66 58.76 166.56 59.192 166.56 59.688C166.56 60.192 166.66 60.632 166.86 61.008C167.06 61.376 167.328 61.66 167.664 61.86C168 62.052 168.372 62.148 168.78 62.148C169.188 62.148 169.56 62.052 169.896 61.86C170.24 61.66 170.512 61.376 170.712 61.008C170.912 60.632 171.012 60.196 171.012 59.7ZM179.506 56.304C180.306 56.304 180.954 56.548 181.45 57.036C181.946 57.516 182.194 58.212 182.194 59.124V63H181.114V59.28C181.114 58.624 180.95 58.124 180.622 57.78C180.294 57.428 179.846 57.252 179.278 57.252C178.702 57.252 178.242 57.432 177.898 57.792C177.562 58.152 177.394 58.676 177.394 59.364V63H176.302V56.424H177.394V57.36C177.61 57.024 177.902 56.764 178.27 56.58C178.646 56.396 179.058 56.304 179.506 56.304ZM185.909 59.688C185.909 59.016 186.045 58.428 186.317 57.924C186.589 57.412 186.961 57.016 187.433 56.736C187.913 56.456 188.449 56.316 189.041 56.316C189.553 56.316 190.029 56.436 190.469 56.676C190.909 56.908 191.245 57.216 191.477 57.6V54.12H192.581V63H191.477V61.764C191.261 62.156 190.941 62.48 190.517 62.736C190.093 62.984 189.597 63.108 189.029 63.108C188.445 63.108 187.913 62.964 187.433 62.676C186.961 62.388 186.589 61.984 186.317 61.464C186.045 60.944 185.909 60.352 185.909 59.688ZM191.477 59.7C191.477 59.204 191.377 58.772 191.177 58.404C190.977 58.036 190.705 57.756 190.361 57.564C190.025 57.364 189.653 57.264 189.245 57.264C188.837 57.264 188.465 57.36 188.129 57.552C187.793 57.744 187.525 58.024 187.325 58.392C187.125 58.76 187.025 59.192 187.025 59.688C187.025 60.192 187.125 60.632 187.325 61.008C187.525 61.376 187.793 61.66 188.129 61.86C188.465 62.052 188.837 62.148 189.245 62.148C189.653 62.148 190.025 62.052 190.361 61.86C190.705 61.66 190.977 61.376 191.177 61.008C191.377 60.632 191.477 60.196 191.477 59.7ZM204.634 63.108C204.13 63.108 203.678 63.024 203.278 62.856C202.878 62.68 202.562 62.44 202.33 62.136C202.098 61.824 201.97 61.468 201.946 61.068H203.074C203.106 61.396 203.258 61.664 203.53 61.872C203.81 62.08 204.174 62.184 204.622 62.184C205.038 62.184 205.366 62.092 205.606 61.908C205.846 61.724 205.966 61.492 205.966 61.212C205.966 60.924 205.838 60.712 205.582 60.576C205.326 60.432 204.93 60.292 204.394 60.156C203.906 60.028 203.506 59.9 203.194 59.772C202.89 59.636 202.626 59.44 202.402 59.184C202.186 58.92 202.078 58.576 202.078 58.152C202.078 57.816 202.178 57.508 202.378 57.228C202.578 56.948 202.862 56.728 203.23 56.568C203.598 56.4 204.018 56.316 204.49 56.316C205.218 56.316 205.806 56.5 206.254 56.868C206.702 57.236 206.942 57.74 206.974 58.38H205.882C205.858 58.036 205.718 57.76 205.462 57.552C205.214 57.344 204.878 57.24 204.454 57.24C204.062 57.24 203.75 57.324 203.518 57.492C203.286 57.66 203.17 57.88 203.17 58.152C203.17 58.368 203.238 58.548 203.374 58.692C203.518 58.828 203.694 58.94 203.902 59.028C204.118 59.108 204.414 59.2 204.79 59.304C205.262 59.432 205.646 59.56 205.942 59.688C206.238 59.808 206.49 59.992 206.698 60.24C206.914 60.488 207.026 60.812 207.034 61.212C207.034 61.572 206.934 61.896 206.734 62.184C206.534 62.472 206.25 62.7 205.882 62.868C205.522 63.028 205.106 63.108 204.634 63.108ZM216.58 56.424L212.62 66.096H211.492L212.788 62.928L210.136 56.424H211.348L213.412 61.752L215.452 56.424H216.58ZM227.925 56.304C228.437 56.304 228.893 56.412 229.293 56.628C229.693 56.836 230.009 57.152 230.241 57.576C230.473 58 230.589 58.516 230.589 59.124V63H229.509V59.28C229.509 58.624 229.345 58.124 229.017 57.78C228.697 57.428 228.261 57.252 227.709 57.252C227.141 57.252 226.689 57.436 226.353 57.804C226.017 58.164 225.849 58.688 225.849 59.376V63H224.769V59.28C224.769 58.624 224.605 58.124 224.277 57.78C223.957 57.428 223.521 57.252 222.969 57.252C222.401 57.252 221.949 57.436 221.613 57.804C221.277 58.164 221.109 58.688 221.109 59.376V63H220.017V56.424H221.109V57.372C221.325 57.028 221.613 56.764 221.973 56.58C222.341 56.396 222.745 56.304 223.185 56.304C223.737 56.304 224.225 56.428 224.649 56.676C225.073 56.924 225.389 57.288 225.597 57.768C225.781 57.304 226.085 56.944 226.509 56.688C226.933 56.432 227.405 56.304 227.925 56.304ZM235.813 57.648C236.037 57.256 236.365 56.936 236.797 56.688C237.229 56.44 237.721 56.316 238.273 56.316C238.865 56.316 239.397 56.456 239.869 56.736C240.341 57.016 240.713 57.412 240.985 57.924C241.257 58.428 241.393 59.016 241.393 59.688C241.393 60.352 241.257 60.944 240.985 61.464C240.713 61.984 240.337 62.388 239.857 62.676C239.385 62.964 238.857 63.108 238.273 63.108C237.705 63.108 237.205 62.984 236.773 62.736C236.349 62.488 236.029 62.172 235.813 61.788V63H234.721V54.12H235.813V57.648ZM240.277 59.688C240.277 59.192 240.177 58.76 239.977 58.392C239.777 58.024 239.505 57.744 239.161 57.552C238.825 57.36 238.453 57.264 238.045 57.264C237.645 57.264 237.273 57.364 236.929 57.564C236.593 57.756 236.321 58.04 236.113 58.416C235.913 58.784 235.813 59.212 235.813 59.7C235.813 60.196 235.913 60.632 236.113 61.008C236.321 61.376 236.593 61.66 236.929 61.86C237.273 62.052 237.645 62.148 238.045 62.148C238.453 62.148 238.825 62.052 239.161 61.86C239.505 61.66 239.777 61.376 239.977 61.008C240.177 60.632 240.277 60.192 240.277 59.688ZM248.038 63.108C247.422 63.108 246.862 62.968 246.358 62.688C245.862 62.408 245.47 62.012 245.182 61.5C244.902 60.98 244.762 60.38 244.762 59.7C244.762 59.028 244.906 58.436 245.194 57.924C245.49 57.404 245.89 57.008 246.394 56.736C246.898 56.456 247.462 56.316 248.086 56.316C248.71 56.316 249.274 56.456 249.778 56.736C250.282 57.008 250.678 57.4 250.966 57.912C251.262 58.424 251.41 59.02 251.41 59.7C251.41 60.38 251.258 60.98 250.954 61.5C250.658 62.012 250.254 62.408 249.742 62.688C249.23 62.968 248.662 63.108 248.038 63.108ZM248.038 62.148C248.43 62.148 248.798 62.056 249.142 61.872C249.486 61.688 249.762 61.412 249.97 61.044C250.186 60.676 250.294 60.228 250.294 59.7C250.294 59.172 250.19 58.724 249.982 58.356C249.774 57.988 249.502 57.716 249.166 57.54C248.83 57.356 248.466 57.264 248.074 57.264C247.674 57.264 247.306 57.356 246.97 57.54C246.642 57.716 246.378 57.988 246.178 58.356C245.978 58.724 245.878 59.172 245.878 59.7C245.878 60.236 245.974 60.688 246.166 61.056C246.366 61.424 246.63 61.7 246.958 61.884C247.286 62.06 247.646 62.148 248.038 62.148ZM256.278 54.12V63H255.186V54.12H256.278ZM262.807 63.108C262.303 63.108 261.851 63.024 261.451 62.856C261.051 62.68 260.735 62.44 260.503 62.136C260.271 61.824 260.143 61.468 260.119 61.068H261.247C261.279 61.396 261.431 61.664 261.703 61.872C261.983 62.08 262.347 62.184 262.795 62.184C263.211 62.184 263.539 62.092 263.779 61.908C264.019 61.724 264.139 61.492 264.139 61.212C264.139 60.924 264.011 60.712 263.755 60.576C263.499 60.432 263.103 60.292 262.567 60.156C262.079 60.028 261.679 59.9 261.367 59.772C261.063 59.636 260.799 59.44 260.575 59.184C260.359 58.92 260.251 58.576 260.251 58.152C260.251 57.816 260.351 57.508 260.551 57.228C260.751 56.948 261.035 56.728 261.403 56.568C261.771 56.4 262.191 56.316 262.663 56.316C263.391 56.316 263.979 56.5 264.427 56.868C264.875 57.236 265.115 57.74 265.147 58.38H264.055C264.031 58.036 263.891 57.76 263.635 57.552C263.387 57.344 263.051 57.24 262.627 57.24C262.235 57.24 261.923 57.324 261.691 57.492C261.459 57.66 261.343 57.88 261.343 58.152C261.343 58.368 261.411 58.548 261.547 58.692C261.691 58.828 261.867 58.94 262.075 59.028C262.291 59.108 262.587 59.2 262.963 59.304C263.435 59.432 263.819 59.56 264.115 59.688C264.411 59.808 264.663 59.992 264.871 60.24C265.087 60.488 265.199 60.812 265.207 61.212C265.207 61.572 265.107 61.896 264.907 62.184C264.707 62.472 264.423 62.7 264.055 62.868C263.695 63.028 263.279 63.108 262.807 63.108ZM269.436 63.072C269.228 63.072 269.052 63 268.908 62.856C268.764 62.712 268.692 62.536 268.692 62.328C268.692 62.12 268.764 61.944 268.908 61.8C269.052 61.656 269.228 61.584 269.436 61.584C269.636 61.584 269.804 61.656 269.94 61.8C270.084 61.944 270.156 62.12 270.156 62.328C270.156 62.536 270.084 62.712 269.94 62.856C269.804 63 269.636 63.072 269.436 63.072Z" fill="black"/>
</svg>
