<svg width="198" height="90" viewBox="0 0 198 90" fill="none" xmlns="http://www.w3.org/2000/svg">
<path d="M58.8273 29L52.9873 18.4H51.3473V29H44.5073V0.919999H55.9873C58.2007 0.919999 60.0807 1.30667 61.6273 2.08C63.2007 2.85333 64.374 3.92 65.1473 5.28C65.9207 6.61333 66.3073 8.10667 66.3073 9.76C66.3073 11.6267 65.774 13.2933 64.7073 14.76C63.6673 16.2267 62.1207 17.2667 60.0673 17.88L66.5473 29H58.8273ZM51.3473 13.56H55.5873C56.8407 13.56 57.774 13.2533 58.3873 12.64C59.0273 12.0267 59.3473 11.16 59.3473 10.04C59.3473 8.97333 59.0273 8.13333 58.3873 7.52C57.774 6.90667 56.8407 6.6 55.5873 6.6H51.3473V13.56ZM91.6411 17.48C91.6411 18.12 91.6011 18.7867 91.5211 19.48H76.0411C76.1478 20.8667 76.5878 21.9333 77.3611 22.68C78.1611 23.4 79.1344 23.76 80.2811 23.76C81.9878 23.76 83.1744 23.04 83.8411 21.6H91.1211C90.7478 23.0667 90.0678 24.3867 89.0811 25.56C88.1211 26.7333 86.9078 27.6533 85.4411 28.32C83.9744 28.9867 82.3344 29.32 80.5211 29.32C78.3344 29.32 76.3878 28.8533 74.6811 27.92C72.9744 26.9867 71.6411 25.6533 70.6811 23.92C69.7211 22.1867 69.2411 20.16 69.2411 17.84C69.2411 15.52 69.7078 13.4933 70.6411 11.76C71.6011 10.0267 72.9344 8.69333 74.6411 7.76C76.3478 6.82667 78.3078 6.36 80.5211 6.36C82.6811 6.36 84.6011 6.81333 86.2811 7.72C87.9611 8.62667 89.2678 9.92 90.2011 11.6C91.1611 13.28 91.6411 15.24 91.6411 17.48ZM84.6411 15.68C84.6411 14.5067 84.2411 13.5733 83.4411 12.88C82.6411 12.1867 81.6411 11.84 80.4411 11.84C79.2944 11.84 78.3211 12.1733 77.5211 12.84C76.7478 13.5067 76.2678 14.4533 76.0811 15.68H84.6411ZM104.33 29.32C102.383 29.32 100.65 28.9867 99.1295 28.32C97.6095 27.6533 96.4095 26.7467 95.5295 25.6C94.6495 24.4267 94.1562 23.12 94.0495 21.68H100.81C100.89 22.4533 101.25 23.08 101.89 23.56C102.53 24.04 103.316 24.28 104.25 24.28C105.103 24.28 105.756 24.12 106.21 23.8C106.69 23.4533 106.93 23.0133 106.93 22.48C106.93 21.84 106.596 21.3733 105.93 21.08C105.263 20.76 104.183 20.4133 102.69 20.04C101.09 19.6667 99.7562 19.28 98.6895 18.88C97.6229 18.4533 96.7029 17.8 95.9295 16.92C95.1562 16.0133 94.7695 14.8 94.7695 13.28C94.7695 12 95.1162 10.84 95.8095 9.8C96.5295 8.73333 97.5695 7.89333 98.9295 7.28C100.316 6.66666 101.956 6.36 103.85 6.36C106.65 6.36 108.85 7.05333 110.45 8.44C112.076 9.82667 113.01 11.6667 113.25 13.96H106.93C106.823 13.1867 106.476 12.5733 105.89 12.12C105.33 11.6667 104.583 11.44 103.65 11.44C102.85 11.44 102.236 11.6 101.81 11.92C101.383 12.2133 101.17 12.6267 101.17 13.16C101.17 13.8 101.503 14.28 102.17 14.6C102.863 14.92 103.93 15.24 105.37 15.56C107.023 15.9867 108.37 16.4133 109.41 16.84C110.45 17.24 111.356 17.9067 112.13 18.84C112.93 19.7467 113.343 20.9733 113.37 22.52C113.37 23.8267 112.996 25 112.25 26.04C111.53 27.0533 110.476 27.8533 109.09 28.44C107.73 29.0267 106.143 29.32 104.33 29.32ZM138.594 17.48C138.594 18.12 138.554 18.7867 138.474 19.48H122.994C123.101 20.8667 123.541 21.9333 124.314 22.68C125.114 23.4 126.088 23.76 127.234 23.76C128.941 23.76 130.128 23.04 130.794 21.6H138.074C137.701 23.0667 137.021 24.3867 136.034 25.56C135.074 26.7333 133.861 27.6533 132.394 28.32C130.928 28.9867 129.288 29.32 127.474 29.32C125.288 29.32 123.341 28.8533 121.634 27.92C119.928 26.9867 118.594 25.6533 117.634 23.92C116.674 22.1867 116.194 20.16 116.194 17.84C116.194 15.52 116.661 13.4933 117.594 11.76C118.554 10.0267 119.888 8.69333 121.594 7.76C123.301 6.82667 125.261 6.36 127.474 6.36C129.634 6.36 131.554 6.81333 133.234 7.72C134.914 8.62667 136.221 9.92 137.154 11.6C138.114 13.28 138.594 15.24 138.594 17.48ZM131.594 15.68C131.594 14.5067 131.194 13.5733 130.394 12.88C129.594 12.1867 128.594 11.84 127.394 11.84C126.248 11.84 125.274 12.1733 124.474 12.84C123.701 13.5067 123.221 14.4533 123.034 15.68H131.594ZM154.643 23.2V29H151.163C148.683 29 146.749 28.4 145.363 27.2C143.976 25.9733 143.283 23.9867 143.283 21.24V12.36H140.563V6.68H143.283V1.24H150.123V6.68H154.603V12.36H150.123V21.32C150.123 21.9867 150.283 22.4667 150.603 22.76C150.923 23.0533 151.456 23.2 152.203 23.2H154.643ZM22.3331 69.96C22.3331 71.5867 21.9598 73.08 21.2131 74.44C20.4665 75.7733 19.3198 76.8533 17.7731 77.68C16.2265 78.5067 14.3065 78.92 12.0131 78.92H7.77313V89H0.933125V60.92H12.0131C14.2531 60.92 16.1465 61.3067 17.6931 62.08C19.2398 62.8533 20.3998 63.92 21.1731 65.28C21.9465 66.64 22.3331 68.2 22.3331 69.96ZM11.4931 73.48C12.7998 73.48 13.7731 73.1733 14.4131 72.56C15.0531 71.9467 15.3731 71.08 15.3731 69.96C15.3731 68.84 15.0531 67.9733 14.4131 67.36C13.7731 66.7467 12.7998 66.44 11.4931 66.44H7.77313V73.48H11.4931ZM24.5341 77.8C24.5341 75.5067 24.9607 73.4933 25.8141 71.76C26.6941 70.0267 27.8807 68.6933 29.3741 67.76C30.8674 66.8267 32.5341 66.36 34.3741 66.36C35.9474 66.36 37.3207 66.68 38.4941 67.32C39.6941 67.96 40.6141 68.8 41.2541 69.84V66.68H48.0941V89H41.2541V85.84C40.5874 86.88 39.6541 87.72 38.4541 88.36C37.2807 89 35.9074 89.32 34.3341 89.32C32.5207 89.32 30.8674 88.8533 29.3741 87.92C27.8807 86.96 26.6941 85.6133 25.8141 83.88C24.9607 82.12 24.5341 80.0933 24.5341 77.8ZM41.2541 77.84C41.2541 76.1333 40.7741 74.7867 39.8141 73.8C38.8807 72.8133 37.7341 72.32 36.3741 72.32C35.0141 72.32 33.8541 72.8133 32.8941 73.8C31.9607 74.76 31.4941 76.0933 31.4941 77.8C31.4941 79.5067 31.9607 80.8667 32.8941 81.88C33.8541 82.8667 35.0141 83.36 36.3741 83.36C37.7341 83.36 38.8807 82.8667 39.8141 81.88C40.7741 80.8933 41.2541 79.5467 41.2541 77.84ZM62.1225 89.32C60.1758 89.32 58.4425 88.9867 56.9225 88.32C55.4025 87.6533 54.2025 86.7467 53.3225 85.6C52.4425 84.4267 51.9492 83.12 51.8425 81.68H58.6025C58.6825 82.4533 59.0425 83.08 59.6825 83.56C60.3225 84.04 61.1092 84.28 62.0425 84.28C62.8958 84.28 63.5492 84.12 64.0025 83.8C64.4825 83.4533 64.7225 83.0133 64.7225 82.48C64.7225 81.84 64.3892 81.3733 63.7225 81.08C63.0558 80.76 61.9758 80.4133 60.4825 80.04C58.8825 79.6667 57.5492 79.28 56.4825 78.88C55.4158 78.4533 54.4958 77.8 53.7225 76.92C52.9492 76.0133 52.5625 74.8 52.5625 73.28C52.5625 72 52.9092 70.84 53.6025 69.8C54.3225 68.7333 55.3625 67.8933 56.7225 67.28C58.1092 66.6667 59.7492 66.36 61.6425 66.36C64.4425 66.36 66.6425 67.0533 68.2425 68.44C69.8692 69.8267 70.8025 71.6667 71.0425 73.96H64.7225C64.6158 73.1867 64.2692 72.5733 63.6825 72.12C63.1225 71.6667 62.3758 71.44 61.4425 71.44C60.6425 71.44 60.0292 71.6 59.6025 71.92C59.1758 72.2133 58.9625 72.6267 58.9625 73.16C58.9625 73.8 59.2958 74.28 59.9625 74.6C60.6558 74.92 61.7225 75.24 63.1625 75.56C64.8158 75.9867 66.1625 76.4133 67.2025 76.84C68.2425 77.24 69.1492 77.9067 69.9225 78.84C70.7225 79.7467 71.1358 80.9733 71.1625 82.52C71.1625 83.8267 70.7892 85 70.0425 86.04C69.3225 87.0533 68.2692 87.8533 66.8825 88.44C65.5225 89.0267 63.9358 89.32 62.1225 89.32ZM84.4272 89.32C82.4805 89.32 80.7472 88.9867 79.2272 88.32C77.7072 87.6533 76.5072 86.7467 75.6272 85.6C74.7472 84.4267 74.2539 83.12 74.1472 81.68H80.9072C80.9872 82.4533 81.3472 83.08 81.9872 83.56C82.6272 84.04 83.4139 84.28 84.3472 84.28C85.2005 84.28 85.8539 84.12 86.3072 83.8C86.7872 83.4533 87.0272 83.0133 87.0272 82.48C87.0272 81.84 86.6939 81.3733 86.0272 81.08C85.3605 80.76 84.2805 80.4133 82.7872 80.04C81.1872 79.6667 79.8539 79.28 78.7872 78.88C77.7205 78.4533 76.8005 77.8 76.0272 76.92C75.2539 76.0133 74.8672 74.8 74.8672 73.28C74.8672 72 75.2139 70.84 75.9072 69.8C76.6272 68.7333 77.6672 67.8933 79.0272 67.28C80.4139 66.6667 82.0539 66.36 83.9472 66.36C86.7472 66.36 88.9472 67.0533 90.5472 68.44C92.1739 69.8267 93.1072 71.6667 93.3472 73.96H87.0272C86.9205 73.1867 86.5739 72.5733 85.9872 72.12C85.4272 71.6667 84.6805 71.44 83.7472 71.44C82.9472 71.44 82.3339 71.6 81.9072 71.92C81.4805 72.2133 81.2672 72.6267 81.2672 73.16C81.2672 73.8 81.6005 74.28 82.2672 74.6C82.9605 74.92 84.0272 75.24 85.4672 75.56C87.1205 75.9867 88.4672 76.4133 89.5072 76.84C90.5472 77.24 91.4539 77.9067 92.2272 78.84C93.0272 79.7467 93.4405 80.9733 93.4672 82.52C93.4672 83.8267 93.0939 85 92.3472 86.04C91.6272 87.0533 90.5739 87.8533 89.1872 88.44C87.8272 89.0267 86.2405 89.32 84.4272 89.32ZM129.692 66.68L123.652 89H116.092L112.572 74.52L108.932 89H101.412L95.3319 66.68H102.172L105.332 82.64L109.092 66.68H116.332L120.132 82.56L123.252 66.68H129.692ZM142.46 89.32C140.274 89.32 138.3 88.8533 136.54 87.92C134.807 86.9867 133.434 85.6533 132.42 83.92C131.434 82.1867 130.94 80.16 130.94 77.84C130.94 75.5467 131.447 73.5333 132.46 71.8C133.474 70.04 134.86 68.6933 136.62 67.76C138.38 66.8267 140.354 66.36 142.54 66.36C144.727 66.36 146.7 66.8267 148.46 67.76C150.22 68.6933 151.607 70.04 152.62 71.8C153.634 73.5333 154.14 75.5467 154.14 77.84C154.14 80.1333 153.62 82.16 152.58 83.92C151.567 85.6533 150.167 86.9867 148.38 87.92C146.62 88.8533 144.647 89.32 142.46 89.32ZM142.46 83.4C143.767 83.4 144.874 82.92 145.78 81.96C146.714 81 147.18 79.6267 147.18 77.84C147.18 76.0533 146.727 74.68 145.82 73.72C144.94 72.76 143.847 72.28 142.54 72.28C141.207 72.28 140.1 72.76 139.22 73.72C138.34 74.6533 137.9 76.0267 137.9 77.84C137.9 79.6267 138.327 81 139.18 81.96C140.06 82.92 141.154 83.4 142.46 83.4ZM164.609 70.4C165.409 69.1733 166.409 68.2133 167.609 67.52C168.809 66.8 170.142 66.44 171.609 66.44V73.68H169.729C168.022 73.68 166.742 74.0533 165.889 74.8C165.036 75.52 164.609 76.8 164.609 78.64V89H157.769V66.68H164.609V70.4ZM173.518 77.8C173.518 75.5067 173.945 73.4933 174.798 71.76C175.678 70.0267 176.865 68.6933 178.358 67.76C179.852 66.8267 181.518 66.36 183.358 66.36C184.825 66.36 186.158 66.6667 187.358 67.28C188.585 67.8933 189.545 68.72 190.238 69.76V59.4H197.078V89H190.238V85.8C189.598 86.8667 188.678 87.72 187.478 88.36C186.305 89 184.932 89.32 183.358 89.32C181.518 89.32 179.852 88.8533 178.358 87.92C176.865 86.96 175.678 85.6133 174.798 83.88C173.945 82.12 173.518 80.0933 173.518 77.8ZM190.238 77.84C190.238 76.1333 189.758 74.7867 188.798 73.8C187.865 72.8133 186.718 72.32 185.358 72.32C183.998 72.32 182.838 72.8133 181.878 73.8C180.945 74.76 180.478 76.0933 180.478 77.8C180.478 79.5067 180.945 80.8667 181.878 81.88C182.838 82.8667 183.998 83.36 185.358 83.36C186.718 83.36 187.865 82.8667 188.798 81.88C189.758 80.8933 190.238 79.5467 190.238 77.84Z" fill="black"/>
</svg>
