<svg width="195" height="31" viewBox="0 0 195 31" fill="none" xmlns="http://www.w3.org/2000/svg">
<path d="M7.09934 10.272V14.412H15.1993V19.776H7.09934V24.348H16.2793V30H0.0433438V4.62H16.2793V10.272H7.09934ZM18.614 19.884C18.614 17.796 18.986 15.972 19.73 14.412C20.498 12.852 21.542 11.652 22.862 10.812C24.182 9.972 25.646 9.552 27.254 9.552C28.55 9.552 29.702 9.828 30.71 10.38C31.742 10.908 32.546 11.64 33.122 12.576V3.36H40.214V30H33.122V27.192C32.57 28.128 31.79 28.872 30.782 29.424C29.774 29.976 28.586 30.252 27.218 30.252C25.61 30.252 24.146 29.832 22.826 28.992C21.53 28.152 20.498 26.952 19.73 25.392C18.986 23.808 18.614 21.972 18.614 19.884ZM33.158 19.884C33.158 18.588 32.798 17.568 32.078 16.824C31.382 16.08 30.518 15.708 29.486 15.708C28.43 15.708 27.554 16.08 26.858 16.824C26.162 17.544 25.814 18.564 25.814 19.884C25.814 21.18 26.162 22.212 26.858 22.98C27.554 23.724 28.43 24.096 29.486 24.096C30.518 24.096 31.382 23.724 32.078 22.98C32.798 22.236 33.158 21.204 33.158 19.884ZM47.7988 7.932C46.5508 7.932 45.5428 7.596 44.7748 6.924C44.0308 6.228 43.6588 5.364 43.6588 4.332C43.6588 3.276 44.0308 2.4 44.7748 1.704C45.5428 1.008 46.5508 0.659998 47.7988 0.659998C49.0228 0.659998 50.0068 1.008 50.7508 1.704C51.5188 2.4 51.9028 3.276 51.9028 4.332C51.9028 5.364 51.5188 6.228 50.7508 6.924C50.0068 7.596 49.0228 7.932 47.7988 7.932ZM51.2908 9.804V30H44.2348V9.804H51.2908ZM67.225 23.988V30H64.165C59.005 30 56.425 27.444 56.425 22.332V15.672H53.941V9.804H56.425V4.908H63.517V9.804H67.189V15.672H63.517V22.44C63.517 22.992 63.637 23.388 63.877 23.628C64.141 23.868 64.573 23.988 65.173 23.988H67.225ZM97.4039 13.08C97.4039 14.616 97.0439 16.02 96.3239 17.292C95.6279 18.54 94.5599 19.548 93.1199 20.316C91.7039 21.06 89.9639 21.432 87.8999 21.432H84.4079V30H77.3519V4.62H87.8999C89.9399 4.62 91.6679 4.98 93.0839 5.7C94.5239 6.42 95.6039 7.416 96.3239 8.688C97.0439 9.96 97.4039 11.424 97.4039 13.08ZM87.2159 15.816C89.2079 15.816 90.2039 14.904 90.2039 13.08C90.2039 11.232 89.2079 10.308 87.2159 10.308H84.4079V15.816H87.2159ZM107.295 13.368C108.087 12.216 109.047 11.304 110.175 10.632C111.303 9.96 112.515 9.624 113.811 9.624V17.148H111.831C110.295 17.148 109.155 17.448 108.411 18.048C107.667 18.648 107.295 19.692 107.295 21.18V30H100.239V9.804H107.295V13.368ZM125.736 30.252C123.72 30.252 121.908 29.832 120.3 28.992C118.716 28.152 117.468 26.952 116.556 25.392C115.644 23.832 115.188 21.996 115.188 19.884C115.188 17.796 115.644 15.972 116.556 14.412C117.492 12.852 118.752 11.652 120.336 10.812C121.944 9.972 123.756 9.552 125.772 9.552C127.788 9.552 129.588 9.972 131.172 10.812C132.78 11.652 134.04 12.852 134.952 14.412C135.888 15.972 136.356 17.796 136.356 19.884C136.356 21.972 135.888 23.808 134.952 25.392C134.04 26.952 132.78 28.152 131.172 28.992C129.564 29.832 127.752 30.252 125.736 30.252ZM125.736 24.132C126.72 24.132 127.536 23.772 128.184 23.052C128.856 22.308 129.192 21.252 129.192 19.884C129.192 18.516 128.856 17.472 128.184 16.752C127.536 16.032 126.732 15.672 125.772 15.672C124.812 15.672 124.008 16.032 123.36 16.752C122.712 17.472 122.388 18.516 122.388 19.884C122.388 21.276 122.7 22.332 123.324 23.052C123.948 23.772 124.752 24.132 125.736 24.132ZM150.135 15.672H146.967V30H139.875V15.672H137.679V9.804H139.875V9.624C139.875 7.032 140.631 5.052 142.143 3.684C143.679 2.292 145.875 1.596 148.731 1.596C149.307 1.596 149.751 1.608 150.063 1.632V7.644C149.871 7.62 149.607 7.608 149.271 7.608C148.503 7.608 147.939 7.788 147.579 8.148C147.219 8.484 147.015 9.036 146.967 9.804H150.135V15.672ZM156.221 7.932C154.973 7.932 153.965 7.596 153.197 6.924C152.453 6.228 152.081 5.364 152.081 4.332C152.081 3.276 152.453 2.4 153.197 1.704C153.965 1.008 154.973 0.659998 156.221 0.659998C157.445 0.659998 158.429 1.008 159.173 1.704C159.941 2.4 160.325 3.276 160.325 4.332C160.325 5.364 159.941 6.228 159.173 6.924C158.429 7.596 157.445 7.932 156.221 7.932ZM159.713 9.804V30H152.657V9.804H159.713ZM170.787 3.36V30H163.731V3.36H170.787ZM194.101 19.668C194.101 20.22 194.065 20.772 193.993 21.324H180.637C180.709 22.428 181.009 23.256 181.537 23.808C182.089 24.336 182.785 24.6 183.625 24.6C184.801 24.6 185.641 24.072 186.145 23.016H193.669C193.357 24.408 192.745 25.656 191.833 26.76C190.945 27.84 189.817 28.692 188.449 29.316C187.081 29.94 185.569 30.252 183.913 30.252C181.921 30.252 180.145 29.832 178.585 28.992C177.049 28.152 175.837 26.952 174.949 25.392C174.085 23.832 173.653 21.996 173.653 19.884C173.653 17.772 174.085 15.948 174.949 14.412C175.813 12.852 177.013 11.652 178.549 10.812C180.109 9.972 181.897 9.552 183.913 9.552C185.905 9.552 187.669 9.96 189.205 10.776C190.741 11.592 191.941 12.768 192.805 14.304C193.669 15.816 194.101 17.604 194.101 19.668ZM186.901 17.904C186.901 17.04 186.613 16.368 186.037 15.888C185.461 15.384 184.741 15.132 183.877 15.132C183.013 15.132 182.305 15.372 181.753 15.852C181.201 16.308 180.841 16.992 180.673 17.904H186.901Z" fill="white"/>
</svg>
