<svg width="61" height="50" viewBox="0 0 61 50" fill="none" xmlns="http://www.w3.org/2000/svg">
<path d="M59.8443 16.5104C60.309 16.1068 61 16.4844 61 17.1224V43.75C61 47.2005 58.4385 50 55.2812 50H5.71875C2.56152 50 0 47.2005 0 43.75V17.1354C0 16.4844 0.679102 16.1198 1.15566 16.5234C3.82441 18.7891 7.36289 21.6667 19.5152 31.3151C22.0291 33.3203 26.2705 37.5391 30.5 37.513C34.7533 37.5521 39.0781 33.2422 41.4967 31.3151C53.649 21.6667 57.1756 18.776 59.8443 16.5104ZM30.5 33.3333C33.2641 33.3854 37.2434 29.5312 39.2449 27.9427C55.0549 15.4036 56.2582 14.3099 59.9039 11.1849C60.5949 10.599 61 9.6875 61 8.72396V6.25C61 2.79948 58.4385 0 55.2812 0H5.71875C2.56152 0 0 2.79948 0 6.25V8.72396C0 9.6875 0.405078 10.5859 1.09609 11.1849C4.7418 14.2969 5.94512 15.4036 21.7551 27.9427C23.7566 29.5312 27.7359 33.3854 30.5 33.3333Z" fill="white"/>
</svg>
