<svg width="55" height="57" viewBox="0 0 55 57" fill="none" xmlns="http://www.w3.org/2000/svg">
<path d="M43.8333 45.9944H41.7644C39.5867 45.9944 37.5178 46.7854 35.9933 48.2143L31.3383 52.5265C29.215 54.4912 25.7578 54.4912 23.6344 52.5265L18.9794 48.2143C17.455 46.7854 15.3589 45.9944 13.2083 45.9944H11.1667C6.64778 45.9944 3 42.6007 3 38.4161V10.5782C3 6.39355 6.64778 3 11.1667 3H43.8333C48.3522 3 52 6.39355 52 10.5782V38.4161C52 42.5752 48.3522 45.9944 43.8333 45.9944Z" stroke="white" stroke-width="4.67155" stroke-miterlimit="10" stroke-linecap="round" stroke-linejoin="round"/>
<path d="M27.4997 23.3875C31.0029 23.3875 33.8428 20.7256 33.8428 17.4422C33.8428 14.1587 31.0029 11.4971 27.4997 11.4971C23.9967 11.4971 21.157 14.1587 21.157 17.4422C21.157 20.7256 23.9967 23.3875 27.4997 23.3875Z" stroke="white" stroke-width="4.67155" stroke-linecap="round" stroke-linejoin="round"/>
<path d="M38.3887 37.8297C38.3887 33.2368 33.516 29.5115 27.4999 29.5115C21.4837 29.5115 16.611 33.2368 16.611 37.8297" stroke="white" stroke-width="4.67155" stroke-linecap="round" stroke-linejoin="round"/>
</svg>
