<svg width="360" height="198" viewBox="0 0 360 198" fill="none" xmlns="http://www.w3.org/2000/svg">
<rect width="360" height="65" fill="#00008F"/>
<path d="M0 156.9L7.5 161.481C15 165.891 30 175.309 45 163.75C60 152.191 75 120.509 90 113.531C105 106.809 120 124.791 135 127.231C150 129.5 165 115.8 180 115.8C195 115.8 210 129.5 225 138.619C240 147.909 255 152.191 270 143.2C285 134.209 300 111.091 315 106.681C330 102.1 345 115.8 352.5 122.65L360 129.5V61H352.5C345 61 330 61 315 61C300 61 285 61 270 61C255 61 240 61 225 61C210 61 195 61 180 61C165 61 150 61 135 61C120 61 105 61 90 61C75 61 60 61 45 61C30 61 15 61 7.5 61H0V156.9Z" fill="#00008F"/>
</svg>
