<svg width="360" height="78" viewBox="0 0 360 78" fill="none" xmlns="http://www.w3.org/2000/svg">
<g clip-path="url(#clip0_185_482)">
<path d="M0 54.6L7.5 57.2081C15 59.7187 30 65.0812 45 58.5C60 51.9187 75 33.8812 90 29.9081C105 26.0812 120 36.3187 135 37.7081C150 39 165 31.2 180 31.2C195 31.2 210 39 225 44.1918C240 49.4812 255 51.9187 270 46.8C285 41.6812 300 28.5187 315 26.0081C330 23.4 345 31.2 352.5 35.1L360 39V78H352.5C345 78 330 78 315 78C300 78 285 78 270 78C255 78 240 78 225 78C210 78 195 78 180 78C165 78 150 78 135 78C120 78 105 78 90 78C75 78 60 78 45 78C30 78 15 78 7.5 78H0V54.6Z" fill="#00008F"/>
</g>
<defs>
<clipPath id="clip0_185_482">
<rect width="360" height="78" fill="white"/>
</clipPath>
</defs>
</svg>
