<svg width="318" height="64" viewBox="0 0 318 64" fill="none" xmlns="http://www.w3.org/2000/svg">
<g filter="url(#filter0_d_114_94)">
<rect x="4" width="310" height="56" rx="23" fill="#00008F"/>
</g>
<path d="M102.638 39L98.1579 30.68H97.4859V39H91.2139V16.44H101.102C102.915 16.44 104.451 16.76 105.71 17.4C106.969 18.0187 107.918 18.8827 108.558 19.992C109.198 21.08 109.518 22.3067 109.518 23.672C109.518 25.208 109.091 26.5627 108.238 27.736C107.406 28.888 106.179 29.7093 104.558 30.2L109.646 39H102.638ZM97.4859 26.392H100.59C101.443 26.392 102.083 26.1893 102.51 25.784C102.937 25.3787 103.15 24.792 103.15 24.024C103.15 23.2987 102.926 22.7333 102.478 22.328C102.051 21.9013 101.422 21.688 100.59 21.688H97.4859V26.392ZM129.522 29.816C129.522 30.3067 129.49 30.7973 129.426 31.288H117.554C117.618 32.2693 117.885 33.0053 118.354 33.496C118.845 33.9653 119.463 34.2 120.21 34.2C121.255 34.2 122.002 33.7307 122.45 32.792H129.138C128.861 34.0293 128.317 35.1387 127.506 36.12C126.717 37.08 125.714 37.8373 124.498 38.392C123.282 38.9467 121.938 39.224 120.466 39.224C118.695 39.224 117.117 38.8507 115.73 38.104C114.365 37.3573 113.287 36.2907 112.498 34.904C111.73 33.5173 111.346 31.8853 111.346 30.008C111.346 28.1307 111.73 26.5093 112.498 25.144C113.266 23.7573 114.333 22.6907 115.698 21.944C117.085 21.1973 118.674 20.824 120.466 20.824C122.237 20.824 123.805 21.1867 125.17 21.912C126.535 22.6373 127.602 23.6827 128.37 25.048C129.138 26.392 129.522 27.9813 129.522 29.816ZM123.122 28.248C123.122 27.48 122.866 26.8827 122.354 26.456C121.842 26.008 121.202 25.784 120.434 25.784C119.666 25.784 119.037 25.9973 118.546 26.424C118.055 26.8293 117.735 27.4373 117.586 28.248H123.122ZM138.713 20.824C139.929 20.824 140.985 21.0693 141.881 21.56C142.798 22.0507 143.502 22.712 143.993 23.544V21.048H150.265V38.808C150.265 40.4933 149.945 42.008 149.305 43.352C148.665 44.7173 147.662 45.8053 146.297 46.616C144.953 47.4267 143.246 47.832 141.177 47.832C138.404 47.832 136.185 47.1813 134.521 45.88C132.857 44.5787 131.908 42.808 131.673 40.568H137.849C137.977 41.144 138.297 41.592 138.809 41.912C139.321 42.232 139.982 42.392 140.793 42.392C142.926 42.392 143.993 41.1973 143.993 38.808V36.504C143.502 37.336 142.798 37.9973 141.881 38.488C140.985 38.9787 139.929 39.224 138.713 39.224C137.284 39.224 135.982 38.8507 134.809 38.104C133.657 37.3573 132.74 36.2907 132.057 34.904C131.396 33.496 131.065 31.864 131.065 30.008C131.065 28.152 131.396 26.5307 132.057 25.144C132.74 23.7573 133.657 22.6907 134.809 21.944C135.982 21.1973 137.284 20.824 138.713 20.824ZM143.993 30.008C143.993 28.856 143.673 27.9493 143.033 27.288C142.414 26.6267 141.646 26.296 140.729 26.296C139.79 26.296 139.012 26.6267 138.393 27.288C137.774 27.928 137.465 28.8347 137.465 30.008C137.465 31.16 137.774 32.0773 138.393 32.76C139.012 33.4213 139.79 33.752 140.729 33.752C141.646 33.752 142.414 33.4213 143.033 32.76C143.673 32.0987 143.993 31.1813 143.993 30.008ZM157.007 19.384C155.898 19.384 155.002 19.0853 154.319 18.488C153.658 17.8693 153.327 17.1013 153.327 16.184C153.327 15.2453 153.658 14.4667 154.319 13.848C155.002 13.2293 155.898 12.92 157.007 12.92C158.095 12.92 158.97 13.2293 159.631 13.848C160.314 14.4667 160.655 15.2453 160.655 16.184C160.655 17.1013 160.314 17.8693 159.631 18.488C158.97 19.0853 158.095 19.384 157.007 19.384ZM160.111 21.048V39H153.839V21.048H160.111ZM171.331 39.224C169.709 39.224 168.259 38.9573 166.979 38.424C165.72 37.8693 164.717 37.1227 163.971 36.184C163.245 35.224 162.84 34.1467 162.755 32.952H168.835C168.92 33.528 169.187 33.976 169.635 34.296C170.083 34.616 170.637 34.776 171.299 34.776C171.811 34.776 172.216 34.6693 172.515 34.456C172.813 34.2427 172.963 33.9653 172.963 33.624C172.963 33.176 172.717 32.8453 172.227 32.632C171.736 32.4187 170.925 32.184 169.795 31.928C168.515 31.672 167.448 31.384 166.595 31.064C165.741 30.744 164.995 30.2213 164.355 29.496C163.736 28.7707 163.427 27.7893 163.427 26.552C163.427 25.4853 163.715 24.5253 164.291 23.672C164.867 22.7973 165.709 22.104 166.819 21.592C167.949 21.08 169.304 20.824 170.883 20.824C173.229 20.824 175.075 21.4 176.419 22.552C177.763 23.704 178.541 25.2187 178.755 27.096H173.091C172.984 26.52 172.728 26.0827 172.323 25.784C171.939 25.464 171.416 25.304 170.755 25.304C170.243 25.304 169.848 25.4 169.571 25.592C169.315 25.784 169.187 26.0507 169.187 26.392C169.187 26.8187 169.432 27.1493 169.923 27.384C170.413 27.5973 171.203 27.8213 172.291 28.056C173.592 28.3333 174.669 28.6427 175.523 28.984C176.397 29.3253 177.155 29.88 177.795 30.648C178.456 31.3947 178.787 32.4187 178.787 33.72C178.787 34.7653 178.477 35.704 177.859 36.536C177.261 37.368 176.397 38.0293 175.267 38.52C174.157 38.9893 172.845 39.224 171.331 39.224ZM192.462 33.656V39H189.742C185.155 39 182.862 36.728 182.862 32.184V26.264H180.654V21.048H182.862V16.696H189.166V21.048H192.43V26.264H189.166V32.28C189.166 32.7707 189.273 33.1227 189.486 33.336C189.721 33.5493 190.105 33.656 190.638 33.656H192.462ZM212.491 29.816C212.491 30.3067 212.459 30.7973 212.395 31.288H200.523C200.587 32.2693 200.854 33.0053 201.323 33.496C201.814 33.9653 202.432 34.2 203.179 34.2C204.224 34.2 204.971 33.7307 205.419 32.792H212.107C211.83 34.0293 211.286 35.1387 210.475 36.12C209.686 37.08 208.683 37.8373 207.467 38.392C206.251 38.9467 204.907 39.224 203.435 39.224C201.664 39.224 200.086 38.8507 198.699 38.104C197.334 37.3573 196.256 36.2907 195.467 34.904C194.699 33.5173 194.315 31.8853 194.315 30.008C194.315 28.1307 194.699 26.5093 195.467 25.144C196.235 23.7573 197.302 22.6907 198.667 21.944C200.054 21.1973 201.643 20.824 203.435 20.824C205.206 20.824 206.774 21.1867 208.139 21.912C209.504 22.6373 210.571 23.6827 211.339 25.048C212.107 26.392 212.491 27.9813 212.491 29.816ZM206.091 28.248C206.091 27.48 205.835 26.8827 205.323 26.456C204.811 26.008 204.171 25.784 203.403 25.784C202.635 25.784 202.006 25.9973 201.515 26.424C201.024 26.8293 200.704 27.4373 200.555 28.248H206.091ZM221.33 24.216C222.034 23.192 222.887 22.3813 223.89 21.784C224.892 21.1867 225.97 20.888 227.122 20.888V27.576H225.362C223.996 27.576 222.983 27.8427 222.322 28.376C221.66 28.9093 221.33 29.8373 221.33 31.16V39H215.058V21.048H221.33V24.216Z" fill="white"/>
<defs>
<filter id="filter0_d_114_94" x="0" y="0" width="318" height="64" filterUnits="userSpaceOnUse" color-interpolation-filters="sRGB">
<feFlood flood-opacity="0" result="BackgroundImageFix"/>
<feColorMatrix in="SourceAlpha" type="matrix" values="0 0 0 0 0 0 0 0 0 0 0 0 0 0 0 0 0 0 127 0" result="hardAlpha"/>
<feOffset dy="4"/>
<feGaussianBlur stdDeviation="2"/>
<feComposite in2="hardAlpha" operator="out"/>
<feColorMatrix type="matrix" values="0 0 0 0 0 0 0 0 0 0 0 0 0 0 0 0 0 0 0.25 0"/>
<feBlend mode="normal" in2="BackgroundImageFix" result="effect1_dropShadow_114_94"/>
<feBlend mode="normal" in="SourceGraphic" in2="effect1_dropShadow_114_94" result="shape"/>
</filter>
</defs>
</svg>
