<svg width="153" height="44" viewBox="0 0 153 44" fill="none" xmlns="http://www.w3.org/2000/svg">
<path d="M11.472 33.28C9.4187 33.28 7.5787 32.9467 5.95203 32.28C4.32536 31.6133 3.0187 30.6267 2.03203 29.32C1.07203 28.0133 0.565365 26.44 0.512031 24.6H7.79203C7.8987 25.64 8.2587 26.44 8.87203 27C9.48537 27.5333 10.2854 27.8 11.272 27.8C12.2854 27.8 13.0854 27.5733 13.672 27.12C14.2587 26.64 14.552 25.9867 14.552 25.16C14.552 24.4667 14.312 23.8933 13.832 23.44C13.3787 22.9867 12.8054 22.6133 12.112 22.32C11.4454 22.0267 10.4854 21.6933 9.23203 21.32C7.4187 20.76 5.9387 20.2 4.79203 19.64C3.64536 19.08 2.6587 18.2533 1.83203 17.16C1.00536 16.0667 0.592031 14.64 0.592031 12.88C0.592031 10.2667 1.5387 8.22667 3.43203 6.76C5.32536 5.26667 7.79203 4.52 10.832 4.52C13.9254 4.52 16.4187 5.26667 18.312 6.76C20.2054 8.22667 21.2187 10.28 21.352 12.92H13.952C13.8987 12.0133 13.5654 11.3067 12.952 10.8C12.3387 10.2667 11.552 10 10.592 10C9.76536 10 9.0987 10.2267 8.59203 10.68C8.08537 11.1067 7.83203 11.7333 7.83203 12.56C7.83203 13.4667 8.2587 14.1733 9.11203 14.68C9.96536 15.1867 11.2987 15.7333 13.112 16.32C14.9254 16.9333 16.392 17.52 17.512 18.08C18.6587 18.64 19.6454 19.4533 20.472 20.52C21.2987 21.5867 21.712 22.96 21.712 24.64C21.712 26.24 21.2987 27.6933 20.472 29C19.672 30.3067 18.4987 31.3467 16.952 32.12C15.4054 32.8933 13.5787 33.28 11.472 33.28ZM29.3614 8.36C28.1614 8.36 27.1747 8.01333 26.4014 7.32C25.6547 6.6 25.2814 5.72 25.2814 4.68C25.2814 3.61333 25.6547 2.73333 26.4014 2.04C27.1747 1.32 28.1614 0.959998 29.3614 0.959998C30.5347 0.959998 31.4947 1.32 32.2414 2.04C33.0147 2.73333 33.4014 3.61333 33.4014 4.68C33.4014 5.72 33.0147 6.6 32.2414 7.32C31.4947 8.01333 30.5347 8.36 29.3614 8.36ZM32.7614 10.68V33H25.9214V10.68H32.7614ZM46.1983 10.36C47.7716 10.36 49.1449 10.68 50.3183 11.32C51.5183 11.96 52.4383 12.8 53.0783 13.84V10.68H59.9183V32.96C59.9183 35.0133 59.5049 36.8667 58.6783 38.52C57.8783 40.2 56.6383 41.5333 54.9583 42.52C53.3049 43.5067 51.2383 44 48.7583 44C45.4516 44 42.7716 43.2133 40.7183 41.64C38.6649 40.0933 37.4916 37.9867 37.1983 35.32H43.9583C44.1716 36.1733 44.6783 36.84 45.4783 37.32C46.2783 37.8267 47.2649 38.08 48.4383 38.08C49.8516 38.08 50.9716 37.6667 51.7983 36.84C52.6516 36.04 53.0783 34.7467 53.0783 32.96V29.8C52.4116 30.84 51.4916 31.6933 50.3183 32.36C49.1449 33 47.7716 33.32 46.1983 33.32C44.3583 33.32 42.6916 32.8533 41.1983 31.92C39.7049 30.96 38.5183 29.6133 37.6383 27.88C36.7849 26.12 36.3583 24.0933 36.3583 21.8C36.3583 19.5067 36.7849 17.4933 37.6383 15.76C38.5183 14.0267 39.7049 12.6933 41.1983 11.76C42.6916 10.8267 44.3583 10.36 46.1983 10.36ZM53.0783 21.84C53.0783 20.1333 52.5983 18.7867 51.6383 17.8C50.7049 16.8133 49.5583 16.32 48.1983 16.32C46.8383 16.32 45.6783 16.8133 44.7183 17.8C43.7849 18.76 43.3183 20.0933 43.3183 21.8C43.3183 23.5067 43.7849 24.8667 44.7183 25.88C45.6783 26.8667 46.8383 27.36 48.1983 27.36C49.5583 27.36 50.7049 26.8667 51.6383 25.88C52.5983 24.8933 53.0783 23.5467 53.0783 21.84ZM78.4667 10.44C81.0801 10.44 83.1601 11.2933 84.7067 13C86.2801 14.68 87.0667 17 87.0667 19.96V33H80.2667V20.88C80.2667 19.3867 79.8801 18.2267 79.1067 17.4C78.3334 16.5733 77.2934 16.16 75.9867 16.16C74.6801 16.16 73.6401 16.5733 72.8667 17.4C72.0934 18.2267 71.7067 19.3867 71.7067 20.88V33H64.8667V10.68H71.7067V13.64C72.4001 12.6533 73.3334 11.88 74.5067 11.32C75.6801 10.7333 77.0001 10.44 78.4667 10.44ZM107.016 4.92V21.72C107.016 23.4 107.43 24.6933 108.256 25.6C109.083 26.5067 110.296 26.96 111.896 26.96C113.496 26.96 114.723 26.5067 115.576 25.6C116.43 24.6933 116.856 23.4 116.856 21.72V4.92H123.696V21.68C123.696 24.1867 123.163 26.3067 122.096 28.04C121.03 29.7733 119.59 31.08 117.776 31.96C115.99 32.84 113.99 33.28 111.776 33.28C109.563 33.28 107.576 32.8533 105.816 32C104.083 31.12 102.71 29.8133 101.696 28.08C100.683 26.32 100.176 24.1867 100.176 21.68V4.92H107.016ZM135.34 13.84C136.006 12.8 136.926 11.96 138.1 11.32C139.273 10.68 140.646 10.36 142.22 10.36C144.06 10.36 145.726 10.8267 147.22 11.76C148.713 12.6933 149.886 14.0267 150.74 15.76C151.62 17.4933 152.06 19.5067 152.06 21.8C152.06 24.0933 151.62 26.12 150.74 27.88C149.886 29.6133 148.713 30.96 147.22 31.92C145.726 32.8533 144.06 33.32 142.22 33.32C140.673 33.32 139.3 33 138.1 32.36C136.926 31.72 136.006 30.8933 135.34 29.88V43.64H128.5V10.68H135.34V13.84ZM145.1 21.8C145.1 20.0933 144.62 18.76 143.66 17.8C142.726 16.8133 141.566 16.32 140.18 16.32C138.82 16.32 137.66 16.8133 136.7 17.8C135.766 18.7867 135.3 20.1333 135.3 21.84C135.3 23.5467 135.766 24.8933 136.7 25.88C137.66 26.8667 138.82 27.36 140.18 27.36C141.54 27.36 142.7 26.8667 143.66 25.88C144.62 24.8667 145.1 23.5067 145.1 21.8Z" fill="black"/>
</svg>
