<svg width="180" height="11" viewBox="0 0 180 11" fill="none" xmlns="http://www.w3.org/2000/svg">
<path d="M3.61657 1.54C4.50457 1.54 5.28057 1.72 5.94457 2.08C6.61657 2.432 7.13257 2.928 7.49257 3.568C7.85257 4.208 8.03257 4.94 8.03257 5.764C8.03257 6.58 7.84857 7.308 7.48057 7.948C7.12057 8.588 6.60457 9.092 5.93257 9.46C5.26857 9.82 4.49657 10 3.61657 10H0.268565V1.54H3.61657ZM3.43657 7.924C4.12457 7.924 4.66457 7.736 5.05657 7.36C5.44857 6.984 5.64457 6.452 5.64457 5.764C5.64457 5.068 5.44857 4.532 5.05657 4.156C4.66457 3.772 4.12457 3.58 3.43657 3.58H2.62057V7.924H3.43657ZM13.7848 10.084C13.1128 10.084 12.5088 9.944 11.9728 9.664C11.4448 9.384 11.0288 8.984 10.7248 8.464C10.4208 7.944 10.2688 7.332 10.2688 6.628C10.2688 5.932 10.4208 5.324 10.7248 4.804C11.0368 4.284 11.4568 3.884 11.9848 3.604C12.5208 3.324 13.1248 3.184 13.7968 3.184C14.4688 3.184 15.0688 3.324 15.5968 3.604C16.1328 3.884 16.5528 4.284 16.8568 4.804C17.1688 5.324 17.3248 5.932 17.3248 6.628C17.3248 7.324 17.1688 7.936 16.8568 8.464C16.5528 8.984 16.1328 9.384 15.5968 9.664C15.0608 9.944 14.4568 10.084 13.7848 10.084ZM13.7848 8.044C14.1128 8.044 14.3848 7.924 14.6008 7.684C14.8248 7.436 14.9368 7.084 14.9368 6.628C14.9368 6.172 14.8248 5.824 14.6008 5.584C14.3848 5.344 14.1168 5.224 13.7968 5.224C13.4768 5.224 13.2088 5.344 12.9928 5.584C12.7768 5.824 12.6688 6.172 12.6688 6.628C12.6688 7.092 12.7728 7.444 12.9808 7.684C13.1888 7.924 13.4568 8.044 13.7848 8.044ZM24.2457 3.208C25.0217 3.208 25.6377 3.468 26.0937 3.988C26.5497 4.5 26.7777 5.196 26.7777 6.076V10H24.4257V6.388C24.4257 6.004 24.3257 5.704 24.1257 5.488C23.9257 5.264 23.6577 5.152 23.3217 5.152C22.9697 5.152 22.6937 5.264 22.4937 5.488C22.2937 5.704 22.1937 6.004 22.1937 6.388V10H19.8417V3.268H22.1937V4.228C22.4017 3.924 22.6817 3.68 23.0337 3.496C23.3857 3.304 23.7897 3.208 24.2457 3.208ZM30.2043 1.54H32.5803L31.2003 4.924H29.6283L30.2043 1.54ZM39.3087 7.996V10H38.2887C36.5687 10 35.7087 9.148 35.7087 7.444V5.224H34.8807V3.268H35.7087V1.636H38.0727V3.268H39.2967V5.224H38.0727V7.48C38.0727 7.664 38.1127 7.796 38.1927 7.876C38.2807 7.956 38.4247 7.996 38.6247 7.996H39.3087ZM50.2323 3.208C51.0003 3.208 51.6083 3.468 52.0563 3.988C52.5123 4.5 52.7403 5.196 52.7403 6.076V10H50.3883V6.388C50.3883 6.004 50.2883 5.704 50.0883 5.488C49.8883 5.264 49.6203 5.152 49.2843 5.152C48.9323 5.152 48.6563 5.264 48.4563 5.488C48.2563 5.704 48.1563 6.004 48.1563 6.388V10H45.8043V1.12H48.1563V4.228C48.3643 3.924 48.6443 3.68 48.9963 3.496C49.3563 3.304 49.7683 3.208 50.2323 3.208ZM55.2069 6.628C55.2069 5.932 55.3309 5.324 55.5789 4.804C55.8349 4.284 56.1789 3.884 56.6109 3.604C57.0509 3.324 57.5389 3.184 58.0749 3.184C58.5389 3.184 58.9389 3.276 59.2749 3.46C59.6109 3.644 59.8709 3.892 60.0549 4.204V3.268H62.4069V10H60.0549V9.064C59.8709 9.376 59.6069 9.624 59.2629 9.808C58.9269 9.992 58.5309 10.084 58.0749 10.084C57.5389 10.084 57.0509 9.944 56.6109 9.664C56.1789 9.384 55.8349 8.984 55.5789 8.464C55.3309 7.936 55.2069 7.324 55.2069 6.628ZM60.0549 6.628C60.0549 6.196 59.9349 5.856 59.6949 5.608C59.4629 5.36 59.1749 5.236 58.8309 5.236C58.4789 5.236 58.1869 5.36 57.9549 5.608C57.7229 5.848 57.6069 6.188 57.6069 6.628C57.6069 7.06 57.7229 7.404 57.9549 7.66C58.1869 7.908 58.4789 8.032 58.8309 8.032C59.1749 8.032 59.4629 7.908 59.6949 7.66C59.9349 7.412 60.0549 7.068 60.0549 6.628ZM68.5352 7.78L69.7952 3.268H72.3032L69.9872 10H67.0592L64.7432 3.268H67.2512L68.5352 7.78ZM81.0921 6.556C81.0921 6.74 81.0801 6.924 81.0561 7.108H76.6041C76.6281 7.476 76.7281 7.752 76.9041 7.936C77.0881 8.112 77.3201 8.2 77.6001 8.2C77.9921 8.2 78.2721 8.024 78.4401 7.672H80.9481C80.8441 8.136 80.6401 8.552 80.3361 8.92C80.0401 9.28 79.6641 9.564 79.2081 9.772C78.7521 9.98 78.2481 10.084 77.6961 10.084C77.0321 10.084 76.4401 9.944 75.9201 9.664C75.4081 9.384 75.0041 8.984 74.7081 8.464C74.4201 7.944 74.2761 7.332 74.2761 6.628C74.2761 5.924 74.4201 5.316 74.7081 4.804C74.9961 4.284 75.3961 3.884 75.9081 3.604C76.4281 3.324 77.0241 3.184 77.6961 3.184C78.3601 3.184 78.9481 3.32 79.4601 3.592C79.9721 3.864 80.3721 4.256 80.6601 4.768C80.9481 5.272 81.0921 5.868 81.0921 6.556ZM78.6921 5.968C78.6921 5.68 78.5961 5.456 78.4041 5.296C78.2121 5.128 77.9721 5.044 77.6841 5.044C77.3961 5.044 77.1601 5.124 76.9761 5.284C76.7921 5.436 76.6721 5.664 76.6161 5.968H78.6921ZM87.0875 6.628C87.0875 5.932 87.2115 5.324 87.4595 4.804C87.7155 4.284 88.0595 3.884 88.4915 3.604C88.9315 3.324 89.4195 3.184 89.9555 3.184C90.4195 3.184 90.8195 3.276 91.1555 3.46C91.4915 3.644 91.7515 3.892 91.9355 4.204V3.268H94.2875V10H91.9355V9.064C91.7515 9.376 91.4875 9.624 91.1435 9.808C90.8075 9.992 90.4115 10.084 89.9555 10.084C89.4195 10.084 88.9315 9.944 88.4915 9.664C88.0595 9.384 87.7155 8.984 87.4595 8.464C87.2115 7.936 87.0875 7.324 87.0875 6.628ZM91.9355 6.628C91.9355 6.196 91.8155 5.856 91.5755 5.608C91.3435 5.36 91.0555 5.236 90.7115 5.236C90.3595 5.236 90.0675 5.36 89.8355 5.608C89.6035 5.848 89.4875 6.188 89.4875 6.628C89.4875 7.06 89.6035 7.404 89.8355 7.66C90.0675 7.908 90.3595 8.032 90.7115 8.032C91.0555 8.032 91.3435 7.908 91.5755 7.66C91.8155 7.412 91.9355 7.068 91.9355 6.628ZM101.592 3.208C102.368 3.208 102.984 3.468 103.44 3.988C103.896 4.5 104.124 5.196 104.124 6.076V10H101.772V6.388C101.772 6.004 101.672 5.704 101.472 5.488C101.272 5.264 101.004 5.152 100.668 5.152C100.316 5.152 100.04 5.264 99.8398 5.488C99.6398 5.704 99.5398 6.004 99.5398 6.388V10H97.1878V3.268H99.5398V4.228C99.7478 3.924 100.028 3.68 100.38 3.496C100.732 3.304 101.136 3.208 101.592 3.208ZM110.447 6.628C110.447 5.932 110.571 5.324 110.819 4.804C111.075 4.284 111.419 3.884 111.851 3.604C112.291 3.324 112.779 3.184 113.315 3.184C113.779 3.184 114.179 3.276 114.515 3.46C114.851 3.644 115.111 3.892 115.295 4.204V3.268H117.647V10H115.295V9.064C115.111 9.376 114.847 9.624 114.503 9.808C114.167 9.992 113.771 10.084 113.315 10.084C112.779 10.084 112.291 9.944 111.851 9.664C111.419 9.384 111.075 8.984 110.819 8.464C110.571 7.936 110.447 7.324 110.447 6.628ZM115.295 6.628C115.295 6.196 115.175 5.856 114.935 5.608C114.703 5.36 114.415 5.236 114.071 5.236C113.719 5.236 113.427 5.36 113.195 5.608C112.963 5.848 112.847 6.188 112.847 6.628C112.847 7.06 112.963 7.404 113.195 7.66C113.427 7.908 113.719 8.032 114.071 8.032C114.415 8.032 114.703 7.908 114.935 7.66C115.175 7.412 115.295 7.068 115.295 6.628ZM120.163 6.628C120.163 5.932 120.307 5.324 120.595 4.804C120.883 4.284 121.283 3.884 121.795 3.604C122.315 3.324 122.907 3.184 123.571 3.184C124.427 3.184 125.147 3.42 125.731 3.892C126.315 4.356 126.691 5.008 126.859 5.848H124.363C124.219 5.408 123.939 5.188 123.523 5.188C123.227 5.188 122.991 5.312 122.815 5.56C122.647 5.8 122.563 6.156 122.563 6.628C122.563 7.1 122.647 7.46 122.815 7.708C122.991 7.956 123.227 8.08 123.523 8.08C123.947 8.08 124.227 7.86 124.363 7.42H126.859C126.691 8.252 126.315 8.904 125.731 9.376C125.147 9.848 124.427 10.084 123.571 10.084C122.907 10.084 122.315 9.944 121.795 9.664C121.283 9.384 120.883 8.984 120.595 8.464C120.307 7.944 120.163 7.332 120.163 6.628ZM129.013 6.628C129.013 5.932 129.157 5.324 129.445 4.804C129.733 4.284 130.133 3.884 130.645 3.604C131.165 3.324 131.757 3.184 132.421 3.184C133.277 3.184 133.997 3.42 134.581 3.892C135.165 4.356 135.541 5.008 135.709 5.848H133.213C133.069 5.408 132.789 5.188 132.373 5.188C132.077 5.188 131.841 5.312 131.665 5.56C131.497 5.8 131.413 6.156 131.413 6.628C131.413 7.1 131.497 7.46 131.665 7.708C131.841 7.956 132.077 8.08 132.373 8.08C132.797 8.08 133.077 7.86 133.213 7.42H135.709C135.541 8.252 135.165 8.904 134.581 9.376C133.997 9.848 133.277 10.084 132.421 10.084C131.757 10.084 131.165 9.944 130.645 9.664C130.133 9.384 129.733 8.984 129.445 8.464C129.157 7.944 129.013 7.332 129.013 6.628ZM141.378 10.084C140.706 10.084 140.102 9.944 139.566 9.664C139.038 9.384 138.622 8.984 138.318 8.464C138.014 7.944 137.862 7.332 137.862 6.628C137.862 5.932 138.014 5.324 138.318 4.804C138.63 4.284 139.05 3.884 139.578 3.604C140.114 3.324 140.718 3.184 141.39 3.184C142.062 3.184 142.662 3.324 143.19 3.604C143.726 3.884 144.146 4.284 144.45 4.804C144.762 5.324 144.918 5.932 144.918 6.628C144.918 7.324 144.762 7.936 144.45 8.464C144.146 8.984 143.726 9.384 143.19 9.664C142.654 9.944 142.05 10.084 141.378 10.084ZM141.378 8.044C141.706 8.044 141.978 7.924 142.194 7.684C142.418 7.436 142.53 7.084 142.53 6.628C142.53 6.172 142.418 5.824 142.194 5.584C141.978 5.344 141.71 5.224 141.39 5.224C141.07 5.224 140.802 5.344 140.586 5.584C140.37 5.824 140.262 6.172 140.262 6.628C140.262 7.092 140.366 7.444 140.574 7.684C140.782 7.924 141.05 8.044 141.378 8.044ZM154.323 3.268V10H151.959V9.04C151.759 9.344 151.483 9.592 151.131 9.784C150.779 9.968 150.375 10.06 149.919 10.06C149.135 10.06 148.515 9.804 148.059 9.292C147.611 8.772 147.387 8.068 147.387 7.18V3.268H149.727V6.88C149.727 7.264 149.827 7.568 150.027 7.792C150.235 8.008 150.507 8.116 150.843 8.116C151.187 8.116 151.459 8.008 151.659 7.792C151.859 7.568 151.959 7.264 151.959 6.88V3.268H154.323ZM161.625 3.208C162.401 3.208 163.017 3.468 163.473 3.988C163.929 4.5 164.157 5.196 164.157 6.076V10H161.805V6.388C161.805 6.004 161.705 5.704 161.505 5.488C161.305 5.264 161.037 5.152 160.701 5.152C160.349 5.152 160.073 5.264 159.873 5.488C159.673 5.704 159.573 6.004 159.573 6.388V10H157.221V3.268H159.573V4.228C159.781 3.924 160.061 3.68 160.413 3.496C160.765 3.304 161.169 3.208 161.625 3.208ZM170.98 7.996V10H169.96C168.24 10 167.38 9.148 167.38 7.444V5.224H166.552V3.268H167.38V1.636H169.744V3.268H170.968V5.224H169.744V7.48C169.744 7.664 169.784 7.796 169.864 7.876C169.952 7.956 170.096 7.996 170.296 7.996H170.98ZM176.186 0.916C177.058 0.916 177.758 1.14 178.286 1.588C178.814 2.036 179.078 2.676 179.078 3.508C179.078 4.236 178.834 4.812 178.346 5.236C177.866 5.66 177.23 5.88 176.438 5.896L176.378 6.772H174.302L174.23 4.384H175.094C175.638 4.384 176.054 4.324 176.342 4.204C176.63 4.076 176.774 3.852 176.774 3.532C176.774 3.316 176.714 3.148 176.594 3.028C176.482 2.9 176.326 2.836 176.126 2.836C175.902 2.836 175.73 2.904 175.61 3.04C175.498 3.168 175.442 3.344 175.442 3.568H173.222C173.206 3.08 173.306 2.636 173.522 2.236C173.746 1.828 174.082 1.508 174.53 1.276C174.978 1.036 175.53 0.916 176.186 0.916ZM175.358 10.096C174.942 10.096 174.606 9.984 174.35 9.76C174.102 9.528 173.978 9.236 173.978 8.884C173.978 8.532 174.102 8.24 174.35 8.008C174.606 7.776 174.942 7.66 175.358 7.66C175.766 7.66 176.094 7.776 176.342 8.008C176.598 8.24 176.726 8.532 176.726 8.884C176.726 9.228 176.598 9.516 176.342 9.748C176.094 9.98 175.766 10.096 175.358 10.096Z" fill="black"/>
</svg>
