<svg width="317" height="55" viewBox="0 0 317 55" fill="none" xmlns="http://www.w3.org/2000/svg">
<g filter="url(#filter0_d_114_92)">
<rect x="4" y="4" width="309" height="43" rx="21.5" fill="#00008F"/>
</g>
<path d="M128.18 32.14C126.54 32.14 125.194 31.7533 124.14 30.98C123.087 30.1933 122.52 29.0733 122.44 27.62H126.62C126.66 28.1133 126.807 28.4733 127.06 28.7C127.314 28.9267 127.64 29.04 128.04 29.04C128.4 29.04 128.694 28.9533 128.92 28.78C129.16 28.5933 129.28 28.34 129.28 28.02C129.28 27.6067 129.087 27.2867 128.7 27.06C128.314 26.8333 127.687 26.58 126.82 26.3C125.9 25.9933 125.154 25.7 124.58 25.42C124.02 25.1267 123.527 24.7067 123.1 24.16C122.687 23.6 122.48 22.8733 122.48 21.98C122.48 21.0733 122.707 20.3 123.16 19.66C123.614 19.0067 124.24 18.5133 125.04 18.18C125.84 17.8467 126.747 17.68 127.76 17.68C129.4 17.68 130.707 18.0667 131.68 18.84C132.667 19.6 133.194 20.6733 133.26 22.06H129C128.987 21.6333 128.854 21.3133 128.6 21.1C128.36 20.8867 128.047 20.78 127.66 20.78C127.367 20.78 127.127 20.8667 126.94 21.04C126.754 21.2133 126.66 21.46 126.66 21.78C126.66 22.0467 126.76 22.28 126.96 22.48C127.174 22.6667 127.434 22.8333 127.74 22.98C128.047 23.1133 128.5 23.2867 129.1 23.5C129.994 23.8067 130.727 24.1133 131.3 24.42C131.887 24.7133 132.387 25.1333 132.8 25.68C133.227 26.2133 133.44 26.8933 133.44 27.72C133.44 28.56 133.227 29.3133 132.8 29.98C132.387 30.6467 131.78 31.1733 130.98 31.56C130.194 31.9467 129.26 32.14 128.18 32.14ZM137.243 19.74C136.549 19.74 135.989 19.5533 135.563 19.18C135.149 18.7933 134.943 18.3133 134.943 17.74C134.943 17.1533 135.149 16.6667 135.563 16.28C135.989 15.8933 136.549 15.7 137.243 15.7C137.923 15.7 138.469 15.8933 138.883 16.28C139.309 16.6667 139.523 17.1533 139.523 17.74C139.523 18.3133 139.309 18.7933 138.883 19.18C138.469 19.5533 137.923 19.74 137.243 19.74ZM139.183 20.78V32H135.263V20.78H139.183ZM145.555 20.64C146.315 20.64 146.975 20.7933 147.535 21.1C148.108 21.4067 148.548 21.82 148.855 22.34V20.78H152.775V31.88C152.775 32.9333 152.575 33.88 152.175 34.72C151.775 35.5733 151.148 36.2533 150.295 36.76C149.455 37.2667 148.388 37.52 147.095 37.52C145.362 37.52 143.975 37.1133 142.935 36.3C141.895 35.4867 141.302 34.38 141.155 32.98H145.015C145.095 33.34 145.295 33.62 145.615 33.82C145.935 34.02 146.348 34.12 146.855 34.12C148.188 34.12 148.855 33.3733 148.855 31.88V30.44C148.548 30.96 148.108 31.3733 147.535 31.68C146.975 31.9867 146.315 32.14 145.555 32.14C144.662 32.14 143.848 31.9067 143.115 31.44C142.395 30.9733 141.822 30.3067 141.395 29.44C140.982 28.56 140.775 27.54 140.775 26.38C140.775 25.22 140.982 24.2067 141.395 23.34C141.822 22.4733 142.395 21.8067 143.115 21.34C143.848 20.8733 144.662 20.64 145.555 20.64ZM148.855 26.38C148.855 25.66 148.655 25.0933 148.255 24.68C147.868 24.2667 147.388 24.06 146.815 24.06C146.228 24.06 145.742 24.2667 145.355 24.68C144.968 25.08 144.775 25.6467 144.775 26.38C144.775 27.1 144.968 27.6733 145.355 28.1C145.742 28.5133 146.228 28.72 146.815 28.72C147.388 28.72 147.868 28.5133 148.255 28.1C148.655 27.6867 148.855 27.1133 148.855 26.38ZM162.349 20.68C163.642 20.68 164.669 21.1133 165.429 21.98C166.189 22.8333 166.569 23.9933 166.569 25.46V32H162.649V25.98C162.649 25.34 162.482 24.84 162.149 24.48C161.815 24.1067 161.369 23.92 160.809 23.92C160.222 23.92 159.762 24.1067 159.429 24.48C159.095 24.84 158.929 25.34 158.929 25.98V32H155.009V20.78H158.929V22.38C159.275 21.8733 159.742 21.4667 160.329 21.16C160.915 20.84 161.589 20.68 162.349 20.68ZM176.388 17.9V26.08C176.388 26.84 176.561 27.4267 176.908 27.84C177.268 28.2533 177.808 28.46 178.528 28.46C179.248 28.46 179.788 28.2533 180.148 27.84C180.521 27.4133 180.708 26.8267 180.708 26.08V17.9H184.628V26.08C184.628 27.3733 184.354 28.48 183.808 29.4C183.261 30.3067 182.514 30.9933 181.568 31.46C180.634 31.9133 179.594 32.14 178.448 32.14C177.301 32.14 176.274 31.9133 175.368 31.46C174.474 30.9933 173.768 30.3067 173.248 29.4C172.741 28.4933 172.488 27.3867 172.488 26.08V17.9H176.388ZM190.706 22.34C191.013 21.82 191.446 21.4067 192.006 21.1C192.566 20.7933 193.226 20.64 193.986 20.64C194.879 20.64 195.686 20.8733 196.406 21.34C197.139 21.8067 197.713 22.4733 198.126 23.34C198.553 24.2067 198.766 25.22 198.766 26.38C198.766 27.54 198.553 28.56 198.126 29.44C197.713 30.3067 197.139 30.9733 196.406 31.44C195.686 31.9067 194.879 32.14 193.986 32.14C193.226 32.14 192.566 31.9867 192.006 31.68C191.459 31.3733 191.026 30.96 190.706 30.44V37.36H186.786V20.78H190.706V22.34ZM194.786 26.38C194.786 25.6467 194.586 25.08 194.186 24.68C193.799 24.2667 193.319 24.06 192.746 24.06C192.173 24.06 191.686 24.2667 191.286 24.68C190.899 25.0933 190.706 25.66 190.706 26.38C190.706 27.1133 190.899 27.6867 191.286 28.1C191.686 28.5133 192.173 28.72 192.746 28.72C193.319 28.72 193.799 28.5133 194.186 28.1C194.586 27.6733 194.786 27.1 194.786 26.38Z" fill="white"/>
<defs>
<filter id="filter0_d_114_92" x="0" y="4" width="317" height="51" filterUnits="userSpaceOnUse" color-interpolation-filters="sRGB">
<feFlood flood-opacity="0" result="BackgroundImageFix"/>
<feColorMatrix in="SourceAlpha" type="matrix" values="0 0 0 0 0 0 0 0 0 0 0 0 0 0 0 0 0 0 127 0" result="hardAlpha"/>
<feOffset dy="4"/>
<feGaussianBlur stdDeviation="2"/>
<feComposite in2="hardAlpha" operator="out"/>
<feColorMatrix type="matrix" values="0 0 0 0 0 0 0 0 0 0 0 0 0 0 0 0 0 0 0.25 0"/>
<feBlend mode="normal" in2="BackgroundImageFix" result="effect1_dropShadow_114_92"/>
<feBlend mode="normal" in="SourceGraphic" in2="effect1_dropShadow_114_92" result="shape"/>
</filter>
</defs>
</svg>
