<svg width="96" height="54" viewBox="0 0 96 54" fill="none" xmlns="http://www.w3.org/2000/svg">
<path d="M4.84184 8.6C4.84184 6.952 5.20184 5.48 5.92184 4.184C6.64184 2.872 7.62584 1.856 8.87384 1.136C10.1218 0.4 11.5138 0.0319996 13.0498 0.0319996C14.9218 0.0319996 16.5218 0.48 17.8498 1.376C19.1938 2.256 20.1698 3.504 20.7778 5.12H18.8098C18.3298 3.984 17.5938 3.096 16.6018 2.456C15.6258 1.816 14.4418 1.496 13.0498 1.496C11.8178 1.496 10.7058 1.784 9.71384 2.36C8.73784 2.936 7.96984 3.768 7.40984 4.856C6.84984 5.928 6.56984 7.176 6.56984 8.6C6.56984 10.024 6.84984 11.272 7.40984 12.344C7.96984 13.416 8.73784 14.24 9.71384 14.816C10.7058 15.392 11.8178 15.68 13.0498 15.68C14.4418 15.68 15.6258 15.368 16.6018 14.744C17.5938 14.104 18.3298 13.224 18.8098 12.104H20.7778C20.1698 13.704 19.1938 14.944 17.8498 15.824C16.5058 16.704 14.9058 17.144 13.0498 17.144C11.5138 17.144 10.1218 16.784 8.87384 16.064C7.62584 15.328 6.64184 14.312 5.92184 13.016C5.20184 11.72 4.84184 10.248 4.84184 8.6ZM27.3655 6.224C27.7335 5.408 28.2935 4.776 29.0455 4.328C29.8135 3.88 30.7495 3.656 31.8535 3.656V5.408H31.3975C30.1815 5.408 29.2055 5.736 28.4695 6.392C27.7335 7.048 27.3655 8.144 27.3655 9.68V17H25.6855V3.896H27.3655V6.224ZM47.7968 9.776C47.7968 10.352 47.7808 10.792 47.7488 11.096H36.8768C36.9248 12.088 37.1648 12.936 37.5968 13.64C38.0288 14.344 38.5968 14.88 39.3008 15.248C40.0048 15.6 40.7728 15.776 41.6048 15.776C42.6928 15.776 43.6048 15.512 44.3408 14.984C45.0928 14.456 45.5888 13.744 45.8288 12.848H47.6048C47.2848 14.128 46.5968 15.176 45.5408 15.992C44.5008 16.792 43.1888 17.192 41.6048 17.192C40.3728 17.192 39.2688 16.92 38.2928 16.376C37.3168 15.816 36.5488 15.032 35.9888 14.024C35.4448 13 35.1728 11.808 35.1728 10.448C35.1728 9.088 35.4448 7.896 35.9888 6.872C36.5328 5.848 37.2928 5.064 38.2688 4.52C39.2448 3.976 40.3568 3.704 41.6048 3.704C42.8528 3.704 43.9408 3.976 44.8688 4.52C45.8128 5.064 46.5328 5.8 47.0288 6.728C47.5408 7.64 47.7968 8.656 47.7968 9.776ZM46.0928 9.728C46.1088 8.752 45.9088 7.92 45.4928 7.232C45.0928 6.544 44.5408 6.024 43.8368 5.672C43.1328 5.32 42.3648 5.144 41.5328 5.144C40.2848 5.144 39.2208 5.544 38.3408 6.344C37.4608 7.144 36.9728 8.272 36.8768 9.728H46.0928ZM51.6625 10.424C51.6625 9.08 51.9265 7.904 52.4545 6.896C52.9985 5.872 53.7425 5.088 54.6865 4.544C55.6465 3.984 56.7265 3.704 57.9265 3.704C59.1745 3.704 60.2465 3.992 61.1425 4.568C62.0545 5.144 62.7105 5.88 63.1105 6.776V3.896H64.7905V17H63.1105V14.096C62.6945 14.992 62.0305 15.736 61.1185 16.328C60.2225 16.904 59.1505 17.192 57.9025 17.192C56.7185 17.192 55.6465 16.912 54.6865 16.352C53.7425 15.792 52.9985 15 52.4545 13.976C51.9265 12.952 51.6625 11.768 51.6625 10.424ZM63.1105 10.448C63.1105 9.392 62.8945 8.464 62.4625 7.664C62.0305 6.864 61.4385 6.248 60.6865 5.816C59.9505 5.384 59.1345 5.168 58.2385 5.168C57.3105 5.168 56.4785 5.376 55.7425 5.792C55.0065 6.208 54.4225 6.816 53.9905 7.616C53.5745 8.4 53.3665 9.336 53.3665 10.424C53.3665 11.496 53.5745 12.44 53.9905 13.256C54.4225 14.056 55.0065 14.672 55.7425 15.104C56.4785 15.52 57.3105 15.728 58.2385 15.728C59.1345 15.728 59.9505 15.512 60.6865 15.08C61.4385 14.648 62.0305 14.032 62.4625 13.232C62.8945 12.432 63.1105 11.504 63.1105 10.448ZM72.3698 5.312V13.448C72.3698 14.248 72.5218 14.8 72.8258 15.104C73.1298 15.408 73.6658 15.56 74.4338 15.56H75.9698V17H74.1698C72.9858 17 72.1058 16.728 71.5298 16.184C70.9538 15.624 70.6658 14.712 70.6658 13.448V5.312H68.8418V3.896H70.6658V0.607999H72.3698V3.896H75.9698V5.312H72.3698ZM92.1565 9.776C92.1565 10.352 92.1405 10.792 92.1085 11.096H81.2365C81.2845 12.088 81.5245 12.936 81.9565 13.64C82.3885 14.344 82.9565 14.88 83.6605 15.248C84.3645 15.6 85.1325 15.776 85.9645 15.776C87.0525 15.776 87.9645 15.512 88.7005 14.984C89.4525 14.456 89.9485 13.744 90.1885 12.848H91.9645C91.6445 14.128 90.9565 15.176 89.9005 15.992C88.8605 16.792 87.5485 17.192 85.9645 17.192C84.7325 17.192 83.6285 16.92 82.6525 16.376C81.6765 15.816 80.9085 15.032 80.3485 14.024C79.8045 13 79.5325 11.808 79.5325 10.448C79.5325 9.088 79.8045 7.896 80.3485 6.872C80.8925 5.848 81.6525 5.064 82.6285 4.52C83.6045 3.976 84.7165 3.704 85.9645 3.704C87.2125 3.704 88.3005 3.976 89.2285 4.52C90.1725 5.064 90.8925 5.8 91.3885 6.728C91.9005 7.64 92.1565 8.656 92.1565 9.776ZM90.4525 9.728C90.4685 8.752 90.2685 7.92 89.8525 7.232C89.4525 6.544 88.9005 6.024 88.1965 5.672C87.4925 5.32 86.7245 5.144 85.8925 5.144C84.6445 5.144 83.5805 5.544 82.7005 6.344C81.8205 7.144 81.3325 8.272 81.2365 9.728H90.4525ZM9.4295 36.224V48.92C9.4295 50.2 9.0375 51.232 8.2535 52.016C7.4695 52.784 6.4215 53.168 5.1095 53.168C3.7495 53.168 2.6615 52.76 1.8455 51.944C1.0455 51.112 0.6455 49.992 0.6455 48.584H2.3495C2.3655 49.496 2.5895 50.24 3.0215 50.816C3.4695 51.392 4.1655 51.68 5.1095 51.68C6.0055 51.68 6.6695 51.416 7.1015 50.888C7.5335 50.36 7.7495 49.704 7.7495 48.92V36.224H9.4295ZM20.9501 53.192C19.7181 53.192 18.6061 52.92 17.6141 52.376C16.6381 51.816 15.8621 51.032 15.2861 50.024C14.7261 49 14.4461 47.808 14.4461 46.448C14.4461 45.088 14.7341 43.904 15.3101 42.896C15.8861 41.872 16.6701 41.088 17.6621 40.544C18.6541 39.984 19.7661 39.704 20.9981 39.704C22.2301 39.704 23.3421 39.984 24.3341 40.544C25.3421 41.088 26.1261 41.872 26.6861 42.896C27.2621 43.904 27.5501 45.088 27.5501 46.448C27.5501 47.792 27.2621 48.976 26.6861 50C26.1101 51.024 25.3181 51.816 24.3101 52.376C23.3021 52.92 22.1821 53.192 20.9501 53.192ZM20.9501 51.728C21.8141 51.728 22.6141 51.536 23.3501 51.152C24.0861 50.752 24.6781 50.16 25.1261 49.376C25.5901 48.576 25.8221 47.6 25.8221 46.448C25.8221 45.296 25.5981 44.328 25.1501 43.544C24.7021 42.744 24.1101 42.152 23.3741 41.768C22.6381 41.368 21.8381 41.168 20.9741 41.168C20.1101 41.168 19.3101 41.368 18.5741 41.768C17.8381 42.152 17.2461 42.744 16.7981 43.544C16.3661 44.328 16.1501 45.296 16.1501 46.448C16.1501 47.6 16.3661 48.576 16.7981 49.376C17.2461 50.16 17.8301 50.752 18.5501 51.152C19.2861 51.536 20.0861 51.728 20.9501 51.728ZM43.5245 39.896V53H41.8445V50.696C41.4605 51.512 40.8685 52.136 40.0685 52.568C39.2685 53 38.3725 53.216 37.3805 53.216C35.8125 53.216 34.5325 52.736 33.5405 51.776C32.5485 50.8 32.0525 49.392 32.0525 47.552V39.896H33.7085V47.36C33.7085 48.784 34.0605 49.872 34.7645 50.624C35.4845 51.376 36.4605 51.752 37.6925 51.752C38.9565 51.752 39.9645 51.352 40.7165 50.552C41.4685 49.752 41.8445 48.576 41.8445 47.024V39.896H43.5245ZM50.6 42.224C50.968 41.408 51.528 40.776 52.28 40.328C53.048 39.88 53.984 39.656 55.088 39.656V41.408H54.632C53.416 41.408 52.44 41.736 51.704 42.392C50.968 43.048 50.6 44.144 50.6 45.68V53H48.92V39.896H50.6V42.224ZM65.3193 39.656C66.8873 39.656 68.1673 40.144 69.1593 41.12C70.1513 42.08 70.6473 43.48 70.6473 45.32V53H68.9913V45.512C68.9913 44.088 68.6313 43 67.9113 42.248C67.2073 41.496 66.2393 41.12 65.0073 41.12C63.7433 41.12 62.7353 41.52 61.9833 42.32C61.2313 43.12 60.8553 44.296 60.8553 45.848V53H59.1753V39.896H60.8553V42.128C61.2713 41.328 61.8713 40.72 62.6553 40.304C63.4393 39.872 64.3273 39.656 65.3193 39.656ZM75.1548 46.424C75.1548 45.08 75.4188 43.904 75.9468 42.896C76.4908 41.872 77.2348 41.088 78.1788 40.544C79.1388 39.984 80.2188 39.704 81.4188 39.704C82.6668 39.704 83.7388 39.992 84.6348 40.568C85.5468 41.144 86.2028 41.88 86.6028 42.776V39.896H88.2828V53H86.6028V50.096C86.1868 50.992 85.5228 51.736 84.6108 52.328C83.7148 52.904 82.6428 53.192 81.3948 53.192C80.2108 53.192 79.1388 52.912 78.1788 52.352C77.2348 51.792 76.4908 51 75.9468 49.976C75.4188 48.952 75.1548 47.768 75.1548 46.424ZM86.6028 46.448C86.6028 45.392 86.3868 44.464 85.9548 43.664C85.5228 42.864 84.9308 42.248 84.1788 41.816C83.4428 41.384 82.6268 41.168 81.7308 41.168C80.8028 41.168 79.9708 41.376 79.2348 41.792C78.4988 42.208 77.9148 42.816 77.4828 43.616C77.0668 44.4 76.8588 45.336 76.8588 46.424C76.8588 47.496 77.0668 48.44 77.4828 49.256C77.9148 50.056 78.4988 50.672 79.2348 51.104C79.9708 51.52 80.8028 51.728 81.7308 51.728C82.6268 51.728 83.4428 51.512 84.1788 51.08C84.9308 50.648 85.5228 50.032 85.9548 49.232C86.3868 48.432 86.6028 47.504 86.6028 46.448ZM95.3581 35.24V53H93.6781V35.24H95.3581Z" fill="black"/>
</svg>
