<svg width="164" height="154" viewBox="0 0 164 154" fill="none" xmlns="http://www.w3.org/2000/svg">
<g filter="url(#filter0_d_114_89)">
<rect x="4" width="156" height="146" rx="23" fill="#00008F"/>
<path opacity="0.3" d="M115.946 118.206L151.419 57.9845C153.124 55.0892 152.207 52.2088 148.972 50.3034L82.9825 11.4326C71.9843 4.95412 59.1397 7.52764 53.3413 17.3715L19.2326 75.2765C13.4342 85.1203 17.4105 97.6021 28.4087 104.081L94.3982 142.951C96.986 144.476 100.597 144.263 102.303 141.368L104.008 138.472C104.69 137.314 104.725 135.775 104.114 133.855C105.172 130.578 109.947 122.472 111.959 120.537C113.594 120.72 114.923 119.943 115.946 118.206ZM75.0887 41.9762L77.1208 48.3551C77.2699 48.8232 77.6012 49.2085 78.0157 49.4526C78.4301 49.6967 78.9257 49.7985 79.4094 49.7032C80.3727 49.5102 80.9131 48.5928 80.6149 47.6566L78.0896 39.7295C82.339 37.1385 87.4418 35.9836 92.715 36.338C90.4658 37.3871 88.5252 39.008 87.2184 41.2265C85.0909 44.8383 85.1001 49.136 86.7459 52.9669C83.7226 53.6381 81.059 55.3815 79.4559 58.1031C76.5844 62.9779 78.0398 69.3096 82.5915 73.2972L86.353 67.5402L83.5061 67.5792C83.3186 67.5784 83.1354 67.529 82.9777 67.4361C82.7755 67.317 82.6179 67.1315 82.5379 66.9113C82.4712 66.7198 82.4733 66.5187 82.5439 66.3411C82.6144 66.1634 82.7491 66.0197 82.926 65.9335L86.1779 64.361L82.9534 61.555C82.619 61.2629 82.5249 60.8078 82.7263 60.4658C82.9278 60.1238 83.3715 59.9854 83.7891 60.1363L87.8065 61.5961L87.6053 57.9896C87.5848 57.5851 87.861 57.2457 88.2724 57.1761C88.6859 57.1028 89.1214 57.3252 89.327 57.6973L90.8853 60.6042L103.631 41.103C103.877 40.7264 104.415 40.6314 104.847 40.8863C105.28 41.1411 105.458 41.6577 105.248 42.0557L94.2252 62.9322L98.1246 62.8771C98.3315 62.8769 98.5391 62.9428 98.7145 63.0642C98.8898 63.1856 99.0226 63.3555 99.0918 63.5467C99.1584 63.7383 99.1563 63.9393 99.0858 64.117C99.0153 64.2947 98.8805 64.4384 98.7037 64.5246L95.4518 66.097L98.6762 68.9031C99.0107 69.1951 99.1048 69.6503 98.9033 69.9923C98.7019 70.3343 98.2582 70.4727 97.8406 70.3217L93.8231 68.862L94.0244 72.4685C94.0448 72.8729 93.7687 73.2123 93.3573 73.282C93.1248 73.3206 92.8832 73.2685 92.6851 73.1517C92.5274 73.0589 92.3942 72.9244 92.3038 72.7589L90.659 69.6891L87.2942 76.0624C92.9845 78.1127 99.2279 76.3159 102.099 71.4411C103.702 68.7195 103.936 65.5447 103.057 62.5751C107.206 62.1572 110.969 60.0817 113.097 56.4699C114.403 54.2514 114.88 51.7683 114.708 49.2955C117.576 53.7339 119.039 58.7586 118.833 63.7314L110.675 65.3659C109.712 65.5589 109.171 66.4763 109.47 67.4124C109.619 67.8805 109.95 68.2658 110.364 68.5099C110.779 68.754 111.274 68.8558 111.758 68.7605L118.322 67.4453C117.848 69.623 117.157 71.7677 115.979 73.7672C115.924 73.8613 115.845 73.9297 115.788 74.0226L104.824 75.4787C104.591 75.5092 104.37 75.584 104.176 75.6988C103.981 75.8135 103.816 75.9659 103.69 76.1473C103.564 76.3287 103.48 76.5354 103.442 76.7556C103.405 76.9758 103.414 77.2052 103.47 77.4305C103.53 77.6753 103.644 77.9101 103.804 78.119C103.964 78.3279 104.166 78.506 104.396 78.6415C104.777 78.8654 105.225 78.9686 105.673 78.9108L112.642 77.9852C105.021 85.5832 92.1312 87.0184 81.3978 80.6959C70.6644 74.3735 65.6703 62.4036 68.6219 52.0577L71.1912 58.6019C71.3492 59.007 71.6531 59.3576 72.0456 59.5878C72.4944 59.8522 73.0413 59.9501 73.5537 59.8107C74.499 59.5559 74.9685 58.6016 74.6044 57.6802L70.5627 47.3853C70.6161 47.29 70.6379 47.1883 70.6933 47.0942C71.8701 45.0916 73.4107 43.4472 75.0887 41.9762ZM92.8095 126.416L35.2304 92.4995C31.3487 90.213 30.1252 86.3725 32.1717 82.8982C34.2183 79.4239 38.8174 79.0131 42.0522 80.9185L99.6312 114.835L92.8095 126.416Z" fill="black"/>
<path d="M127.356 56.3601L118.712 63.2934C117.831 64.0002 116.406 64.0002 115.524 63.2934L94.7109 46.5993C93.8296 45.8925 93.8296 44.7495 94.7109 44.0426L103.355 37.1093C106.861 34.2969 112.562 34.2969 116.087 37.1093L127.356 46.1481C130.881 48.9606 130.881 53.5326 127.356 56.3601ZM87.2855 49.9983L38.0457 89.4924L34.0706 107.766C33.5268 110.232 36.2082 112.368 39.2833 111.947L62.0656 108.743L111.305 69.2491C112.187 68.5422 112.187 67.3992 111.305 66.6923L90.4919 49.9983C89.5919 49.2914 88.1668 49.2914 87.2855 49.9983ZM57.2654 86.1085C56.2341 85.2813 56.2341 83.9579 57.2654 83.1307L86.1417 59.9696C87.173 59.1424 88.8231 59.1424 89.8544 59.9696C90.8857 60.7968 90.8857 62.1203 89.8544 62.9474L60.9781 86.1085C59.9468 86.9357 58.2967 86.9357 57.2654 86.1085ZM50.4963 98.7569H59.4967V104.216L47.4024 105.916L41.5709 101.238L43.6898 91.5378H50.4963V98.7569Z" fill="white"/>
</g>
<defs>
<filter id="filter0_d_114_89" x="0" y="0" width="164" height="154" filterUnits="userSpaceOnUse" color-interpolation-filters="sRGB">
<feFlood flood-opacity="0" result="BackgroundImageFix"/>
<feColorMatrix in="SourceAlpha" type="matrix" values="0 0 0 0 0 0 0 0 0 0 0 0 0 0 0 0 0 0 127 0" result="hardAlpha"/>
<feOffset dy="4"/>
<feGaussianBlur stdDeviation="2"/>
<feComposite in2="hardAlpha" operator="out"/>
<feColorMatrix type="matrix" values="0 0 0 0 0 0 0 0 0 0 0 0 0 0 0 0 0 0 0.25 0"/>
<feBlend mode="normal" in2="BackgroundImageFix" result="effect1_dropShadow_114_89"/>
<feBlend mode="normal" in="SourceGraphic" in2="effect1_dropShadow_114_89" result="shape"/>
</filter>
</defs>
</svg>
