<svg width="164" height="154" viewBox="0 0 164 154" fill="none" xmlns="http://www.w3.org/2000/svg">
<g filter="url(#filter0_d_114_88)">
<rect x="4" width="156" height="146" rx="23" fill="#00008F"/>
</g>
<path opacity="0.3" d="M119.372 118.206L154.845 57.9845C156.551 55.0892 155.633 52.2088 152.398 50.3034L86.4087 11.4326C75.4104 4.95412 62.5659 7.52764 56.7674 17.3715L22.6588 75.2765C16.8603 85.1203 20.8366 97.6021 31.8349 104.081L97.8244 142.951C100.412 144.476 104.023 144.263 105.729 141.368L107.434 138.472C108.116 137.314 108.152 135.775 107.54 133.855C108.598 130.578 113.373 122.472 115.385 120.537C117.02 120.72 118.349 119.943 119.372 118.206ZM78.5148 41.9762L80.5469 48.3551C80.6961 48.8232 81.0274 49.2085 81.4418 49.4526C81.8563 49.6967 82.3519 49.7985 82.8355 49.7032C83.7989 49.5102 84.3393 48.5928 84.0411 47.6566L81.5157 39.7295C85.7652 37.1385 90.868 35.9836 96.1411 36.338C93.8919 37.3871 91.9513 39.008 90.6445 41.2265C88.517 44.8383 88.5263 49.136 90.1721 52.9669C87.1488 53.6381 84.4852 55.3815 82.8821 58.1031C80.0105 62.9779 81.4659 69.3096 86.0177 73.2972L89.7792 67.5402L86.9323 67.5792C86.7448 67.5784 86.5615 67.529 86.4038 67.4361C86.2016 67.317 86.044 67.1315 85.964 66.9113C85.8974 66.7198 85.8995 66.5187 85.97 66.3411C86.0405 66.1634 86.1753 66.0197 86.3521 65.9335L89.604 64.361L86.3796 61.555C86.0451 61.2629 85.951 60.8078 86.1525 60.4658C86.3539 60.1238 86.7976 59.9854 87.2152 60.1363L91.2327 61.5961L91.0314 57.9896C91.011 57.5851 91.2871 57.2457 91.6985 57.1761C92.1121 57.1028 92.5475 57.3252 92.7531 57.6973L94.3114 60.6042L107.057 41.103C107.303 40.7264 107.841 40.6314 108.274 40.8863C108.706 41.1411 108.884 41.6577 108.674 42.0557L97.6513 62.9322L101.551 62.8771C101.758 62.8769 101.965 62.9428 102.141 63.0642C102.316 63.1856 102.449 63.3555 102.518 63.5467C102.585 63.7383 102.582 63.9393 102.512 64.117C102.441 64.2947 102.307 64.4384 102.13 64.5246L98.8779 66.097L102.102 68.9031C102.437 69.1951 102.531 69.6503 102.329 69.9923C102.128 70.3343 101.684 70.4727 101.267 70.3217L97.2493 68.862L97.4505 72.4685C97.471 72.8729 97.1948 73.2123 96.7834 73.282C96.551 73.3206 96.3094 73.2685 96.1112 73.1517C95.9536 73.0589 95.8204 72.9244 95.7299 72.7589L94.0851 69.6891L90.7204 76.0624C96.4106 78.1127 102.654 76.3159 105.526 71.4411C107.129 68.7195 107.362 65.5447 106.483 62.5751C110.632 62.1572 114.395 60.0817 116.523 56.4699C117.83 54.2514 118.306 51.7683 118.135 49.2955C121.002 53.7339 122.465 58.7586 122.259 63.7314L114.101 65.3659C113.138 65.5589 112.597 66.4763 112.896 67.4124C113.045 67.8805 113.376 68.2658 113.791 68.5099C114.205 68.754 114.701 68.8558 115.184 68.7605L121.749 67.4453C121.275 69.623 120.583 71.7677 119.405 73.7672C119.35 73.8613 119.272 73.9297 119.214 74.0226L108.25 75.4787C108.017 75.5092 107.796 75.584 107.602 75.6988C107.407 75.8135 107.242 75.9659 107.116 76.1473C106.99 76.3287 106.906 76.5354 106.869 76.7556C106.831 76.9758 106.84 77.2052 106.897 77.4305C106.957 77.6753 107.07 77.9101 107.23 78.119C107.39 78.3279 107.592 78.506 107.823 78.6415C108.203 78.8654 108.651 78.9686 109.099 78.9108L116.068 77.9852C108.448 85.5832 95.5573 87.0184 84.8239 80.6959C74.0905 74.3735 69.0964 62.4036 72.0481 52.0577L74.6173 58.6019C74.7754 59.007 75.0792 59.3576 75.4717 59.5878C75.9206 59.8522 76.4675 59.9501 76.9798 59.8107C77.9251 59.5559 78.3946 58.6016 78.0305 57.6802L73.9888 47.3853C74.0422 47.29 74.064 47.1883 74.1194 47.0942C75.2963 45.0916 76.8369 43.4472 78.5148 41.9762ZM96.2357 126.416L38.6566 92.4995C34.7749 90.213 33.5514 86.3725 35.5979 82.8982C37.6444 79.4239 42.2435 79.0131 45.4783 80.9185L103.057 114.835L96.2357 126.416Z" fill="black"/>
<path d="M100.857 87.5H130V42.125C130 39.8391 127.707 38 124.857 38H39.1429C36.2929 38 34 39.8391 34 42.125V110.875C34 113.161 36.2929 115 39.1429 115H95.7143V91.625C95.7143 89.3563 98.0286 87.5 100.857 87.5ZM128.5 96.9531L107.5 113.797C106.536 114.57 105.229 115 103.857 115H102.571V93H130V94.0484C130 95.1313 129.464 96.1797 128.5 96.9531Z" fill="white"/>
<defs>
<filter id="filter0_d_114_88" x="0" y="0" width="164" height="154" filterUnits="userSpaceOnUse" color-interpolation-filters="sRGB">
<feFlood flood-opacity="0" result="BackgroundImageFix"/>
<feColorMatrix in="SourceAlpha" type="matrix" values="0 0 0 0 0 0 0 0 0 0 0 0 0 0 0 0 0 0 127 0" result="hardAlpha"/>
<feOffset dy="4"/>
<feGaussianBlur stdDeviation="2"/>
<feComposite in2="hardAlpha" operator="out"/>
<feColorMatrix type="matrix" values="0 0 0 0 0 0 0 0 0 0 0 0 0 0 0 0 0 0 0.25 0"/>
<feBlend mode="normal" in2="BackgroundImageFix" result="effect1_dropShadow_114_88"/>
<feBlend mode="normal" in="SourceGraphic" in2="effect1_dropShadow_114_88" result="shape"/>
</filter>
</defs>
</svg>
