<svg width="96" height="55" viewBox="0 0 96 55" fill="none" xmlns="http://www.w3.org/2000/svg">
<path d="M9.4295 1.224V13.92C9.4295 15.2 9.0375 16.232 8.2535 17.016C7.4695 17.784 6.4215 18.168 5.1095 18.168C3.7495 18.168 2.6615 17.76 1.8455 16.944C1.0455 16.112 0.6455 14.992 0.6455 13.584H2.3495C2.3655 14.496 2.5895 15.24 3.0215 15.816C3.4695 16.392 4.1655 16.68 5.1095 16.68C6.0055 16.68 6.6695 16.416 7.1015 15.888C7.5335 15.36 7.7495 14.704 7.7495 13.92V1.224H9.4295ZM20.9501 18.192C19.7181 18.192 18.6061 17.92 17.6141 17.376C16.6381 16.816 15.8621 16.032 15.2861 15.024C14.7261 14 14.4461 12.808 14.4461 11.448C14.4461 10.088 14.7341 8.904 15.3101 7.896C15.8861 6.872 16.6701 6.088 17.6621 5.544C18.6541 4.984 19.7661 4.704 20.9981 4.704C22.2301 4.704 23.3421 4.984 24.3341 5.544C25.3421 6.088 26.1261 6.872 26.6861 7.896C27.2621 8.904 27.5501 10.088 27.5501 11.448C27.5501 12.792 27.2621 13.976 26.6861 15C26.1101 16.024 25.3181 16.816 24.3101 17.376C23.3021 17.92 22.1821 18.192 20.9501 18.192ZM20.9501 16.728C21.8141 16.728 22.6141 16.536 23.3501 16.152C24.0861 15.752 24.6781 15.16 25.1261 14.376C25.5901 13.576 25.8221 12.6 25.8221 11.448C25.8221 10.296 25.5981 9.328 25.1501 8.544C24.7021 7.744 24.1101 7.152 23.3741 6.768C22.6381 6.368 21.8381 6.168 20.9741 6.168C20.1101 6.168 19.3101 6.368 18.5741 6.768C17.8381 7.152 17.2461 7.744 16.7981 8.544C16.3661 9.328 16.1501 10.296 16.1501 11.448C16.1501 12.6 16.3661 13.576 16.7981 14.376C17.2461 15.16 17.8301 15.752 18.5501 16.152C19.2861 16.536 20.0861 16.728 20.9501 16.728ZM43.5245 4.896V18H41.8445V15.696C41.4605 16.512 40.8685 17.136 40.0685 17.568C39.2685 18 38.3725 18.216 37.3805 18.216C35.8125 18.216 34.5325 17.736 33.5405 16.776C32.5485 15.8 32.0525 14.392 32.0525 12.552V4.896H33.7085V12.36C33.7085 13.784 34.0605 14.872 34.7645 15.624C35.4845 16.376 36.4605 16.752 37.6925 16.752C38.9565 16.752 39.9645 16.352 40.7165 15.552C41.4685 14.752 41.8445 13.576 41.8445 12.024V4.896H43.5245ZM50.6 7.224C50.968 6.408 51.528 5.776 52.28 5.328C53.048 4.88 53.984 4.656 55.088 4.656V6.408H54.632C53.416 6.408 52.44 6.736 51.704 7.392C50.968 8.048 50.6 9.144 50.6 10.68V18H48.92V4.896H50.6V7.224ZM65.3193 4.656C66.8873 4.656 68.1673 5.144 69.1593 6.12C70.1513 7.08 70.6473 8.48 70.6473 10.32V18H68.9913V10.512C68.9913 9.088 68.6313 8 67.9113 7.248C67.2073 6.496 66.2393 6.12 65.0073 6.12C63.7433 6.12 62.7353 6.52 61.9833 7.32C61.2313 8.12 60.8553 9.296 60.8553 10.848V18H59.1753V4.896H60.8553V7.128C61.2713 6.328 61.8713 5.72 62.6553 5.304C63.4393 4.872 64.3273 4.656 65.3193 4.656ZM75.1548 11.424C75.1548 10.08 75.4188 8.904 75.9468 7.896C76.4908 6.872 77.2348 6.088 78.1788 5.544C79.1388 4.984 80.2188 4.704 81.4188 4.704C82.6668 4.704 83.7388 4.992 84.6348 5.568C85.5468 6.144 86.2028 6.88 86.6028 7.776V4.896H88.2828V18H86.6028V15.096C86.1868 15.992 85.5228 16.736 84.6108 17.328C83.7148 17.904 82.6428 18.192 81.3948 18.192C80.2108 18.192 79.1388 17.912 78.1788 17.352C77.2348 16.792 76.4908 16 75.9468 14.976C75.4188 13.952 75.1548 12.768 75.1548 11.424ZM86.6028 11.448C86.6028 10.392 86.3868 9.464 85.9548 8.664C85.5228 7.864 84.9308 7.248 84.1788 6.816C83.4428 6.384 82.6268 6.168 81.7308 6.168C80.8028 6.168 79.9708 6.376 79.2348 6.792C78.4988 7.208 77.9148 7.816 77.4828 8.616C77.0668 9.4 76.8588 10.336 76.8588 11.424C76.8588 12.496 77.0668 13.44 77.4828 14.256C77.9148 15.056 78.4988 15.672 79.2348 16.104C79.9708 16.52 80.8028 16.728 81.7308 16.728C82.6268 16.728 83.4428 16.512 84.1788 16.08C84.9308 15.648 85.5228 15.032 85.9548 14.232C86.3868 13.432 86.6028 12.504 86.6028 11.448ZM95.3581 0.24V18H93.6781V0.24H95.3581ZM28.2067 37.224V38.616H20.8147V44.88H27.0547V46.272H20.8147V54H19.1347V37.224H28.2067ZM44.3866 46.776C44.3866 47.352 44.3706 47.792 44.3386 48.096H33.4666C33.5146 49.088 33.7546 49.936 34.1866 50.64C34.6186 51.344 35.1866 51.88 35.8906 52.248C36.5946 52.6 37.3626 52.776 38.1946 52.776C39.2826 52.776 40.1946 52.512 40.9306 51.984C41.6826 51.456 42.1786 50.744 42.4186 49.848H44.1946C43.8746 51.128 43.1866 52.176 42.1306 52.992C41.0906 53.792 39.7786 54.192 38.1946 54.192C36.9626 54.192 35.8586 53.92 34.8826 53.376C33.9066 52.816 33.1386 52.032 32.5786 51.024C32.0346 50 31.7626 48.808 31.7626 47.448C31.7626 46.088 32.0346 44.896 32.5786 43.872C33.1226 42.848 33.8826 42.064 34.8586 41.52C35.8346 40.976 36.9466 40.704 38.1946 40.704C39.4426 40.704 40.5306 40.976 41.4586 41.52C42.4026 42.064 43.1226 42.8 43.6186 43.728C44.1306 44.64 44.3866 45.656 44.3866 46.776ZM42.6826 46.728C42.6986 45.752 42.4986 44.92 42.0826 44.232C41.6826 43.544 41.1306 43.024 40.4266 42.672C39.7226 42.32 38.9546 42.144 38.1226 42.144C36.8746 42.144 35.8106 42.544 34.9306 43.344C34.0506 44.144 33.5626 45.272 33.4666 46.728H42.6826ZM60.8763 46.776C60.8763 47.352 60.8603 47.792 60.8283 48.096H49.9563C50.0043 49.088 50.2443 49.936 50.6763 50.64C51.1083 51.344 51.6763 51.88 52.3803 52.248C53.0843 52.6 53.8523 52.776 54.6843 52.776C55.7723 52.776 56.6843 52.512 57.4203 51.984C58.1723 51.456 58.6683 50.744 58.9083 49.848H60.6843C60.3643 51.128 59.6763 52.176 58.6203 52.992C57.5803 53.792 56.2683 54.192 54.6843 54.192C53.4523 54.192 52.3483 53.92 51.3723 53.376C50.3963 52.816 49.6283 52.032 49.0683 51.024C48.5243 50 48.2523 48.808 48.2523 47.448C48.2523 46.088 48.5243 44.896 49.0683 43.872C49.6123 42.848 50.3723 42.064 51.3483 41.52C52.3243 40.976 53.4363 40.704 54.6843 40.704C55.9323 40.704 57.0203 40.976 57.9483 41.52C58.8923 42.064 59.6123 42.8 60.1083 43.728C60.6203 44.64 60.8763 45.656 60.8763 46.776ZM59.1723 46.728C59.1883 45.752 58.9883 44.92 58.5723 44.232C58.1723 43.544 57.6203 43.024 56.9163 42.672C56.2123 42.32 55.4443 42.144 54.6123 42.144C53.3643 42.144 52.3003 42.544 51.4203 43.344C50.5403 44.144 50.0523 45.272 49.9563 46.728H59.1723ZM64.742 47.424C64.742 46.08 65.014 44.904 65.558 43.896C66.102 42.872 66.846 42.088 67.79 41.544C68.75 40.984 69.83 40.704 71.03 40.704C72.182 40.704 73.222 40.984 74.15 41.544C75.078 42.104 75.758 42.832 76.19 43.728V36.24H77.87V54H76.19V51.072C75.79 51.984 75.134 52.736 74.222 53.328C73.31 53.904 72.238 54.192 71.006 54.192C69.806 54.192 68.726 53.912 67.766 53.352C66.822 52.792 66.078 52 65.534 50.976C65.006 49.952 64.742 48.768 64.742 47.424ZM76.19 47.448C76.19 46.392 75.974 45.464 75.542 44.664C75.11 43.864 74.518 43.248 73.766 42.816C73.03 42.384 72.214 42.168 71.318 42.168C70.39 42.168 69.558 42.376 68.822 42.792C68.086 43.208 67.502 43.816 67.07 44.616C66.654 45.4 66.446 46.336 66.446 47.424C66.446 48.496 66.654 49.44 67.07 50.256C67.502 51.056 68.086 51.672 68.822 52.104C69.558 52.52 70.39 52.728 71.318 52.728C72.214 52.728 73.03 52.512 73.766 52.08C74.518 51.648 75.11 51.032 75.542 50.232C75.974 49.432 76.19 48.504 76.19 47.448Z" fill="black"/>
</svg>
