<svg width="70" height="66" viewBox="0 0 70 66" fill="none" xmlns="http://www.w3.org/2000/svg">
<g filter="url(#filter0_d_46_134)">
<path d="M35 0C17.875 0 4 12.9798 4 29C4 45.0202 17.875 58 35 58C52.125 58 66 45.0202 66 29C66 12.9798 52.125 0 35 0ZM35 11.2258C41.075 11.2258 46 15.8331 46 21.5161C46 27.1992 41.075 31.8065 35 31.8065C28.925 31.8065 24 27.1992 24 21.5161C24 15.8331 28.925 11.2258 35 11.2258ZM35 51.4516C27.6625 51.4516 21.0875 48.3411 16.6875 43.4766C19.0375 39.3371 23.6375 36.4839 29 36.4839C29.3 36.4839 29.6 36.5306 29.8875 36.6125C31.5125 37.1036 33.2125 37.4194 35 37.4194C36.7875 37.4194 38.5 37.1036 40.1125 36.6125C40.4 36.5306 40.7 36.4839 41 36.4839C46.3625 36.4839 50.9625 39.3371 53.3125 43.4766C48.9125 48.3411 42.3375 51.4516 35 51.4516Z" fill="#00008F"/>
</g>
<defs>
<filter id="filter0_d_46_134" x="0" y="0" width="70" height="66" filterUnits="userSpaceOnUse" color-interpolation-filters="sRGB">
<feFlood flood-opacity="0" result="BackgroundImageFix"/>
<feColorMatrix in="SourceAlpha" type="matrix" values="0 0 0 0 0 0 0 0 0 0 0 0 0 0 0 0 0 0 127 0" result="hardAlpha"/>
<feOffset dy="4"/>
<feGaussianBlur stdDeviation="2"/>
<feComposite in2="hardAlpha" operator="out"/>
<feColorMatrix type="matrix" values="0 0 0 0 0 0 0 0 0 0 0 0 0 0 0 0 0 0 0.25 0"/>
<feBlend mode="normal" in2="BackgroundImageFix" result="effect1_dropShadow_46_134"/>
<feBlend mode="normal" in="SourceGraphic" in2="effect1_dropShadow_46_134" result="shape"/>
</filter>
</defs>
</svg>
