<svg width="70" height="66" viewBox="0 0 70 66" fill="none" xmlns="http://www.w3.org/2000/svg">
<g filter="url(#filter0_d_46_132)">
<path d="M65.2081 35.9693L59.6456 33.0927C60.207 30.3798 60.207 27.5968 59.6456 24.8839L65.2081 22.0073C65.8479 21.6799 66.1352 21.0016 65.9263 20.3702C64.4769 16.2073 62.009 12.442 58.7838 9.30814C58.2876 8.8287 57.478 8.71177 56.8513 9.03919L51.2887 11.9158C48.9514 10.115 46.2616 8.72346 43.3497 7.81137V2.06986C43.3497 1.41502 42.8405 0.842042 42.1223 0.70172C37.3302 -0.257147 32.4206 -0.210374 27.8635 0.70172C27.1453 0.842042 26.6361 1.41502 26.6361 2.06986V7.82306C23.7373 8.74685 21.0474 10.1384 18.6971 11.9275L13.1476 9.05088C12.5078 8.72346 11.7113 8.82871 11.2151 9.31983C7.98988 12.442 5.522 16.2073 4.07262 20.3819C3.85064 21.0133 4.15096 21.6916 4.79078 22.019L10.3533 24.8956C9.79182 27.6085 9.79182 30.3915 10.3533 33.1044L4.79078 35.981C4.15096 36.3084 3.86369 36.9867 4.07262 37.6181C5.522 41.781 7.98988 45.5463 11.2151 48.6802C11.7113 49.1596 12.5209 49.2765 13.1476 48.9491L18.7101 46.0725C21.0474 47.8733 23.7373 49.2648 26.6491 50.1769V55.9301C26.6491 56.585 27.1584 57.158 27.8765 57.2983C32.6687 58.2571 37.5783 58.2104 42.1354 57.2983C42.8536 57.158 43.3628 56.585 43.3628 55.9301V50.1769C46.2616 49.2531 48.9514 47.8616 51.3018 46.0725L56.8643 48.9491C57.5041 49.2765 58.3006 49.1713 58.7968 48.6802C62.022 45.558 64.4899 41.7927 65.9393 37.6181C66.1352 36.975 65.8479 36.2967 65.2081 35.9693ZM34.9929 38.3431C29.2345 38.3431 24.5469 34.1451 24.5469 28.9883C24.5469 23.8315 29.2345 19.6335 34.9929 19.6335C40.7513 19.6335 45.4389 23.8315 45.4389 28.9883C45.4389 34.1451 40.7513 38.3431 34.9929 38.3431Z" fill="#00008F"/>
</g>
<defs>
<filter id="filter0_d_46_132" x="0" y="0" width="70" height="66" filterUnits="userSpaceOnUse" color-interpolation-filters="sRGB">
<feFlood flood-opacity="0" result="BackgroundImageFix"/>
<feColorMatrix in="SourceAlpha" type="matrix" values="0 0 0 0 0 0 0 0 0 0 0 0 0 0 0 0 0 0 127 0" result="hardAlpha"/>
<feOffset dy="4"/>
<feGaussianBlur stdDeviation="2"/>
<feComposite in2="hardAlpha" operator="out"/>
<feColorMatrix type="matrix" values="0 0 0 0 0 0 0 0 0 0 0 0 0 0 0 0 0 0 0.25 0"/>
<feBlend mode="normal" in2="BackgroundImageFix" result="effect1_dropShadow_46_132"/>
<feBlend mode="normal" in="SourceGraphic" in2="effect1_dropShadow_46_132" result="shape"/>
</filter>
</defs>
</svg>
