<svg width="96" height="56" viewBox="0 0 96 56" fill="none" xmlns="http://www.w3.org/2000/svg">
<path d="M33.4737 2.224L27.1137 19H25.1937L18.8337 2.224H20.6577L26.1537 17.176L31.6977 2.224H33.4737ZM38.398 3.424C38.062 3.424 37.774 3.304 37.534 3.064C37.294 2.824 37.174 2.528 37.174 2.176C37.174 1.824 37.294 1.536 37.534 1.312C37.774 1.072 38.062 0.951999 38.398 0.951999C38.734 0.951999 39.022 1.072 39.262 1.312C39.502 1.536 39.622 1.824 39.622 2.176C39.622 2.528 39.502 2.824 39.262 3.064C39.022 3.304 38.734 3.424 38.398 3.424ZM39.238 5.896V19H37.558V5.896H39.238ZM56.4583 11.776C56.4583 12.352 56.4423 12.792 56.4103 13.096H45.5383C45.5863 14.088 45.8263 14.936 46.2583 15.64C46.6903 16.344 47.2583 16.88 47.9623 17.248C48.6663 17.6 49.4343 17.776 50.2663 17.776C51.3543 17.776 52.2663 17.512 53.0023 16.984C53.7543 16.456 54.2503 15.744 54.4903 14.848H56.2663C55.9463 16.128 55.2583 17.176 54.2023 17.992C53.1623 18.792 51.8503 19.192 50.2663 19.192C49.0343 19.192 47.9303 18.92 46.9543 18.376C45.9783 17.816 45.2103 17.032 44.6503 16.024C44.1063 15 43.8343 13.808 43.8343 12.448C43.8343 11.088 44.1063 9.896 44.6503 8.872C45.1943 7.848 45.9543 7.064 46.9303 6.52C47.9063 5.976 49.0183 5.704 50.2663 5.704C51.5143 5.704 52.6023 5.976 53.5303 6.52C54.4743 7.064 55.1943 7.8 55.6903 8.728C56.2023 9.64 56.4583 10.656 56.4583 11.776ZM54.7543 11.728C54.7703 10.752 54.5703 9.92 54.1543 9.232C53.7543 8.544 53.2023 8.024 52.4983 7.672C51.7943 7.32 51.0263 7.144 50.1943 7.144C48.9463 7.144 47.8823 7.544 47.0023 8.344C46.1223 9.144 45.6343 10.272 45.5383 11.728H54.7543ZM78.372 5.896L74.268 19H72.588L68.964 8.008L65.34 19H63.636L59.532 5.896H61.236L64.5 17.296L68.172 5.896H69.852L73.476 17.32L76.716 5.896H78.372ZM9.4295 38.224V50.92C9.4295 52.2 9.0375 53.232 8.2535 54.016C7.4695 54.784 6.4215 55.168 5.1095 55.168C3.7495 55.168 2.6615 54.76 1.8455 53.944C1.0455 53.112 0.6455 51.992 0.6455 50.584H2.3495C2.3655 51.496 2.5895 52.24 3.0215 52.816C3.4695 53.392 4.1655 53.68 5.1095 53.68C6.0055 53.68 6.6695 53.416 7.1015 52.888C7.5335 52.36 7.7495 51.704 7.7495 50.92V38.224H9.4295ZM20.9501 55.192C19.7181 55.192 18.6061 54.92 17.6141 54.376C16.6381 53.816 15.8621 53.032 15.2861 52.024C14.7261 51 14.4461 49.808 14.4461 48.448C14.4461 47.088 14.7341 45.904 15.3101 44.896C15.8861 43.872 16.6701 43.088 17.6621 42.544C18.6541 41.984 19.7661 41.704 20.9981 41.704C22.2301 41.704 23.3421 41.984 24.3341 42.544C25.3421 43.088 26.1261 43.872 26.6861 44.896C27.2621 45.904 27.5501 47.088 27.5501 48.448C27.5501 49.792 27.2621 50.976 26.6861 52C26.1101 53.024 25.3181 53.816 24.3101 54.376C23.3021 54.92 22.1821 55.192 20.9501 55.192ZM20.9501 53.728C21.8141 53.728 22.6141 53.536 23.3501 53.152C24.0861 52.752 24.6781 52.16 25.1261 51.376C25.5901 50.576 25.8221 49.6 25.8221 48.448C25.8221 47.296 25.5981 46.328 25.1501 45.544C24.7021 44.744 24.1101 44.152 23.3741 43.768C22.6381 43.368 21.8381 43.168 20.9741 43.168C20.1101 43.168 19.3101 43.368 18.5741 43.768C17.8381 44.152 17.2461 44.744 16.7981 45.544C16.3661 46.328 16.1501 47.296 16.1501 48.448C16.1501 49.6 16.3661 50.576 16.7981 51.376C17.2461 52.16 17.8301 52.752 18.5501 53.152C19.2861 53.536 20.0861 53.728 20.9501 53.728ZM43.5245 41.896V55H41.8445V52.696C41.4605 53.512 40.8685 54.136 40.0685 54.568C39.2685 55 38.3725 55.216 37.3805 55.216C35.8125 55.216 34.5325 54.736 33.5405 53.776C32.5485 52.8 32.0525 51.392 32.0525 49.552V41.896H33.7085V49.36C33.7085 50.784 34.0605 51.872 34.7645 52.624C35.4845 53.376 36.4605 53.752 37.6925 53.752C38.9565 53.752 39.9645 53.352 40.7165 52.552C41.4685 51.752 41.8445 50.576 41.8445 49.024V41.896H43.5245ZM50.6 44.224C50.968 43.408 51.528 42.776 52.28 42.328C53.048 41.88 53.984 41.656 55.088 41.656V43.408H54.632C53.416 43.408 52.44 43.736 51.704 44.392C50.968 45.048 50.6 46.144 50.6 47.68V55H48.92V41.896H50.6V44.224ZM65.3193 41.656C66.8873 41.656 68.1673 42.144 69.1593 43.12C70.1513 44.08 70.6473 45.48 70.6473 47.32V55H68.9913V47.512C68.9913 46.088 68.6313 45 67.9113 44.248C67.2073 43.496 66.2393 43.12 65.0073 43.12C63.7433 43.12 62.7353 43.52 61.9833 44.32C61.2313 45.12 60.8553 46.296 60.8553 47.848V55H59.1753V41.896H60.8553V44.128C61.2713 43.328 61.8713 42.72 62.6553 42.304C63.4393 41.872 64.3273 41.656 65.3193 41.656ZM75.1548 48.424C75.1548 47.08 75.4188 45.904 75.9468 44.896C76.4908 43.872 77.2348 43.088 78.1788 42.544C79.1388 41.984 80.2188 41.704 81.4188 41.704C82.6668 41.704 83.7388 41.992 84.6348 42.568C85.5468 43.144 86.2028 43.88 86.6028 44.776V41.896H88.2828V55H86.6028V52.096C86.1868 52.992 85.5228 53.736 84.6108 54.328C83.7148 54.904 82.6428 55.192 81.3948 55.192C80.2108 55.192 79.1388 54.912 78.1788 54.352C77.2348 53.792 76.4908 53 75.9468 51.976C75.4188 50.952 75.1548 49.768 75.1548 48.424ZM86.6028 48.448C86.6028 47.392 86.3868 46.464 85.9548 45.664C85.5228 44.864 84.9308 44.248 84.1788 43.816C83.4428 43.384 82.6268 43.168 81.7308 43.168C80.8028 43.168 79.9708 43.376 79.2348 43.792C78.4988 44.208 77.9148 44.816 77.4828 45.616C77.0668 46.4 76.8588 47.336 76.8588 48.424C76.8588 49.496 77.0668 50.44 77.4828 51.256C77.9148 52.056 78.4988 52.672 79.2348 53.104C79.9708 53.52 80.8028 53.728 81.7308 53.728C82.6268 53.728 83.4428 53.512 84.1788 53.08C84.9308 52.648 85.5228 52.032 85.9548 51.232C86.3868 50.432 86.6028 49.504 86.6028 48.448ZM95.3581 37.24V55H93.6781V37.24H95.3581Z" fill="black"/>
</svg>
