<svg width="317" height="34" viewBox="0 0 317 34" fill="none" xmlns="http://www.w3.org/2000/svg">
<path d="M32.8088 7.44L27.2728 30H19.5608L16.4568 16.176L13.2888 30H5.57678L0.104784 7.44H6.88878L9.51278 22.864L13.0648 7.44H19.9448L23.4008 22.736L26.0248 7.44H32.8088ZM54.7023 20.816C54.7023 21.3067 54.6703 21.7973 54.6063 22.288H42.7343C42.7983 23.2693 43.065 24.0053 43.5343 24.496C44.025 24.9653 44.6436 25.2 45.3903 25.2C46.4356 25.2 47.1823 24.7307 47.6303 23.792H54.3183C54.041 25.0293 53.497 26.1387 52.6863 27.12C51.897 28.08 50.8943 28.8373 49.6783 29.392C48.4623 29.9467 47.1183 30.224 45.6463 30.224C43.8756 30.224 42.297 29.8507 40.9103 29.104C39.545 28.3573 38.4676 27.2907 37.6783 25.904C36.9103 24.5173 36.5263 22.8853 36.5263 21.008C36.5263 19.1307 36.9103 17.5093 37.6783 16.144C38.4463 14.7573 39.513 13.6907 40.8783 12.944C42.265 12.1973 43.8543 11.824 45.6463 11.824C47.417 11.824 48.985 12.1867 50.3503 12.912C51.7156 13.6373 52.7823 14.6827 53.5503 16.048C54.3183 17.392 54.7023 18.9813 54.7023 20.816ZM48.3023 19.248C48.3023 18.48 48.0463 17.8827 47.5343 17.456C47.0223 17.008 46.3823 16.784 45.6143 16.784C44.8463 16.784 44.217 16.9973 43.7263 17.424C43.2356 17.8293 42.9156 18.4373 42.7663 19.248H48.3023ZM65.621 6.32V30H59.349V6.32H65.621ZM70.2488 21.008C70.2488 19.152 70.6328 17.5307 71.4008 16.144C72.1688 14.7573 73.2354 13.6907 74.6008 12.944C75.9874 12.1973 77.5661 11.824 79.3368 11.824C81.6194 11.824 83.5394 12.4533 85.0968 13.712C86.6541 14.9493 87.6568 16.688 88.1048 18.928H81.4488C81.0648 17.7547 80.3181 17.168 79.2088 17.168C78.4194 17.168 77.7901 17.4987 77.3208 18.16C76.8728 18.8 76.6488 19.7493 76.6488 21.008C76.6488 22.2667 76.8728 23.2267 77.3208 23.888C77.7901 24.5493 78.4194 24.88 79.2088 24.88C80.3394 24.88 81.0861 24.2933 81.4488 23.12H88.1048C87.6568 25.3387 86.6541 27.0773 85.0968 28.336C83.5394 29.5947 81.6194 30.224 79.3368 30.224C77.5661 30.224 75.9874 29.8507 74.6008 29.104C73.2354 28.3573 72.1688 27.2907 71.4008 25.904C70.6328 24.5173 70.2488 22.8853 70.2488 21.008ZM101.142 30.224C99.3503 30.224 97.7396 29.8507 96.3103 29.104C94.9023 28.3573 93.793 27.2907 92.9823 25.904C92.1716 24.5173 91.7663 22.8853 91.7663 21.008C91.7663 19.152 92.1716 17.5307 92.9823 16.144C93.8143 14.7573 94.9343 13.6907 96.3423 12.944C97.7716 12.1973 99.3823 11.824 101.174 11.824C102.966 11.824 104.566 12.1973 105.974 12.944C107.404 13.6907 108.524 14.7573 109.334 16.144C110.166 17.5307 110.582 19.152 110.582 21.008C110.582 22.864 110.166 24.496 109.334 25.904C108.524 27.2907 107.404 28.3573 105.974 29.104C104.545 29.8507 102.934 30.224 101.142 30.224ZM101.142 24.784C102.017 24.784 102.742 24.464 103.318 23.824C103.916 23.1627 104.214 22.224 104.214 21.008C104.214 19.792 103.916 18.864 103.318 18.224C102.742 17.584 102.028 17.264 101.174 17.264C100.321 17.264 99.6063 17.584 99.0303 18.224C98.4543 18.864 98.1663 19.792 98.1663 21.008C98.1663 22.2453 98.4436 23.184 98.9983 23.824C99.553 24.464 100.268 24.784 101.142 24.784ZM138.67 11.888C140.931 11.888 142.702 12.5707 143.982 13.936C145.283 15.3013 145.934 17.168 145.934 19.536V30H139.662V20.368C139.662 19.408 139.395 18.6613 138.862 18.128C138.329 17.5947 137.603 17.328 136.686 17.328C135.769 17.328 135.043 17.5947 134.51 18.128C133.977 18.6613 133.71 19.408 133.71 20.368V30H127.438V20.368C127.438 19.408 127.171 18.6613 126.638 18.128C126.126 17.5947 125.411 17.328 124.494 17.328C123.555 17.328 122.819 17.5947 122.286 18.128C121.753 18.6613 121.486 19.408 121.486 20.368V30H115.214V12.048H121.486V14.416C122.041 13.648 122.755 13.04 123.63 12.592C124.526 12.1227 125.55 11.888 126.702 11.888C128.025 11.888 129.198 12.176 130.222 12.752C131.267 13.328 132.089 14.1387 132.686 15.184C133.326 14.2027 134.169 13.4133 135.214 12.816C136.259 12.1973 137.411 11.888 138.67 11.888ZM168.602 20.816C168.602 21.3067 168.57 21.7973 168.506 22.288H156.634C156.698 23.2693 156.965 24.0053 157.434 24.496C157.925 24.9653 158.544 25.2 159.29 25.2C160.336 25.2 161.082 24.7307 161.53 23.792H168.218C167.941 25.0293 167.397 26.1387 166.586 27.12C165.797 28.08 164.794 28.8373 163.578 29.392C162.362 29.9467 161.018 30.224 159.546 30.224C157.776 30.224 156.197 29.8507 154.81 29.104C153.445 28.3573 152.368 27.2907 151.578 25.904C150.81 24.5173 150.426 22.8853 150.426 21.008C150.426 19.1307 150.81 17.5093 151.578 16.144C152.346 14.7573 153.413 13.6907 154.778 12.944C156.165 12.1973 157.754 11.824 159.546 11.824C161.317 11.824 162.885 12.1867 164.25 12.912C165.616 13.6373 166.682 14.6827 167.45 16.048C168.218 17.392 168.602 18.9813 168.602 20.816ZM162.202 19.248C162.202 18.48 161.946 17.8827 161.434 17.456C160.922 17.008 160.282 16.784 159.514 16.784C158.746 16.784 158.117 16.9973 157.626 17.424C157.136 17.8293 156.816 18.4373 156.666 19.248H162.202ZM180.001 24.624L176.577 33.968H172.609L174.273 24.624H180.001ZM201.725 1.8V18.16C201.725 19.68 202.071 20.8533 202.765 21.68C203.485 22.5067 204.565 22.92 206.005 22.92C207.445 22.92 208.525 22.5067 209.245 21.68C209.991 20.8267 210.365 19.6533 210.365 18.16V1.8H218.205V18.16C218.205 20.7467 217.658 22.96 216.565 24.8C215.471 26.6133 213.978 27.9867 212.085 28.92C210.218 29.8267 208.138 30.28 205.845 30.28C203.551 30.28 201.498 29.8267 199.685 28.92C197.898 27.9867 196.485 26.6133 195.445 24.8C194.431 22.9867 193.925 20.7733 193.925 18.16V1.8H201.725ZM235.761 30.28C232.481 30.28 229.788 29.5067 227.681 27.96C225.574 26.3867 224.441 24.1467 224.281 21.24H232.641C232.721 22.2267 233.014 22.9467 233.521 23.4C234.028 23.8533 234.681 24.08 235.481 24.08C236.201 24.08 236.788 23.9067 237.241 23.56C237.721 23.1867 237.961 22.68 237.961 22.04C237.961 21.2133 237.574 20.5733 236.801 20.12C236.028 19.6667 234.774 19.16 233.041 18.6C231.201 17.9867 229.708 17.4 228.561 16.84C227.441 16.2533 226.454 15.4133 225.601 14.32C224.774 13.2 224.361 11.7467 224.361 9.96C224.361 8.14667 224.814 6.6 225.721 5.32C226.628 4.01333 227.881 3.02667 229.481 2.36C231.081 1.69333 232.894 1.36 234.921 1.36C238.201 1.36 240.814 2.13333 242.761 3.68C244.734 5.2 245.788 7.34667 245.921 10.12H237.401C237.374 9.26667 237.108 8.62667 236.601 8.2C236.121 7.77333 235.494 7.56 234.721 7.56C234.134 7.56 233.654 7.73333 233.281 8.08C232.908 8.42667 232.721 8.92 232.721 9.56C232.721 10.0933 232.921 10.56 233.321 10.96C233.748 11.3333 234.268 11.6667 234.881 11.96C235.494 12.2267 236.401 12.5733 237.601 13C239.388 13.6133 240.854 14.2267 242.001 14.84C243.174 15.4267 244.174 16.2667 245.001 17.36C245.854 18.4267 246.281 19.7867 246.281 21.44C246.281 23.12 245.854 24.6267 245.001 25.96C244.174 27.2933 242.961 28.3467 241.361 29.12C239.788 29.8933 237.921 30.28 235.761 30.28ZM260.366 8.08V12.68H269.366V18.64H260.366V23.72H270.566V30H252.526V1.8H270.566V8.08H260.366ZM291.32 30L285.72 19.6H284.88V30H277.04V1.8H289.4C291.667 1.8 293.587 2.2 295.16 3C296.733 3.77333 297.92 4.85333 298.72 6.24C299.52 7.6 299.92 9.13333 299.92 10.84C299.92 12.76 299.387 14.4533 298.32 15.92C297.28 17.36 295.747 18.3867 293.72 19L300.08 30H291.32ZM284.88 14.24H288.76C289.827 14.24 290.627 13.9867 291.16 13.48C291.693 12.9733 291.96 12.24 291.96 11.28C291.96 10.3733 291.68 9.66667 291.12 9.16C290.587 8.62667 289.8 8.36 288.76 8.36H284.88V14.24ZM316.565 0.359998L315.645 19.44H308.965L308.045 0.359998H316.565ZM312.325 30.32C310.938 30.32 309.818 29.9467 308.965 29.2C308.138 28.4267 307.725 27.4533 307.725 26.28C307.725 25.1067 308.138 24.1333 308.965 23.36C309.818 22.5867 310.938 22.2 312.325 22.2C313.685 22.2 314.778 22.5867 315.605 23.36C316.458 24.1333 316.885 25.1067 316.885 26.28C316.885 27.4267 316.458 28.3867 315.605 29.16C314.778 29.9333 313.685 30.32 312.325 30.32Z" fill="#00008F"/>
</svg>
