<svg width="315" height="96" viewBox="0 0 315 96" fill="none" xmlns="http://www.w3.org/2000/svg">
<path d="M89.1165 27.256C89.1165 24.76 89.6325 22.54 90.6645 20.596C91.7205 18.628 93.2085 17.104 95.1285 16.024C97.0485 14.92 99.2565 14.368 101.752 14.368C104.92 14.368 107.584 15.22 109.744 16.924C111.904 18.604 113.296 20.896 113.92 23.8H106.324C105.868 22.84 105.232 22.108 104.416 21.604C103.624 21.1 102.7 20.848 101.644 20.848C100.012 20.848 98.7045 21.436 97.7205 22.612C96.7605 23.764 96.2805 25.312 96.2805 27.256C96.2805 29.224 96.7605 30.796 97.7205 31.972C98.7045 33.124 100.012 33.7 101.644 33.7C102.7 33.7 103.624 33.448 104.416 32.944C105.232 32.44 105.868 31.708 106.324 30.748H113.92C113.296 33.652 111.904 35.956 109.744 37.66C107.584 39.34 104.92 40.18 101.752 40.18C99.2565 40.18 97.0485 39.64 95.1285 38.56C93.2085 37.456 91.7205 35.932 90.6645 33.988C89.6325 32.02 89.1165 29.776 89.1165 27.256ZM126.658 23.368C127.45 22.216 128.41 21.304 129.538 20.632C130.666 19.96 131.878 19.624 133.174 19.624V27.148H131.194C129.658 27.148 128.518 27.448 127.774 28.048C127.03 28.648 126.658 29.692 126.658 31.18V40H119.602V19.804H126.658V23.368ZM157.339 29.668C157.339 30.22 157.303 30.772 157.231 31.324H143.875C143.947 32.428 144.247 33.256 144.775 33.808C145.327 34.336 146.023 34.6 146.863 34.6C148.039 34.6 148.879 34.072 149.383 33.016H156.907C156.595 34.408 155.983 35.656 155.071 36.76C154.183 37.84 153.055 38.692 151.687 39.316C150.319 39.94 148.807 40.252 147.151 40.252C145.159 40.252 143.383 39.832 141.823 38.992C140.287 38.152 139.075 36.952 138.187 35.392C137.323 33.832 136.891 31.996 136.891 29.884C136.891 27.772 137.323 25.948 138.187 24.412C139.051 22.852 140.251 21.652 141.787 20.812C143.347 19.972 145.135 19.552 147.151 19.552C149.143 19.552 150.907 19.96 152.443 20.776C153.979 21.592 155.179 22.768 156.043 24.304C156.907 25.816 157.339 27.604 157.339 29.668ZM150.139 27.904C150.139 27.04 149.851 26.368 149.275 25.888C148.699 25.384 147.979 25.132 147.115 25.132C146.251 25.132 145.543 25.372 144.991 25.852C144.439 26.308 144.079 26.992 143.911 27.904H150.139ZM161.415 29.884C161.415 27.796 161.787 25.972 162.531 24.412C163.299 22.852 164.331 21.652 165.627 20.812C166.947 19.972 168.411 19.552 170.019 19.552C171.411 19.552 172.611 19.828 173.619 20.38C174.627 20.932 175.407 21.676 175.959 22.612V19.804H183.015V40H175.959V37.192C175.407 38.128 174.615 38.872 173.583 39.424C172.575 39.976 171.387 40.252 170.019 40.252C168.411 40.252 166.947 39.832 165.627 38.992C164.331 38.152 163.299 36.952 162.531 35.392C161.787 33.808 161.415 31.972 161.415 29.884ZM175.959 29.884C175.959 28.588 175.599 27.568 174.879 26.824C174.183 26.08 173.319 25.708 172.287 25.708C171.231 25.708 170.355 26.08 169.659 26.824C168.963 27.544 168.615 28.564 168.615 29.884C168.615 31.18 168.963 32.212 169.659 32.98C170.355 33.724 171.231 34.096 172.287 34.096C173.319 34.096 174.183 33.724 174.879 32.98C175.599 32.236 175.959 31.204 175.959 29.884ZM201.292 33.988V40H198.232C193.072 40 190.492 37.444 190.492 32.332V25.672H188.008V19.804H190.492V14.908H197.584V19.804H201.256V25.672H197.584V32.44C197.584 32.992 197.704 33.388 197.944 33.628C198.208 33.868 198.64 33.988 199.24 33.988H201.292ZM226.164 29.668C226.164 30.22 226.128 30.772 226.056 31.324H212.7C212.772 32.428 213.072 33.256 213.6 33.808C214.152 34.336 214.848 34.6 215.688 34.6C216.864 34.6 217.704 34.072 218.208 33.016H225.732C225.42 34.408 224.808 35.656 223.896 36.76C223.008 37.84 221.88 38.692 220.512 39.316C219.144 39.94 217.632 40.252 215.976 40.252C213.984 40.252 212.208 39.832 210.648 38.992C209.112 38.152 207.9 36.952 207.012 35.392C206.148 33.832 205.716 31.996 205.716 29.884C205.716 27.772 206.148 25.948 207.012 24.412C207.876 22.852 209.076 21.652 210.612 20.812C212.172 19.972 213.96 19.552 215.976 19.552C217.968 19.552 219.732 19.96 221.268 20.776C222.804 21.592 224.004 22.768 224.868 24.304C225.732 25.816 226.164 27.604 226.164 29.668ZM218.964 27.904C218.964 27.04 218.676 26.368 218.1 25.888C217.524 25.384 216.804 25.132 215.94 25.132C215.076 25.132 214.368 25.372 213.816 25.852C213.264 26.308 212.904 26.992 212.736 27.904H218.964ZM103.558 68.62V85.432C103.558 88.288 102.778 90.472 101.218 91.984C99.6821 93.496 97.5581 94.252 94.8461 94.252C91.9661 94.252 89.6621 93.448 87.9341 91.84C86.2301 90.232 85.3781 87.916 85.3781 84.892H92.3621C92.3861 86.884 93.1181 87.88 94.5581 87.88C95.8541 87.88 96.5021 87.064 96.5021 85.432V68.62H103.558ZM119.506 94.252C117.49 94.252 115.678 93.832 114.07 92.992C112.486 92.152 111.238 90.952 110.326 89.392C109.414 87.832 108.958 85.996 108.958 83.884C108.958 81.796 109.414 79.972 110.326 78.412C111.262 76.852 112.522 75.652 114.106 74.812C115.714 73.972 117.526 73.552 119.542 73.552C121.558 73.552 123.358 73.972 124.942 74.812C126.55 75.652 127.81 76.852 128.722 78.412C129.658 79.972 130.126 81.796 130.126 83.884C130.126 85.972 129.658 87.808 128.722 89.392C127.81 90.952 126.55 92.152 124.942 92.992C123.334 93.832 121.522 94.252 119.506 94.252ZM119.506 88.132C120.49 88.132 121.306 87.772 121.954 87.052C122.626 86.308 122.962 85.252 122.962 83.884C122.962 82.516 122.626 81.472 121.954 80.752C121.306 80.032 120.502 79.672 119.542 79.672C118.582 79.672 117.778 80.032 117.13 80.752C116.482 81.472 116.158 82.516 116.158 83.884C116.158 85.276 116.47 86.332 117.094 87.052C117.718 87.772 118.522 88.132 119.506 88.132ZM156 73.804V94H148.908V91.12C148.308 92.032 147.48 92.776 146.424 93.352C145.368 93.904 144.156 94.18 142.788 94.18C140.436 94.18 138.576 93.412 137.208 91.876C135.864 90.316 135.192 88.204 135.192 85.54V73.804H142.212V84.64C142.212 85.792 142.512 86.704 143.112 87.376C143.736 88.024 144.552 88.348 145.56 88.348C146.592 88.348 147.408 88.024 148.008 87.376C148.608 86.704 148.908 85.792 148.908 84.64V73.804H156ZM169.412 77.368C170.204 76.216 171.164 75.304 172.292 74.632C173.42 73.96 174.632 73.624 175.928 73.624V81.148H173.948C172.412 81.148 171.272 81.448 170.528 82.048C169.784 82.648 169.412 83.692 169.412 85.18V94H162.356V73.804H169.412V77.368ZM194.009 73.624C196.337 73.624 198.185 74.404 199.553 75.964C200.921 77.5 201.605 79.588 201.605 82.228V94H194.549V83.164C194.549 82.012 194.249 81.112 193.649 80.464C193.049 79.792 192.245 79.456 191.237 79.456C190.181 79.456 189.353 79.792 188.753 80.464C188.153 81.112 187.853 82.012 187.853 83.164V94H180.797V73.804H187.853V76.684C188.477 75.772 189.317 75.04 190.373 74.488C191.429 73.912 192.641 73.624 194.009 73.624ZM206.665 83.884C206.665 81.796 207.037 79.972 207.781 78.412C208.549 76.852 209.581 75.652 210.877 74.812C212.197 73.972 213.661 73.552 215.269 73.552C216.661 73.552 217.861 73.828 218.869 74.38C219.877 74.932 220.657 75.676 221.209 76.612V73.804H228.265V94H221.209V91.192C220.657 92.128 219.865 92.872 218.833 93.424C217.825 93.976 216.637 94.252 215.269 94.252C213.661 94.252 212.197 93.832 210.877 92.992C209.581 92.152 208.549 90.952 207.781 89.392C207.037 87.808 206.665 85.972 206.665 83.884ZM221.209 83.884C221.209 82.588 220.849 81.568 220.129 80.824C219.433 80.08 218.569 79.708 217.537 79.708C216.481 79.708 215.605 80.08 214.909 80.824C214.213 81.544 213.865 82.564 213.865 83.884C213.865 85.18 214.213 86.212 214.909 86.98C215.605 87.724 216.481 88.096 217.537 88.096C218.569 88.096 219.433 87.724 220.129 86.98C220.849 86.236 221.209 85.204 221.209 83.884Z" fill="#00008F"/>
<g clip-path="url(#clip0_298_54)">
<path d="M243.408 65.6339L239.745 64.3687C238.602 63.9741 237.591 64.6307 237.487 65.8351L237.173 69.4676L244.974 72.1622L245.289 68.5297C245.393 67.3253 244.551 66.029 243.408 65.6339ZM234.633 70.0877C233.682 69.7589 232.84 70.3056 232.753 71.309L232.093 78.9392C232.058 79.3407 232.339 79.7726 232.719 79.9038L234.098 80.3801C234.479 80.5116 234.816 80.2929 234.851 79.8914L235.417 73.3511L236.796 73.827L235.953 83.5619C235.661 86.9341 236.467 90.5818 238.237 93.9055L238.242 93.9159C238.609 94.6042 239.396 94.8763 239.857 94.4743C242.088 92.5311 243.462 89.6327 243.755 86.2566L244.849 73.6158L239.804 71.8736L234.633 70.0877Z" fill="#00008F"/>
</g>
<defs>
<clipPath id="clip0_298_54">
<rect width="20.299" height="26.0323" fill="white" transform="translate(224.798 73.2231) rotate(-33)"/>
</clipPath>
</defs>
</svg>
