<svg width="317" height="79" viewBox="0 0 317 79" fill="none" xmlns="http://www.w3.org/2000/svg">
<path d="M101.116 27.256C101.116 24.76 101.632 22.54 102.664 20.596C103.72 18.628 105.208 17.104 107.128 16.024C109.048 14.92 111.256 14.368 113.752 14.368C116.92 14.368 119.584 15.22 121.744 16.924C123.904 18.604 125.296 20.896 125.92 23.8H118.324C117.868 22.84 117.232 22.108 116.416 21.604C115.624 21.1 114.7 20.848 113.644 20.848C112.012 20.848 110.704 21.436 109.72 22.612C108.76 23.764 108.28 25.312 108.28 27.256C108.28 29.224 108.76 30.796 109.72 31.972C110.704 33.124 112.012 33.7 113.644 33.7C114.7 33.7 115.624 33.448 116.416 32.944C117.232 32.44 117.868 31.708 118.324 30.748H125.92C125.296 33.652 123.904 35.956 121.744 37.66C119.584 39.34 116.92 40.18 113.752 40.18C111.256 40.18 109.048 39.64 107.128 38.56C105.208 37.456 103.72 35.932 102.664 33.988C101.632 32.02 101.116 29.776 101.116 27.256ZM138.658 23.368C139.45 22.216 140.41 21.304 141.538 20.632C142.666 19.96 143.878 19.624 145.174 19.624V27.148H143.194C141.658 27.148 140.518 27.448 139.774 28.048C139.03 28.648 138.658 29.692 138.658 31.18V40H131.602V19.804H138.658V23.368ZM169.339 29.668C169.339 30.22 169.303 30.772 169.231 31.324H155.875C155.947 32.428 156.247 33.256 156.775 33.808C157.327 34.336 158.023 34.6 158.863 34.6C160.039 34.6 160.879 34.072 161.383 33.016H168.907C168.595 34.408 167.983 35.656 167.071 36.76C166.183 37.84 165.055 38.692 163.687 39.316C162.319 39.94 160.807 40.252 159.151 40.252C157.159 40.252 155.383 39.832 153.823 38.992C152.287 38.152 151.075 36.952 150.187 35.392C149.323 33.832 148.891 31.996 148.891 29.884C148.891 27.772 149.323 25.948 150.187 24.412C151.051 22.852 152.251 21.652 153.787 20.812C155.347 19.972 157.135 19.552 159.151 19.552C161.143 19.552 162.907 19.96 164.443 20.776C165.979 21.592 167.179 22.768 168.043 24.304C168.907 25.816 169.339 27.604 169.339 29.668ZM162.139 27.904C162.139 27.04 161.851 26.368 161.275 25.888C160.699 25.384 159.979 25.132 159.115 25.132C158.251 25.132 157.543 25.372 156.991 25.852C156.439 26.308 156.079 26.992 155.911 27.904H162.139ZM173.415 29.884C173.415 27.796 173.787 25.972 174.531 24.412C175.299 22.852 176.331 21.652 177.627 20.812C178.947 19.972 180.411 19.552 182.019 19.552C183.411 19.552 184.611 19.828 185.619 20.38C186.627 20.932 187.407 21.676 187.959 22.612V19.804H195.015V40H187.959V37.192C187.407 38.128 186.615 38.872 185.583 39.424C184.575 39.976 183.387 40.252 182.019 40.252C180.411 40.252 178.947 39.832 177.627 38.992C176.331 38.152 175.299 36.952 174.531 35.392C173.787 33.808 173.415 31.972 173.415 29.884ZM187.959 29.884C187.959 28.588 187.599 27.568 186.879 26.824C186.183 26.08 185.319 25.708 184.287 25.708C183.231 25.708 182.355 26.08 181.659 26.824C180.963 27.544 180.615 28.564 180.615 29.884C180.615 31.18 180.963 32.212 181.659 32.98C182.355 33.724 183.231 34.096 184.287 34.096C185.319 34.096 186.183 33.724 186.879 32.98C187.599 32.236 187.959 31.204 187.959 29.884ZM213.292 33.988V40H210.232C205.072 40 202.492 37.444 202.492 32.332V25.672H200.008V19.804H202.492V14.908H209.584V19.804H213.256V25.672H209.584V32.44C209.584 32.992 209.704 33.388 209.944 33.628C210.208 33.868 210.64 33.988 211.24 33.988H213.292ZM238.164 29.668C238.164 30.22 238.128 30.772 238.056 31.324H224.7C224.772 32.428 225.072 33.256 225.6 33.808C226.152 34.336 226.848 34.6 227.688 34.6C228.864 34.6 229.704 34.072 230.208 33.016H237.732C237.42 34.408 236.808 35.656 235.896 36.76C235.008 37.84 233.88 38.692 232.512 39.316C231.144 39.94 229.632 40.252 227.976 40.252C225.984 40.252 224.208 39.832 222.648 38.992C221.112 38.152 219.9 36.952 219.012 35.392C218.148 33.832 217.716 31.996 217.716 29.884C217.716 27.772 218.148 25.948 219.012 24.412C219.876 22.852 221.076 21.652 222.612 20.812C224.172 19.972 225.96 19.552 227.976 19.552C229.968 19.552 231.732 19.96 233.268 20.776C234.804 21.592 236.004 22.768 236.868 24.304C237.732 25.816 238.164 27.604 238.164 29.668ZM230.964 27.904C230.964 27.04 230.676 26.368 230.1 25.888C229.524 25.384 228.804 25.132 227.94 25.132C227.076 25.132 226.368 25.372 225.816 25.852C225.264 26.308 224.904 26.992 224.736 27.904H230.964Z" fill="#00008F"/>
<path d="M104.558 51.62V68.432C104.558 71.288 103.778 73.472 102.218 74.984C100.682 76.496 98.5581 77.252 95.8461 77.252C92.9661 77.252 90.6621 76.448 88.9341 74.84C87.2301 73.232 86.3781 70.916 86.3781 67.892H93.3621C93.3861 69.884 94.1181 70.88 95.5581 70.88C96.8541 70.88 97.5021 70.064 97.5021 68.432V51.62H104.558ZM120.506 77.252C118.49 77.252 116.678 76.832 115.07 75.992C113.486 75.152 112.238 73.952 111.326 72.392C110.414 70.832 109.958 68.996 109.958 66.884C109.958 64.796 110.414 62.972 111.326 61.412C112.262 59.852 113.522 58.652 115.106 57.812C116.714 56.972 118.526 56.552 120.542 56.552C122.558 56.552 124.358 56.972 125.942 57.812C127.55 58.652 128.81 59.852 129.722 61.412C130.658 62.972 131.126 64.796 131.126 66.884C131.126 68.972 130.658 70.808 129.722 72.392C128.81 73.952 127.55 75.152 125.942 75.992C124.334 76.832 122.522 77.252 120.506 77.252ZM120.506 71.132C121.49 71.132 122.306 70.772 122.954 70.052C123.626 69.308 123.962 68.252 123.962 66.884C123.962 65.516 123.626 64.472 122.954 63.752C122.306 63.032 121.502 62.672 120.542 62.672C119.582 62.672 118.778 63.032 118.13 63.752C117.482 64.472 117.158 65.516 117.158 66.884C117.158 68.276 117.47 69.332 118.094 70.052C118.718 70.772 119.522 71.132 120.506 71.132ZM157 56.804V77H149.908V74.12C149.308 75.032 148.48 75.776 147.424 76.352C146.368 76.904 145.156 77.18 143.788 77.18C141.436 77.18 139.576 76.412 138.208 74.876C136.864 73.316 136.192 71.204 136.192 68.54V56.804H143.212V67.64C143.212 68.792 143.512 69.704 144.112 70.376C144.736 71.024 145.552 71.348 146.56 71.348C147.592 71.348 148.408 71.024 149.008 70.376C149.608 69.704 149.908 68.792 149.908 67.64V56.804H157ZM170.412 60.368C171.204 59.216 172.164 58.304 173.292 57.632C174.42 56.96 175.632 56.624 176.928 56.624V64.148H174.948C173.412 64.148 172.272 64.448 171.528 65.048C170.784 65.648 170.412 66.692 170.412 68.18V77H163.356V56.804H170.412V60.368ZM195.009 56.624C197.337 56.624 199.185 57.404 200.553 58.964C201.921 60.5 202.605 62.588 202.605 65.228V77H195.549V66.164C195.549 65.012 195.249 64.112 194.649 63.464C194.049 62.792 193.245 62.456 192.237 62.456C191.181 62.456 190.353 62.792 189.753 63.464C189.153 64.112 188.853 65.012 188.853 66.164V77H181.797V56.804H188.853V59.684C189.477 58.772 190.317 58.04 191.373 57.488C192.429 56.912 193.641 56.624 195.009 56.624ZM207.665 66.884C207.665 64.796 208.037 62.972 208.781 61.412C209.549 59.852 210.581 58.652 211.877 57.812C213.197 56.972 214.661 56.552 216.269 56.552C217.661 56.552 218.861 56.828 219.869 57.38C220.877 57.932 221.657 58.676 222.209 59.612V56.804H229.265V77H222.209V74.192C221.657 75.128 220.865 75.872 219.833 76.424C218.825 76.976 217.637 77.252 216.269 77.252C214.661 77.252 213.197 76.832 211.877 75.992C210.581 75.152 209.549 73.952 208.781 72.392C208.037 70.808 207.665 68.972 207.665 66.884ZM222.209 66.884C222.209 65.588 221.849 64.568 221.129 63.824C220.433 63.08 219.569 62.708 218.537 62.708C217.481 62.708 216.605 63.08 215.909 63.824C215.213 64.544 214.865 65.564 214.865 66.884C214.865 68.18 215.213 69.212 215.909 69.98C216.605 70.724 217.481 71.096 218.537 71.096C219.569 71.096 220.433 70.724 221.129 69.98C221.849 69.236 222.209 68.204 222.209 66.884Z" fill="#00008F"/>
<g clip-path="url(#clip0_298_54)">
<path d="M244.954 52.8048L241.267 51.6977C240.117 51.3524 239.1 51.927 238.995 52.9808L238.678 56.1592L246.53 58.517L246.846 55.3386C246.951 54.2848 246.104 53.1505 244.954 52.8048ZM236.123 56.7018C235.165 56.4141 234.318 56.8925 234.231 57.7704L233.566 64.4469C233.531 64.7982 233.814 65.1761 234.197 65.2909L235.585 65.7077C235.968 65.8228 236.307 65.6314 236.342 65.2801L236.911 59.5573L238.299 59.9737L237.451 68.4918C237.157 71.4424 237.968 74.6342 239.749 77.5424L239.755 77.5515C240.124 78.1538 240.916 78.3919 241.38 78.0401C243.625 76.3398 245.008 73.8037 245.302 70.8496L246.403 59.7889L241.327 58.2645L236.123 56.7018Z" fill="#00008F"/>
</g>
<defs>
<clipPath id="clip0_298_54">
<rect width="19.6747" height="23.8437" fill="white" transform="matrix(0.870776 -0.491681 0.598405 0.801194 226.225 59.4453)"/>
</clipPath>
</defs>
</svg>
