<svg width="317" height="58" viewBox="0 0 317 58" fill="none" xmlns="http://www.w3.org/2000/svg">
<g filter="url(#filter0_d_114_91)">
<rect x="4" width="309" height="50" rx="23" fill="#00008F"/>
</g>
<path d="M100.203 21.648C99.9306 21.2 99.5546 20.856 99.0746 20.616C98.6106 20.376 98.0586 20.256 97.4186 20.256C96.2346 20.256 95.2986 20.64 94.6106 21.408C93.9386 22.176 93.6026 23.208 93.6026 24.504C93.6026 25.96 93.9626 27.072 94.6826 27.84C95.4186 28.592 96.4826 28.968 97.8746 28.968C99.5226 28.968 100.699 28.224 101.403 26.736H96.6746V23.352H105.459V27.912C105.091 28.808 104.547 29.648 103.827 30.432C103.123 31.216 102.227 31.864 101.139 32.376C100.051 32.872 98.8106 33.12 97.4186 33.12C95.7226 33.12 94.2186 32.76 92.9066 32.04C91.6106 31.304 90.6026 30.288 89.8826 28.992C89.1786 27.68 88.8266 26.184 88.8266 24.504C88.8266 22.84 89.1786 21.36 89.8826 20.064C90.6026 18.752 91.6106 17.736 92.9066 17.016C94.2026 16.28 95.6986 15.912 97.3946 15.912C99.5226 15.912 101.283 16.424 102.675 17.448C104.067 18.472 104.931 19.872 105.267 21.648H100.203ZM120.431 26.112C120.431 26.48 120.407 26.848 120.359 27.216H111.455C111.503 27.952 111.703 28.504 112.055 28.872C112.423 29.224 112.887 29.4 113.447 29.4C114.231 29.4 114.791 29.048 115.127 28.344H120.143C119.935 29.272 119.527 30.104 118.919 30.84C118.327 31.56 117.575 32.128 116.663 32.544C115.751 32.96 114.743 33.168 113.639 33.168C112.311 33.168 111.127 32.888 110.087 32.328C109.063 31.768 108.255 30.968 107.663 29.928C107.087 28.888 106.799 27.664 106.799 26.256C106.799 24.848 107.087 23.632 107.663 22.608C108.239 21.568 109.039 20.768 110.063 20.208C111.103 19.648 112.295 19.368 113.639 19.368C114.967 19.368 116.143 19.64 117.167 20.184C118.191 20.728 118.991 21.512 119.567 22.536C120.143 23.544 120.431 24.736 120.431 26.112ZM115.631 24.936C115.631 24.36 115.439 23.912 115.055 23.592C114.671 23.256 114.191 23.088 113.615 23.088C113.039 23.088 112.567 23.248 112.199 23.568C111.831 23.872 111.591 24.328 111.479 24.936H115.631ZM130.3 28.992V33H128.26C124.82 33 123.1 31.296 123.1 27.888V23.448H121.444V19.536H123.1V16.272H127.828V19.536H130.276V23.448H127.828V27.96C127.828 28.328 127.908 28.592 128.068 28.752C128.244 28.912 128.532 28.992 128.932 28.992H130.3ZM143.435 33.168C141.467 33.168 139.851 32.704 138.587 31.776C137.323 30.832 136.643 29.488 136.547 27.744H141.563C141.611 28.336 141.787 28.768 142.091 29.04C142.395 29.312 142.787 29.448 143.267 29.448C143.699 29.448 144.051 29.344 144.323 29.136C144.611 28.912 144.755 28.608 144.755 28.224C144.755 27.728 144.523 27.344 144.059 27.072C143.595 26.8 142.843 26.496 141.803 26.16C140.699 25.792 139.803 25.44 139.115 25.104C138.443 24.752 137.851 24.248 137.339 23.592C136.843 22.92 136.595 22.048 136.595 20.976C136.595 19.888 136.867 18.96 137.411 18.192C137.955 17.408 138.707 16.816 139.667 16.416C140.627 16.016 141.715 15.816 142.931 15.816C144.899 15.816 146.467 16.28 147.635 17.208C148.819 18.12 149.451 19.408 149.531 21.072H144.419C144.403 20.56 144.243 20.176 143.939 19.92C143.651 19.664 143.275 19.536 142.811 19.536C142.459 19.536 142.171 19.64 141.947 19.848C141.723 20.056 141.611 20.352 141.611 20.736C141.611 21.056 141.731 21.336 141.971 21.576C142.227 21.8 142.539 22 142.907 22.176C143.275 22.336 143.819 22.544 144.539 22.8C145.611 23.168 146.491 23.536 147.179 23.904C147.883 24.256 148.483 24.76 148.979 25.416C149.491 26.056 149.747 26.872 149.747 27.864C149.747 28.872 149.491 29.776 148.979 30.576C148.483 31.376 147.755 32.008 146.795 32.472C145.851 32.936 144.731 33.168 143.435 33.168ZM159.878 28.992V33H157.838C154.398 33 152.678 31.296 152.678 27.888V23.448H151.022V19.536H152.678V16.272H157.406V19.536H159.854V23.448H157.406V27.96C157.406 28.328 157.486 28.592 157.646 28.752C157.822 28.912 158.11 28.992 158.51 28.992H159.878ZM161.267 26.256C161.267 24.864 161.515 23.648 162.011 22.608C162.523 21.568 163.211 20.768 164.075 20.208C164.955 19.648 165.931 19.368 167.003 19.368C167.931 19.368 168.731 19.552 169.403 19.92C170.075 20.288 170.595 20.784 170.963 21.408V19.536H175.667V33H170.963V31.128C170.595 31.752 170.067 32.248 169.379 32.616C168.707 32.984 167.915 33.168 167.003 33.168C165.931 33.168 164.955 32.888 164.075 32.328C163.211 31.768 162.523 30.968 162.011 29.928C161.515 28.872 161.267 27.648 161.267 26.256ZM170.963 26.256C170.963 25.392 170.723 24.712 170.243 24.216C169.779 23.72 169.203 23.472 168.515 23.472C167.811 23.472 167.227 23.72 166.763 24.216C166.299 24.696 166.067 25.376 166.067 26.256C166.067 27.12 166.299 27.808 166.763 28.32C167.227 28.816 167.811 29.064 168.515 29.064C169.203 29.064 169.779 28.816 170.243 28.32C170.723 27.824 170.963 27.136 170.963 26.256ZM183.052 21.912C183.58 21.144 184.22 20.536 184.972 20.088C185.724 19.64 186.532 19.416 187.396 19.416V24.432H186.076C185.052 24.432 184.292 24.632 183.796 25.032C183.3 25.432 183.052 26.128 183.052 27.12V33H178.348V19.536H183.052V21.912ZM197.026 28.992V33H194.986C191.546 33 189.826 31.296 189.826 27.888V23.448H188.17V19.536H189.826V16.272H194.554V19.536H197.002V23.448H194.554V27.96C194.554 28.328 194.634 28.592 194.794 28.752C194.97 28.912 195.258 28.992 195.658 28.992H197.026ZM212.048 26.112C212.048 26.48 212.024 26.848 211.976 27.216H203.072C203.12 27.952 203.32 28.504 203.672 28.872C204.04 29.224 204.504 29.4 205.064 29.4C205.848 29.4 206.408 29.048 206.744 28.344H211.76C211.552 29.272 211.144 30.104 210.536 30.84C209.944 31.56 209.192 32.128 208.28 32.544C207.368 32.96 206.36 33.168 205.256 33.168C203.928 33.168 202.744 32.888 201.704 32.328C200.68 31.768 199.872 30.968 199.28 29.928C198.704 28.888 198.416 27.664 198.416 26.256C198.416 24.848 198.704 23.632 199.28 22.608C199.856 21.568 200.656 20.768 201.68 20.208C202.72 19.648 203.912 19.368 205.256 19.368C206.584 19.368 207.76 19.64 208.784 20.184C209.808 20.728 210.608 21.512 211.184 22.536C211.76 23.544 212.048 24.736 212.048 26.112ZM207.248 24.936C207.248 24.36 207.056 23.912 206.672 23.592C206.288 23.256 205.808 23.088 205.232 23.088C204.656 23.088 204.184 23.248 203.816 23.568C203.448 23.872 203.208 24.328 203.096 24.936H207.248ZM213.205 26.256C213.205 24.864 213.453 23.648 213.949 22.608C214.461 21.568 215.157 20.768 216.037 20.208C216.917 19.648 217.893 19.368 218.965 19.368C219.829 19.368 220.597 19.552 221.269 19.92C221.957 20.272 222.493 20.76 222.877 21.384V15.24H227.605V33H222.877V31.128C222.509 31.752 221.989 32.248 221.317 32.616C220.645 32.984 219.853 33.168 218.941 33.168C217.869 33.168 216.893 32.888 216.013 32.328C215.149 31.768 214.461 30.968 213.949 29.928C213.453 28.872 213.205 27.648 213.205 26.256ZM222.901 26.256C222.901 25.392 222.661 24.712 222.181 24.216C221.717 23.72 221.141 23.472 220.453 23.472C219.749 23.472 219.165 23.72 218.701 24.216C218.237 24.696 218.005 25.376 218.005 26.256C218.005 27.12 218.237 27.808 218.701 28.32C219.165 28.816 219.749 29.064 220.453 29.064C221.141 29.064 221.717 28.816 222.181 28.32C222.661 27.824 222.901 27.136 222.901 26.256Z" fill="white"/>
<defs>
<filter id="filter0_d_114_91" x="0" y="0" width="317" height="58" filterUnits="userSpaceOnUse" color-interpolation-filters="sRGB">
<feFlood flood-opacity="0" result="BackgroundImageFix"/>
<feColorMatrix in="SourceAlpha" type="matrix" values="0 0 0 0 0 0 0 0 0 0 0 0 0 0 0 0 0 0 127 0" result="hardAlpha"/>
<feOffset dy="4"/>
<feGaussianBlur stdDeviation="2"/>
<feComposite in2="hardAlpha" operator="out"/>
<feColorMatrix type="matrix" values="0 0 0 0 0 0 0 0 0 0 0 0 0 0 0 0 0 0 0.25 0"/>
<feBlend mode="normal" in2="BackgroundImageFix" result="effect1_dropShadow_114_91"/>
<feBlend mode="normal" in="SourceGraphic" in2="effect1_dropShadow_114_91" result="shape"/>
</filter>
</defs>
</svg>
