<svg width="207" height="68" viewBox="0 0 207 68" fill="none" xmlns="http://www.w3.org/2000/svg">
<path d="M8.03363 13.112C7.29763 13.112 6.63629 12.984 6.04963 12.728C5.47363 12.4613 5.02029 12.0987 4.68963 11.64C4.35896 11.1707 4.18829 10.632 4.17763 10.024H5.72963C5.78296 10.5467 5.99629 10.9893 6.36963 11.352C6.75363 11.704 7.30829 11.88 8.03363 11.88C8.72696 11.88 9.27096 11.7093 9.66563 11.368C10.071 11.016 10.2736 10.568 10.2736 10.024C10.2736 9.59733 10.1563 9.25067 9.92163 8.984C9.68696 8.71733 9.39363 8.51467 9.04163 8.376C8.68963 8.23733 8.21496 8.088 7.61763 7.928C6.88163 7.736 6.28963 7.544 5.84163 7.352C5.40429 7.16 5.02563 6.86133 4.70563 6.456C4.39629 6.04 4.24163 5.48533 4.24163 4.792C4.24163 4.184 4.39629 3.64533 4.70563 3.176C5.01496 2.70667 5.44696 2.344 6.00163 2.088C6.56696 1.832 7.21229 1.704 7.93763 1.704C8.98296 1.704 9.83629 1.96533 10.4976 2.488C11.1696 3.01067 11.5483 3.704 11.6336 4.568H10.0336C9.98029 4.14133 9.75629 3.768 9.36163 3.448C8.96696 3.11733 8.44429 2.952 7.79363 2.952C7.18563 2.952 6.68963 3.112 6.30563 3.432C5.92163 3.74133 5.72963 4.17867 5.72963 4.744C5.72963 5.14933 5.84163 5.48 6.06563 5.736C6.30029 5.992 6.58296 6.18933 6.91363 6.328C7.25496 6.456 7.72963 6.60533 8.33763 6.776C9.07363 6.97867 9.66563 7.18133 10.1136 7.384C10.5616 7.576 10.9456 7.88 11.2656 8.296C11.5856 8.70133 11.7456 9.256 11.7456 9.96C11.7456 10.504 11.6016 11.016 11.3136 11.496C11.0256 11.976 10.599 12.3653 10.0336 12.664C9.46829 12.9627 8.80163 13.112 8.03363 13.112ZM18.2403 4.072C18.9016 4.072 19.4989 4.216 20.0323 4.504C20.5656 4.78133 20.9816 5.20267 21.2803 5.768C21.5896 6.33333 21.7443 7.02133 21.7443 7.832V13H20.3043V8.04C20.3043 7.16533 20.0856 6.49867 19.6483 6.04C19.2109 5.57067 18.6136 5.336 17.8563 5.336C17.0883 5.336 16.4749 5.576 16.0163 6.056C15.5683 6.536 15.3443 7.23467 15.3443 8.152V13H13.8883V1.16H15.3443V5.48C15.6323 5.032 16.0269 4.68533 16.5283 4.44C17.0403 4.19467 17.6109 4.072 18.2403 4.072ZM23.5786 8.584C23.5786 7.688 23.76 6.904 24.1226 6.232C24.4853 5.54933 24.9813 5.02133 25.6106 4.648C26.2506 4.27467 26.96 4.088 27.7386 4.088C28.5066 4.088 29.1733 4.25333 29.7386 4.584C30.304 4.91467 30.7253 5.33067 31.0026 5.832V4.232H32.4746V13H31.0026V11.368C30.7146 11.88 30.2826 12.3067 29.7066 12.648C29.1413 12.9787 28.48 13.144 27.7226 13.144C26.944 13.144 26.24 12.952 25.6106 12.568C24.9813 12.184 24.4853 11.6453 24.1226 10.952C23.76 10.2587 23.5786 9.46933 23.5786 8.584ZM31.0026 8.6C31.0026 7.93867 30.8693 7.36267 30.6026 6.872C30.336 6.38133 29.9733 6.008 29.5146 5.752C29.0666 5.48533 28.5706 5.352 28.0266 5.352C27.4826 5.352 26.9866 5.48 26.5386 5.736C26.0906 5.992 25.7333 6.36533 25.4666 6.856C25.2 7.34667 25.0666 7.92267 25.0666 8.584C25.0666 9.256 25.2 9.84267 25.4666 10.344C25.7333 10.8347 26.0906 11.2133 26.5386 11.48C26.9866 11.736 27.4826 11.864 28.0266 11.864C28.5706 11.864 29.0666 11.736 29.5146 11.48C29.9733 11.2133 30.336 10.8347 30.6026 10.344C30.8693 9.84267 31.0026 9.26133 31.0026 8.6ZM36.3911 5.656C36.6471 5.15467 37.0098 4.76533 37.4791 4.488C37.9591 4.21067 38.5405 4.072 39.2231 4.072V5.576H38.8391C37.2071 5.576 36.3911 6.46133 36.3911 8.232V13H34.9351V4.232H36.3911V5.656ZM48.9039 8.28C48.9039 8.55733 48.8879 8.85067 48.8559 9.16H41.8479C41.9012 10.024 42.1945 10.7013 42.7279 11.192C43.2719 11.672 43.9279 11.912 44.6959 11.912C45.3252 11.912 45.8479 11.768 46.2639 11.48C46.6905 11.1813 46.9892 10.7867 47.1599 10.296H48.7279C48.4932 11.1387 48.0239 11.8267 47.3199 12.36C46.6159 12.8827 45.7412 13.144 44.6959 13.144C43.8639 13.144 43.1172 12.9573 42.4559 12.584C41.8052 12.2107 41.2932 11.6827 40.9199 11C40.5465 10.3067 40.3599 9.50667 40.3599 8.6C40.3599 7.69333 40.5412 6.89867 40.9039 6.216C41.2665 5.53333 41.7732 5.01067 42.4239 4.648C43.0852 4.27467 43.8425 4.088 44.6959 4.088C45.5279 4.088 46.2639 4.26933 46.9039 4.632C47.5439 4.99467 48.0345 5.496 48.3759 6.136C48.7279 6.76533 48.9039 7.48 48.9039 8.28ZM47.3999 7.976C47.3999 7.42133 47.2772 6.94667 47.0319 6.552C46.7865 6.14667 46.4505 5.84267 46.0239 5.64C45.6079 5.42667 45.1439 5.32 44.6319 5.32C43.8959 5.32 43.2665 5.55467 42.7439 6.024C42.2319 6.49333 41.9385 7.144 41.8639 7.976H47.3999ZM62.6434 4.232L57.3634 17.128H55.8594L57.5874 12.904L54.0514 4.232H55.6674L58.4194 11.336L61.1394 4.232H62.6434ZM67.931 13.144C67.1097 13.144 66.363 12.9573 65.691 12.584C65.0297 12.2107 64.507 11.6827 64.123 11C63.7497 10.3067 63.563 9.50667 63.563 8.6C63.563 7.704 63.755 6.91467 64.139 6.232C64.5337 5.53867 65.067 5.01067 65.739 4.648C66.411 4.27467 67.163 4.088 67.995 4.088C68.827 4.088 69.579 4.27467 70.251 4.648C70.923 5.01067 71.451 5.53333 71.835 6.216C72.2297 6.89867 72.427 7.69333 72.427 8.6C72.427 9.50667 72.2243 10.3067 71.819 11C71.4243 11.6827 70.8857 12.2107 70.203 12.584C69.5203 12.9573 68.763 13.144 67.931 13.144ZM67.931 11.864C68.4537 11.864 68.9443 11.7413 69.403 11.496C69.8617 11.2507 70.2297 10.8827 70.507 10.392C70.795 9.90133 70.939 9.304 70.939 8.6C70.939 7.896 70.8003 7.29867 70.523 6.808C70.2457 6.31733 69.883 5.95467 69.435 5.72C68.987 5.47467 68.5017 5.352 67.979 5.352C67.4457 5.352 66.955 5.47467 66.507 5.72C66.0697 5.95467 65.7177 6.31733 65.451 6.808C65.1843 7.29867 65.051 7.896 65.051 8.6C65.051 9.31467 65.179 9.91733 65.435 10.408C65.7017 10.8987 66.0537 11.2667 66.491 11.512C66.9283 11.7467 67.4083 11.864 67.931 11.864ZM82.1174 4.232V13H80.6614V11.704C80.384 12.152 79.9947 12.504 79.4934 12.76C79.0027 13.0053 78.4587 13.128 77.8614 13.128C77.1787 13.128 76.5654 12.9893 76.0214 12.712C75.4774 12.424 75.0454 11.9973 74.7254 11.432C74.416 10.8667 74.2614 10.1787 74.2614 9.368V4.232H75.7014V9.176C75.7014 10.04 75.92 10.7067 76.3574 11.176C76.7947 11.6347 77.392 11.864 78.1494 11.864C78.928 11.864 79.5414 11.624 79.9894 11.144C80.4374 10.664 80.6614 9.96533 80.6614 9.048V4.232H82.1174ZM86.0318 5.656C86.2878 5.15467 86.6504 4.76533 87.1198 4.488C87.5998 4.21067 88.1811 4.072 88.8638 4.072V5.576H88.4798C86.8478 5.576 86.0318 6.46133 86.0318 8.232V13H84.5758V4.232H86.0318V5.656ZM96.5861 5.432V10.6C96.5861 11.0267 96.6768 11.3307 96.8581 11.512C97.0395 11.6827 97.3541 11.768 97.8021 11.768H98.8741V13H97.5621C96.7515 13 96.1435 12.8133 95.7381 12.44C95.3328 12.0667 95.1301 11.4533 95.1301 10.6V5.432H93.9941V4.232H95.1301V2.024H96.5861V4.232H98.8741V5.432H96.5861ZM104.99 4.072C105.652 4.072 106.249 4.216 106.782 4.504C107.316 4.78133 107.732 5.20267 108.03 5.768C108.34 6.33333 108.494 7.02133 108.494 7.832V13H107.054V8.04C107.054 7.16533 106.836 6.49867 106.398 6.04C105.961 5.57067 105.364 5.336 104.606 5.336C103.838 5.336 103.225 5.576 102.766 6.056C102.318 6.536 102.094 7.23467 102.094 8.152V13H100.638V1.16H102.094V5.48C102.382 5.032 102.777 4.68533 103.278 4.44C103.79 4.19467 104.361 4.072 104.99 4.072ZM114.697 13.144C113.875 13.144 113.129 12.9573 112.457 12.584C111.795 12.2107 111.273 11.6827 110.889 11C110.515 10.3067 110.329 9.50667 110.329 8.6C110.329 7.704 110.521 6.91467 110.905 6.232C111.299 5.53867 111.833 5.01067 112.505 4.648C113.177 4.27467 113.929 4.088 114.761 4.088C115.593 4.088 116.345 4.27467 117.017 4.648C117.689 5.01067 118.217 5.53333 118.601 6.216C118.995 6.89867 119.193 7.69333 119.193 8.6C119.193 9.50667 118.99 10.3067 118.585 11C118.19 11.6827 117.651 12.2107 116.969 12.584C116.286 12.9573 115.529 13.144 114.697 13.144ZM114.697 11.864C115.219 11.864 115.71 11.7413 116.169 11.496C116.627 11.2507 116.995 10.8827 117.273 10.392C117.561 9.90133 117.705 9.304 117.705 8.6C117.705 7.896 117.566 7.29867 117.289 6.808C117.011 6.31733 116.649 5.95467 116.201 5.72C115.753 5.47467 115.267 5.352 114.745 5.352C114.211 5.352 113.721 5.47467 113.273 5.72C112.835 5.95467 112.483 6.31733 112.217 6.808C111.95 7.29867 111.817 7.896 111.817 8.6C111.817 9.31467 111.945 9.91733 112.201 10.408C112.467 10.8987 112.819 11.2667 113.257 11.512C113.694 11.7467 114.174 11.864 114.697 11.864ZM128.883 4.232V13H127.427V11.704C127.15 12.152 126.76 12.504 126.259 12.76C125.768 13.0053 125.224 13.128 124.627 13.128C123.944 13.128 123.331 12.9893 122.787 12.712C122.243 12.424 121.811 11.9973 121.491 11.432C121.182 10.8667 121.027 10.1787 121.027 9.368V4.232H122.467V9.176C122.467 10.04 122.686 10.7067 123.123 11.176C123.56 11.6347 124.158 11.864 124.915 11.864C125.694 11.864 126.307 11.624 126.755 11.144C127.203 10.664 127.427 9.96533 127.427 9.048V4.232H128.883ZM134.957 4.088C135.715 4.088 136.376 4.25333 136.941 4.584C137.517 4.91467 137.944 5.33067 138.221 5.832V4.232H139.693V13.192C139.693 13.992 139.523 14.7013 139.181 15.32C138.84 15.9493 138.349 16.44 137.709 16.792C137.08 17.144 136.344 17.32 135.501 17.32C134.349 17.32 133.389 17.048 132.621 16.504C131.853 15.96 131.4 15.2187 131.261 14.28H132.701C132.861 14.8133 133.192 15.24 133.693 15.56C134.195 15.8907 134.797 16.056 135.501 16.056C136.301 16.056 136.952 15.8053 137.453 15.304C137.965 14.8027 138.221 14.0987 138.221 13.192V11.352C137.933 11.864 137.507 12.2907 136.941 12.632C136.376 12.9733 135.715 13.144 134.957 13.144C134.179 13.144 133.469 12.952 132.829 12.568C132.2 12.184 131.704 11.6453 131.341 10.952C130.979 10.2587 130.797 9.46933 130.797 8.584C130.797 7.688 130.979 6.904 131.341 6.232C131.704 5.54933 132.2 5.02133 132.829 4.648C133.469 4.27467 134.179 4.088 134.957 4.088ZM138.221 8.6C138.221 7.93867 138.088 7.36267 137.821 6.872C137.555 6.38133 137.192 6.008 136.733 5.752C136.285 5.48533 135.789 5.352 135.245 5.352C134.701 5.352 134.205 5.48 133.757 5.736C133.309 5.992 132.952 6.36533 132.685 6.856C132.419 7.34667 132.285 7.92267 132.285 8.584C132.285 9.256 132.419 9.84267 132.685 10.344C132.952 10.8347 133.309 11.2133 133.757 11.48C134.205 11.736 134.701 11.864 135.245 11.864C135.789 11.864 136.285 11.736 136.733 11.48C137.192 11.2133 137.555 10.8347 137.821 10.344C138.088 9.84267 138.221 9.26133 138.221 8.6ZM146.506 4.072C147.167 4.072 147.765 4.216 148.298 4.504C148.831 4.78133 149.247 5.20267 149.546 5.768C149.855 6.33333 150.01 7.02133 150.01 7.832V13H148.57V8.04C148.57 7.16533 148.351 6.49867 147.914 6.04C147.477 5.57067 146.879 5.336 146.122 5.336C145.354 5.336 144.741 5.576 144.282 6.056C143.834 6.536 143.61 7.23467 143.61 8.152V13H142.154V1.16H143.61V5.48C143.898 5.032 144.293 4.68533 144.794 4.44C145.306 4.19467 145.877 4.072 146.506 4.072ZM154.164 5.432V10.6C154.164 11.0267 154.255 11.3307 154.436 11.512C154.618 11.6827 154.932 11.768 155.38 11.768H156.452V13H155.14C154.33 13 153.722 12.8133 153.316 12.44C152.911 12.0667 152.708 11.4533 152.708 10.6V5.432H151.572V4.232H152.708V2.024H154.164V4.232H156.452V5.432H154.164ZM161.32 13.144C160.648 13.144 160.046 13.032 159.512 12.808C158.979 12.5733 158.558 12.2533 158.248 11.848C157.939 11.432 157.768 10.9573 157.736 10.424H159.24C159.283 10.8613 159.486 11.2187 159.848 11.496C160.222 11.7733 160.707 11.912 161.304 11.912C161.859 11.912 162.296 11.7893 162.616 11.544C162.936 11.2987 163.096 10.9893 163.096 10.616C163.096 10.232 162.926 9.94933 162.584 9.768C162.243 9.576 161.715 9.38933 161 9.208C160.35 9.03733 159.816 8.86667 159.4 8.696C158.995 8.51467 158.643 8.25333 158.344 7.912C158.056 7.56 157.912 7.10133 157.912 6.536C157.912 6.088 158.046 5.67733 158.312 5.304C158.579 4.93067 158.958 4.63733 159.448 4.424C159.939 4.2 160.499 4.088 161.128 4.088C162.099 4.088 162.883 4.33333 163.48 4.824C164.078 5.31467 164.398 5.98667 164.44 6.84H162.984C162.952 6.38133 162.766 6.01333 162.424 5.736C162.094 5.45867 161.646 5.32 161.08 5.32C160.558 5.32 160.142 5.432 159.832 5.656C159.523 5.88 159.368 6.17333 159.368 6.536C159.368 6.824 159.459 7.064 159.64 7.256C159.832 7.43733 160.067 7.58667 160.344 7.704C160.632 7.81067 161.027 7.93333 161.528 8.072C162.158 8.24267 162.67 8.41333 163.064 8.584C163.459 8.744 163.795 8.98933 164.072 9.32C164.36 9.65067 164.51 10.0827 164.52 10.616C164.52 11.096 164.387 11.528 164.12 11.912C163.854 12.296 163.475 12.6 162.984 12.824C162.504 13.0373 161.95 13.144 161.32 13.144ZM182.521 4.232L179.785 13H178.281L176.169 6.04L174.057 13H172.553L169.801 4.232H171.289L173.305 11.592L175.481 4.232H176.969L179.097 11.608L181.081 4.232H182.521ZM184.718 2.808C184.441 2.808 184.206 2.712 184.014 2.52C183.822 2.328 183.726 2.09333 183.726 1.816C183.726 1.53867 183.822 1.304 184.014 1.112C184.206 0.919999 184.441 0.823999 184.718 0.823999C184.985 0.823999 185.209 0.919999 185.39 1.112C185.582 1.304 185.678 1.53867 185.678 1.816C185.678 2.09333 185.582 2.328 185.39 2.52C185.209 2.712 184.985 2.808 184.718 2.808ZM185.422 4.232V13H183.966V4.232H185.422ZM189.68 5.432V10.6C189.68 11.0267 189.771 11.3307 189.952 11.512C190.133 11.6827 190.448 11.768 190.896 11.768H191.968V13H190.656C189.845 13 189.237 12.8133 188.832 12.44C188.427 12.0667 188.224 11.4533 188.224 10.6V5.432H187.088V4.232H188.224V2.024H189.68V4.232H191.968V5.432H189.68ZM198.084 4.072C198.745 4.072 199.343 4.216 199.876 4.504C200.409 4.78133 200.825 5.20267 201.124 5.768C201.433 6.33333 201.588 7.02133 201.588 7.832V13H200.148V8.04C200.148 7.16533 199.929 6.49867 199.492 6.04C199.055 5.57067 198.457 5.336 197.7 5.336C196.932 5.336 196.319 5.576 195.86 6.056C195.412 6.536 195.188 7.23467 195.188 8.152V13H193.732V1.16H195.188V5.48C195.476 5.032 195.871 4.68533 196.372 4.44C196.884 4.19467 197.455 4.072 198.084 4.072ZM17.8884 41.728V58.936C17.8884 61.6 17.1324 63.652 15.6204 65.092C14.1324 66.532 12.1164 67.252 9.57241 67.252C6.90841 67.252 4.77241 66.496 3.16441 64.984C1.55641 63.472 0.752406 61.324 0.752406 58.54H6.87241C6.87241 59.596 7.08841 60.4 7.52041 60.952C7.95241 61.48 8.57641 61.744 9.39241 61.744C10.1364 61.744 10.7124 61.504 11.1204 61.024C11.5284 60.544 11.7324 59.848 11.7324 58.936V41.728H17.8884ZM32.0049 67.288C30.0369 67.288 28.2609 66.868 26.6769 66.028C25.1169 65.188 23.8809 63.988 22.9689 62.428C22.0809 60.868 21.6369 59.044 21.6369 56.956C21.6369 54.892 22.0929 53.08 23.0049 51.52C23.9169 49.936 25.1649 48.724 26.7489 47.884C28.3329 47.044 30.1089 46.624 32.0769 46.624C34.0449 46.624 35.8209 47.044 37.4049 47.884C38.9889 48.724 40.2369 49.936 41.1489 51.52C42.0609 53.08 42.5169 54.892 42.5169 56.956C42.5169 59.02 42.0489 60.844 41.1129 62.428C40.2009 63.988 38.9409 65.188 37.3329 66.028C35.7489 66.868 33.9729 67.288 32.0049 67.288ZM32.0049 61.96C33.1809 61.96 34.1769 61.528 34.9929 60.664C35.8329 59.8 36.2529 58.564 36.2529 56.956C36.2529 55.348 35.8449 54.112 35.0289 53.248C34.2369 52.384 33.2529 51.952 32.0769 51.952C30.8769 51.952 29.8809 52.384 29.0889 53.248C28.2969 54.088 27.9009 55.324 27.9009 56.956C27.9009 58.564 28.2849 59.8 29.0529 60.664C29.8449 61.528 30.8289 61.96 32.0049 61.96ZM65.6188 46.912V67H59.4628V64.264C58.8388 65.152 57.9868 65.872 56.9068 66.424C55.8508 66.952 54.6748 67.216 53.3788 67.216C51.8428 67.216 50.4868 66.88 49.3108 66.208C48.1348 65.512 47.2228 64.516 46.5748 63.22C45.9268 61.924 45.6028 60.4 45.6028 58.648V46.912H51.7228V57.82C51.7228 59.164 52.0708 60.208 52.7668 60.952C53.4628 61.696 54.3988 62.068 55.5748 62.068C56.7748 62.068 57.7228 61.696 58.4188 60.952C59.1148 60.208 59.4628 59.164 59.4628 57.82V46.912H65.6188ZM76.1966 50.26C76.9166 49.156 77.8166 48.292 78.8966 47.668C79.9766 47.02 81.1766 46.696 82.4966 46.696V53.212H80.8046C79.2686 53.212 78.1166 53.548 77.3486 54.22C76.5806 54.868 76.1966 56.02 76.1966 57.676V67H70.0406V46.912H76.1966V50.26ZM97.679 46.696C100.031 46.696 101.903 47.464 103.295 49C104.711 50.512 105.419 52.6 105.419 55.264V67H99.299V56.092C99.299 54.748 98.951 53.704 98.255 52.96C97.559 52.216 96.623 51.844 95.447 51.844C94.271 51.844 93.335 52.216 92.639 52.96C91.943 53.704 91.595 54.748 91.595 56.092V67H85.439V46.912H91.595V49.576C92.219 48.688 93.059 47.992 94.115 47.488C95.171 46.96 96.359 46.696 97.679 46.696ZM108.473 56.92C108.473 54.856 108.857 53.044 109.625 51.484C110.417 49.924 111.485 48.724 112.829 47.884C114.173 47.044 115.673 46.624 117.329 46.624C118.745 46.624 119.981 46.912 121.037 47.488C122.117 48.064 122.945 48.82 123.521 49.756V46.912H129.677V67H123.521V64.156C122.921 65.092 122.081 65.848 121.001 66.424C119.945 67 118.709 67.288 117.293 67.288C115.661 67.288 114.173 66.868 112.829 66.028C111.485 65.164 110.417 63.952 109.625 62.392C108.857 60.808 108.473 58.984 108.473 56.92ZM123.521 56.956C123.521 55.42 123.089 54.208 122.225 53.32C121.385 52.432 120.353 51.988 119.129 51.988C117.905 51.988 116.861 52.432 115.997 53.32C115.157 54.184 114.737 55.384 114.737 56.92C114.737 58.456 115.157 59.68 115.997 60.592C116.861 61.48 117.905 61.924 119.129 61.924C120.353 61.924 121.385 61.48 122.225 60.592C123.089 59.704 123.521 58.492 123.521 56.956ZM140.286 62.248H148.35V67H134.13V41.728H140.286V62.248ZM154.383 44.824C153.303 44.824 152.415 44.512 151.719 43.888C151.047 43.24 150.711 42.448 150.711 41.512C150.711 40.552 151.047 39.76 151.719 39.136C152.415 38.488 153.303 38.164 154.383 38.164C155.439 38.164 156.303 38.488 156.975 39.136C157.671 39.76 158.019 40.552 158.019 41.512C158.019 42.448 157.671 43.24 156.975 43.888C156.303 44.512 155.439 44.824 154.383 44.824ZM157.443 46.912V67H151.287V46.912H157.443ZM174.144 46.696C176.496 46.696 178.368 47.464 179.76 49C181.176 50.512 181.884 52.6 181.884 55.264V67H175.764V56.092C175.764 54.748 175.416 53.704 174.72 52.96C174.024 52.216 173.088 51.844 171.912 51.844C170.736 51.844 169.8 52.216 169.104 52.96C168.408 53.704 168.06 54.748 168.06 56.092V67H161.904V46.912H168.06V49.576C168.684 48.688 169.524 47.992 170.58 47.488C171.636 46.96 172.824 46.696 174.144 46.696ZM198.438 67L192.318 58.576V67H186.162V40.36H192.318V55.084L198.402 46.912H205.998L197.646 56.992L206.07 67H198.438Z" fill="black"/>
</svg>
