<svg width="213" height="91" viewBox="0 0 213 91" fill="none" xmlns="http://www.w3.org/2000/svg">
<path d="M12.0114 15.92C12.0114 13.1467 12.6114 10.68 13.8114 8.52C15.0114 6.33333 16.6781 4.64 18.8114 3.44C20.9714 2.21333 23.4114 1.6 26.1314 1.6C29.4647 1.6 32.3181 2.48 34.6914 4.24C37.0647 6 38.6514 8.4 39.4514 11.44H31.9314C31.3714 10.2667 30.5714 9.37333 29.5314 8.76C28.5181 8.14667 27.3581 7.84 26.0514 7.84C23.9447 7.84 22.2381 8.57333 20.9314 10.04C19.6247 11.5067 18.9714 13.4667 18.9714 15.92C18.9714 18.3733 19.6247 20.3333 20.9314 21.8C22.2381 23.2667 23.9447 24 26.0514 24C27.3581 24 28.5181 23.6933 29.5314 23.08C30.5714 22.4667 31.3714 21.5733 31.9314 20.4H39.4514C38.6514 23.44 37.0647 25.84 34.6914 27.6C32.3181 29.3333 29.4647 30.2 26.1314 30.2C23.4114 30.2 20.9714 29.6 18.8114 28.4C16.6781 27.1733 15.0114 25.48 13.8114 23.32C12.6114 21.16 12.0114 18.6933 12.0114 15.92ZM53.8002 30.32C51.6135 30.32 49.6402 29.8533 47.8802 28.92C46.1468 27.9867 44.7735 26.6533 43.7602 24.92C42.7735 23.1867 42.2802 21.16 42.2802 18.84C42.2802 16.5467 42.7868 14.5333 43.8002 12.8C44.8135 11.04 46.2002 9.69333 47.9602 8.76C49.7202 7.82667 51.6935 7.36 53.8802 7.36C56.0668 7.36 58.0402 7.82667 59.8002 8.76C61.5602 9.69333 62.9468 11.04 63.9602 12.8C64.9735 14.5333 65.4802 16.5467 65.4802 18.84C65.4802 21.1333 64.9602 23.16 63.9202 24.92C62.9068 26.6533 61.5068 27.9867 59.7202 28.92C57.9602 29.8533 55.9868 30.32 53.8002 30.32ZM53.8002 24.4C55.1068 24.4 56.2135 23.92 57.1202 22.96C58.0535 22 58.5202 20.6267 58.5202 18.84C58.5202 17.0533 58.0668 15.68 57.1602 14.72C56.2802 13.76 55.1868 13.28 53.8802 13.28C52.5468 13.28 51.4402 13.76 50.5602 14.72C49.6802 15.6533 49.2402 17.0267 49.2402 18.84C49.2402 20.6267 49.6668 22 50.5202 22.96C51.4002 23.92 52.4935 24.4 53.8002 24.4ZM67.7489 18.8C67.7489 16.5067 68.1756 14.4933 69.0289 12.76C69.9089 11.0267 71.0956 9.69333 72.5889 8.76C74.0822 7.82667 75.7489 7.36 77.5889 7.36C79.0556 7.36 80.3889 7.66666 81.5889 8.28C82.8156 8.89333 83.7756 9.72 84.4689 10.76V0.4H91.3089V30H84.4689V26.8C83.8289 27.8667 82.9089 28.72 81.7089 29.36C80.5356 30 79.1622 30.32 77.5889 30.32C75.7489 30.32 74.0822 29.8533 72.5889 28.92C71.0956 27.96 69.9089 26.6133 69.0289 24.88C68.1756 23.12 67.7489 21.0933 67.7489 18.8ZM84.4689 18.84C84.4689 17.1333 83.9889 15.7867 83.0289 14.8C82.0956 13.8133 80.9489 13.32 79.5889 13.32C78.2289 13.32 77.0689 13.8133 76.1089 14.8C75.1756 15.76 74.7089 17.0933 74.7089 18.8C74.7089 20.5067 75.1756 21.8667 76.1089 22.88C77.0689 23.8667 78.2289 24.36 79.5889 24.36C80.9489 24.36 82.0956 23.8667 83.0289 22.88C83.9889 21.8933 84.4689 20.5467 84.4689 18.84ZM117.297 18.48C117.297 19.12 117.257 19.7867 117.177 20.48H101.697C101.804 21.8667 102.244 22.9333 103.017 23.68C103.817 24.4 104.791 24.76 105.937 24.76C107.644 24.76 108.831 24.04 109.497 22.6H116.777C116.404 24.0667 115.724 25.3867 114.737 26.56C113.777 27.7333 112.564 28.6533 111.097 29.32C109.631 29.9867 107.991 30.32 106.177 30.32C103.991 30.32 102.044 29.8533 100.337 28.92C98.6307 27.9867 97.2973 26.6533 96.3373 24.92C95.3773 23.1867 94.8973 21.16 94.8973 18.84C94.8973 16.52 95.364 14.4933 96.2973 12.76C97.2573 11.0267 98.5907 9.69333 100.297 8.76C102.004 7.82667 103.964 7.36 106.177 7.36C108.337 7.36 110.257 7.81333 111.937 8.72C113.617 9.62667 114.924 10.92 115.857 12.6C116.817 14.28 117.297 16.24 117.297 18.48ZM110.297 16.68C110.297 15.5067 109.897 14.5733 109.097 13.88C108.297 13.1867 107.297 12.84 106.097 12.84C104.951 12.84 103.977 13.1733 103.177 13.84C102.404 14.5067 101.924 15.4533 101.737 16.68H110.297ZM143.102 7.44C145.662 7.44 147.716 8.29333 149.262 10C150.809 11.68 151.582 14 151.582 16.96V30H144.782V17.88C144.782 16.3867 144.396 15.2267 143.622 14.4C142.849 13.5733 141.809 13.16 140.502 13.16C139.196 13.16 138.156 13.5733 137.382 14.4C136.609 15.2267 136.222 16.3867 136.222 17.88V30H129.382V0.4H136.222V10.68C136.916 9.69333 137.862 8.90666 139.062 8.32C140.262 7.73333 141.609 7.44 143.102 7.44ZM154.975 18.8C154.975 16.5067 155.402 14.4933 156.255 12.76C157.135 11.0267 158.322 9.69333 159.815 8.76C161.309 7.82667 162.975 7.36 164.815 7.36C166.389 7.36 167.762 7.68 168.935 8.32C170.135 8.96 171.055 9.8 171.695 10.84V7.68H178.535V30H171.695V26.84C171.029 27.88 170.095 28.72 168.895 29.36C167.722 30 166.349 30.32 164.775 30.32C162.962 30.32 161.309 29.8533 159.815 28.92C158.322 27.96 157.135 26.6133 156.255 24.88C155.402 23.12 154.975 21.0933 154.975 18.8ZM171.695 18.84C171.695 17.1333 171.215 15.7867 170.255 14.8C169.322 13.8133 168.175 13.32 166.815 13.32C165.455 13.32 164.295 13.8133 163.335 14.8C162.402 15.76 161.935 17.0933 161.935 18.8C161.935 20.5067 162.402 21.8667 163.335 22.88C164.295 23.8667 165.455 24.36 166.815 24.36C168.175 24.36 169.322 23.8667 170.255 22.88C171.215 21.8933 171.695 20.5467 171.695 18.84ZM192.564 30.32C190.617 30.32 188.884 29.9867 187.364 29.32C185.844 28.6533 184.644 27.7467 183.764 26.6C182.884 25.4267 182.391 24.12 182.284 22.68H189.044C189.124 23.4533 189.484 24.08 190.124 24.56C190.764 25.04 191.551 25.28 192.484 25.28C193.337 25.28 193.991 25.12 194.444 24.8C194.924 24.4533 195.164 24.0133 195.164 23.48C195.164 22.84 194.831 22.3733 194.164 22.08C193.497 21.76 192.417 21.4133 190.924 21.04C189.324 20.6667 187.991 20.28 186.924 19.88C185.857 19.4533 184.937 18.8 184.164 17.92C183.391 17.0133 183.004 15.8 183.004 14.28C183.004 13 183.351 11.84 184.044 10.8C184.764 9.73333 185.804 8.89333 187.164 8.28C188.551 7.66666 190.191 7.36 192.084 7.36C194.884 7.36 197.084 8.05333 198.684 9.44C200.311 10.8267 201.244 12.6667 201.484 14.96H195.164C195.057 14.1867 194.711 13.5733 194.124 13.12C193.564 12.6667 192.817 12.44 191.884 12.44C191.084 12.44 190.471 12.6 190.044 12.92C189.617 13.2133 189.404 13.6267 189.404 14.16C189.404 14.8 189.737 15.28 190.404 15.6C191.097 15.92 192.164 16.24 193.604 16.56C195.257 16.9867 196.604 17.4133 197.644 17.84C198.684 18.24 199.591 18.9067 200.364 19.84C201.164 20.7467 201.577 21.9733 201.604 23.52C201.604 24.8267 201.231 26 200.484 27.04C199.764 28.0533 198.711 28.8533 197.324 29.44C195.964 30.0267 194.377 30.32 192.564 30.32ZM7.47234 70.84C8.11234 69.8 9.03234 68.96 10.2323 68.32C11.4323 67.68 12.8057 67.36 14.3523 67.36C16.1923 67.36 17.859 67.8267 19.3523 68.76C20.8457 69.6933 22.019 71.0267 22.8723 72.76C23.7523 74.4933 24.1923 76.5067 24.1923 78.8C24.1923 81.0933 23.7523 83.12 22.8723 84.88C22.019 86.6133 20.8457 87.96 19.3523 88.92C17.859 89.8533 16.1923 90.32 14.3523 90.32C12.779 90.32 11.4057 90.0133 10.2323 89.4C9.05901 88.76 8.13901 87.92 7.47234 86.88V90H0.632344V60.4H7.47234V70.84ZM17.2323 78.8C17.2323 77.0933 16.7523 75.76 15.7923 74.8C14.859 73.8133 13.699 73.32 12.3123 73.32C10.9523 73.32 9.79234 73.8133 8.83234 74.8C7.89901 75.7867 7.43234 77.1333 7.43234 78.84C7.43234 80.5467 7.89901 81.8933 8.83234 82.88C9.79234 83.8667 10.9523 84.36 12.3123 84.36C13.6723 84.36 14.8323 83.8667 15.7923 82.88C16.7523 81.8667 17.2323 80.5067 17.2323 78.8ZM48.8208 78.48C48.8208 79.12 48.7808 79.7867 48.7008 80.48H33.2208C33.3274 81.8667 33.7674 82.9333 34.5408 83.68C35.3408 84.4 36.3141 84.76 37.4608 84.76C39.1674 84.76 40.3541 84.04 41.0208 82.6H48.3008C47.9274 84.0667 47.2474 85.3867 46.2608 86.56C45.3008 87.7333 44.0874 88.6533 42.6208 89.32C41.1541 89.9867 39.5141 90.32 37.7008 90.32C35.5141 90.32 33.5674 89.8533 31.8608 88.92C30.1541 87.9867 28.8208 86.6533 27.8608 84.92C26.9008 83.1867 26.4208 81.16 26.4208 78.84C26.4208 76.52 26.8874 74.4933 27.8208 72.76C28.7808 71.0267 30.1141 69.6933 31.8208 68.76C33.5274 67.8267 35.4874 67.36 37.7008 67.36C39.8608 67.36 41.7808 67.8133 43.4608 68.72C45.1408 69.6267 46.4474 70.92 47.3808 72.6C48.3408 74.28 48.8208 76.24 48.8208 78.48ZM41.8208 76.68C41.8208 75.5067 41.4208 74.5733 40.6208 73.88C39.8208 73.1867 38.8208 72.84 37.6208 72.84C36.4741 72.84 35.5008 73.1733 34.7008 73.84C33.9274 74.5067 33.4474 75.4533 33.2608 76.68H41.8208ZM73.4692 78.48C73.4692 79.12 73.4292 79.7867 73.3492 80.48H57.8692C57.9759 81.8667 58.4159 82.9333 59.1892 83.68C59.9892 84.4 60.9626 84.76 62.1092 84.76C63.8159 84.76 65.0026 84.04 65.6692 82.6H72.9492C72.5759 84.0667 71.8959 85.3867 70.9092 86.56C69.9492 87.7333 68.7359 88.6533 67.2692 89.32C65.8026 89.9867 64.1626 90.32 62.3492 90.32C60.1626 90.32 58.2159 89.8533 56.5092 88.92C54.8026 87.9867 53.4692 86.6533 52.5092 84.92C51.5492 83.1867 51.0692 81.16 51.0692 78.84C51.0692 76.52 51.5359 74.4933 52.4692 72.76C53.4292 71.0267 54.7626 69.6933 56.4692 68.76C58.1759 67.8267 60.1359 67.36 62.3492 67.36C64.5092 67.36 66.4292 67.8133 68.1092 68.72C69.7892 69.6267 71.0959 70.92 72.0292 72.6C72.9892 74.28 73.4692 76.24 73.4692 78.48ZM66.4692 76.68C66.4692 75.5067 66.0692 74.5733 65.2692 73.88C64.4692 73.1867 63.4692 72.84 62.2692 72.84C61.1226 72.84 60.1492 73.1733 59.3492 73.84C58.5759 74.5067 58.0959 75.4533 57.9092 76.68H66.4692ZM90.6777 67.44C93.291 67.44 95.371 68.2933 96.9177 70C98.491 71.68 99.2777 74 99.2777 76.96V90H92.4777V77.88C92.4777 76.3867 92.091 75.2267 91.3177 74.4C90.5443 73.5733 89.5043 73.16 88.1977 73.16C86.891 73.16 85.851 73.5733 85.0777 74.4C84.3043 75.2267 83.9177 76.3867 83.9177 77.88V90H77.0777V67.68H83.9177V70.64C84.611 69.6533 85.5443 68.88 86.7177 68.32C87.891 67.7333 89.211 67.44 90.6777 67.44ZM121.587 90.32C119.641 90.32 117.907 89.9867 116.387 89.32C114.867 88.6533 113.667 87.7467 112.787 86.6C111.907 85.4267 111.414 84.12 111.307 82.68H118.067C118.147 83.4533 118.507 84.08 119.147 84.56C119.787 85.04 120.574 85.28 121.507 85.28C122.361 85.28 123.014 85.12 123.467 84.8C123.947 84.4533 124.187 84.0133 124.187 83.48C124.187 82.84 123.854 82.3733 123.187 82.08C122.521 81.76 121.441 81.4133 119.947 81.04C118.347 80.6667 117.014 80.28 115.947 79.88C114.881 79.4533 113.961 78.8 113.187 77.92C112.414 77.0133 112.027 75.8 112.027 74.28C112.027 73 112.374 71.84 113.067 70.8C113.787 69.7333 114.827 68.8933 116.187 68.28C117.574 67.6667 119.214 67.36 121.107 67.36C123.907 67.36 126.107 68.0533 127.707 69.44C129.334 70.8267 130.267 72.6667 130.507 74.96H124.187C124.081 74.1867 123.734 73.5733 123.147 73.12C122.587 72.6667 121.841 72.44 120.907 72.44C120.107 72.44 119.494 72.6 119.067 72.92C118.641 73.2133 118.427 73.6267 118.427 74.16C118.427 74.8 118.761 75.28 119.427 75.6C120.121 75.92 121.187 76.24 122.627 76.56C124.281 76.9867 125.627 77.4133 126.667 77.84C127.707 78.24 128.614 78.9067 129.387 79.84C130.187 80.7467 130.601 81.9733 130.627 83.52C130.627 84.8267 130.254 86 129.507 87.04C128.787 88.0533 127.734 88.8533 126.347 89.44C124.987 90.0267 123.401 90.32 121.587 90.32ZM155.852 78.48C155.852 79.12 155.812 79.7867 155.732 80.48H140.252C140.359 81.8667 140.799 82.9333 141.572 83.68C142.372 84.4 143.345 84.76 144.492 84.76C146.199 84.76 147.385 84.04 148.052 82.6H155.332C154.959 84.0667 154.279 85.3867 153.292 86.56C152.332 87.7333 151.119 88.6533 149.652 89.32C148.185 89.9867 146.545 90.32 144.732 90.32C142.545 90.32 140.599 89.8533 138.892 88.92C137.185 87.9867 135.852 86.6533 134.892 84.92C133.932 83.1867 133.452 81.16 133.452 78.84C133.452 76.52 133.919 74.4933 134.852 72.76C135.812 71.0267 137.145 69.6933 138.852 68.76C140.559 67.8267 142.519 67.36 144.732 67.36C146.892 67.36 148.812 67.8133 150.492 68.72C152.172 69.6267 153.479 70.92 154.412 72.6C155.372 74.28 155.852 76.24 155.852 78.48ZM148.852 76.68C148.852 75.5067 148.452 74.5733 147.652 73.88C146.852 73.1867 145.852 72.84 144.652 72.84C143.505 72.84 142.532 73.1733 141.732 73.84C140.959 74.5067 140.479 75.4533 140.292 76.68H148.852ZM173.06 67.44C175.674 67.44 177.754 68.2933 179.3 70C180.874 71.68 181.66 74 181.66 76.96V90H174.86V77.88C174.86 76.3867 174.474 75.2267 173.7 74.4C172.927 73.5733 171.887 73.16 170.58 73.16C169.274 73.16 168.234 73.5733 167.46 74.4C166.687 75.2267 166.3 76.3867 166.3 77.88V90H159.46V67.68H166.3V70.64C166.994 69.6533 167.927 68.88 169.1 68.32C170.274 67.7333 171.594 67.44 173.06 67.44ZM198.854 84.2V90H195.374C192.894 90 190.96 89.4 189.574 88.2C188.187 86.9733 187.494 84.9867 187.494 82.24V73.36H184.774V67.68H187.494V62.24H194.334V67.68H198.814V73.36H194.334V82.32C194.334 82.9867 194.494 83.4667 194.814 83.76C195.134 84.0533 195.667 84.2 196.414 84.2H198.854ZM211.664 60.92L210.864 80.08H205.064L204.264 60.92H211.664ZM208.064 90.32C206.864 90.32 205.877 89.9733 205.104 89.28C204.357 88.56 203.984 87.68 203.984 86.64C203.984 85.5733 204.357 84.68 205.104 83.96C205.877 83.24 206.864 82.88 208.064 82.88C209.237 82.88 210.197 83.24 210.944 83.96C211.717 84.68 212.104 85.5733 212.104 86.64C212.104 87.68 211.717 88.56 210.944 89.28C210.197 89.9733 209.237 90.32 208.064 90.32Z" fill="black"/>
</svg>
