<svg width="196" height="11" viewBox="0 0 196 11" fill="none" xmlns="http://www.w3.org/2000/svg">
<path d="M2.56721 1.612C3.49521 1.612 4.29121 1.78 4.95521 2.116C5.61921 2.452 6.12721 2.936 6.47921 3.568C6.83121 4.2 7.00721 4.952 7.00721 5.824C7.00721 6.688 6.83121 7.436 6.47921 8.068C6.12721 8.692 5.61921 9.172 4.95521 9.508C4.29121 9.836 3.49521 10 2.56721 10H0.0832072V1.612H2.56721ZM2.56721 9.304C3.73521 9.304 4.62321 9 5.23121 8.392C5.84721 7.776 6.15521 6.92 6.15521 5.824C6.15521 4.72 5.84721 3.86 5.23121 3.244C4.62321 2.62 3.73521 2.308 2.56721 2.308H0.923207V9.304H2.56721ZM11.3159 2.212C11.1479 2.212 11.0039 2.152 10.8839 2.032C10.7639 1.912 10.7039 1.764 10.7039 1.588C10.7039 1.412 10.7639 1.268 10.8839 1.156C11.0039 1.036 11.1479 0.976 11.3159 0.976C11.4839 0.976 11.6279 1.036 11.7479 1.156C11.8679 1.268 11.9279 1.412 11.9279 1.588C11.9279 1.764 11.8679 1.912 11.7479 2.032C11.6279 2.152 11.4839 2.212 11.3159 2.212ZM11.7359 3.448V10H10.8959V3.448H11.7359ZM15.5941 6.712C15.5941 6.04 15.7301 5.452 16.0021 4.948C16.2741 4.436 16.6461 4.044 17.1181 3.772C17.5981 3.492 18.1381 3.352 18.7381 3.352C19.3141 3.352 19.8341 3.492 20.2981 3.772C20.7621 4.052 21.1021 4.416 21.3181 4.864V1.12H22.1581V10H21.3181V8.536C21.1181 8.992 20.7901 9.368 20.3341 9.664C19.8781 9.952 19.3421 10.096 18.7261 10.096C18.1261 10.096 17.5861 9.956 17.1061 9.676C16.6341 9.396 16.2621 9 15.9901 8.488C15.7261 7.976 15.5941 7.384 15.5941 6.712ZM21.3181 6.724C21.3181 6.196 21.2101 5.732 20.9941 5.332C20.7781 4.932 20.4821 4.624 20.1061 4.408C19.7381 4.192 19.3301 4.084 18.8821 4.084C18.4181 4.084 18.0021 4.188 17.6341 4.396C17.2661 4.604 16.9741 4.908 16.7581 5.308C16.5501 5.7 16.4461 6.168 16.4461 6.712C16.4461 7.248 16.5501 7.72 16.7581 8.128C16.9741 8.528 17.2661 8.836 17.6341 9.052C18.0021 9.26 18.4181 9.364 18.8821 9.364C19.3301 9.364 19.7381 9.256 20.1061 9.04C20.4821 8.824 20.7781 8.516 20.9941 8.116C21.2101 7.716 21.3181 7.252 21.3181 6.724ZM29.4877 3.328C30.2717 3.328 30.9117 3.572 31.4077 4.06C31.9037 4.54 32.1517 5.24 32.1517 6.16V10H31.3237V6.256C31.3237 5.544 31.1437 5 30.7837 4.624C30.4317 4.248 29.9477 4.06 29.3317 4.06C28.6997 4.06 28.1957 4.26 27.8197 4.66C27.4437 5.06 27.2557 5.648 27.2557 6.424V10H26.4157V3.448H27.2557V4.564C27.4637 4.164 27.7637 3.86 28.1557 3.652C28.5477 3.436 28.9917 3.328 29.4877 3.328ZM36.4575 1.612H37.4295L36.3735 4.204H35.7615L36.4575 1.612ZM42.1486 4.156V8.224C42.1486 8.624 42.2246 8.9 42.3766 9.052C42.5286 9.204 42.7966 9.28 43.1806 9.28H43.9486V10H43.0486C42.4566 10 42.0166 9.864 41.7286 9.592C41.4406 9.312 41.2966 8.856 41.2966 8.224V4.156H40.3846V3.448H41.2966V1.804H42.1486V3.448H43.9486V4.156H42.1486ZM54.147 4.612C54.331 4.204 54.611 3.888 54.987 3.664C55.371 3.44 55.839 3.328 56.391 3.328V4.204H56.163C55.555 4.204 55.067 4.368 54.699 4.696C54.331 5.024 54.147 5.572 54.147 6.34V10H53.307V3.448H54.147V4.612ZM65.9226 6.388C65.9226 6.676 65.9146 6.896 65.8986 7.048H60.4626C60.4866 7.544 60.6066 7.968 60.8226 8.32C61.0386 8.672 61.3226 8.94 61.6746 9.124C62.0266 9.3 62.4106 9.388 62.8266 9.388C63.3706 9.388 63.8266 9.256 64.1946 8.992C64.5706 8.728 64.8186 8.372 64.9386 7.924H65.8266C65.6666 8.564 65.3226 9.088 64.7946 9.496C64.2746 9.896 63.6186 10.096 62.8266 10.096C62.2106 10.096 61.6586 9.96 61.1706 9.688C60.6826 9.408 60.2986 9.016 60.0186 8.512C59.7466 8 59.6106 7.404 59.6106 6.724C59.6106 6.044 59.7466 5.448 60.0186 4.936C60.2906 4.424 60.6706 4.032 61.1586 3.76C61.6466 3.488 62.2026 3.352 62.8266 3.352C63.4506 3.352 63.9946 3.488 64.4586 3.76C64.9306 4.032 65.2906 4.4 65.5386 4.864C65.7946 5.32 65.9226 5.828 65.9226 6.388ZM65.0706 6.364C65.0786 5.876 64.9786 5.46 64.7706 5.116C64.5706 4.772 64.2946 4.512 63.9426 4.336C63.5906 4.16 63.2066 4.072 62.7906 4.072C62.1666 4.072 61.6346 4.272 61.1946 4.672C60.7546 5.072 60.5106 5.636 60.4626 6.364H65.0706ZM69.4155 6.724C69.4155 6.044 69.5515 5.452 69.8235 4.948C70.0955 4.436 70.4715 4.044 70.9515 3.772C71.4315 3.492 71.9795 3.352 72.5955 3.352C73.4035 3.352 74.0675 3.552 74.5875 3.952C75.1155 4.352 75.4555 4.896 75.6075 5.584H74.7075C74.5955 5.112 74.3515 4.744 73.9755 4.48C73.6075 4.208 73.1475 4.072 72.5955 4.072C72.1555 4.072 71.7595 4.172 71.4075 4.372C71.0555 4.572 70.7755 4.872 70.5675 5.272C70.3675 5.664 70.2675 6.148 70.2675 6.724C70.2675 7.3 70.3675 7.788 70.5675 8.188C70.7755 8.588 71.0555 8.888 71.4075 9.088C71.7595 9.288 72.1555 9.388 72.5955 9.388C73.1475 9.388 73.6075 9.256 73.9755 8.992C74.3515 8.72 74.5955 8.344 74.7075 7.864H75.6075C75.4555 8.536 75.1155 9.076 74.5875 9.484C74.0595 9.892 73.3955 10.096 72.5955 10.096C71.9795 10.096 71.4315 9.96 70.9515 9.688C70.4715 9.408 70.0955 9.016 69.8235 8.512C69.5515 8 69.4155 7.404 69.4155 6.724ZM85.4268 6.388C85.4268 6.676 85.4188 6.896 85.4028 7.048H79.9668C79.9908 7.544 80.1108 7.968 80.3268 8.32C80.5428 8.672 80.8268 8.94 81.1788 9.124C81.5308 9.3 81.9148 9.388 82.3308 9.388C82.8748 9.388 83.3308 9.256 83.6988 8.992C84.0748 8.728 84.3228 8.372 84.4428 7.924H85.3308C85.1708 8.564 84.8268 9.088 84.2988 9.496C83.7788 9.896 83.1228 10.096 82.3308 10.096C81.7148 10.096 81.1628 9.96 80.6748 9.688C80.1868 9.408 79.8028 9.016 79.5228 8.512C79.2508 8 79.1148 7.404 79.1148 6.724C79.1148 6.044 79.2508 5.448 79.5228 4.936C79.7948 4.424 80.1748 4.032 80.6628 3.76C81.1508 3.488 81.7068 3.352 82.3308 3.352C82.9548 3.352 83.4988 3.488 83.9628 3.76C84.4348 4.032 84.7948 4.4 85.0428 4.864C85.2988 5.32 85.4268 5.828 85.4268 6.388ZM84.5748 6.364C84.5828 5.876 84.4828 5.46 84.2748 5.116C84.0748 4.772 83.7988 4.512 83.4468 4.336C83.0948 4.16 82.7108 4.072 82.2948 4.072C81.6708 4.072 81.1388 4.272 80.6988 4.672C80.2588 5.072 80.0148 5.636 79.9668 6.364H84.5748ZM89.7237 2.212C89.5557 2.212 89.4117 2.152 89.2917 2.032C89.1717 1.912 89.1117 1.764 89.1117 1.588C89.1117 1.412 89.1717 1.268 89.2917 1.156C89.4117 1.036 89.5557 0.976 89.7237 0.976C89.8917 0.976 90.0357 1.036 90.1557 1.156C90.2757 1.268 90.3357 1.412 90.3357 1.588C90.3357 1.764 90.2757 1.912 90.1557 2.032C90.0357 2.152 89.8917 2.212 89.7237 2.212ZM90.1437 3.448V10H89.3037V3.448H90.1437ZM96.7139 9.184L98.9219 3.448H99.8099L97.1819 10H96.2339L93.6059 3.448H94.5059L96.7139 9.184ZM109.216 6.388C109.216 6.676 109.208 6.896 109.192 7.048H103.756C103.78 7.544 103.9 7.968 104.116 8.32C104.332 8.672 104.616 8.94 104.968 9.124C105.32 9.3 105.704 9.388 106.12 9.388C106.664 9.388 107.12 9.256 107.488 8.992C107.864 8.728 108.112 8.372 108.232 7.924H109.12C108.96 8.564 108.616 9.088 108.088 9.496C107.568 9.896 106.912 10.096 106.12 10.096C105.504 10.096 104.952 9.96 104.464 9.688C103.976 9.408 103.592 9.016 103.312 8.512C103.04 8 102.904 7.404 102.904 6.724C102.904 6.044 103.04 5.448 103.312 4.936C103.584 4.424 103.964 4.032 104.452 3.76C104.94 3.488 105.496 3.352 106.12 3.352C106.744 3.352 107.288 3.488 107.752 3.76C108.224 4.032 108.584 4.4 108.832 4.864C109.088 5.32 109.216 5.828 109.216 6.388ZM108.364 6.364C108.372 5.876 108.272 5.46 108.064 5.116C107.864 4.772 107.588 4.512 107.236 4.336C106.884 4.16 106.5 4.072 106.084 4.072C105.46 4.072 104.928 4.272 104.488 4.672C104.048 5.072 103.804 5.636 103.756 6.364H108.364ZM119.818 4.156V8.224C119.818 8.624 119.894 8.9 120.046 9.052C120.198 9.204 120.466 9.28 120.85 9.28H121.618V10H120.718C120.126 10 119.686 9.864 119.398 9.592C119.11 9.312 118.966 8.856 118.966 8.224V4.156H118.054V3.448H118.966V1.804H119.818V3.448H121.618V4.156H119.818ZM128.464 3.328C128.96 3.328 129.404 3.432 129.796 3.64C130.196 3.848 130.508 4.168 130.732 4.6C130.964 5.024 131.08 5.544 131.08 6.16V10H130.252V6.256C130.252 5.544 130.072 5 129.712 4.624C129.36 4.248 128.876 4.06 128.26 4.06C127.628 4.06 127.124 4.26 126.748 4.66C126.372 5.06 126.184 5.648 126.184 6.424V10H125.344V1.12H126.184V4.564C126.392 4.172 126.696 3.868 127.096 3.652C127.504 3.436 127.96 3.328 128.464 3.328ZM141.205 6.388C141.205 6.676 141.197 6.896 141.181 7.048H135.745C135.769 7.544 135.889 7.968 136.105 8.32C136.321 8.672 136.605 8.94 136.957 9.124C137.309 9.3 137.693 9.388 138.109 9.388C138.653 9.388 139.109 9.256 139.477 8.992C139.853 8.728 140.101 8.372 140.221 7.924H141.109C140.949 8.564 140.605 9.088 140.077 9.496C139.557 9.896 138.901 10.096 138.109 10.096C137.493 10.096 136.941 9.96 136.453 9.688C135.965 9.408 135.581 9.016 135.301 8.512C135.029 8 134.893 7.404 134.893 6.724C134.893 6.044 135.029 5.448 135.301 4.936C135.573 4.424 135.953 4.032 136.441 3.76C136.929 3.488 137.485 3.352 138.109 3.352C138.733 3.352 139.277 3.488 139.741 3.76C140.213 4.032 140.573 4.4 140.821 4.864C141.077 5.32 141.205 5.828 141.205 6.388ZM140.353 6.364C140.361 5.876 140.261 5.46 140.053 5.116C139.853 4.772 139.577 4.512 139.225 4.336C138.873 4.16 138.489 4.072 138.073 4.072C137.449 4.072 136.917 4.272 136.477 4.672C136.037 5.072 135.793 5.636 135.745 6.364H140.353ZM150.331 6.724C150.331 6.044 150.467 5.452 150.739 4.948C151.011 4.436 151.387 4.044 151.867 3.772C152.347 3.492 152.895 3.352 153.511 3.352C154.319 3.352 154.983 3.552 155.503 3.952C156.031 4.352 156.371 4.896 156.523 5.584H155.623C155.511 5.112 155.267 4.744 154.891 4.48C154.523 4.208 154.063 4.072 153.511 4.072C153.071 4.072 152.675 4.172 152.323 4.372C151.971 4.572 151.691 4.872 151.483 5.272C151.283 5.664 151.183 6.148 151.183 6.724C151.183 7.3 151.283 7.788 151.483 8.188C151.691 8.588 151.971 8.888 152.323 9.088C152.675 9.288 153.071 9.388 153.511 9.388C154.063 9.388 154.523 9.256 154.891 8.992C155.267 8.72 155.511 8.344 155.623 7.864H156.523C156.371 8.536 156.031 9.076 155.503 9.484C154.975 9.892 154.311 10.096 153.511 10.096C152.895 10.096 152.347 9.96 151.867 9.688C151.387 9.408 151.011 9.016 150.739 8.512C150.467 8 150.331 7.404 150.331 6.724ZM163.282 10.096C162.666 10.096 162.11 9.96 161.614 9.688C161.126 9.408 160.738 9.016 160.45 8.512C160.17 8 160.03 7.404 160.03 6.724C160.03 6.044 160.174 5.452 160.462 4.948C160.75 4.436 161.142 4.044 161.638 3.772C162.134 3.492 162.69 3.352 163.306 3.352C163.922 3.352 164.478 3.492 164.974 3.772C165.478 4.044 165.87 4.436 166.15 4.948C166.438 5.452 166.582 6.044 166.582 6.724C166.582 7.396 166.438 7.988 166.15 8.5C165.862 9.012 165.466 9.408 164.962 9.688C164.458 9.96 163.898 10.096 163.282 10.096ZM163.282 9.364C163.714 9.364 164.114 9.268 164.482 9.076C164.85 8.876 165.146 8.58 165.37 8.188C165.602 7.788 165.718 7.3 165.718 6.724C165.718 6.148 165.606 5.664 165.382 5.272C165.158 4.872 164.862 4.576 164.494 4.384C164.126 4.184 163.726 4.084 163.294 4.084C162.862 4.084 162.462 4.184 162.094 4.384C161.726 4.576 161.43 4.872 161.206 5.272C160.99 5.664 160.882 6.148 160.882 6.724C160.882 7.3 160.99 7.788 161.206 8.188C161.43 8.58 161.722 8.876 162.082 9.076C162.45 9.268 162.85 9.364 163.282 9.364ZM170.07 6.712C170.07 6.04 170.206 5.452 170.478 4.948C170.75 4.436 171.122 4.044 171.594 3.772C172.074 3.492 172.614 3.352 173.214 3.352C173.79 3.352 174.31 3.492 174.774 3.772C175.238 4.052 175.578 4.416 175.794 4.864V1.12H176.634V10H175.794V8.536C175.594 8.992 175.266 9.368 174.81 9.664C174.354 9.952 173.818 10.096 173.202 10.096C172.602 10.096 172.062 9.956 171.582 9.676C171.11 9.396 170.738 9 170.466 8.488C170.202 7.976 170.07 7.384 170.07 6.712ZM175.794 6.724C175.794 6.196 175.686 5.732 175.47 5.332C175.254 4.932 174.958 4.624 174.582 4.408C174.214 4.192 173.806 4.084 173.358 4.084C172.894 4.084 172.478 4.188 172.11 4.396C171.742 4.604 171.45 4.908 171.234 5.308C171.026 5.7 170.922 6.168 170.922 6.712C170.922 7.248 171.026 7.72 171.234 8.128C171.45 8.528 171.742 8.836 172.11 9.052C172.478 9.26 172.894 9.364 173.358 9.364C173.806 9.364 174.214 9.256 174.582 9.04C174.958 8.824 175.254 8.516 175.47 8.116C175.686 7.716 175.794 7.252 175.794 6.724ZM186.819 6.388C186.819 6.676 186.811 6.896 186.795 7.048H181.359C181.383 7.544 181.503 7.968 181.719 8.32C181.935 8.672 182.219 8.94 182.571 9.124C182.923 9.3 183.307 9.388 183.723 9.388C184.267 9.388 184.723 9.256 185.091 8.992C185.467 8.728 185.715 8.372 185.835 7.924H186.723C186.563 8.564 186.219 9.088 185.691 9.496C185.171 9.896 184.515 10.096 183.723 10.096C183.107 10.096 182.555 9.96 182.067 9.688C181.579 9.408 181.195 9.016 180.915 8.512C180.643 8 180.507 7.404 180.507 6.724C180.507 6.044 180.643 5.448 180.915 4.936C181.187 4.424 181.567 4.032 182.055 3.76C182.543 3.488 183.099 3.352 183.723 3.352C184.347 3.352 184.891 3.488 185.355 3.76C185.827 4.032 186.187 4.4 186.435 4.864C186.691 5.32 186.819 5.828 186.819 6.388ZM185.967 6.364C185.975 5.876 185.875 5.46 185.667 5.116C185.467 4.772 185.191 4.512 184.839 4.336C184.487 4.16 184.103 4.072 183.687 4.072C183.063 4.072 182.531 4.272 182.091 4.672C181.651 5.072 181.407 5.636 181.359 6.364H185.967ZM192.724 1.504C193.236 1.504 193.688 1.604 194.08 1.804C194.48 2.004 194.788 2.292 195.004 2.668C195.228 3.036 195.34 3.464 195.34 3.952C195.34 4.816 195.072 5.452 194.536 5.86C194.008 6.26 193.284 6.46 192.364 6.46L192.328 7.78H191.608L191.56 5.86H191.872C192.696 5.86 193.344 5.732 193.816 5.476C194.296 5.212 194.536 4.704 194.536 3.952C194.536 3.424 194.368 3.004 194.032 2.692C193.704 2.38 193.268 2.224 192.724 2.224C192.18 2.224 191.748 2.372 191.428 2.668C191.108 2.964 190.948 3.368 190.948 3.88H190.144C190.144 3.4 190.252 2.984 190.468 2.632C190.692 2.272 190.996 1.996 191.38 1.804C191.772 1.604 192.22 1.504 192.724 1.504ZM191.968 10.06C191.792 10.06 191.644 10 191.524 9.88C191.412 9.76 191.356 9.612 191.356 9.436C191.356 9.26 191.412 9.116 191.524 9.004C191.644 8.884 191.792 8.824 191.968 8.824C192.136 8.824 192.276 8.884 192.388 9.004C192.508 9.116 192.568 9.26 192.568 9.436C192.568 9.612 192.508 9.76 192.388 9.88C192.276 10 192.136 10.06 191.968 10.06Z" fill="black"/>
</svg>
