<svg width="301" height="50" viewBox="0 0 301 50" fill="none" xmlns="http://www.w3.org/2000/svg">
<path d="M4.89123 1.636V2.524H1.25523V5.344H4.20723V6.232H1.25523V10H0.163227V1.636H4.89123ZM11.4181 10.108C10.8021 10.108 10.2421 9.968 9.7381 9.688C9.2421 9.408 8.8501 9.012 8.5621 8.5C8.2821 7.98 8.1421 7.38 8.1421 6.7C8.1421 6.028 8.2861 5.436 8.5741 4.924C8.8701 4.404 9.2701 4.008 9.7741 3.736C10.2781 3.456 10.8421 3.316 11.4661 3.316C12.0901 3.316 12.6541 3.456 13.1581 3.736C13.6621 4.008 14.0581 4.4 14.3461 4.912C14.6421 5.424 14.7901 6.02 14.7901 6.7C14.7901 7.38 14.6381 7.98 14.3341 8.5C14.0381 9.012 13.6341 9.408 13.1221 9.688C12.6101 9.968 12.0421 10.108 11.4181 10.108ZM11.4181 9.148C11.8101 9.148 12.1781 9.056 12.5221 8.872C12.8661 8.688 13.1421 8.412 13.3501 8.044C13.5661 7.676 13.6741 7.228 13.6741 6.7C13.6741 6.172 13.5701 5.724 13.3621 5.356C13.1541 4.988 12.8821 4.716 12.5461 4.54C12.2101 4.356 11.8461 4.264 11.4541 4.264C11.0541 4.264 10.6861 4.356 10.3501 4.54C10.0221 4.716 9.7581 4.988 9.5581 5.356C9.3581 5.724 9.2581 6.172 9.2581 6.7C9.2581 7.236 9.3541 7.688 9.5461 8.056C9.7461 8.424 10.0101 8.7 10.3381 8.884C10.6661 9.06 11.0261 9.148 11.4181 9.148ZM19.6579 4.492C19.8499 4.116 20.1219 3.824 20.4739 3.616C20.8339 3.408 21.2699 3.304 21.7819 3.304V4.432H21.4939C20.2699 4.432 19.6579 5.096 19.6579 6.424V10H18.5659V3.424H19.6579V4.492ZM36.5857 3.424L32.6257 13.096H31.4977L32.7937 9.928L30.1417 3.424H31.3537L33.4177 8.752L35.4577 3.424H36.5857ZM42.8914 10.108C42.2754 10.108 41.7154 9.968 41.2114 9.688C40.7154 9.408 40.3234 9.012 40.0354 8.5C39.7554 7.98 39.6154 7.38 39.6154 6.7C39.6154 6.028 39.7594 5.436 40.0474 4.924C40.3434 4.404 40.7434 4.008 41.2474 3.736C41.7514 3.456 42.3154 3.316 42.9394 3.316C43.5634 3.316 44.1274 3.456 44.6314 3.736C45.1354 4.008 45.5314 4.4 45.8194 4.912C46.1154 5.424 46.2634 6.02 46.2634 6.7C46.2634 7.38 46.1114 7.98 45.8074 8.5C45.5114 9.012 45.1074 9.408 44.5954 9.688C44.0834 9.968 43.5154 10.108 42.8914 10.108ZM42.8914 9.148C43.2834 9.148 43.6514 9.056 43.9954 8.872C44.3394 8.688 44.6154 8.412 44.8234 8.044C45.0394 7.676 45.1474 7.228 45.1474 6.7C45.1474 6.172 45.0434 5.724 44.8354 5.356C44.6274 4.988 44.3554 4.716 44.0194 4.54C43.6834 4.356 43.3194 4.264 42.9274 4.264C42.5274 4.264 42.1594 4.356 41.8234 4.54C41.4954 4.716 41.2314 4.988 41.0314 5.356C40.8314 5.724 40.7314 6.172 40.7314 6.7C40.7314 7.236 40.8274 7.688 41.0194 8.056C41.2194 8.424 41.4834 8.7 41.8114 8.884C42.1394 9.06 42.4994 9.148 42.8914 9.148ZM55.8712 3.424V10H54.7792V9.028C54.5712 9.364 54.2792 9.628 53.9032 9.82C53.5352 10.004 53.1272 10.096 52.6792 10.096C52.1672 10.096 51.7072 9.992 51.2992 9.784C50.8912 9.568 50.5672 9.248 50.3272 8.824C50.0952 8.4 49.9792 7.884 49.9792 7.276V3.424H51.0592V7.132C51.0592 7.78 51.2232 8.28 51.5512 8.632C51.8792 8.976 52.3272 9.148 52.8952 9.148C53.4792 9.148 53.9392 8.968 54.2752 8.608C54.6112 8.248 54.7792 7.724 54.7792 7.036V3.424H55.8712ZM61.1469 4.492C61.3389 4.116 61.6109 3.824 61.9629 3.616C62.3229 3.408 62.7589 3.304 63.2709 3.304V4.432H62.9829C61.7589 4.432 61.1469 5.096 61.1469 6.424V10H60.0549V3.424H61.1469V4.492ZM74.7387 10.108C74.2347 10.108 73.7827 10.024 73.3827 9.856C72.9827 9.68 72.6667 9.44 72.4347 9.136C72.2027 8.824 72.0747 8.468 72.0507 8.068H73.1787C73.2107 8.396 73.3627 8.664 73.6347 8.872C73.9147 9.08 74.2787 9.184 74.7267 9.184C75.1427 9.184 75.4707 9.092 75.7107 8.908C75.9507 8.724 76.0707 8.492 76.0707 8.212C76.0707 7.924 75.9427 7.712 75.6867 7.576C75.4307 7.432 75.0347 7.292 74.4987 7.156C74.0107 7.028 73.6107 6.9 73.2987 6.772C72.9947 6.636 72.7307 6.44 72.5067 6.184C72.2907 5.92 72.1827 5.576 72.1827 5.152C72.1827 4.816 72.2827 4.508 72.4827 4.228C72.6827 3.948 72.9667 3.728 73.3347 3.568C73.7027 3.4 74.1227 3.316 74.5947 3.316C75.3227 3.316 75.9107 3.5 76.3587 3.868C76.8067 4.236 77.0467 4.74 77.0787 5.38H75.9867C75.9627 5.036 75.8227 4.76 75.5667 4.552C75.3187 4.344 74.9827 4.24 74.5587 4.24C74.1667 4.24 73.8547 4.324 73.6227 4.492C73.3907 4.66 73.2747 4.88 73.2747 5.152C73.2747 5.368 73.3427 5.548 73.4787 5.692C73.6227 5.828 73.7987 5.94 74.0067 6.028C74.2227 6.108 74.5187 6.2 74.8947 6.304C75.3667 6.432 75.7507 6.56 76.0467 6.688C76.3427 6.808 76.5947 6.992 76.8027 7.24C77.0187 7.488 77.1307 7.812 77.1387 8.212C77.1387 8.572 77.0387 8.896 76.8387 9.184C76.6387 9.472 76.3547 9.7 75.9867 9.868C75.6267 10.028 75.2107 10.108 74.7387 10.108ZM87.0203 6.46C87.0203 6.668 87.0083 6.888 86.9843 7.12H81.7283C81.7683 7.768 81.9883 8.276 82.3883 8.644C82.7963 9.004 83.2883 9.184 83.8643 9.184C84.3363 9.184 84.7283 9.076 85.0403 8.86C85.3603 8.636 85.5843 8.34 85.7123 7.972H86.8883C86.7123 8.604 86.3603 9.12 85.8323 9.52C85.3043 9.912 84.6483 10.108 83.8643 10.108C83.2403 10.108 82.6803 9.968 82.1843 9.688C81.6963 9.408 81.3123 9.012 81.0323 8.5C80.7523 7.98 80.6123 7.38 80.6123 6.7C80.6123 6.02 80.7483 5.424 81.0203 4.912C81.2923 4.4 81.6723 4.008 82.1603 3.736C82.6563 3.456 83.2243 3.316 83.8643 3.316C84.4883 3.316 85.0403 3.452 85.5203 3.724C86.0003 3.996 86.3683 4.372 86.6243 4.852C86.8883 5.324 87.0203 5.86 87.0203 6.46ZM85.8923 6.232C85.8923 5.816 85.8003 5.46 85.6163 5.164C85.4323 4.86 85.1803 4.632 84.8603 4.48C84.5483 4.32 84.2003 4.24 83.8163 4.24C83.2643 4.24 82.7923 4.416 82.4003 4.768C82.0163 5.12 81.7963 5.608 81.7403 6.232H85.8923ZM90.3937 6.7C90.3937 6.02 90.5297 5.428 90.8017 4.924C91.0737 4.412 91.4497 4.016 91.9297 3.736C92.4177 3.456 92.9737 3.316 93.5977 3.316C94.4057 3.316 95.0697 3.512 95.5897 3.904C96.1177 4.296 96.4657 4.84 96.6337 5.536H95.4577C95.3457 5.136 95.1257 4.82 94.7977 4.588C94.4777 4.356 94.0777 4.24 93.5977 4.24C92.9737 4.24 92.4697 4.456 92.0857 4.888C91.7017 5.312 91.5097 5.916 91.5097 6.7C91.5097 7.492 91.7017 8.104 92.0857 8.536C92.4697 8.968 92.9737 9.184 93.5977 9.184C94.0777 9.184 94.4777 9.072 94.7977 8.848C95.1177 8.624 95.3377 8.304 95.4577 7.888H96.6337C96.4577 8.56 96.1057 9.1 95.5777 9.508C95.0497 9.908 94.3897 10.108 93.5977 10.108C92.9737 10.108 92.4177 9.968 91.9297 9.688C91.4497 9.408 91.0737 9.012 90.8017 8.5C90.5297 7.988 90.3937 7.388 90.3937 6.7ZM106.263 3.424V10H105.171V9.028C104.963 9.364 104.671 9.628 104.295 9.82C103.927 10.004 103.519 10.096 103.071 10.096C102.559 10.096 102.099 9.992 101.691 9.784C101.283 9.568 100.959 9.248 100.719 8.824C100.487 8.4 100.371 7.884 100.371 7.276V3.424H101.451V7.132C101.451 7.78 101.615 8.28 101.943 8.632C102.271 8.976 102.719 9.148 103.287 9.148C103.871 9.148 104.331 8.968 104.667 8.608C105.003 8.248 105.171 7.724 105.171 7.036V3.424H106.263ZM111.539 4.492C111.731 4.116 112.003 3.824 112.355 3.616C112.715 3.408 113.151 3.304 113.663 3.304V4.432H113.375C112.151 4.432 111.539 5.096 111.539 6.424V10H110.447V3.424H111.539V4.492ZM117.827 2.356C117.619 2.356 117.443 2.284 117.299 2.14C117.155 1.996 117.083 1.82 117.083 1.612C117.083 1.404 117.155 1.228 117.299 1.084C117.443 0.94 117.619 0.868 117.827 0.868C118.027 0.868 118.195 0.94 118.331 1.084C118.475 1.228 118.547 1.404 118.547 1.612C118.547 1.82 118.475 1.996 118.331 2.14C118.195 2.284 118.027 2.356 117.827 2.356ZM118.355 3.424V10H117.263V3.424H118.355ZM123.888 4.324V8.2C123.888 8.52 123.956 8.748 124.092 8.884C124.228 9.012 124.464 9.076 124.8 9.076H125.604V10H124.62C124.012 10 123.556 9.86 123.252 9.58C122.948 9.3 122.796 8.84 122.796 8.2V4.324H121.944V3.424H122.796V1.768H123.888V3.424H125.604V4.324H123.888ZM134.931 3.424L130.971 13.096H129.843L131.139 9.928L128.487 3.424H129.699L131.763 8.752L133.803 3.424H134.931ZM139.497 8.488L138.153 11.716H137.421L138.297 8.488H139.497ZM148.219 6.688C148.219 6.016 148.355 5.428 148.627 4.924C148.899 4.412 149.271 4.016 149.743 3.736C150.223 3.456 150.755 3.316 151.339 3.316C151.915 3.316 152.415 3.44 152.839 3.688C153.263 3.936 153.579 4.248 153.787 4.624V3.424H154.891V10H153.787V8.776C153.571 9.16 153.247 9.48 152.815 9.736C152.391 9.984 151.895 10.108 151.327 10.108C150.743 10.108 150.215 9.964 149.743 9.676C149.271 9.388 148.899 8.984 148.627 8.464C148.355 7.944 148.219 7.352 148.219 6.688ZM153.787 6.7C153.787 6.204 153.687 5.772 153.487 5.404C153.287 5.036 153.015 4.756 152.671 4.564C152.335 4.364 151.963 4.264 151.555 4.264C151.147 4.264 150.775 4.36 150.439 4.552C150.103 4.744 149.835 5.024 149.635 5.392C149.435 5.76 149.335 6.192 149.335 6.688C149.335 7.192 149.435 7.632 149.635 8.008C149.835 8.376 150.103 8.66 150.439 8.86C150.775 9.052 151.147 9.148 151.555 9.148C151.963 9.148 152.335 9.052 152.671 8.86C153.015 8.66 153.287 8.376 153.487 8.008C153.687 7.632 153.787 7.196 153.787 6.7ZM167.064 8.992L169.104 3.424H170.268L167.688 10H166.416L163.836 3.424H165.012L167.064 8.992ZM179.682 6.46C179.682 6.668 179.67 6.888 179.646 7.12H174.39C174.43 7.768 174.65 8.276 175.05 8.644C175.458 9.004 175.95 9.184 176.526 9.184C176.998 9.184 177.39 9.076 177.702 8.86C178.022 8.636 178.246 8.34 178.374 7.972H179.55C179.374 8.604 179.022 9.12 178.494 9.52C177.966 9.912 177.31 10.108 176.526 10.108C175.902 10.108 175.342 9.968 174.846 9.688C174.358 9.408 173.974 9.012 173.694 8.5C173.414 7.98 173.274 7.38 173.274 6.7C173.274 6.02 173.41 5.424 173.682 4.912C173.954 4.4 174.334 4.008 174.822 3.736C175.318 3.456 175.886 3.316 176.526 3.316C177.15 3.316 177.702 3.452 178.182 3.724C178.662 3.996 179.03 4.372 179.286 4.852C179.55 5.324 179.682 5.86 179.682 6.46ZM178.554 6.232C178.554 5.816 178.462 5.46 178.278 5.164C178.094 4.86 177.842 4.632 177.522 4.48C177.21 4.32 176.862 4.24 176.478 4.24C175.926 4.24 175.454 4.416 175.062 4.768C174.678 5.12 174.458 5.608 174.402 6.232H178.554ZM184.556 4.492C184.748 4.116 185.02 3.824 185.372 3.616C185.732 3.408 186.168 3.304 186.68 3.304V4.432H186.392C185.168 4.432 184.556 5.096 184.556 6.424V10H183.464V3.424H184.556V4.492ZM190.844 2.356C190.636 2.356 190.46 2.284 190.316 2.14C190.172 1.996 190.1 1.82 190.1 1.612C190.1 1.404 190.172 1.228 190.316 1.084C190.46 0.94 190.636 0.868 190.844 0.868C191.044 0.868 191.212 0.94 191.348 1.084C191.492 1.228 191.564 1.404 191.564 1.612C191.564 1.82 191.492 1.996 191.348 2.14C191.212 2.284 191.044 2.356 190.844 2.356ZM191.372 3.424V10H190.28V3.424H191.372ZM198.249 4.324H196.869V10H195.777V4.324H194.925V3.424H195.777V2.956C195.777 2.22 195.965 1.684 196.341 1.348C196.725 1.004 197.337 0.831999 198.177 0.831999V1.744C197.697 1.744 197.357 1.84 197.157 2.032C196.965 2.216 196.869 2.524 196.869 2.956V3.424H198.249V4.324ZM202.427 2.356C202.219 2.356 202.043 2.284 201.899 2.14C201.755 1.996 201.683 1.82 201.683 1.612C201.683 1.404 201.755 1.228 201.899 1.084C202.043 0.94 202.219 0.868 202.427 0.868C202.627 0.868 202.795 0.94 202.931 1.084C203.075 1.228 203.147 1.404 203.147 1.612C203.147 1.82 203.075 1.996 202.931 2.14C202.795 2.284 202.627 2.356 202.427 2.356ZM202.955 3.424V10H201.863V3.424H202.955ZM206.748 6.7C206.748 6.02 206.884 5.428 207.156 4.924C207.428 4.412 207.804 4.016 208.284 3.736C208.772 3.456 209.328 3.316 209.952 3.316C210.76 3.316 211.424 3.512 211.944 3.904C212.472 4.296 212.82 4.84 212.988 5.536H211.812C211.7 5.136 211.48 4.82 211.152 4.588C210.832 4.356 210.432 4.24 209.952 4.24C209.328 4.24 208.824 4.456 208.44 4.888C208.056 5.312 207.864 5.916 207.864 6.7C207.864 7.492 208.056 8.104 208.44 8.536C208.824 8.968 209.328 9.184 209.952 9.184C210.432 9.184 210.832 9.072 211.152 8.848C211.472 8.624 211.692 8.304 211.812 7.888H212.988C212.812 8.56 212.46 9.1 211.932 9.508C211.404 9.908 210.744 10.108 209.952 10.108C209.328 10.108 208.772 9.968 208.284 9.688C207.804 9.408 207.428 9.012 207.156 8.5C206.884 7.988 206.748 7.388 206.748 6.7ZM216.377 6.688C216.377 6.016 216.513 5.428 216.785 4.924C217.057 4.412 217.429 4.016 217.901 3.736C218.381 3.456 218.913 3.316 219.497 3.316C220.073 3.316 220.573 3.44 220.997 3.688C221.421 3.936 221.737 4.248 221.945 4.624V3.424H223.049V10H221.945V8.776C221.729 9.16 221.405 9.48 220.973 9.736C220.549 9.984 220.053 10.108 219.485 10.108C218.901 10.108 218.373 9.964 217.901 9.676C217.429 9.388 217.057 8.984 216.785 8.464C216.513 7.944 216.377 7.352 216.377 6.688ZM221.945 6.7C221.945 6.204 221.845 5.772 221.645 5.404C221.445 5.036 221.173 4.756 220.829 4.564C220.493 4.364 220.121 4.264 219.713 4.264C219.305 4.264 218.933 4.36 218.597 4.552C218.261 4.744 217.993 5.024 217.793 5.392C217.593 5.76 217.493 6.192 217.493 6.688C217.493 7.192 217.593 7.632 217.793 8.008C217.993 8.376 218.261 8.66 218.597 8.86C218.933 9.052 219.305 9.148 219.713 9.148C220.121 9.148 220.493 9.052 220.829 8.86C221.173 8.66 221.445 8.376 221.645 8.008C221.845 7.632 221.945 7.196 221.945 6.7ZM228.566 4.324V8.2C228.566 8.52 228.634 8.748 228.77 8.884C228.906 9.012 229.142 9.076 229.478 9.076H230.282V10H229.298C228.69 10 228.234 9.86 227.93 9.58C227.626 9.3 227.474 8.84 227.474 8.2V4.324H226.622V3.424H227.474V1.768H228.566V3.424H230.282V4.324H228.566ZM234.509 2.356C234.301 2.356 234.125 2.284 233.981 2.14C233.837 1.996 233.765 1.82 233.765 1.612C233.765 1.404 233.837 1.228 233.981 1.084C234.125 0.94 234.301 0.868 234.509 0.868C234.709 0.868 234.877 0.94 235.013 1.084C235.157 1.228 235.229 1.404 235.229 1.612C235.229 1.82 235.157 1.996 235.013 2.14C234.877 2.284 234.709 2.356 234.509 2.356ZM235.037 3.424V10H233.945V3.424H235.037ZM242.106 10.108C241.49 10.108 240.93 9.968 240.426 9.688C239.93 9.408 239.538 9.012 239.25 8.5C238.97 7.98 238.83 7.38 238.83 6.7C238.83 6.028 238.974 5.436 239.262 4.924C239.558 4.404 239.958 4.008 240.462 3.736C240.966 3.456 241.53 3.316 242.154 3.316C242.778 3.316 243.342 3.456 243.846 3.736C244.35 4.008 244.746 4.4 245.034 4.912C245.33 5.424 245.478 6.02 245.478 6.7C245.478 7.38 245.326 7.98 245.022 8.5C244.726 9.012 244.322 9.408 243.81 9.688C243.298 9.968 242.73 10.108 242.106 10.108ZM242.106 9.148C242.498 9.148 242.866 9.056 243.21 8.872C243.554 8.688 243.83 8.412 244.038 8.044C244.254 7.676 244.362 7.228 244.362 6.7C244.362 6.172 244.258 5.724 244.05 5.356C243.842 4.988 243.57 4.716 243.234 4.54C242.898 4.356 242.534 4.264 242.142 4.264C241.742 4.264 241.374 4.356 241.038 4.54C240.71 4.716 240.446 4.988 240.246 5.356C240.046 5.724 239.946 6.172 239.946 6.7C239.946 7.236 240.042 7.688 240.234 8.056C240.434 8.424 240.698 8.7 241.026 8.884C241.354 9.06 241.714 9.148 242.106 9.148ZM252.458 3.304C253.258 3.304 253.906 3.548 254.402 4.036C254.898 4.516 255.146 5.212 255.146 6.124V10H254.066V6.28C254.066 5.624 253.902 5.124 253.574 4.78C253.246 4.428 252.798 4.252 252.23 4.252C251.654 4.252 251.194 4.432 250.85 4.792C250.514 5.152 250.346 5.676 250.346 6.364V10H249.254V3.424H250.346V4.36C250.562 4.024 250.854 3.764 251.222 3.58C251.598 3.396 252.01 3.304 252.458 3.304ZM264.401 6.7C264.401 6.02 264.537 5.428 264.809 4.924C265.081 4.412 265.457 4.016 265.937 3.736C266.425 3.456 266.981 3.316 267.605 3.316C268.413 3.316 269.077 3.512 269.597 3.904C270.125 4.296 270.473 4.84 270.641 5.536H269.465C269.353 5.136 269.133 4.82 268.805 4.588C268.485 4.356 268.085 4.24 267.605 4.24C266.981 4.24 266.477 4.456 266.093 4.888C265.709 5.312 265.517 5.916 265.517 6.7C265.517 7.492 265.709 8.104 266.093 8.536C266.477 8.968 266.981 9.184 267.605 9.184C268.085 9.184 268.485 9.072 268.805 8.848C269.125 8.624 269.345 8.304 269.465 7.888H270.641C270.465 8.56 270.113 9.1 269.585 9.508C269.057 9.908 268.397 10.108 267.605 10.108C266.981 10.108 266.425 9.968 265.937 9.688C265.457 9.408 265.081 9.012 264.809 8.5C264.537 7.988 264.401 7.388 264.401 6.7ZM277.306 10.108C276.69 10.108 276.13 9.968 275.626 9.688C275.13 9.408 274.738 9.012 274.45 8.5C274.17 7.98 274.03 7.38 274.03 6.7C274.03 6.028 274.174 5.436 274.462 4.924C274.758 4.404 275.158 4.008 275.662 3.736C276.166 3.456 276.73 3.316 277.354 3.316C277.978 3.316 278.542 3.456 279.046 3.736C279.55 4.008 279.946 4.4 280.234 4.912C280.53 5.424 280.678 6.02 280.678 6.7C280.678 7.38 280.526 7.98 280.222 8.5C279.926 9.012 279.522 9.408 279.01 9.688C278.498 9.968 277.93 10.108 277.306 10.108ZM277.306 9.148C277.698 9.148 278.066 9.056 278.41 8.872C278.754 8.688 279.03 8.412 279.238 8.044C279.454 7.676 279.562 7.228 279.562 6.7C279.562 6.172 279.458 5.724 279.25 5.356C279.042 4.988 278.77 4.716 278.434 4.54C278.098 4.356 277.734 4.264 277.342 4.264C276.942 4.264 276.574 4.356 276.238 4.54C275.91 4.716 275.646 4.988 275.446 5.356C275.246 5.724 275.146 6.172 275.146 6.7C275.146 7.236 275.242 7.688 275.434 8.056C275.634 8.424 275.898 8.7 276.226 8.884C276.554 9.06 276.914 9.148 277.306 9.148ZM284.046 6.688C284.046 6.016 284.182 5.428 284.454 4.924C284.726 4.412 285.098 4.016 285.57 3.736C286.05 3.456 286.586 3.316 287.178 3.316C287.69 3.316 288.166 3.436 288.606 3.676C289.046 3.908 289.382 4.216 289.614 4.6V1.12H290.718V10H289.614V8.764C289.398 9.156 289.078 9.48 288.654 9.736C288.23 9.984 287.734 10.108 287.166 10.108C286.582 10.108 286.05 9.964 285.57 9.676C285.098 9.388 284.726 8.984 284.454 8.464C284.182 7.944 284.046 7.352 284.046 6.688ZM289.614 6.7C289.614 6.204 289.514 5.772 289.314 5.404C289.114 5.036 288.842 4.756 288.498 4.564C288.162 4.364 287.79 4.264 287.382 4.264C286.974 4.264 286.602 4.36 286.266 4.552C285.93 4.744 285.662 5.024 285.462 5.392C285.262 5.76 285.162 6.192 285.162 6.688C285.162 7.192 285.262 7.632 285.462 8.008C285.662 8.376 285.93 8.66 286.266 8.86C286.602 9.052 286.974 9.148 287.382 9.148C287.79 9.148 288.162 9.052 288.498 8.86C288.842 8.66 289.114 8.376 289.314 8.008C289.514 7.632 289.614 7.196 289.614 6.7ZM300.903 6.46C300.903 6.668 300.891 6.888 300.867 7.12H295.611C295.651 7.768 295.871 8.276 296.271 8.644C296.679 9.004 297.171 9.184 297.747 9.184C298.219 9.184 298.611 9.076 298.923 8.86C299.243 8.636 299.467 8.34 299.595 7.972H300.771C300.595 8.604 300.243 9.12 299.715 9.52C299.187 9.912 298.531 10.108 297.747 10.108C297.123 10.108 296.563 9.968 296.067 9.688C295.579 9.408 295.195 9.012 294.915 8.5C294.635 7.98 294.495 7.38 294.495 6.7C294.495 6.02 294.631 5.424 294.903 4.912C295.175 4.4 295.555 4.008 296.043 3.736C296.539 3.456 297.107 3.316 297.747 3.316C298.371 3.316 298.923 3.452 299.403 3.724C299.883 3.996 300.251 4.372 300.507 4.852C300.771 5.324 300.903 5.86 300.903 6.46ZM299.775 6.232C299.775 5.816 299.683 5.46 299.499 5.164C299.315 4.86 299.063 4.632 298.743 4.48C298.431 4.32 298.083 4.24 297.699 4.24C297.147 4.24 296.675 4.416 296.283 4.768C295.899 5.12 295.679 5.608 295.623 6.232H299.775ZM5.87855 21.304C6.37455 21.304 6.82255 21.412 7.22255 21.628C7.62255 21.836 7.93455 22.152 8.15855 22.576C8.39055 23 8.50655 23.516 8.50655 24.124V28H7.42655V24.28C7.42655 23.624 7.26255 23.124 6.93455 22.78C6.60655 22.428 6.15855 22.252 5.59055 22.252C5.01455 22.252 4.55455 22.432 4.21055 22.792C3.87455 23.152 3.70655 23.676 3.70655 24.364V28H2.61455V19.12H3.70655V22.36C3.92255 22.024 4.21855 21.764 4.59455 21.58C4.97855 21.396 5.40655 21.304 5.87855 21.304ZM12.2223 24.688C12.2223 24.016 12.3583 23.428 12.6303 22.924C12.9023 22.412 13.2743 22.016 13.7463 21.736C14.2263 21.456 14.7583 21.316 15.3423 21.316C15.9183 21.316 16.4183 21.44 16.8423 21.688C17.2663 21.936 17.5823 22.248 17.7903 22.624V21.424H18.8943V28H17.7903V26.776C17.5743 27.16 17.2503 27.48 16.8183 27.736C16.3943 27.984 15.8983 28.108 15.3303 28.108C14.7463 28.108 14.2183 27.964 13.7463 27.676C13.2743 27.388 12.9023 26.984 12.6303 26.464C12.3583 25.944 12.2223 25.352 12.2223 24.688ZM17.7903 24.7C17.7903 24.204 17.6903 23.772 17.4903 23.404C17.2903 23.036 17.0183 22.756 16.6743 22.564C16.3383 22.364 15.9663 22.264 15.5583 22.264C15.1503 22.264 14.7783 22.36 14.4423 22.552C14.1063 22.744 13.8383 23.024 13.6383 23.392C13.4383 23.76 13.3383 24.192 13.3383 24.688C13.3383 25.192 13.4383 25.632 13.6383 26.008C13.8383 26.376 14.1063 26.66 14.4423 26.86C14.7783 27.052 15.1503 27.148 15.5583 27.148C15.9663 27.148 16.3383 27.052 16.6743 26.86C17.0183 26.66 17.2903 26.376 17.4903 26.008C17.6903 25.632 17.7903 25.196 17.7903 24.7ZM25.4077 28.108C24.9037 28.108 24.4517 28.024 24.0517 27.856C23.6517 27.68 23.3357 27.44 23.1037 27.136C22.8717 26.824 22.7437 26.468 22.7197 26.068H23.8477C23.8797 26.396 24.0317 26.664 24.3037 26.872C24.5837 27.08 24.9477 27.184 25.3957 27.184C25.8117 27.184 26.1397 27.092 26.3797 26.908C26.6197 26.724 26.7397 26.492 26.7397 26.212C26.7397 25.924 26.6117 25.712 26.3557 25.576C26.0997 25.432 25.7037 25.292 25.1677 25.156C24.6797 25.028 24.2797 24.9 23.9677 24.772C23.6637 24.636 23.3997 24.44 23.1757 24.184C22.9597 23.92 22.8517 23.576 22.8517 23.152C22.8517 22.816 22.9517 22.508 23.1517 22.228C23.3517 21.948 23.6357 21.728 24.0037 21.568C24.3717 21.4 24.7917 21.316 25.2637 21.316C25.9917 21.316 26.5797 21.5 27.0277 21.868C27.4757 22.236 27.7157 22.74 27.7477 23.38H26.6557C26.6317 23.036 26.4917 22.76 26.2357 22.552C25.9877 22.344 25.6517 22.24 25.2277 22.24C24.8357 22.24 24.5237 22.324 24.2917 22.492C24.0597 22.66 23.9437 22.88 23.9437 23.152C23.9437 23.368 24.0117 23.548 24.1477 23.692C24.2917 23.828 24.4677 23.94 24.6757 24.028C24.8917 24.108 25.1877 24.2 25.5637 24.304C26.0357 24.432 26.4197 24.56 26.7157 24.688C27.0117 24.808 27.2637 24.992 27.4717 25.24C27.6877 25.488 27.7997 25.812 27.8077 26.212C27.8077 26.572 27.7077 26.896 27.5077 27.184C27.3077 27.472 27.0237 27.7 26.6557 27.868C26.2957 28.028 25.8797 28.108 25.4077 28.108ZM38.3205 22.648C38.5445 22.256 38.8725 21.936 39.3045 21.688C39.7365 21.44 40.2285 21.316 40.7805 21.316C41.3725 21.316 41.9045 21.456 42.3765 21.736C42.8485 22.016 43.2205 22.412 43.4925 22.924C43.7645 23.428 43.9005 24.016 43.9005 24.688C43.9005 25.352 43.7645 25.944 43.4925 26.464C43.2205 26.984 42.8445 27.388 42.3645 27.676C41.8925 27.964 41.3645 28.108 40.7805 28.108C40.2125 28.108 39.7125 27.984 39.2805 27.736C38.8565 27.488 38.5365 27.172 38.3205 26.788V28H37.2285V19.12H38.3205V22.648ZM42.7845 24.688C42.7845 24.192 42.6845 23.76 42.4845 23.392C42.2845 23.024 42.0125 22.744 41.6685 22.552C41.3325 22.36 40.9605 22.264 40.5525 22.264C40.1525 22.264 39.7805 22.364 39.4365 22.564C39.1005 22.756 38.8285 23.04 38.6205 23.416C38.4205 23.784 38.3205 24.212 38.3205 24.7C38.3205 25.196 38.4205 25.632 38.6205 26.008C38.8285 26.376 39.1005 26.66 39.4365 26.86C39.7805 27.052 40.1525 27.148 40.5525 27.148C40.9605 27.148 41.3325 27.052 41.6685 26.86C42.0125 26.66 42.2845 26.376 42.4845 26.008C42.6845 25.632 42.7845 25.192 42.7845 24.688ZM53.6778 24.46C53.6778 24.668 53.6658 24.888 53.6418 25.12H48.3858C48.4258 25.768 48.6458 26.276 49.0458 26.644C49.4538 27.004 49.9458 27.184 50.5218 27.184C50.9938 27.184 51.3858 27.076 51.6978 26.86C52.0178 26.636 52.2418 26.34 52.3698 25.972H53.5458C53.3698 26.604 53.0178 27.12 52.4898 27.52C51.9618 27.912 51.3058 28.108 50.5218 28.108C49.8978 28.108 49.3378 27.968 48.8418 27.688C48.3538 27.408 47.9698 27.012 47.6898 26.5C47.4098 25.98 47.2698 25.38 47.2698 24.7C47.2698 24.02 47.4058 23.424 47.6778 22.912C47.9498 22.4 48.3298 22.008 48.8178 21.736C49.3138 21.456 49.8818 21.316 50.5218 21.316C51.1458 21.316 51.6978 21.452 52.1778 21.724C52.6578 21.996 53.0258 22.372 53.2818 22.852C53.5458 23.324 53.6778 23.86 53.6778 24.46ZM52.5498 24.232C52.5498 23.816 52.4578 23.46 52.2738 23.164C52.0898 22.86 51.8378 22.632 51.5178 22.48C51.2058 22.32 50.8578 22.24 50.4738 22.24C49.9218 22.24 49.4498 22.416 49.0578 22.768C48.6738 23.12 48.4538 23.608 48.3978 24.232H52.5498ZM63.4592 24.46C63.4592 24.668 63.4472 24.888 63.4232 25.12H58.1672C58.2072 25.768 58.4272 26.276 58.8272 26.644C59.2352 27.004 59.7272 27.184 60.3032 27.184C60.7752 27.184 61.1672 27.076 61.4792 26.86C61.7992 26.636 62.0232 26.34 62.1512 25.972H63.3272C63.1512 26.604 62.7992 27.12 62.2712 27.52C61.7432 27.912 61.0872 28.108 60.3032 28.108C59.6792 28.108 59.1192 27.968 58.6232 27.688C58.1352 27.408 57.7512 27.012 57.4712 26.5C57.1912 25.98 57.0512 25.38 57.0512 24.7C57.0512 24.02 57.1872 23.424 57.4592 22.912C57.7312 22.4 58.1112 22.008 58.5992 21.736C59.0952 21.456 59.6632 21.316 60.3032 21.316C60.9272 21.316 61.4792 21.452 61.9592 21.724C62.4392 21.996 62.8072 22.372 63.0632 22.852C63.3272 23.324 63.4592 23.86 63.4592 24.46ZM62.3312 24.232C62.3312 23.816 62.2392 23.46 62.0552 23.164C61.8712 22.86 61.6192 22.632 61.2992 22.48C60.9872 22.32 60.6392 22.24 60.2552 22.24C59.7032 22.24 59.2312 22.416 58.8392 22.768C58.4552 23.12 58.2352 23.608 58.1792 24.232H62.3312ZM70.4446 21.304C71.2446 21.304 71.8926 21.548 72.3886 22.036C72.8846 22.516 73.1326 23.212 73.1326 24.124V28H72.0526V24.28C72.0526 23.624 71.8886 23.124 71.5606 22.78C71.2326 22.428 70.7846 22.252 70.2166 22.252C69.6406 22.252 69.1806 22.432 68.8366 22.792C68.5006 23.152 68.3326 23.676 68.3326 24.364V28H67.2406V21.424H68.3326V22.36C68.5486 22.024 68.8406 21.764 69.2086 21.58C69.5846 21.396 69.9966 21.304 70.4446 21.304ZM85.1236 28.108C84.6196 28.108 84.1676 28.024 83.7676 27.856C83.3676 27.68 83.0516 27.44 82.8196 27.136C82.5876 26.824 82.4596 26.468 82.4356 26.068H83.5636C83.5956 26.396 83.7476 26.664 84.0196 26.872C84.2996 27.08 84.6636 27.184 85.1116 27.184C85.5276 27.184 85.8556 27.092 86.0956 26.908C86.3356 26.724 86.4556 26.492 86.4556 26.212C86.4556 25.924 86.3276 25.712 86.0716 25.576C85.8156 25.432 85.4196 25.292 84.8836 25.156C84.3956 25.028 83.9956 24.9 83.6836 24.772C83.3796 24.636 83.1156 24.44 82.8916 24.184C82.6756 23.92 82.5676 23.576 82.5676 23.152C82.5676 22.816 82.6676 22.508 82.8676 22.228C83.0676 21.948 83.3516 21.728 83.7196 21.568C84.0876 21.4 84.5076 21.316 84.9796 21.316C85.7076 21.316 86.2956 21.5 86.7436 21.868C87.1916 22.236 87.4316 22.74 87.4636 23.38H86.3716C86.3476 23.036 86.2076 22.76 85.9516 22.552C85.7036 22.344 85.3676 22.24 84.9436 22.24C84.5516 22.24 84.2396 22.324 84.0076 22.492C83.7756 22.66 83.6596 22.88 83.6596 23.152C83.6596 23.368 83.7276 23.548 83.8636 23.692C84.0076 23.828 84.1836 23.94 84.3916 24.028C84.6076 24.108 84.9036 24.2 85.2796 24.304C85.7516 24.432 86.1356 24.56 86.4316 24.688C86.7276 24.808 86.9796 24.992 87.1876 25.24C87.4036 25.488 87.5156 25.812 87.5236 26.212C87.5236 26.572 87.4236 26.896 87.2236 27.184C87.0236 27.472 86.7396 27.7 86.3716 27.868C86.0116 28.028 85.5956 28.108 85.1236 28.108ZM97.4052 24.46C97.4052 24.668 97.3932 24.888 97.3692 25.12H92.1132C92.1532 25.768 92.3732 26.276 92.7732 26.644C93.1812 27.004 93.6732 27.184 94.2492 27.184C94.7212 27.184 95.1132 27.076 95.4252 26.86C95.7452 26.636 95.9692 26.34 96.0972 25.972H97.2732C97.0972 26.604 96.7452 27.12 96.2172 27.52C95.6892 27.912 95.0332 28.108 94.2492 28.108C93.6252 28.108 93.0652 27.968 92.5692 27.688C92.0812 27.408 91.6972 27.012 91.4172 26.5C91.1372 25.98 90.9972 25.38 90.9972 24.7C90.9972 24.02 91.1332 23.424 91.4052 22.912C91.6772 22.4 92.0572 22.008 92.5452 21.736C93.0412 21.456 93.6092 21.316 94.2492 21.316C94.8732 21.316 95.4252 21.452 95.9052 21.724C96.3852 21.996 96.7532 22.372 97.0092 22.852C97.2732 23.324 97.4052 23.86 97.4052 24.46ZM96.2772 24.232C96.2772 23.816 96.1852 23.46 96.0012 23.164C95.8172 22.86 95.5652 22.632 95.2452 22.48C94.9332 22.32 94.5852 22.24 94.2012 22.24C93.6492 22.24 93.1772 22.416 92.7852 22.768C92.4012 23.12 92.1812 23.608 92.1252 24.232H96.2772ZM104.391 21.304C105.191 21.304 105.839 21.548 106.335 22.036C106.831 22.516 107.079 23.212 107.079 24.124V28H105.999V24.28C105.999 23.624 105.835 23.124 105.507 22.78C105.179 22.428 104.731 22.252 104.163 22.252C103.587 22.252 103.127 22.432 102.783 22.792C102.447 23.152 102.279 23.676 102.279 24.364V28H101.187V21.424H102.279V22.36C102.495 22.024 102.787 21.764 103.155 21.58C103.531 21.396 103.943 21.304 104.391 21.304ZM112.534 22.324V26.2C112.534 26.52 112.602 26.748 112.738 26.884C112.874 27.012 113.11 27.076 113.446 27.076H114.25V28H113.266C112.658 28 112.202 27.86 111.898 27.58C111.594 27.3 111.442 26.84 111.442 26.2V22.324H110.59V21.424H111.442V19.768H112.534V21.424H114.25V22.324H112.534ZM124.785 22.324V26.2C124.785 26.52 124.853 26.748 124.989 26.884C125.125 27.012 125.361 27.076 125.697 27.076H126.501V28H125.517C124.909 28 124.453 27.86 124.149 27.58C123.845 27.3 123.693 26.84 123.693 26.2V22.324H122.841V21.424H123.693V19.768H124.785V21.424H126.501V22.324H124.785ZM133.032 28.108C132.416 28.108 131.856 27.968 131.352 27.688C130.856 27.408 130.464 27.012 130.176 26.5C129.896 25.98 129.756 25.38 129.756 24.7C129.756 24.028 129.9 23.436 130.188 22.924C130.484 22.404 130.884 22.008 131.388 21.736C131.892 21.456 132.456 21.316 133.08 21.316C133.704 21.316 134.268 21.456 134.772 21.736C135.276 22.008 135.672 22.4 135.96 22.912C136.256 23.424 136.404 24.02 136.404 24.7C136.404 25.38 136.252 25.98 135.948 26.5C135.652 27.012 135.248 27.408 134.736 27.688C134.224 27.968 133.656 28.108 133.032 28.108ZM133.032 27.148C133.424 27.148 133.792 27.056 134.136 26.872C134.48 26.688 134.756 26.412 134.964 26.044C135.18 25.676 135.288 25.228 135.288 24.7C135.288 24.172 135.184 23.724 134.976 23.356C134.768 22.988 134.496 22.716 134.16 22.54C133.824 22.356 133.46 22.264 133.068 22.264C132.668 22.264 132.3 22.356 131.964 22.54C131.636 22.716 131.372 22.988 131.172 23.356C130.972 23.724 130.872 24.172 130.872 24.7C130.872 25.236 130.968 25.688 131.16 26.056C131.36 26.424 131.624 26.7 131.952 26.884C132.28 27.06 132.64 27.148 133.032 27.148ZM151.383 21.424L147.423 31.096H146.295L147.591 27.928L144.939 21.424H146.151L148.215 26.752L150.255 21.424H151.383ZM157.688 28.108C157.072 28.108 156.512 27.968 156.008 27.688C155.512 27.408 155.12 27.012 154.832 26.5C154.552 25.98 154.412 25.38 154.412 24.7C154.412 24.028 154.556 23.436 154.844 22.924C155.14 22.404 155.54 22.008 156.044 21.736C156.548 21.456 157.112 21.316 157.736 21.316C158.36 21.316 158.924 21.456 159.428 21.736C159.932 22.008 160.328 22.4 160.616 22.912C160.912 23.424 161.06 24.02 161.06 24.7C161.06 25.38 160.908 25.98 160.604 26.5C160.308 27.012 159.904 27.408 159.392 27.688C158.88 27.968 158.312 28.108 157.688 28.108ZM157.688 27.148C158.08 27.148 158.448 27.056 158.792 26.872C159.136 26.688 159.412 26.412 159.62 26.044C159.836 25.676 159.944 25.228 159.944 24.7C159.944 24.172 159.84 23.724 159.632 23.356C159.424 22.988 159.152 22.716 158.816 22.54C158.48 22.356 158.116 22.264 157.724 22.264C157.324 22.264 156.956 22.356 156.62 22.54C156.292 22.716 156.028 22.988 155.828 23.356C155.628 23.724 155.528 24.172 155.528 24.7C155.528 25.236 155.624 25.688 155.816 26.056C156.016 26.424 156.28 26.7 156.608 26.884C156.936 27.06 157.296 27.148 157.688 27.148ZM170.668 21.424V28H169.576V27.028C169.368 27.364 169.076 27.628 168.7 27.82C168.332 28.004 167.924 28.096 167.476 28.096C166.964 28.096 166.504 27.992 166.096 27.784C165.688 27.568 165.364 27.248 165.124 26.824C164.892 26.4 164.776 25.884 164.776 25.276V21.424H165.856V25.132C165.856 25.78 166.02 26.28 166.348 26.632C166.676 26.976 167.124 27.148 167.692 27.148C168.276 27.148 168.736 26.968 169.072 26.608C169.408 26.248 169.576 25.724 169.576 25.036V21.424H170.668ZM175.944 22.492C176.136 22.116 176.408 21.824 176.76 21.616C177.12 21.408 177.556 21.304 178.068 21.304V22.432H177.78C176.556 22.432 175.944 23.096 175.944 24.424V28H174.852V21.424H175.944V22.492ZM193.208 24.46C193.208 24.668 193.196 24.888 193.172 25.12H187.916C187.956 25.768 188.176 26.276 188.576 26.644C188.984 27.004 189.476 27.184 190.052 27.184C190.524 27.184 190.916 27.076 191.228 26.86C191.548 26.636 191.772 26.34 191.9 25.972H193.076C192.9 26.604 192.548 27.12 192.02 27.52C191.492 27.912 190.836 28.108 190.052 28.108C189.428 28.108 188.868 27.968 188.372 27.688C187.884 27.408 187.5 27.012 187.22 26.5C186.94 25.98 186.8 25.38 186.8 24.7C186.8 24.02 186.936 23.424 187.208 22.912C187.48 22.4 187.86 22.008 188.348 21.736C188.844 21.456 189.412 21.316 190.052 21.316C190.676 21.316 191.228 21.452 191.708 21.724C192.188 21.996 192.556 22.372 192.812 22.852C193.076 23.324 193.208 23.86 193.208 24.46ZM192.08 24.232C192.08 23.816 191.988 23.46 191.804 23.164C191.62 22.86 191.368 22.632 191.048 22.48C190.736 22.32 190.388 22.24 190.004 22.24C189.452 22.24 188.98 22.416 188.588 22.768C188.204 23.12 187.984 23.608 187.928 24.232H192.08ZM204.897 21.304C205.409 21.304 205.865 21.412 206.265 21.628C206.665 21.836 206.981 22.152 207.213 22.576C207.445 23 207.561 23.516 207.561 24.124V28H206.481V24.28C206.481 23.624 206.317 23.124 205.989 22.78C205.669 22.428 205.233 22.252 204.681 22.252C204.113 22.252 203.661 22.436 203.325 22.804C202.989 23.164 202.821 23.688 202.821 24.376V28H201.741V24.28C201.741 23.624 201.577 23.124 201.249 22.78C200.929 22.428 200.493 22.252 199.941 22.252C199.373 22.252 198.921 22.436 198.585 22.804C198.249 23.164 198.081 23.688 198.081 24.376V28H196.989V21.424H198.081V22.372C198.297 22.028 198.585 21.764 198.945 21.58C199.313 21.396 199.717 21.304 200.157 21.304C200.709 21.304 201.197 21.428 201.621 21.676C202.045 21.924 202.361 22.288 202.569 22.768C202.753 22.304 203.057 21.944 203.481 21.688C203.905 21.432 204.377 21.304 204.897 21.304ZM211.285 24.688C211.285 24.016 211.421 23.428 211.693 22.924C211.965 22.412 212.337 22.016 212.809 21.736C213.289 21.456 213.821 21.316 214.405 21.316C214.981 21.316 215.481 21.44 215.905 21.688C216.329 21.936 216.645 22.248 216.853 22.624V21.424H217.957V28H216.853V26.776C216.637 27.16 216.313 27.48 215.881 27.736C215.457 27.984 214.961 28.108 214.393 28.108C213.809 28.108 213.281 27.964 212.809 27.676C212.337 27.388 211.965 26.984 211.693 26.464C211.421 25.944 211.285 25.352 211.285 24.688ZM216.853 24.7C216.853 24.204 216.753 23.772 216.553 23.404C216.353 23.036 216.081 22.756 215.737 22.564C215.401 22.364 215.029 22.264 214.621 22.264C214.213 22.264 213.841 22.36 213.505 22.552C213.169 22.744 212.901 23.024 212.701 23.392C212.501 23.76 212.401 24.192 212.401 24.688C212.401 25.192 212.501 25.632 212.701 26.008C212.901 26.376 213.169 26.66 213.505 26.86C213.841 27.052 214.213 27.148 214.621 27.148C215.029 27.148 215.401 27.052 215.737 26.86C216.081 26.66 216.353 26.376 216.553 26.008C216.753 25.632 216.853 25.196 216.853 24.7ZM222.706 20.356C222.498 20.356 222.322 20.284 222.178 20.14C222.034 19.996 221.962 19.82 221.962 19.612C221.962 19.404 222.034 19.228 222.178 19.084C222.322 18.94 222.498 18.868 222.706 18.868C222.906 18.868 223.074 18.94 223.21 19.084C223.354 19.228 223.426 19.404 223.426 19.612C223.426 19.82 223.354 19.996 223.21 20.14C223.074 20.284 222.906 20.356 222.706 20.356ZM223.234 21.424V28H222.142V21.424H223.234ZM228.527 19.12V28H227.435V19.12H228.527ZM239.599 22.324V26.2C239.599 26.52 239.667 26.748 239.803 26.884C239.939 27.012 240.175 27.076 240.511 27.076H241.315V28H240.331C239.723 28 239.267 27.86 238.963 27.58C238.659 27.3 238.507 26.84 238.507 26.2V22.324H237.655V21.424H238.507V19.768H239.599V21.424H241.315V22.324H239.599ZM247.846 28.108C247.23 28.108 246.67 27.968 246.166 27.688C245.67 27.408 245.278 27.012 244.99 26.5C244.71 25.98 244.57 25.38 244.57 24.7C244.57 24.028 244.714 23.436 245.002 22.924C245.298 22.404 245.698 22.008 246.202 21.736C246.706 21.456 247.27 21.316 247.894 21.316C248.518 21.316 249.082 21.456 249.586 21.736C250.09 22.008 250.486 22.4 250.774 22.912C251.07 23.424 251.218 24.02 251.218 24.7C251.218 25.38 251.066 25.98 250.762 26.5C250.466 27.012 250.062 27.408 249.55 27.688C249.038 27.968 248.47 28.108 247.846 28.108ZM247.846 27.148C248.238 27.148 248.606 27.056 248.95 26.872C249.294 26.688 249.57 26.412 249.778 26.044C249.994 25.676 250.102 25.228 250.102 24.7C250.102 24.172 249.998 23.724 249.79 23.356C249.582 22.988 249.31 22.716 248.974 22.54C248.638 22.356 248.274 22.264 247.882 22.264C247.482 22.264 247.114 22.356 246.778 22.54C246.45 22.716 246.186 22.988 245.986 23.356C245.786 23.724 245.686 24.172 245.686 24.7C245.686 25.236 245.782 25.688 245.974 26.056C246.174 26.424 246.438 26.7 246.766 26.884C247.094 27.06 247.454 27.148 247.846 27.148ZM261.625 22.492C261.817 22.116 262.089 21.824 262.441 21.616C262.801 21.408 263.237 21.304 263.749 21.304V22.432H263.461C262.237 22.432 261.625 23.096 261.625 24.424V28H260.533V21.424H261.625V22.492ZM273.35 24.46C273.35 24.668 273.338 24.888 273.314 25.12H268.058C268.098 25.768 268.318 26.276 268.718 26.644C269.126 27.004 269.618 27.184 270.194 27.184C270.666 27.184 271.058 27.076 271.37 26.86C271.69 26.636 271.914 26.34 272.042 25.972H273.218C273.042 26.604 272.69 27.12 272.162 27.52C271.634 27.912 270.978 28.108 270.194 28.108C269.57 28.108 269.01 27.968 268.514 27.688C268.026 27.408 267.642 27.012 267.362 26.5C267.082 25.98 266.942 25.38 266.942 24.7C266.942 24.02 267.078 23.424 267.35 22.912C267.622 22.4 268.002 22.008 268.49 21.736C268.986 21.456 269.554 21.316 270.194 21.316C270.818 21.316 271.37 21.452 271.85 21.724C272.33 21.996 272.698 22.372 272.954 22.852C273.218 23.324 273.35 23.86 273.35 24.46ZM272.222 24.232C272.222 23.816 272.13 23.46 271.946 23.164C271.762 22.86 271.51 22.632 271.19 22.48C270.878 22.32 270.53 22.24 270.146 22.24C269.594 22.24 269.122 22.416 268.73 22.768C268.346 23.12 268.126 23.608 268.07 24.232H272.222ZM279.459 28.108C278.955 28.108 278.503 28.024 278.103 27.856C277.703 27.68 277.387 27.44 277.155 27.136C276.923 26.824 276.795 26.468 276.771 26.068H277.899C277.931 26.396 278.083 26.664 278.355 26.872C278.635 27.08 278.999 27.184 279.447 27.184C279.863 27.184 280.191 27.092 280.431 26.908C280.671 26.724 280.791 26.492 280.791 26.212C280.791 25.924 280.663 25.712 280.407 25.576C280.151 25.432 279.755 25.292 279.219 25.156C278.731 25.028 278.331 24.9 278.019 24.772C277.715 24.636 277.451 24.44 277.227 24.184C277.011 23.92 276.903 23.576 276.903 23.152C276.903 22.816 277.003 22.508 277.203 22.228C277.403 21.948 277.687 21.728 278.055 21.568C278.423 21.4 278.843 21.316 279.315 21.316C280.043 21.316 280.631 21.5 281.079 21.868C281.527 22.236 281.767 22.74 281.799 23.38H280.707C280.683 23.036 280.543 22.76 280.287 22.552C280.039 22.344 279.703 22.24 279.279 22.24C278.887 22.24 278.575 22.324 278.343 22.492C278.111 22.66 277.995 22.88 277.995 23.152C277.995 23.368 278.063 23.548 278.199 23.692C278.343 23.828 278.519 23.94 278.727 24.028C278.943 24.108 279.239 24.2 279.615 24.304C280.087 24.432 280.471 24.56 280.767 24.688C281.063 24.808 281.315 24.992 281.523 25.24C281.739 25.488 281.851 25.812 281.859 26.212C281.859 26.572 281.759 26.896 281.559 27.184C281.359 27.472 281.075 27.7 280.707 27.868C280.347 28.028 279.931 28.108 279.459 28.108ZM291.741 24.46C291.741 24.668 291.729 24.888 291.705 25.12H286.449C286.489 25.768 286.709 26.276 287.109 26.644C287.517 27.004 288.009 27.184 288.585 27.184C289.057 27.184 289.449 27.076 289.761 26.86C290.081 26.636 290.305 26.34 290.433 25.972H291.609C291.433 26.604 291.081 27.12 290.553 27.52C290.025 27.912 289.369 28.108 288.585 28.108C287.961 28.108 287.401 27.968 286.905 27.688C286.417 27.408 286.033 27.012 285.753 26.5C285.473 25.98 285.333 25.38 285.333 24.7C285.333 24.02 285.469 23.424 285.741 22.912C286.013 22.4 286.393 22.008 286.881 21.736C287.377 21.456 287.945 21.316 288.585 21.316C289.209 21.316 289.761 21.452 290.241 21.724C290.721 21.996 291.089 22.372 291.345 22.852C291.609 23.324 291.741 23.86 291.741 24.46ZM290.613 24.232C290.613 23.816 290.521 23.46 290.337 23.164C290.153 22.86 289.901 22.632 289.581 22.48C289.269 22.32 288.921 22.24 288.537 22.24C287.985 22.24 287.513 22.416 287.121 22.768C286.737 23.12 286.517 23.608 286.461 24.232H290.613ZM296.854 22.324V26.2C296.854 26.52 296.922 26.748 297.058 26.884C297.194 27.012 297.43 27.076 297.766 27.076H298.57V28H297.586C296.978 28 296.522 27.86 296.218 27.58C295.914 27.3 295.762 26.84 295.762 26.2V22.324H294.91V21.424H295.762V19.768H296.854V21.424H298.57V22.324H296.854ZM97.2921 39.424L93.3321 49.096H92.2041L93.5001 45.928L90.8481 39.424H92.0601L94.1241 44.752L96.1641 39.424H97.2921ZM103.598 46.108C102.982 46.108 102.422 45.968 101.918 45.688C101.422 45.408 101.03 45.012 100.742 44.5C100.462 43.98 100.322 43.38 100.322 42.7C100.322 42.028 100.466 41.436 100.754 40.924C101.05 40.404 101.45 40.008 101.954 39.736C102.458 39.456 103.022 39.316 103.646 39.316C104.27 39.316 104.834 39.456 105.338 39.736C105.842 40.008 106.238 40.4 106.526 40.912C106.822 41.424 106.97 42.02 106.97 42.7C106.97 43.38 106.818 43.98 106.514 44.5C106.218 45.012 105.814 45.408 105.302 45.688C104.79 45.968 104.222 46.108 103.598 46.108ZM103.598 45.148C103.99 45.148 104.358 45.056 104.702 44.872C105.046 44.688 105.322 44.412 105.53 44.044C105.746 43.676 105.854 43.228 105.854 42.7C105.854 42.172 105.75 41.724 105.542 41.356C105.334 40.988 105.062 40.716 104.726 40.54C104.39 40.356 104.026 40.264 103.634 40.264C103.234 40.264 102.866 40.356 102.53 40.54C102.202 40.716 101.938 40.988 101.738 41.356C101.538 41.724 101.438 42.172 101.438 42.7C101.438 43.236 101.534 43.688 101.726 44.056C101.926 44.424 102.19 44.7 102.518 44.884C102.846 45.06 103.206 45.148 103.598 45.148ZM116.578 39.424V46H115.486V45.028C115.278 45.364 114.986 45.628 114.61 45.82C114.242 46.004 113.834 46.096 113.386 46.096C112.874 46.096 112.414 45.992 112.006 45.784C111.598 45.568 111.274 45.248 111.034 44.824C110.802 44.4 110.686 43.884 110.686 43.276V39.424H111.766V43.132C111.766 43.78 111.93 44.28 112.258 44.632C112.586 44.976 113.034 45.148 113.602 45.148C114.186 45.148 114.646 44.968 114.982 44.608C115.318 44.248 115.486 43.724 115.486 43.036V39.424H116.578ZM121.853 40.492C122.045 40.116 122.317 39.824 122.669 39.616C123.029 39.408 123.465 39.304 123.977 39.304V40.432H123.689C122.465 40.432 121.853 41.096 121.853 42.424V46H120.761V39.424H121.853V40.492ZM134.209 40.636C134.425 40.26 134.745 39.948 135.169 39.7C135.601 39.444 136.101 39.316 136.669 39.316C137.253 39.316 137.781 39.456 138.253 39.736C138.733 40.016 139.109 40.412 139.381 40.924C139.653 41.428 139.789 42.016 139.789 42.688C139.789 43.352 139.653 43.944 139.381 44.464C139.109 44.984 138.733 45.388 138.253 45.676C137.781 45.964 137.253 46.108 136.669 46.108C136.109 46.108 135.613 45.984 135.181 45.736C134.757 45.48 134.433 45.164 134.209 44.788V49.12H133.117V39.424H134.209V40.636ZM138.673 42.688C138.673 42.192 138.573 41.76 138.373 41.392C138.173 41.024 137.901 40.744 137.557 40.552C137.221 40.36 136.849 40.264 136.441 40.264C136.041 40.264 135.669 40.364 135.325 40.564C134.989 40.756 134.717 41.04 134.509 41.416C134.309 41.784 134.209 42.212 134.209 42.7C134.209 43.196 134.309 43.632 134.509 44.008C134.717 44.376 134.989 44.66 135.325 44.86C135.669 45.052 136.041 45.148 136.441 45.148C136.849 45.148 137.221 45.052 137.557 44.86C137.901 44.66 138.173 44.376 138.373 44.008C138.573 43.632 138.673 43.192 138.673 42.688ZM143.159 42.688C143.159 42.016 143.295 41.428 143.567 40.924C143.839 40.412 144.211 40.016 144.683 39.736C145.163 39.456 145.695 39.316 146.279 39.316C146.855 39.316 147.355 39.44 147.779 39.688C148.203 39.936 148.519 40.248 148.727 40.624V39.424H149.831V46H148.727V44.776C148.511 45.16 148.187 45.48 147.755 45.736C147.331 45.984 146.835 46.108 146.267 46.108C145.683 46.108 145.155 45.964 144.683 45.676C144.211 45.388 143.839 44.984 143.567 44.464C143.295 43.944 143.159 43.352 143.159 42.688ZM148.727 42.7C148.727 42.204 148.627 41.772 148.427 41.404C148.227 41.036 147.955 40.756 147.611 40.564C147.275 40.364 146.903 40.264 146.495 40.264C146.087 40.264 145.715 40.36 145.379 40.552C145.043 40.744 144.775 41.024 144.575 41.392C144.375 41.76 144.275 42.192 144.275 42.688C144.275 43.192 144.375 43.632 144.575 44.008C144.775 44.376 145.043 44.66 145.379 44.86C145.715 45.052 146.087 45.148 146.495 45.148C146.903 45.148 147.275 45.052 147.611 44.86C147.955 44.66 148.227 44.376 148.427 44.008C148.627 43.632 148.727 43.196 148.727 42.7ZM156.344 46.108C155.84 46.108 155.388 46.024 154.988 45.856C154.588 45.68 154.272 45.44 154.04 45.136C153.808 44.824 153.68 44.468 153.656 44.068H154.784C154.816 44.396 154.968 44.664 155.24 44.872C155.52 45.08 155.884 45.184 156.332 45.184C156.748 45.184 157.076 45.092 157.316 44.908C157.556 44.724 157.676 44.492 157.676 44.212C157.676 43.924 157.548 43.712 157.292 43.576C157.036 43.432 156.64 43.292 156.104 43.156C155.616 43.028 155.216 42.9 154.904 42.772C154.6 42.636 154.336 42.44 154.112 42.184C153.896 41.92 153.788 41.576 153.788 41.152C153.788 40.816 153.888 40.508 154.088 40.228C154.288 39.948 154.572 39.728 154.94 39.568C155.308 39.4 155.728 39.316 156.2 39.316C156.928 39.316 157.516 39.5 157.964 39.868C158.412 40.236 158.652 40.74 158.684 41.38H157.592C157.568 41.036 157.428 40.76 157.172 40.552C156.924 40.344 156.588 40.24 156.164 40.24C155.772 40.24 155.46 40.324 155.228 40.492C154.996 40.66 154.88 40.88 154.88 41.152C154.88 41.368 154.948 41.548 155.084 41.692C155.228 41.828 155.404 41.94 155.612 42.028C155.828 42.108 156.124 42.2 156.5 42.304C156.972 42.432 157.356 42.56 157.652 42.688C157.948 42.808 158.2 42.992 158.408 43.24C158.624 43.488 158.736 43.812 158.744 44.212C158.744 44.572 158.644 44.896 158.444 45.184C158.244 45.472 157.96 45.7 157.592 45.868C157.232 46.028 156.816 46.108 156.344 46.108ZM164.953 46.108C164.449 46.108 163.997 46.024 163.597 45.856C163.197 45.68 162.881 45.44 162.649 45.136C162.417 44.824 162.289 44.468 162.265 44.068H163.393C163.425 44.396 163.577 44.664 163.849 44.872C164.129 45.08 164.493 45.184 164.941 45.184C165.357 45.184 165.685 45.092 165.925 44.908C166.165 44.724 166.285 44.492 166.285 44.212C166.285 43.924 166.157 43.712 165.901 43.576C165.645 43.432 165.249 43.292 164.713 43.156C164.225 43.028 163.825 42.9 163.513 42.772C163.209 42.636 162.945 42.44 162.721 42.184C162.505 41.92 162.397 41.576 162.397 41.152C162.397 40.816 162.497 40.508 162.697 40.228C162.897 39.948 163.181 39.728 163.549 39.568C163.917 39.4 164.337 39.316 164.809 39.316C165.537 39.316 166.125 39.5 166.573 39.868C167.021 40.236 167.261 40.74 167.293 41.38H166.201C166.177 41.036 166.037 40.76 165.781 40.552C165.533 40.344 165.197 40.24 164.773 40.24C164.381 40.24 164.069 40.324 163.837 40.492C163.605 40.66 163.489 40.88 163.489 41.152C163.489 41.368 163.557 41.548 163.693 41.692C163.837 41.828 164.013 41.94 164.221 42.028C164.437 42.108 164.733 42.2 165.109 42.304C165.581 42.432 165.965 42.56 166.261 42.688C166.557 42.808 166.809 42.992 167.017 43.24C167.233 43.488 167.345 43.812 167.353 44.212C167.353 44.572 167.253 44.896 167.053 45.184C166.853 45.472 166.569 45.7 166.201 45.868C165.841 46.028 165.425 46.108 164.953 46.108ZM179.995 39.424L177.943 46H176.815L175.231 40.78L173.647 46H172.519L170.455 39.424H171.571L173.083 44.944L174.715 39.424H175.831L177.427 44.956L178.915 39.424H179.995ZM186.287 46.108C185.671 46.108 185.111 45.968 184.607 45.688C184.111 45.408 183.719 45.012 183.431 44.5C183.151 43.98 183.011 43.38 183.011 42.7C183.011 42.028 183.155 41.436 183.443 40.924C183.739 40.404 184.139 40.008 184.643 39.736C185.147 39.456 185.711 39.316 186.335 39.316C186.959 39.316 187.523 39.456 188.027 39.736C188.531 40.008 188.927 40.4 189.215 40.912C189.511 41.424 189.659 42.02 189.659 42.7C189.659 43.38 189.507 43.98 189.203 44.5C188.907 45.012 188.503 45.408 187.991 45.688C187.479 45.968 186.911 46.108 186.287 46.108ZM186.287 45.148C186.679 45.148 187.047 45.056 187.391 44.872C187.735 44.688 188.011 44.412 188.219 44.044C188.435 43.676 188.543 43.228 188.543 42.7C188.543 42.172 188.439 41.724 188.231 41.356C188.023 40.988 187.751 40.716 187.415 40.54C187.079 40.356 186.715 40.264 186.323 40.264C185.923 40.264 185.555 40.356 185.219 40.54C184.891 40.716 184.627 40.988 184.427 41.356C184.227 41.724 184.127 42.172 184.127 42.7C184.127 43.236 184.223 43.688 184.415 44.056C184.615 44.424 184.879 44.7 185.207 44.884C185.535 45.06 185.895 45.148 186.287 45.148ZM194.526 40.492C194.718 40.116 194.99 39.824 195.342 39.616C195.702 39.408 196.138 39.304 196.65 39.304V40.432H196.362C195.138 40.432 194.526 41.096 194.526 42.424V46H193.434V39.424H194.526V40.492ZM199.843 42.688C199.843 42.016 199.979 41.428 200.251 40.924C200.523 40.412 200.895 40.016 201.367 39.736C201.847 39.456 202.383 39.316 202.975 39.316C203.487 39.316 203.963 39.436 204.403 39.676C204.843 39.908 205.179 40.216 205.411 40.6V37.12H206.515V46H205.411V44.764C205.195 45.156 204.875 45.48 204.451 45.736C204.027 45.984 203.531 46.108 202.963 46.108C202.379 46.108 201.847 45.964 201.367 45.676C200.895 45.388 200.523 44.984 200.251 44.464C199.979 43.944 199.843 43.352 199.843 42.688ZM205.411 42.7C205.411 42.204 205.311 41.772 205.111 41.404C204.911 41.036 204.639 40.756 204.295 40.564C203.959 40.364 203.587 40.264 203.179 40.264C202.771 40.264 202.399 40.36 202.063 40.552C201.727 40.744 201.459 41.024 201.259 41.392C201.059 41.76 200.959 42.192 200.959 42.688C200.959 43.192 201.059 43.632 201.259 44.008C201.459 44.376 201.727 44.66 202.063 44.86C202.399 45.052 202.771 45.148 203.179 45.148C203.587 45.148 203.959 45.052 204.295 44.86C204.639 44.66 204.911 44.376 205.111 44.008C205.311 43.632 205.411 43.196 205.411 42.7ZM211.048 46.072C210.84 46.072 210.664 46 210.52 45.856C210.376 45.712 210.304 45.536 210.304 45.328C210.304 45.12 210.376 44.944 210.52 44.8C210.664 44.656 210.84 44.584 211.048 44.584C211.248 44.584 211.416 44.656 211.552 44.8C211.696 44.944 211.768 45.12 211.768 45.328C211.768 45.536 211.696 45.712 211.552 45.856C211.416 46 211.248 46.072 211.048 46.072Z" fill="black"/>
</svg>
