<svg width="101" height="24" viewBox="0 0 101 24" fill="none" xmlns="http://www.w3.org/2000/svg">
<g filter="url(#filter0_d_46_81)">
<path d="M11.7421 15L8.66211 9.56H7.34211V15H4.54211V1.04H9.78211C10.8621 1.04 11.7821 1.23333 12.5421 1.62C13.3021 1.99333 13.8688 2.50667 14.2421 3.16C14.6288 3.8 14.8221 4.52 14.8221 5.32C14.8221 6.24 14.5554 7.07333 14.0221 7.82C13.4888 8.55333 12.6954 9.06 11.6421 9.34L14.9821 15H11.7421ZM7.34211 7.46H9.68211C10.4421 7.46 11.0088 7.28 11.3821 6.92C11.7554 6.54667 11.9421 6.03333 11.9421 5.38C11.9421 4.74 11.7554 4.24667 11.3821 3.9C11.0088 3.54 10.4421 3.36 9.68211 3.36H7.34211V7.46ZM31.5546 9.22C31.5546 9.62 31.5279 9.98 31.4746 10.3H23.3746C23.4413 11.1 23.7213 11.7267 24.2146 12.18C24.7079 12.6333 25.3146 12.86 26.0346 12.86C27.0746 12.86 27.8146 12.4133 28.2546 11.52H31.2746C30.9546 12.5867 30.3413 13.4667 29.4346 14.16C28.5279 14.84 27.4146 15.18 26.0946 15.18C25.0279 15.18 24.0679 14.9467 23.2146 14.48C22.3746 14 21.7146 13.3267 21.2346 12.46C20.7679 11.5933 20.5346 10.5933 20.5346 9.46C20.5346 8.31333 20.7679 7.30667 21.2346 6.44C21.7013 5.57333 22.3546 4.90667 23.1946 4.44C24.0346 3.97333 25.0013 3.74 26.0946 3.74C27.1479 3.74 28.0879 3.96667 28.9146 4.42C29.7546 4.87333 30.4013 5.52 30.8546 6.36C31.3213 7.18667 31.5546 8.14 31.5546 9.22ZM28.6546 8.42C28.6413 7.7 28.3813 7.12667 27.8746 6.7C27.3679 6.26 26.7479 6.04 26.0146 6.04C25.3213 6.04 24.7346 6.25333 24.2546 6.68C23.7879 7.09333 23.5013 7.67333 23.3946 8.42H28.6546ZM41.7384 15.18C40.8317 15.18 40.0184 15.02 39.2984 14.7C38.5784 14.3667 38.005 13.92 37.5784 13.36C37.165 12.8 36.9384 12.18 36.8984 11.5H39.7184C39.7717 11.9267 39.9784 12.28 40.3384 12.56C40.7117 12.84 41.1717 12.98 41.7184 12.98C42.2517 12.98 42.665 12.8733 42.9584 12.66C43.265 12.4467 43.4184 12.1733 43.4184 11.84C43.4184 11.48 43.2317 11.2133 42.8584 11.04C42.4984 10.8533 41.9184 10.6533 41.1184 10.44C40.2917 10.24 39.6117 10.0333 39.0784 9.82C38.5584 9.60667 38.105 9.28 37.7184 8.84C37.345 8.4 37.1584 7.80667 37.1584 7.06C37.1584 6.44667 37.3317 5.88667 37.6784 5.38C38.0384 4.87333 38.545 4.47333 39.1984 4.18C39.865 3.88667 40.645 3.74 41.5384 3.74C42.8584 3.74 43.9117 4.07333 44.6984 4.74C45.485 5.39333 45.9184 6.28 45.9984 7.4H43.3184C43.2784 6.96 43.0917 6.61333 42.7584 6.36C42.4384 6.09333 42.005 5.96 41.4584 5.96C40.9517 5.96 40.5584 6.05333 40.2784 6.24C40.0117 6.42667 39.8784 6.68667 39.8784 7.02C39.8784 7.39333 40.065 7.68 40.4384 7.88C40.8117 8.06667 41.3917 8.26 42.1784 8.46C42.9784 8.66 43.6384 8.86667 44.1584 9.08C44.6784 9.29333 45.125 9.62667 45.4984 10.08C45.885 10.52 46.085 11.1067 46.0984 11.84C46.0984 12.48 45.9184 13.0533 45.5584 13.56C45.2117 14.0667 44.705 14.4667 44.0384 14.76C43.385 15.04 42.6184 15.18 41.7384 15.18ZM62.5968 9.22C62.5968 9.62 62.5701 9.98 62.5168 10.3H54.4168C54.4835 11.1 54.7635 11.7267 55.2568 12.18C55.7501 12.6333 56.3568 12.86 57.0768 12.86C58.1168 12.86 58.8568 12.4133 59.2968 11.52H62.3168C61.9968 12.5867 61.3835 13.4667 60.4768 14.16C59.5701 14.84 58.4568 15.18 57.1368 15.18C56.0701 15.18 55.1101 14.9467 54.2568 14.48C53.4168 14 52.7568 13.3267 52.2768 12.46C51.8101 11.5933 51.5768 10.5933 51.5768 9.46C51.5768 8.31333 51.8101 7.30667 52.2768 6.44C52.7435 5.57333 53.3968 4.90667 54.2368 4.44C55.0768 3.97333 56.0435 3.74 57.1368 3.74C58.1901 3.74 59.1301 3.96667 59.9568 4.42C60.7968 4.87333 61.4435 5.52 61.8968 6.36C62.3635 7.18667 62.5968 8.14 62.5968 9.22ZM59.6968 8.42C59.6835 7.7 59.4235 7.12667 58.9168 6.7C58.4101 6.26 57.7901 6.04 57.0568 6.04C56.3635 6.04 55.7768 6.25333 55.2968 6.68C54.8301 7.09333 54.5435 7.67333 54.4368 8.42H59.6968ZM74.6806 3.76C76.0006 3.76 77.0672 4.18 77.8806 5.02C78.6939 5.84667 79.1006 7.00667 79.1006 8.5V15H76.3006V8.88C76.3006 8 76.0806 7.32667 75.6406 6.86C75.2006 6.38 74.6006 6.14 73.8406 6.14C73.0672 6.14 72.4539 6.38 72.0006 6.86C71.5606 7.32667 71.3406 8 71.3406 8.88V15H68.5406V3.92H71.3406V5.3C71.7139 4.82 72.1872 4.44667 72.7606 4.18C73.3472 3.9 73.9872 3.76 74.6806 3.76ZM84.9432 9.42C84.9432 8.3 85.1632 7.30667 85.6032 6.44C86.0565 5.57333 86.6699 4.90667 87.4432 4.44C88.2165 3.97333 89.0765 3.74 90.0232 3.74C90.7432 3.74 91.4299 3.9 92.0832 4.22C92.7365 4.52667 93.2565 4.94 93.6432 5.46V0.2H96.4832V15H93.6432V13.36C93.2965 13.9067 92.8099 14.3467 92.1832 14.68C91.5565 15.0133 90.8299 15.18 90.0032 15.18C89.0699 15.18 88.2165 14.94 87.4432 14.46C86.6699 13.98 86.0565 13.3067 85.6032 12.44C85.1632 11.56 84.9432 10.5533 84.9432 9.42ZM93.6632 9.46C93.6632 8.78 93.5299 8.2 93.2632 7.72C92.9965 7.22667 92.6365 6.85333 92.1832 6.6C91.7299 6.33333 91.2432 6.2 90.7232 6.2C90.2032 6.2 89.7232 6.32667 89.2832 6.58C88.8432 6.83333 88.4832 7.20667 88.2032 7.7C87.9365 8.18 87.8032 8.75333 87.8032 9.42C87.8032 10.0867 87.9365 10.6733 88.2032 11.18C88.4832 11.6733 88.8432 12.0533 89.2832 12.32C89.7365 12.5867 90.2165 12.72 90.7232 12.72C91.2432 12.72 91.7299 12.5933 92.1832 12.34C92.6365 12.0733 92.9965 11.7 93.2632 11.22C93.5299 10.7267 93.6632 10.14 93.6632 9.46Z" fill="#00008F"/>
<path d="M3.16211 17H97.8432V18H3.16211V17Z" fill="#00008F"/>
</g>
<defs>
<filter id="filter0_d_46_81" x="0.542114" y="0.199951" width="99.9411" height="22.9801" filterUnits="userSpaceOnUse" color-interpolation-filters="sRGB">
<feFlood flood-opacity="0" result="BackgroundImageFix"/>
<feColorMatrix in="SourceAlpha" type="matrix" values="0 0 0 0 0 0 0 0 0 0 0 0 0 0 0 0 0 0 127 0" result="hardAlpha"/>
<feOffset dy="4"/>
<feGaussianBlur stdDeviation="2"/>
<feComposite in2="hardAlpha" operator="out"/>
<feColorMatrix type="matrix" values="0 0 0 0 0 0 0 0 0 0 0 0 0 0 0 0 0 0 0.25 0"/>
<feBlend mode="normal" in2="BackgroundImageFix" result="effect1_dropShadow_46_81"/>
<feBlend mode="normal" in="SourceGraphic" in2="effect1_dropShadow_46_81" result="shape"/>
</filter>
</defs>
</svg>
