<svg width="318" height="64" viewBox="0 0 318 64" fill="none" xmlns="http://www.w3.org/2000/svg">
<g filter="url(#filter0_d_114_97)">
<rect x="4" width="310" height="56" rx="23" fill="#00008F"/>
</g>
<path d="M131.9 16.44L124.124 39H116.092L108.284 16.44H115.004L120.124 32.728L125.212 16.44H131.9ZM151.007 29.816C151.007 30.3067 150.975 30.7973 150.911 31.288H139.039C139.103 32.2693 139.369 33.0053 139.839 33.496C140.329 33.9653 140.948 34.2 141.695 34.2C142.74 34.2 143.487 33.7307 143.935 32.792H150.623C150.345 34.0293 149.801 35.1387 148.991 36.12C148.201 37.08 147.199 37.8373 145.983 38.392C144.767 38.9467 143.423 39.224 141.951 39.224C140.18 39.224 138.601 38.8507 137.215 38.104C135.849 37.3573 134.772 36.2907 133.983 34.904C133.215 33.5173 132.831 31.8853 132.831 30.008C132.831 28.1307 133.215 26.5093 133.983 25.144C134.751 23.7573 135.817 22.6907 137.183 21.944C138.569 21.1973 140.159 20.824 141.951 20.824C143.721 20.824 145.289 21.1867 146.655 21.912C148.02 22.6373 149.087 23.6827 149.855 25.048C150.623 26.392 151.007 27.9813 151.007 29.816ZM144.607 28.248C144.607 27.48 144.351 26.8827 143.839 26.456C143.327 26.008 142.687 25.784 141.919 25.784C141.151 25.784 140.521 25.9973 140.031 26.424C139.54 26.8293 139.22 27.4373 139.071 28.248H144.607ZM159.845 24.216C160.549 23.192 161.403 22.3813 162.405 21.784C163.408 21.1867 164.485 20.888 165.637 20.888V27.576H163.877C162.512 27.576 161.499 27.8427 160.837 28.376C160.176 28.9093 159.845 29.8373 159.845 31.16V39H153.573V21.048H159.845V24.216ZM171.054 19.384C169.944 19.384 169.048 19.0853 168.366 18.488C167.704 17.8693 167.374 17.1013 167.374 16.184C167.374 15.2453 167.704 14.4667 168.366 13.848C169.048 13.2293 169.944 12.92 171.054 12.92C172.142 12.92 173.016 13.2293 173.678 13.848C174.36 14.4667 174.702 15.2453 174.702 16.184C174.702 17.1013 174.36 17.8693 173.678 18.488C173.016 19.0853 172.142 19.384 171.054 19.384ZM174.158 21.048V39H167.886V21.048H174.158ZM187.426 26.264H184.61V39H178.306V26.264H176.354V21.048H178.306V20.888C178.306 18.584 178.978 16.824 180.322 15.608C181.687 14.3707 183.639 13.752 186.178 13.752C186.69 13.752 187.084 13.7627 187.362 13.784V19.128C187.191 19.1067 186.956 19.096 186.658 19.096C185.975 19.096 185.474 19.256 185.154 19.576C184.834 19.8747 184.652 20.3653 184.61 21.048H187.426V26.264ZM208.995 21.048L197.603 47.544H190.787L195.075 38.232L187.715 21.048H194.691L198.467 31.224L202.115 21.048H208.995Z" fill="white"/>
<defs>
<filter id="filter0_d_114_97" x="0" y="0" width="318" height="64" filterUnits="userSpaceOnUse" color-interpolation-filters="sRGB">
<feFlood flood-opacity="0" result="BackgroundImageFix"/>
<feColorMatrix in="SourceAlpha" type="matrix" values="0 0 0 0 0 0 0 0 0 0 0 0 0 0 0 0 0 0 127 0" result="hardAlpha"/>
<feOffset dy="4"/>
<feGaussianBlur stdDeviation="2"/>
<feComposite in2="hardAlpha" operator="out"/>
<feColorMatrix type="matrix" values="0 0 0 0 0 0 0 0 0 0 0 0 0 0 0 0 0 0 0.25 0"/>
<feBlend mode="normal" in2="BackgroundImageFix" result="effect1_dropShadow_114_97"/>
<feBlend mode="normal" in="SourceGraphic" in2="effect1_dropShadow_114_97" result="shape"/>
</filter>
</defs>
</svg>
