<svg width="61" height="50" viewBox="0 0 61 50" fill="none" xmlns="http://www.w3.org/2000/svg">
<path d="M54.4643 0H6.53571C4.80233 0 3.13995 0.564412 1.91427 1.56907C0.688582 2.57373 0 3.93634 0 5.35714L0 44.6429C0 46.0637 0.688582 47.4263 1.91427 48.4309C3.13995 49.4356 4.80233 50 6.53571 50H54.4643C56.1977 50 57.8601 49.4356 59.0857 48.4309C60.3114 47.4263 61 46.0637 61 44.6429V5.35714C61 3.93634 60.3114 2.57373 59.0857 1.56907C57.8601 0.564412 56.1977 0 54.4643 0ZM52.2326 34.3047L50.1902 41.5592C50.0865 41.928 49.8333 42.2571 49.472 42.4928C49.1107 42.7286 48.6627 42.857 48.2009 42.8571C26.4152 42.8571 8.71429 28.3806 8.71429 10.4911C8.73049 10.1161 8.89309 9.75536 9.17815 9.46183C9.46322 9.1683 9.85569 8.95751 10.2978 8.86049L19.1483 7.18638C19.2993 7.16022 19.4529 7.14564 19.6071 7.14286C20.0021 7.1592 20.3845 7.2619 20.7147 7.4403C21.0449 7.6187 21.3108 7.86629 21.4848 8.15737L25.5696 15.9699C25.6697 16.1805 25.7254 16.4035 25.7344 16.6295C25.7011 17.125 25.4323 17.5902 24.9855 17.9252L19.8264 21.385C22.9524 26.8158 28.2848 31.1866 34.9102 33.7489L39.1312 29.5201C39.5399 29.1539 40.1074 28.9335 40.7121 28.9062C40.9877 28.9135 41.2598 28.9592 41.5168 29.0413L51.048 32.3895C51.4033 32.532 51.7055 32.7499 51.9232 33.0205C52.1409 33.2912 52.2661 33.6048 52.2857 33.9286C52.283 34.0551 52.2652 34.181 52.2326 34.3047Z" fill="#00008F"/>
</svg>
