<svg width="319" height="103" viewBox="0 0 319 103" fill="none" xmlns="http://www.w3.org/2000/svg">
<path d="M97.6184 14.62V31.432C97.6184 34.288 96.8384 36.472 95.2784 37.984C93.7424 39.496 91.6184 40.252 88.9064 40.252C86.0264 40.252 83.7224 39.448 81.9944 37.84C80.2904 36.232 79.4384 33.916 79.4384 30.892H86.4224C86.4464 32.884 87.1784 33.88 88.6184 33.88C89.9144 33.88 90.5624 33.064 90.5624 31.432V14.62H97.6184ZM143.295 19.804V40H136.203V37.12C135.603 38.032 134.775 38.776 133.719 39.352C132.663 39.904 131.451 40.18 130.083 40.18C127.731 40.18 125.871 39.412 124.503 37.876C123.159 36.316 122.487 34.204 122.487 31.54V19.804H129.507V30.64C129.507 31.792 129.807 32.704 130.407 33.376C131.031 34.024 131.847 34.348 132.855 34.348C133.887 34.348 134.703 34.024 135.303 33.376C135.903 32.704 136.203 31.792 136.203 30.64V19.804H143.295ZM156.707 23.368C157.499 22.216 158.459 21.304 159.587 20.632C160.715 19.96 161.927 19.624 163.223 19.624V27.148H161.243C159.707 27.148 158.567 27.448 157.823 28.048C157.079 28.648 156.707 29.692 156.707 31.18V40H149.651V19.804H156.707V23.368ZM181.304 19.624C183.632 19.624 185.48 20.404 186.848 21.964C188.216 23.5 188.9 25.588 188.9 28.228V40H181.844V29.164C181.844 28.012 181.544 27.112 180.944 26.464C180.344 25.792 179.54 25.456 178.532 25.456C177.476 25.456 176.648 25.792 176.048 26.464C175.448 27.112 175.148 28.012 175.148 29.164V40H168.092V19.804H175.148V22.684C175.772 21.772 176.612 21.04 177.668 20.488C178.724 19.912 179.936 19.624 181.304 19.624ZM193.96 29.884C193.96 27.796 194.332 25.972 195.076 24.412C195.844 22.852 196.876 21.652 198.172 20.812C199.492 19.972 200.956 19.552 202.564 19.552C203.956 19.552 205.156 19.828 206.164 20.38C207.172 20.932 207.952 21.676 208.504 22.612V19.804H215.56V40H208.504V37.192C207.952 38.128 207.16 38.872 206.128 39.424C205.12 39.976 203.932 40.252 202.564 40.252C200.956 40.252 199.492 39.832 198.172 38.992C196.876 38.152 195.844 36.952 195.076 35.392C194.332 33.808 193.96 31.972 193.96 29.884ZM208.504 29.884C208.504 28.588 208.144 27.568 207.424 26.824C206.728 26.08 205.864 25.708 204.832 25.708C203.776 25.708 202.9 26.08 202.204 26.824C201.508 27.544 201.16 28.564 201.16 29.884C201.16 31.18 201.508 32.212 202.204 32.98C202.9 33.724 203.776 34.096 204.832 34.096C205.864 34.096 206.728 33.724 207.424 32.98C208.144 32.236 208.504 31.204 208.504 29.884ZM228.977 13.36V40H221.921V13.36H228.977ZM130.706 68.62V74.236H120.554V78.7H128.042V84.064H120.554V94H113.498V68.62H130.706ZM155.314 83.668C155.314 84.22 155.278 84.772 155.206 85.324H141.85C141.922 86.428 142.222 87.256 142.75 87.808C143.302 88.336 143.998 88.6 144.838 88.6C146.014 88.6 146.854 88.072 147.358 87.016H154.882C154.57 88.408 153.958 89.656 153.046 90.76C152.158 91.84 151.03 92.692 149.662 93.316C148.294 93.94 146.782 94.252 145.126 94.252C143.134 94.252 141.358 93.832 139.798 92.992C138.262 92.152 137.05 90.952 136.162 89.392C135.298 87.832 134.866 85.996 134.866 83.884C134.866 81.772 135.298 79.948 136.162 78.412C137.026 76.852 138.226 75.652 139.762 74.812C141.322 73.972 143.11 73.552 145.126 73.552C147.118 73.552 148.882 73.96 150.418 74.776C151.954 75.592 153.154 76.768 154.018 78.304C154.882 79.816 155.314 81.604 155.314 83.668ZM148.114 81.904C148.114 81.04 147.826 80.368 147.25 79.888C146.674 79.384 145.954 79.132 145.09 79.132C144.226 79.132 143.518 79.372 142.966 79.852C142.414 80.308 142.054 80.992 141.886 81.904H148.114ZM179.837 83.668C179.837 84.22 179.801 84.772 179.729 85.324H166.373C166.445 86.428 166.745 87.256 167.273 87.808C167.825 88.336 168.521 88.6 169.361 88.6C170.537 88.6 171.377 88.072 171.881 87.016H179.405C179.093 88.408 178.481 89.656 177.569 90.76C176.681 91.84 175.553 92.692 174.185 93.316C172.817 93.94 171.305 94.252 169.649 94.252C167.657 94.252 165.881 93.832 164.321 92.992C162.785 92.152 161.573 90.952 160.685 89.392C159.821 87.832 159.389 85.996 159.389 83.884C159.389 81.772 159.821 79.948 160.685 78.412C161.549 76.852 162.749 75.652 164.285 74.812C165.845 73.972 167.633 73.552 169.649 73.552C171.641 73.552 173.405 73.96 174.941 74.776C176.477 75.592 177.677 76.768 178.541 78.304C179.405 79.816 179.837 81.604 179.837 83.668ZM172.637 81.904C172.637 81.04 172.349 80.368 171.773 79.888C171.197 79.384 170.477 79.132 169.613 79.132C168.749 79.132 168.041 79.372 167.489 79.852C166.937 80.308 166.577 80.992 166.409 81.904H172.637ZM183.913 83.884C183.913 81.796 184.285 79.972 185.029 78.412C185.797 76.852 186.841 75.652 188.161 74.812C189.481 73.972 190.945 73.552 192.553 73.552C193.849 73.552 195.001 73.828 196.009 74.38C197.041 74.908 197.845 75.64 198.421 76.576V67.36H205.513V94H198.421V91.192C197.869 92.128 197.089 92.872 196.081 93.424C195.073 93.976 193.885 94.252 192.517 94.252C190.909 94.252 189.445 93.832 188.125 92.992C186.829 92.152 185.797 90.952 185.029 89.392C184.285 87.808 183.913 85.972 183.913 83.884ZM198.457 83.884C198.457 82.588 198.097 81.568 197.377 80.824C196.681 80.08 195.817 79.708 194.785 79.708C193.729 79.708 192.853 80.08 192.157 80.824C191.461 81.544 191.113 82.564 191.113 83.884C191.113 85.18 191.461 86.212 192.157 86.98C192.853 87.724 193.729 88.096 194.785 88.096C195.817 88.096 196.681 87.724 197.377 86.98C198.097 86.236 198.457 85.204 198.457 83.884Z" fill="white"/>
<path d="M119 34.0625V20.9375C119 20.418 118.57 20 118.036 20H104.857C102.728 20 101 21.6797 101 23.75V36.25C101 38.3203 102.728 40 104.857 40H118.036C118.57 40 119 39.582 119 39.0625V38.4375C119 38.1445 118.859 37.8789 118.642 37.707C118.474 37.1055 118.474 35.3906 118.642 34.7891C118.859 34.6211 119 34.3555 119 34.0625ZM106.143 25.2344C106.143 25.1055 106.251 25 106.384 25H114.902C115.034 25 115.143 25.1055 115.143 25.2344V26.0156C115.143 26.1445 115.034 26.25 114.902 26.25H106.384C106.251 26.25 106.143 26.1445 106.143 26.0156V25.2344ZM106.143 27.7344C106.143 27.6055 106.251 27.5 106.384 27.5H114.902C115.034 27.5 115.143 27.6055 115.143 27.7344V28.5156C115.143 28.6445 115.034 28.75 114.902 28.75H106.384C106.251 28.75 106.143 28.6445 106.143 28.5156V27.7344ZM116.324 37.5H104.857C104.146 37.5 103.571 36.9414 103.571 36.25C103.571 35.5625 104.15 35 104.857 35H116.324C116.248 35.668 116.248 36.832 116.324 37.5Z" fill="white"/>
</svg>
