<svg width="197" height="21" viewBox="0 0 197 21" fill="none" xmlns="http://www.w3.org/2000/svg">
<path d="M1.9914 5.34H0.371403L2.1114 1.02H3.1314L1.9914 5.34ZM4.8914 5.34H3.2714L5.0314 1.02H6.0514L4.8914 5.34ZM13.8673 15.14C12.9473 15.14 12.134 14.98 11.4273 14.66C10.734 14.34 10.1873 13.8933 9.78734 13.32C9.38734 12.7467 9.17401 12.1067 9.14734 11.4H10.6273C10.694 12.08 10.994 12.68 11.5273 13.2C12.0607 13.7067 12.8407 13.96 13.8673 13.96C14.814 13.96 15.5607 13.72 16.1073 13.24C16.6673 12.7467 16.9473 12.1267 16.9473 11.38C16.9473 10.78 16.794 10.3 16.4873 9.94C16.1807 9.56667 15.8007 9.29333 15.3473 9.12C14.894 8.93333 14.2673 8.73333 13.4673 8.52C12.534 8.26667 11.794 8.02 11.2473 7.78C10.7007 7.54 10.234 7.16667 9.84734 6.66C9.46067 6.15333 9.26734 5.46667 9.26734 4.6C9.26734 3.88 9.45401 3.24 9.82734 2.68C10.2007 2.10667 10.7273 1.66 11.4073 1.34C12.0873 1.02 12.8673 0.86 13.7473 0.86C15.0407 0.86 16.0807 1.18 16.8673 1.82C17.6673 2.44667 18.1273 3.26 18.2473 4.26H16.7273C16.634 3.68667 16.3207 3.18 15.7873 2.74C15.254 2.28667 14.534 2.06 13.6273 2.06C12.7873 2.06 12.0873 2.28667 11.5273 2.74C10.9673 3.18 10.6873 3.78667 10.6873 4.56C10.6873 5.14667 10.8407 5.62 11.1473 5.98C11.454 6.34 11.834 6.61333 12.2873 6.8C12.754 6.98667 13.3807 7.18667 14.1673 7.4C15.074 7.65333 15.8073 7.90667 16.3673 8.16C16.9273 8.4 17.4007 8.77333 17.7873 9.28C18.174 9.78667 18.3673 10.4667 18.3673 11.32C18.3673 11.9733 18.194 12.5933 17.8473 13.18C17.5007 13.7667 16.9873 14.24 16.3073 14.6C15.6273 14.96 14.814 15.14 13.8673 15.14ZM27.5727 3.88C28.3993 3.88 29.1393 4.05333 29.7927 4.4C30.4593 4.74667 30.9793 5.28 31.3527 6C31.7393 6.70667 31.9327 7.57333 31.9327 8.6V15H30.5527V8.76C30.5527 7.57333 30.2527 6.66667 29.6527 6.04C29.066 5.41333 28.2593 5.1 27.2327 5.1C26.1793 5.1 25.3393 5.43333 24.7127 6.1C24.086 6.76667 23.7727 7.74667 23.7727 9.04V15H22.3727V0.2H23.7727V5.94C24.1193 5.28667 24.626 4.78 25.2927 4.42C25.9727 4.06 26.7327 3.88 27.5727 3.88ZM35.6889 9.52C35.6889 8.4 35.9089 7.42 36.3489 6.58C36.8022 5.72667 37.4222 5.07333 38.2089 4.62C39.0089 4.15333 39.9089 3.92 40.9089 3.92C41.9489 3.92 42.8422 4.16 43.5889 4.64C44.3489 5.12 44.8956 5.73333 45.2289 6.48V4.08H46.6289V15H45.2289V12.58C44.8822 13.3267 44.3289 13.9467 43.5689 14.44C42.8222 14.92 41.9289 15.16 40.8889 15.16C39.9022 15.16 39.0089 14.9267 38.2089 14.46C37.4222 13.9933 36.8022 13.3333 36.3489 12.48C35.9089 11.6267 35.6889 10.64 35.6889 9.52ZM45.2289 9.54C45.2289 8.66 45.0489 7.88667 44.6889 7.22C44.3289 6.55333 43.8356 6.04 43.2089 5.68C42.5956 5.32 41.9156 5.14 41.1689 5.14C40.3956 5.14 39.7022 5.31333 39.0889 5.66C38.4756 6.00667 37.9889 6.51333 37.6289 7.18C37.2822 7.83333 37.1089 8.61333 37.1089 9.52C37.1089 10.4133 37.2822 11.2 37.6289 11.88C37.9889 12.5467 38.4756 13.06 39.0889 13.42C39.7022 13.7667 40.3956 13.94 41.1689 13.94C41.9156 13.94 42.5956 13.76 43.2089 13.4C43.8356 13.04 44.3289 12.5267 44.6889 11.86C45.0489 11.1933 45.2289 10.42 45.2289 9.54ZM52.525 6.02C52.8317 5.34 53.2983 4.81333 53.925 4.44C54.565 4.06667 55.345 3.88 56.265 3.88V5.34H55.885C54.8717 5.34 54.0583 5.61333 53.445 6.16C52.8317 6.70667 52.525 7.62 52.525 8.9V15H51.125V4.08H52.525V6.02ZM69.5511 8.98C69.5511 9.46 69.5378 9.82667 69.5111 10.08H60.4511C60.4911 10.9067 60.6911 11.6133 61.0511 12.2C61.4111 12.7867 61.8844 13.2333 62.4711 13.54C63.0578 13.8333 63.6978 13.98 64.3911 13.98C65.2978 13.98 66.0578 13.76 66.6711 13.32C67.2978 12.88 67.7111 12.2867 67.9111 11.54H69.3911C69.1244 12.6067 68.5511 13.48 67.6711 14.16C66.8044 14.8267 65.7111 15.16 64.3911 15.16C63.3644 15.16 62.4444 14.9333 61.6311 14.48C60.8178 14.0133 60.1778 13.36 59.7111 12.52C59.2578 11.6667 59.0311 10.6733 59.0311 9.54C59.0311 8.40667 59.2578 7.41333 59.7111 6.56C60.1644 5.70667 60.7978 5.05333 61.6111 4.6C62.4244 4.14667 63.3511 3.92 64.3911 3.92C65.4311 3.92 66.3378 4.14667 67.1111 4.6C67.8978 5.05333 68.4978 5.66667 68.9111 6.44C69.3378 7.2 69.5511 8.04667 69.5511 8.98ZM68.1311 8.94C68.1444 8.12667 67.9778 7.43333 67.6311 6.86C67.2978 6.28667 66.8378 5.85333 66.2511 5.56C65.6644 5.26667 65.0244 5.12 64.3311 5.12C63.2911 5.12 62.4044 5.45333 61.6711 6.12C60.9378 6.78667 60.5311 7.72667 60.4511 8.94H68.1311ZM89.2008 4.08L82.7208 20.14H81.2608L83.3808 14.94L78.9008 4.08H80.4408L84.1608 13.4L87.7608 4.08H89.2008ZM97.1792 15.16C96.1526 15.16 95.2259 14.9333 94.3992 14.48C93.5859 14.0133 92.9392 13.36 92.4592 12.52C91.9926 11.6667 91.7592 10.6733 91.7592 9.54C91.7592 8.40667 91.9992 7.42 92.4792 6.58C92.9592 5.72667 93.6126 5.07333 94.4392 4.62C95.2659 4.15333 96.1926 3.92 97.2192 3.92C98.2459 3.92 99.1726 4.15333 99.9992 4.62C100.839 5.07333 101.493 5.72667 101.959 6.58C102.439 7.42 102.679 8.40667 102.679 9.54C102.679 10.66 102.439 11.6467 101.959 12.5C101.479 13.3533 100.819 14.0133 99.9792 14.48C99.1392 14.9333 98.2059 15.16 97.1792 15.16ZM97.1792 13.94C97.8992 13.94 98.5659 13.78 99.1792 13.46C99.7926 13.1267 100.286 12.6333 100.659 11.98C101.046 11.3133 101.239 10.5 101.239 9.54C101.239 8.58 101.053 7.77333 100.679 7.12C100.306 6.45333 99.8126 5.96 99.1992 5.64C98.5859 5.30667 97.9192 5.14 97.1992 5.14C96.4792 5.14 95.8126 5.30667 95.1992 5.64C94.5859 5.96 94.0926 6.45333 93.7192 7.12C93.3592 7.77333 93.1792 8.58 93.1792 9.54C93.1792 10.5 93.3592 11.3133 93.7192 11.98C94.0926 12.6333 94.5792 13.1267 95.1792 13.46C95.7926 13.78 96.4592 13.94 97.1792 13.94ZM115.991 4.08V15H114.591V13.08C114.271 13.76 113.778 14.28 113.111 14.64C112.445 15 111.698 15.18 110.871 15.18C109.565 15.18 108.498 14.78 107.671 13.98C106.845 13.1667 106.431 11.9933 106.431 10.46V4.08H107.811V10.3C107.811 11.4867 108.105 12.3933 108.691 13.02C109.291 13.6467 110.105 13.96 111.131 13.96C112.185 13.96 113.025 13.6267 113.651 12.96C114.278 12.2933 114.591 11.3133 114.591 10.02V4.08H115.991ZM121.887 6.02C122.194 5.34 122.661 4.81333 123.287 4.44C123.927 4.06667 124.707 3.88 125.627 3.88V5.34H125.247C124.234 5.34 123.421 5.61333 122.807 6.16C122.194 6.70667 121.887 7.62 121.887 8.9V15H120.487V4.08H121.887V6.02ZM140.062 15.14C139.142 15.14 138.329 14.98 137.622 14.66C136.929 14.34 136.382 13.8933 135.982 13.32C135.582 12.7467 135.369 12.1067 135.342 11.4H136.822C136.889 12.08 137.189 12.68 137.722 13.2C138.255 13.7067 139.035 13.96 140.062 13.96C141.009 13.96 141.755 13.72 142.302 13.24C142.862 12.7467 143.142 12.1267 143.142 11.38C143.142 10.78 142.989 10.3 142.682 9.94C142.375 9.56667 141.995 9.29333 141.542 9.12C141.089 8.93333 140.462 8.73333 139.662 8.52C138.729 8.26667 137.989 8.02 137.442 7.78C136.895 7.54 136.429 7.16667 136.042 6.66C135.655 6.15333 135.462 5.46667 135.462 4.6C135.462 3.88 135.649 3.24 136.022 2.68C136.395 2.10667 136.922 1.66 137.602 1.34C138.282 1.02 139.062 0.86 139.942 0.86C141.235 0.86 142.275 1.18 143.062 1.82C143.862 2.44667 144.322 3.26 144.442 4.26H142.922C142.829 3.68667 142.515 3.18 141.982 2.74C141.449 2.28667 140.729 2.06 139.822 2.06C138.982 2.06 138.282 2.28667 137.722 2.74C137.162 3.18 136.882 3.78667 136.882 4.56C136.882 5.14667 137.035 5.62 137.342 5.98C137.649 6.34 138.029 6.61333 138.482 6.8C138.949 6.98667 139.575 7.18667 140.362 7.4C141.269 7.65333 142.002 7.90667 142.562 8.16C143.122 8.4 143.595 8.77333 143.982 9.28C144.369 9.78667 144.562 10.4667 144.562 11.32C144.562 11.9733 144.389 12.5933 144.042 13.18C143.695 13.7667 143.182 14.24 142.502 14.6C141.822 14.96 141.009 15.14 140.062 15.14ZM150.387 5.26V12.04C150.387 12.7067 150.514 13.1667 150.767 13.42C151.021 13.6733 151.467 13.8 152.107 13.8H153.387V15H151.887C150.901 15 150.167 14.7733 149.687 14.32C149.207 13.8533 148.967 13.0933 148.967 12.04V5.26H147.447V4.08H148.967V1.34H150.387V4.08H153.387V5.26H150.387ZM161.776 15.16C160.749 15.16 159.823 14.9333 158.996 14.48C158.183 14.0133 157.536 13.36 157.056 12.52C156.589 11.6667 156.356 10.6733 156.356 9.54C156.356 8.40667 156.596 7.42 157.076 6.58C157.556 5.72667 158.209 5.07333 159.036 4.62C159.863 4.15333 160.789 3.92 161.816 3.92C162.843 3.92 163.769 4.15333 164.596 4.62C165.436 5.07333 166.089 5.72667 166.556 6.58C167.036 7.42 167.276 8.40667 167.276 9.54C167.276 10.66 167.036 11.6467 166.556 12.5C166.076 13.3533 165.416 14.0133 164.576 14.48C163.736 14.9333 162.803 15.16 161.776 15.16ZM161.776 13.94C162.496 13.94 163.163 13.78 163.776 13.46C164.389 13.1267 164.883 12.6333 165.256 11.98C165.643 11.3133 165.836 10.5 165.836 9.54C165.836 8.58 165.649 7.77333 165.276 7.12C164.903 6.45333 164.409 5.96 163.796 5.64C163.183 5.30667 162.516 5.14 161.796 5.14C161.076 5.14 160.409 5.30667 159.796 5.64C159.183 5.96 158.689 6.45333 158.316 7.12C157.956 7.77333 157.776 8.58 157.776 9.54C157.776 10.5 157.956 11.3133 158.316 11.98C158.689 12.6333 159.176 13.1267 159.776 13.46C160.389 13.78 161.056 13.94 161.776 13.94ZM172.528 6.02C172.835 5.34 173.301 4.81333 173.928 4.44C174.568 4.06667 175.348 3.88 176.268 3.88V5.34H175.888C174.875 5.34 174.061 5.61333 173.448 6.16C172.835 6.70667 172.528 7.62 172.528 8.9V15H171.128V4.08H172.528V6.02ZM188.674 4.08L182.194 20.14H180.734L182.854 14.94L178.374 4.08H179.914L183.634 13.4L187.234 4.08H188.674ZM192.053 1.02H193.673L191.913 5.34H190.893L192.053 1.02ZM194.953 1.02H196.573L194.813 5.34H193.793L194.953 1.02Z" fill="white"/>
</svg>
