<svg width="27" height="22" viewBox="0 0 27 22" fill="none" xmlns="http://www.w3.org/2000/svg">
<path d="M25.9875 7.34617C22.869 2.68418 18.306 0 13.5 0C11.097 0 8.7615 0.667834 6.6285 1.9136C4.4955 3.17221 2.5785 5.00875 1.0125 7.34617C-0.3375 9.36253 -0.3375 12.6375 1.0125 14.6538C4.131 19.3287 8.694 22 13.5 22C15.903 22 18.2385 21.3322 20.3715 20.0864C22.5045 18.8278 24.4215 16.9912 25.9875 14.6538C27.3375 12.6503 27.3375 9.36253 25.9875 7.34617ZM13.5 16.195C10.476 16.195 8.046 13.8704 8.046 11.0064C8.046 8.14243 10.476 5.81786 13.5 5.81786C16.524 5.81786 18.954 8.14243 18.954 11.0064C18.954 13.8704 16.524 16.195 13.5 16.195Z" fill="#00008F"/>
<path d="M13.4978 7.33447C11.3783 7.33447 9.65039 8.97835 9.65039 11.0075C9.65039 13.0239 11.3783 14.6678 13.4978 14.6678C15.6173 14.6678 17.3588 13.0239 17.3588 11.0075C17.3588 8.99119 15.6173 7.33447 13.4978 7.33447Z" fill="#00008F"/>
</svg>
