<svg width="132" height="13" viewBox="0 0 132 13" fill="none" xmlns="http://www.w3.org/2000/svg">
<path d="M5.86589 0.576V2.22H2.43389V3.996H5.00189V5.592H2.43389V9H0.381894V0.576H5.86589ZM11.5524 9.096C10.8964 9.096 10.3044 8.956 9.77639 8.676C9.25639 8.396 8.84439 7.996 8.54039 7.476C8.24439 6.956 8.09639 6.348 8.09639 5.652C8.09639 4.964 8.24839 4.36 8.55239 3.84C8.85639 3.312 9.27239 2.908 9.80039 2.628C10.3284 2.348 10.9204 2.208 11.5764 2.208C12.2324 2.208 12.8244 2.348 13.3524 2.628C13.8804 2.908 14.2964 3.312 14.6004 3.84C14.9044 4.36 15.0564 4.964 15.0564 5.652C15.0564 6.34 14.9004 6.948 14.5884 7.476C14.2844 7.996 13.8644 8.396 13.3284 8.676C12.8004 8.956 12.2084 9.096 11.5524 9.096ZM11.5524 7.32C11.9444 7.32 12.2764 7.176 12.5484 6.888C12.8284 6.6 12.9684 6.188 12.9684 5.652C12.9684 5.116 12.8324 4.704 12.5604 4.416C12.2964 4.128 11.9684 3.984 11.5764 3.984C11.1764 3.984 10.8444 4.128 10.5804 4.416C10.3164 4.696 10.1844 5.108 10.1844 5.652C10.1844 6.188 10.3124 6.6 10.5684 6.888C10.8324 7.176 11.1604 7.32 11.5524 7.32ZM19.757 3.42C19.997 3.052 20.297 2.764 20.657 2.556C21.017 2.34 21.417 2.232 21.857 2.232V4.404H21.293C20.781 4.404 20.397 4.516 20.141 4.74C19.885 4.956 19.757 5.34 19.757 5.892V9H17.705V2.304H19.757V3.42ZM26.9418 2.208C27.4138 2.208 27.8258 2.304 28.1778 2.496C28.5378 2.688 28.8138 2.94 29.0058 3.252V2.304H31.0578V8.988C31.0578 9.604 30.9338 10.16 30.6858 10.656C30.4458 11.16 30.0738 11.56 29.5698 11.856C29.0738 12.152 28.4538 12.3 27.7098 12.3C26.7178 12.3 25.9138 12.064 25.2978 11.592C24.6818 11.128 24.3298 10.496 24.2418 9.696H26.2698C26.3338 9.952 26.4858 10.152 26.7258 10.296C26.9658 10.448 27.2618 10.524 27.6138 10.524C28.0378 10.524 28.3738 10.4 28.6218 10.152C28.8778 9.912 29.0058 9.524 29.0058 8.988V8.04C28.8058 8.352 28.5298 8.608 28.1778 8.808C27.8258 9 27.4138 9.096 26.9418 9.096C26.3898 9.096 25.8898 8.956 25.4418 8.676C24.9938 8.388 24.6378 7.984 24.3738 7.464C24.1178 6.936 23.9898 6.328 23.9898 5.64C23.9898 4.952 24.1178 4.348 24.3738 3.828C24.6378 3.308 24.9938 2.908 25.4418 2.628C25.8898 2.348 26.3898 2.208 26.9418 2.208ZM29.0058 5.652C29.0058 5.14 28.8618 4.736 28.5738 4.44C28.2938 4.144 27.9498 3.996 27.5418 3.996C27.1338 3.996 26.7858 4.144 26.4978 4.44C26.2178 4.728 26.0778 5.128 26.0778 5.64C26.0778 6.152 26.2178 6.56 26.4978 6.864C26.7858 7.16 27.1338 7.308 27.5418 7.308C27.9498 7.308 28.2938 7.16 28.5738 6.864C28.8618 6.568 29.0058 6.164 29.0058 5.652ZM37.1504 9.096C36.4944 9.096 35.9024 8.956 35.3744 8.676C34.8544 8.396 34.4424 7.996 34.1384 7.476C33.8424 6.956 33.6944 6.348 33.6944 5.652C33.6944 4.964 33.8464 4.36 34.1504 3.84C34.4544 3.312 34.8704 2.908 35.3984 2.628C35.9264 2.348 36.5184 2.208 37.1744 2.208C37.8304 2.208 38.4224 2.348 38.9504 2.628C39.4784 2.908 39.8944 3.312 40.1984 3.84C40.5024 4.36 40.6544 4.964 40.6544 5.652C40.6544 6.34 40.4984 6.948 40.1864 7.476C39.8824 7.996 39.4624 8.396 38.9264 8.676C38.3984 8.956 37.8064 9.096 37.1504 9.096ZM37.1504 7.32C37.5424 7.32 37.8744 7.176 38.1464 6.888C38.4264 6.6 38.5664 6.188 38.5664 5.652C38.5664 5.116 38.4304 4.704 38.1584 4.416C37.8944 4.128 37.5664 3.984 37.1744 3.984C36.7744 3.984 36.4424 4.128 36.1784 4.416C35.9144 4.696 35.7824 5.108 35.7824 5.652C35.7824 6.188 35.9104 6.6 36.1664 6.888C36.4304 7.176 36.7584 7.32 37.1504 7.32ZM47.035 7.26V9H45.991C45.247 9 44.667 8.82 44.251 8.46C43.835 8.092 43.627 7.496 43.627 6.672V4.008H42.811V2.304H43.627V0.672H45.679V2.304H47.023V4.008H45.679V6.696C45.679 6.896 45.727 7.04 45.823 7.128C45.919 7.216 46.079 7.26 46.303 7.26H47.035ZM60.261 3.288C60.261 3.776 60.149 4.224 59.925 4.632C59.701 5.032 59.357 5.356 58.893 5.604C58.429 5.852 57.853 5.976 57.165 5.976H55.893V9H53.841V0.576H57.165C57.837 0.576 58.405 0.692 58.869 0.924C59.333 1.156 59.681 1.476 59.913 1.884C60.145 2.292 60.261 2.76 60.261 3.288ZM57.009 4.344C57.401 4.344 57.693 4.252 57.885 4.068C58.077 3.884 58.173 3.624 58.173 3.288C58.173 2.952 58.077 2.692 57.885 2.508C57.693 2.324 57.401 2.232 57.009 2.232H55.893V4.344H57.009ZM62.4812 5.64C62.4812 4.952 62.6092 4.348 62.8652 3.828C63.1292 3.308 63.4852 2.908 63.9332 2.628C64.3812 2.348 64.8812 2.208 65.4332 2.208C65.9052 2.208 66.3172 2.304 66.6692 2.496C67.0292 2.688 67.3052 2.94 67.4972 3.252V2.304H69.5492V9H67.4972V8.052C67.2972 8.364 67.0172 8.616 66.6572 8.808C66.3052 9 65.8932 9.096 65.4212 9.096C64.8772 9.096 64.3812 8.956 63.9332 8.676C63.4852 8.388 63.1292 7.984 62.8652 7.464C62.6092 6.936 62.4812 6.328 62.4812 5.64ZM67.4972 5.652C67.4972 5.14 67.3532 4.736 67.0652 4.44C66.7852 4.144 66.4412 3.996 66.0332 3.996C65.6252 3.996 65.2772 4.144 64.9892 4.44C64.7092 4.728 64.5692 5.128 64.5692 5.64C64.5692 6.152 64.7092 6.56 64.9892 6.864C65.2772 7.16 65.6252 7.308 66.0332 7.308C66.4412 7.308 66.7852 7.16 67.0652 6.864C67.3532 6.568 67.4972 6.164 67.4972 5.652ZM75.3178 9.096C74.7338 9.096 74.2138 8.996 73.7578 8.796C73.3018 8.596 72.9418 8.324 72.6778 7.98C72.4138 7.628 72.2658 7.236 72.2338 6.804H74.2618C74.2858 7.036 74.3938 7.224 74.5858 7.368C74.7778 7.512 75.0138 7.584 75.2938 7.584C75.5498 7.584 75.7458 7.536 75.8818 7.44C76.0258 7.336 76.0978 7.204 76.0978 7.044C76.0978 6.852 75.9978 6.712 75.7978 6.624C75.5978 6.528 75.2738 6.424 74.8258 6.312C74.3458 6.2 73.9458 6.084 73.6258 5.964C73.3058 5.836 73.0298 5.64 72.7978 5.376C72.5658 5.104 72.4498 4.74 72.4498 4.284C72.4498 3.9 72.5538 3.552 72.7618 3.24C72.9778 2.92 73.2898 2.668 73.6978 2.484C74.1138 2.3 74.6058 2.208 75.1738 2.208C76.0138 2.208 76.6738 2.416 77.1538 2.832C77.6418 3.248 77.9218 3.8 77.9938 4.488H76.0978C76.0658 4.256 75.9618 4.072 75.7858 3.936C75.6178 3.8 75.3938 3.732 75.1138 3.732C74.8738 3.732 74.6898 3.78 74.5618 3.876C74.4338 3.964 74.3698 4.088 74.3698 4.248C74.3698 4.44 74.4698 4.584 74.6698 4.68C74.8778 4.776 75.1978 4.872 75.6298 4.968C76.1258 5.096 76.5298 5.224 76.8418 5.352C77.1538 5.472 77.4258 5.672 77.6578 5.952C77.8978 6.224 78.0218 6.592 78.0298 7.056C78.0298 7.448 77.9178 7.8 77.6938 8.112C77.4778 8.416 77.1618 8.656 76.7458 8.832C76.3378 9.008 75.8618 9.096 75.3178 9.096ZM83.5692 9.096C82.9852 9.096 82.4652 8.996 82.0092 8.796C81.5532 8.596 81.1932 8.324 80.9292 7.98C80.6652 7.628 80.5172 7.236 80.4852 6.804H82.5132C82.5372 7.036 82.6452 7.224 82.8372 7.368C83.0292 7.512 83.2652 7.584 83.5452 7.584C83.8012 7.584 83.9972 7.536 84.1332 7.44C84.2772 7.336 84.3492 7.204 84.3492 7.044C84.3492 6.852 84.2492 6.712 84.0492 6.624C83.8492 6.528 83.5252 6.424 83.0772 6.312C82.5972 6.2 82.1972 6.084 81.8772 5.964C81.5572 5.836 81.2812 5.64 81.0492 5.376C80.8172 5.104 80.7012 4.74 80.7012 4.284C80.7012 3.9 80.8052 3.552 81.0132 3.24C81.2292 2.92 81.5412 2.668 81.9492 2.484C82.3652 2.3 82.8572 2.208 83.4252 2.208C84.2652 2.208 84.9252 2.416 85.4052 2.832C85.8932 3.248 86.1732 3.8 86.2452 4.488H84.3492C84.3172 4.256 84.2132 4.072 84.0372 3.936C83.8692 3.8 83.6452 3.732 83.3652 3.732C83.1252 3.732 82.9412 3.78 82.8132 3.876C82.6852 3.964 82.6212 4.088 82.6212 4.248C82.6212 4.44 82.7212 4.584 82.9212 4.68C83.1292 4.776 83.4492 4.872 83.8812 4.968C84.3772 5.096 84.7812 5.224 85.0932 5.352C85.4052 5.472 85.6772 5.672 85.9092 5.952C86.1492 6.224 86.2732 6.592 86.2812 7.056C86.2812 7.448 86.1692 7.8 85.9452 8.112C85.7292 8.416 85.4132 8.656 84.9972 8.832C84.5892 9.008 84.1132 9.096 83.5692 9.096ZM98.7086 2.304L96.8966 9H94.6286L93.5726 4.656L92.4806 9H90.2246L88.4006 2.304H90.4526L91.4006 7.092L92.5286 2.304H94.7006L95.8406 7.068L96.7766 2.304H98.7086ZM104.099 9.096C103.443 9.096 102.851 8.956 102.323 8.676C101.803 8.396 101.391 7.996 101.087 7.476C100.791 6.956 100.643 6.348 100.643 5.652C100.643 4.964 100.795 4.36 101.099 3.84C101.403 3.312 101.819 2.908 102.347 2.628C102.875 2.348 103.467 2.208 104.123 2.208C104.779 2.208 105.371 2.348 105.899 2.628C106.427 2.908 106.843 3.312 107.147 3.84C107.451 4.36 107.603 4.964 107.603 5.652C107.603 6.34 107.447 6.948 107.135 7.476C106.831 7.996 106.411 8.396 105.875 8.676C105.347 8.956 104.755 9.096 104.099 9.096ZM104.099 7.32C104.491 7.32 104.823 7.176 105.095 6.888C105.375 6.6 105.515 6.188 105.515 5.652C105.515 5.116 105.379 4.704 105.107 4.416C104.843 4.128 104.515 3.984 104.123 3.984C103.723 3.984 103.391 4.128 103.127 4.416C102.863 4.696 102.731 5.108 102.731 5.652C102.731 6.188 102.859 6.6 103.115 6.888C103.379 7.176 103.707 7.32 104.099 7.32ZM112.304 3.42C112.544 3.052 112.844 2.764 113.204 2.556C113.564 2.34 113.964 2.232 114.404 2.232V4.404H113.84C113.328 4.404 112.944 4.516 112.688 4.74C112.432 4.956 112.304 5.34 112.304 5.892V9H110.252V2.304H112.304V3.42ZM116.537 5.64C116.537 4.952 116.665 4.348 116.921 3.828C117.185 3.308 117.541 2.908 117.989 2.628C118.437 2.348 118.937 2.208 119.489 2.208C119.929 2.208 120.329 2.3 120.689 2.484C121.057 2.668 121.345 2.916 121.553 3.228V0.12H123.605V9H121.553V8.04C121.361 8.36 121.085 8.616 120.725 8.808C120.373 9 119.961 9.096 119.489 9.096C118.937 9.096 118.437 8.956 117.989 8.676C117.541 8.388 117.185 7.984 116.921 7.464C116.665 6.936 116.537 6.328 116.537 5.64ZM121.553 5.652C121.553 5.14 121.409 4.736 121.121 4.44C120.841 4.144 120.497 3.996 120.089 3.996C119.681 3.996 119.333 4.144 119.045 4.44C118.765 4.728 118.625 5.128 118.625 5.64C118.625 6.152 118.765 6.56 119.045 6.864C119.333 7.16 119.681 7.308 120.089 7.308C120.497 7.308 120.841 7.16 121.121 6.864C121.409 6.568 121.553 6.164 121.553 5.652ZM129.109 0.107999C129.965 0.107999 130.649 0.331999 131.161 0.779999C131.681 1.228 131.941 1.86 131.941 2.676C131.941 3.428 131.693 4.016 131.197 4.44C130.709 4.856 130.061 5.068 129.253 5.076L129.193 5.976H127.393L127.333 3.744H128.053C128.669 3.744 129.137 3.668 129.457 3.516C129.785 3.364 129.949 3.088 129.949 2.688C129.949 2.408 129.873 2.188 129.721 2.028C129.569 1.868 129.357 1.788 129.085 1.788C128.797 1.788 128.573 1.872 128.413 2.04C128.253 2.2 128.173 2.42 128.173 2.7H126.241C126.225 2.212 126.325 1.772 126.541 1.38C126.765 0.988 127.093 0.68 127.525 0.456C127.965 0.224 128.493 0.107999 129.109 0.107999ZM128.317 9.096C127.957 9.096 127.661 8.992 127.429 8.784C127.205 8.568 127.093 8.304 127.093 7.992C127.093 7.672 127.205 7.404 127.429 7.188C127.661 6.972 127.957 6.864 128.317 6.864C128.669 6.864 128.957 6.972 129.181 7.188C129.413 7.404 129.529 7.672 129.529 7.992C129.529 8.304 129.413 8.568 129.181 8.784C128.957 8.992 128.669 9.096 128.317 9.096Z" fill="#00008F"/>
<path d="M-0.362106 10.2H132.361V10.8H-0.362106V10.2Z" fill="#00008F"/>
</svg>
