<svg width="275" height="40" viewBox="0 0 275 40" fill="none" xmlns="http://www.w3.org/2000/svg">
<path d="M23.5179 5.304V28.248C23.5179 31.8 22.5099 34.536 20.4939 36.456C18.5099 38.376 15.8219 39.336 12.4299 39.336C8.87788 39.336 6.02988 38.328 3.88588 36.312C1.74188 34.296 0.669875 31.432 0.669875 27.72H8.82988C8.82988 29.128 9.11788 30.2 9.69388 30.936C10.2699 31.64 11.1019 31.992 12.1899 31.992C13.1819 31.992 13.9499 31.672 14.4939 31.032C15.0379 30.392 15.3099 29.464 15.3099 28.248V5.304H23.5179ZM42.3399 39.384C39.7159 39.384 37.3479 38.824 35.2359 37.704C33.1559 36.584 31.5079 34.984 30.2919 32.904C29.1079 30.824 28.5159 28.392 28.5159 25.608C28.5159 22.856 29.1239 20.44 30.3399 18.36C31.5559 16.248 33.2199 14.632 35.3319 13.512C37.4439 12.392 39.8119 11.832 42.4359 11.832C45.0599 11.832 47.4279 12.392 49.5399 13.512C51.6519 14.632 53.3159 16.248 54.5319 18.36C55.7479 20.44 56.3559 22.856 56.3559 25.608C56.3559 28.36 55.7319 30.792 54.4839 32.904C53.2679 34.984 51.5879 36.584 49.4439 37.704C47.3319 38.824 44.9639 39.384 42.3399 39.384ZM42.3399 32.28C43.9079 32.28 45.2359 31.704 46.3239 30.552C47.4439 29.4 48.0039 27.752 48.0039 25.608C48.0039 23.464 47.4599 21.816 46.3719 20.664C45.3159 19.512 44.0039 18.936 42.4359 18.936C40.8359 18.936 39.5079 19.512 38.4519 20.664C37.3959 21.784 36.8679 23.432 36.8679 25.608C36.8679 27.752 37.3799 29.4 38.4039 30.552C39.4599 31.704 40.7719 32.28 42.3399 32.28ZM87.1584 12.216V39H78.9504V35.352C78.1184 36.536 76.9824 37.496 75.5424 38.232C74.1344 38.936 72.5664 39.288 70.8384 39.288C68.7904 39.288 66.9824 38.84 65.4144 37.944C63.8464 37.016 62.6304 35.688 61.7664 33.96C60.9024 32.232 60.4704 30.2 60.4704 27.864V12.216H68.6304V26.76C68.6304 28.552 69.0944 29.944 70.0224 30.936C70.9504 31.928 72.1984 32.424 73.7664 32.424C75.3664 32.424 76.6304 31.928 77.5584 30.936C78.4864 29.944 78.9504 28.552 78.9504 26.76V12.216H87.1584ZM101.262 16.68C102.222 15.208 103.422 14.056 104.862 13.224C106.302 12.36 107.902 11.928 109.662 11.928V20.616H107.406C105.358 20.616 103.822 21.064 102.798 21.96C101.774 22.824 101.262 24.36 101.262 26.568V39H93.0541V12.216H101.262V16.68ZM129.905 11.928C133.041 11.928 135.537 12.952 137.393 15C139.281 17.016 140.225 19.8 140.225 23.352V39H132.065V24.456C132.065 22.664 131.601 21.272 130.673 20.28C129.745 19.288 128.497 18.792 126.929 18.792C125.361 18.792 124.113 19.288 123.185 20.28C122.257 21.272 121.793 22.664 121.793 24.456V39H113.585V12.216H121.793V15.768C122.625 14.584 123.745 13.656 125.153 12.984C126.561 12.28 128.145 11.928 129.905 11.928ZM144.297 25.56C144.297 22.808 144.809 20.392 145.833 18.312C146.889 16.232 148.313 14.632 150.105 13.512C151.897 12.392 153.897 11.832 156.105 11.832C157.993 11.832 159.641 12.216 161.049 12.984C162.489 13.752 163.593 14.76 164.361 16.008V12.216H172.569V39H164.361V35.208C163.561 36.456 162.441 37.464 161.001 38.232C159.593 39 157.945 39.384 156.057 39.384C153.881 39.384 151.897 38.824 150.105 37.704C148.313 36.552 146.889 34.936 145.833 32.856C144.809 30.744 144.297 28.312 144.297 25.56ZM164.361 25.608C164.361 23.56 163.785 21.944 162.633 20.76C161.513 19.576 160.137 18.984 158.505 18.984C156.873 18.984 155.481 19.576 154.329 20.76C153.209 21.912 152.649 23.512 152.649 25.56C152.649 27.608 153.209 29.24 154.329 30.456C155.481 31.64 156.873 32.232 158.505 32.232C160.137 32.232 161.513 31.64 162.633 30.456C163.785 29.272 164.361 27.656 164.361 25.608ZM186.715 32.664H197.467V39H178.507V5.304H186.715V32.664ZM205.51 9.432C204.07 9.432 202.886 9.016 201.958 8.184C201.062 7.32 200.614 6.264 200.614 5.016C200.614 3.736 201.062 2.68 201.958 1.848C202.886 0.983997 204.07 0.551997 205.51 0.551997C206.918 0.551997 208.07 0.983997 208.966 1.848C209.894 2.68 210.358 3.736 210.358 5.016C210.358 6.264 209.894 7.32 208.966 8.184C208.07 9.016 206.918 9.432 205.51 9.432ZM209.59 12.216V39H201.382V12.216H209.59ZM231.859 11.928C234.995 11.928 237.491 12.952 239.347 15C241.235 17.016 242.179 19.8 242.179 23.352V39H234.019V24.456C234.019 22.664 233.555 21.272 232.627 20.28C231.699 19.288 230.451 18.792 228.883 18.792C227.315 18.792 226.067 19.288 225.139 20.28C224.211 21.272 223.747 22.664 223.747 24.456V39H215.539V12.216H223.747V15.768C224.579 14.584 225.699 13.656 227.107 12.984C228.515 12.28 230.099 11.928 231.859 11.928ZM264.25 39L256.09 27.768V39H247.882V3.48H256.09V23.112L264.202 12.216H274.33L263.194 25.656L274.426 39H264.25Z" fill="black"/>
</svg>
