<svg width="318" height="64" viewBox="0 0 318 64" fill="none" xmlns="http://www.w3.org/2000/svg">
<g filter="url(#filter0_d_114_93)">
<rect x="4" width="310" height="56" rx="23" fill="#00008F"/>
</g>
<path d="M122.767 34.2H129.775V39H116.495V16.44H122.767V34.2ZM140.566 39.224C138.774 39.224 137.163 38.8507 135.734 38.104C134.326 37.3573 133.217 36.2907 132.406 34.904C131.595 33.5173 131.19 31.8853 131.19 30.008C131.19 28.152 131.595 26.5307 132.406 25.144C133.238 23.7573 134.358 22.6907 135.766 21.944C137.195 21.1973 138.806 20.824 140.598 20.824C142.39 20.824 143.99 21.1973 145.398 21.944C146.827 22.6907 147.947 23.7573 148.758 25.144C149.59 26.5307 150.006 28.152 150.006 30.008C150.006 31.864 149.59 33.496 148.758 34.904C147.947 36.2907 146.827 37.3573 145.398 38.104C143.969 38.8507 142.358 39.224 140.566 39.224ZM140.566 33.784C141.441 33.784 142.166 33.464 142.742 32.824C143.339 32.1627 143.638 31.224 143.638 30.008C143.638 28.792 143.339 27.864 142.742 27.224C142.166 26.584 141.451 26.264 140.598 26.264C139.745 26.264 139.03 26.584 138.454 27.224C137.878 27.864 137.59 28.792 137.59 30.008C137.59 31.2453 137.867 32.184 138.422 32.824C138.977 33.464 139.691 33.784 140.566 33.784ZM159.182 20.824C160.398 20.824 161.454 21.0693 162.35 21.56C163.267 22.0507 163.971 22.712 164.462 23.544V21.048H170.734V38.808C170.734 40.4933 170.414 42.008 169.774 43.352C169.134 44.7173 168.131 45.8053 166.766 46.616C165.422 47.4267 163.715 47.832 161.646 47.832C158.872 47.832 156.654 47.1813 154.99 45.88C153.326 44.5787 152.376 42.808 152.142 40.568H158.318C158.446 41.144 158.766 41.592 159.278 41.912C159.79 42.232 160.451 42.392 161.262 42.392C163.395 42.392 164.462 41.1973 164.462 38.808V36.504C163.971 37.336 163.267 37.9973 162.35 38.488C161.454 38.9787 160.398 39.224 159.182 39.224C157.752 39.224 156.451 38.8507 155.278 38.104C154.126 37.3573 153.208 36.2907 152.526 34.904C151.864 33.496 151.534 31.864 151.534 30.008C151.534 28.152 151.864 26.5307 152.526 25.144C153.208 23.7573 154.126 22.6907 155.278 21.944C156.451 21.1973 157.752 20.824 159.182 20.824ZM164.462 30.008C164.462 28.856 164.142 27.9493 163.502 27.288C162.883 26.6267 162.115 26.296 161.198 26.296C160.259 26.296 159.48 26.6267 158.862 27.288C158.243 27.928 157.934 28.8347 157.934 30.008C157.934 31.16 158.243 32.0773 158.862 32.76C159.48 33.4213 160.259 33.752 161.198 33.752C162.115 33.752 162.883 33.4213 163.502 32.76C164.142 32.0987 164.462 31.1813 164.462 30.008ZM177.476 19.384C176.366 19.384 175.47 19.0853 174.788 18.488C174.126 17.8693 173.796 17.1013 173.796 16.184C173.796 15.2453 174.126 14.4667 174.788 13.848C175.47 13.2293 176.366 12.92 177.476 12.92C178.564 12.92 179.438 13.2293 180.1 13.848C180.782 14.4667 181.124 15.2453 181.124 16.184C181.124 17.1013 180.782 17.8693 180.1 18.488C179.438 19.0853 178.564 19.384 177.476 19.384ZM180.58 21.048V39H174.308V21.048H180.58ZM195.895 20.888C197.965 20.888 199.607 21.5813 200.823 22.968C202.039 24.3333 202.647 26.1893 202.647 28.536V39H196.375V29.368C196.375 28.344 196.109 27.544 195.575 26.968C195.042 26.3707 194.327 26.072 193.431 26.072C192.493 26.072 191.757 26.3707 191.223 26.968C190.69 27.544 190.423 28.344 190.423 29.368V39H184.151V21.048H190.423V23.608C190.978 22.7973 191.725 22.1467 192.663 21.656C193.602 21.144 194.679 20.888 195.895 20.888Z" fill="white"/>
<defs>
<filter id="filter0_d_114_93" x="0" y="0" width="318" height="64" filterUnits="userSpaceOnUse" color-interpolation-filters="sRGB">
<feFlood flood-opacity="0" result="BackgroundImageFix"/>
<feColorMatrix in="SourceAlpha" type="matrix" values="0 0 0 0 0 0 0 0 0 0 0 0 0 0 0 0 0 0 127 0" result="hardAlpha"/>
<feOffset dy="4"/>
<feGaussianBlur stdDeviation="2"/>
<feComposite in2="hardAlpha" operator="out"/>
<feColorMatrix type="matrix" values="0 0 0 0 0 0 0 0 0 0 0 0 0 0 0 0 0 0 0.25 0"/>
<feBlend mode="normal" in2="BackgroundImageFix" result="effect1_dropShadow_114_93"/>
<feBlend mode="normal" in="SourceGraphic" in2="effect1_dropShadow_114_93" result="shape"/>
</filter>
</defs>
</svg>
