<svg width="155" height="46" viewBox="0 0 155 46" fill="none" xmlns="http://www.w3.org/2000/svg">
<path d="M33.1713 15.14C32.2513 15.14 31.4379 14.98 30.7313 14.66C30.0379 14.34 29.4913 13.8933 29.0913 13.32C28.6913 12.7467 28.4779 12.1067 28.4513 11.4H29.9313C29.9979 12.08 30.2979 12.68 30.8313 13.2C31.3646 13.7067 32.1446 13.96 33.1713 13.96C34.1179 13.96 34.8646 13.72 35.4113 13.24C35.9713 12.7467 36.2513 12.1267 36.2513 11.38C36.2513 10.78 36.0979 10.3 35.7913 9.94C35.4846 9.56667 35.1046 9.29333 34.6513 9.12C34.1979 8.93333 33.5713 8.73333 32.7713 8.52C31.8379 8.26667 31.0979 8.02 30.5513 7.78C30.0046 7.54 29.5379 7.16667 29.1513 6.66C28.7646 6.15333 28.5713 5.46667 28.5713 4.6C28.5713 3.88 28.7579 3.24 29.1313 2.68C29.5046 2.10667 30.0313 1.66 30.7113 1.34C31.3913 1.02 32.1713 0.86 33.0513 0.86C34.3446 0.86 35.3846 1.18 36.1713 1.82C36.9713 2.44667 37.4313 3.26 37.5513 4.26H36.0313C35.9379 3.68667 35.6246 3.18 35.0913 2.74C34.5579 2.28667 33.8379 2.06 32.9313 2.06C32.0913 2.06 31.3913 2.28667 30.8313 2.74C30.2713 3.18 29.9913 3.78667 29.9913 4.56C29.9913 5.14667 30.1446 5.62 30.4513 5.98C30.7579 6.34 31.1379 6.61333 31.5913 6.8C32.0579 6.98667 32.6846 7.18667 33.4713 7.4C34.3779 7.65333 35.1113 7.90667 35.6713 8.16C36.2313 8.4 36.7046 8.77333 37.0913 9.28C37.4779 9.78667 37.6713 10.4667 37.6713 11.32C37.6713 11.9733 37.4979 12.5933 37.1513 13.18C36.8046 13.7667 36.2913 14.24 35.6113 14.6C34.9313 14.96 34.1179 15.14 33.1713 15.14ZM51.5566 8.98C51.5566 9.46 51.5432 9.82667 51.5166 10.08H42.4566C42.4966 10.9067 42.6966 11.6133 43.0566 12.2C43.4166 12.7867 43.8899 13.2333 44.4766 13.54C45.0632 13.8333 45.7032 13.98 46.3966 13.98C47.3032 13.98 48.0632 13.76 48.6766 13.32C49.3032 12.88 49.7166 12.2867 49.9166 11.54H51.3966C51.1299 12.6067 50.5566 13.48 49.6766 14.16C48.8099 14.8267 47.7166 15.16 46.3966 15.16C45.3699 15.16 44.4499 14.9333 43.6366 14.48C42.8232 14.0133 42.1832 13.36 41.7166 12.52C41.2632 11.6667 41.0366 10.6733 41.0366 9.54C41.0366 8.40667 41.2632 7.41333 41.7166 6.56C42.1699 5.70667 42.8032 5.05333 43.6166 4.6C44.4299 4.14667 45.3566 3.92 46.3966 3.92C47.4366 3.92 48.3432 4.14667 49.1166 4.6C49.9032 5.05333 50.5032 5.66667 50.9166 6.44C51.3432 7.2 51.5566 8.04667 51.5566 8.98ZM50.1366 8.94C50.1499 8.12667 49.9832 7.43333 49.6366 6.86C49.3032 6.28667 48.8432 5.85333 48.2566 5.56C47.6699 5.26667 47.0299 5.12 46.3366 5.12C45.2966 5.12 44.4099 5.45333 43.6766 6.12C42.9432 6.78667 42.5366 7.72667 42.4566 8.94H50.1366ZM65.298 8.98C65.298 9.46 65.2846 9.82667 65.258 10.08H56.198C56.238 10.9067 56.438 11.6133 56.798 12.2C57.158 12.7867 57.6313 13.2333 58.218 13.54C58.8046 13.8333 59.4446 13.98 60.138 13.98C61.0446 13.98 61.8046 13.76 62.418 13.32C63.0446 12.88 63.458 12.2867 63.658 11.54H65.138C64.8713 12.6067 64.298 13.48 63.418 14.16C62.5513 14.8267 61.458 15.16 60.138 15.16C59.1113 15.16 58.1913 14.9333 57.378 14.48C56.5646 14.0133 55.9246 13.36 55.458 12.52C55.0046 11.6667 54.778 10.6733 54.778 9.54C54.778 8.40667 55.0046 7.41333 55.458 6.56C55.9113 5.70667 56.5446 5.05333 57.358 4.6C58.1713 4.14667 59.098 3.92 60.138 3.92C61.178 3.92 62.0846 4.14667 62.858 4.6C63.6446 5.05333 64.2446 5.66667 64.658 6.44C65.0846 7.2 65.298 8.04667 65.298 8.98ZM63.878 8.94C63.8913 8.12667 63.7246 7.43333 63.378 6.86C63.0446 6.28667 62.5846 5.85333 61.998 5.56C61.4113 5.26667 60.7713 5.12 60.078 5.12C59.038 5.12 58.1513 5.45333 57.418 6.12C56.6846 6.78667 56.278 7.72667 56.198 8.94H63.878ZM84.9477 4.08L78.4677 20.14H77.0077L79.1277 14.94L74.6477 4.08H76.1877L79.9077 13.4L83.5077 4.08H84.9477ZM92.9261 15.16C91.8994 15.16 90.9728 14.9333 90.1461 14.48C89.3328 14.0133 88.6861 13.36 88.2061 12.52C87.7394 11.6667 87.5061 10.6733 87.5061 9.54C87.5061 8.40667 87.7461 7.42 88.2261 6.58C88.7061 5.72667 89.3594 5.07333 90.1861 4.62C91.0128 4.15333 91.9394 3.92 92.9661 3.92C93.9928 3.92 94.9194 4.15333 95.7461 4.62C96.5861 5.07333 97.2394 5.72667 97.7061 6.58C98.1861 7.42 98.4261 8.40667 98.4261 9.54C98.4261 10.66 98.1861 11.6467 97.7061 12.5C97.2261 13.3533 96.5661 14.0133 95.7261 14.48C94.8861 14.9333 93.9528 15.16 92.9261 15.16ZM92.9261 13.94C93.6461 13.94 94.3128 13.78 94.9261 13.46C95.5394 13.1267 96.0328 12.6333 96.4061 11.98C96.7928 11.3133 96.9861 10.5 96.9861 9.54C96.9861 8.58 96.7994 7.77333 96.4261 7.12C96.0528 6.45333 95.5594 5.96 94.9461 5.64C94.3328 5.30667 93.6661 5.14 92.9461 5.14C92.2261 5.14 91.5594 5.30667 90.9461 5.64C90.3328 5.96 89.8394 6.45333 89.4661 7.12C89.1061 7.77333 88.9261 8.58 88.9261 9.54C88.9261 10.5 89.1061 11.3133 89.4661 11.98C89.8394 12.6333 90.3261 13.1267 90.9261 13.46C91.5394 13.78 92.2061 13.94 92.9261 13.94ZM111.738 4.08V15H110.338V13.08C110.018 13.76 109.525 14.28 108.858 14.64C108.191 15 107.445 15.18 106.618 15.18C105.311 15.18 104.245 14.78 103.418 13.98C102.591 13.1667 102.178 11.9933 102.178 10.46V4.08H103.558V10.3C103.558 11.4867 103.851 12.3933 104.438 13.02C105.038 13.6467 105.851 13.96 106.878 13.96C107.931 13.96 108.771 13.6267 109.398 12.96C110.025 12.2933 110.338 11.3133 110.338 10.02V4.08H111.738ZM117.634 6.02C117.941 5.34 118.408 4.81333 119.034 4.44C119.674 4.06667 120.454 3.88 121.374 3.88V5.34H120.994C119.981 5.34 119.168 5.61333 118.554 6.16C117.941 6.70667 117.634 7.62 117.634 8.9V15H116.234V4.08H117.634V6.02ZM7.42446 31.02V41.6C7.42446 42.6667 7.09779 43.5267 6.44446 44.18C5.79112 44.82 4.91779 45.14 3.82446 45.14C2.69112 45.14 1.78446 44.8 1.10446 44.12C0.43779 43.4267 0.104456 42.4933 0.104456 41.32H1.52446C1.53779 42.08 1.72446 42.7 2.08446 43.18C2.45779 43.66 3.03779 43.9 3.82446 43.9C4.57112 43.9 5.12446 43.68 5.48446 43.24C5.84446 42.8 6.02446 42.2533 6.02446 41.6V31.02H7.42446ZM17.0249 45.16C15.9983 45.16 15.0716 44.9333 14.2449 44.48C13.4316 44.0133 12.7849 43.36 12.3049 42.52C11.8383 41.6667 11.6049 40.6733 11.6049 39.54C11.6049 38.4067 11.8449 37.42 12.3249 36.58C12.8049 35.7267 13.4583 35.0733 14.2849 34.62C15.1116 34.1533 16.0383 33.92 17.0649 33.92C18.0916 33.92 19.0183 34.1533 19.8449 34.62C20.6849 35.0733 21.3383 35.7267 21.8049 36.58C22.2849 37.42 22.5249 38.4067 22.5249 39.54C22.5249 40.66 22.2849 41.6467 21.8049 42.5C21.3249 43.3533 20.6649 44.0133 19.8249 44.48C18.9849 44.9333 18.0516 45.16 17.0249 45.16ZM17.0249 43.94C17.7449 43.94 18.4116 43.78 19.0249 43.46C19.6383 43.1267 20.1316 42.6333 20.5049 41.98C20.8916 41.3133 21.0849 40.5 21.0849 39.54C21.0849 38.58 20.8983 37.7733 20.5249 37.12C20.1516 36.4533 19.6583 35.96 19.0449 35.64C18.4316 35.3067 17.7649 35.14 17.0449 35.14C16.3249 35.14 15.6583 35.3067 15.0449 35.64C14.4316 35.96 13.9383 36.4533 13.5649 37.12C13.2049 37.7733 13.0249 38.58 13.0249 39.54C13.0249 40.5 13.2049 41.3133 13.5649 41.98C13.9383 42.6333 14.4249 43.1267 15.0249 43.46C15.6383 43.78 16.3049 43.94 17.0249 43.94ZM35.837 34.08V45H34.437V43.08C34.117 43.76 33.6236 44.28 32.957 44.64C32.2903 45 31.5436 45.18 30.717 45.18C29.4103 45.18 28.3436 44.78 27.517 43.98C26.6903 43.1667 26.277 41.9933 26.277 40.46V34.08H27.657V40.3C27.657 41.4867 27.9503 42.3933 28.537 43.02C29.137 43.6467 29.9503 43.96 30.977 43.96C32.0303 43.96 32.8703 43.6267 33.497 42.96C34.1236 42.2933 34.437 41.3133 34.437 40.02V34.08H35.837ZM41.7332 36.02C42.0399 35.34 42.5065 34.8133 43.1332 34.44C43.7732 34.0667 44.5532 33.88 45.4732 33.88V35.34H45.0932C44.0799 35.34 43.2665 35.6133 42.6532 36.16C42.0399 36.7067 41.7332 37.62 41.7332 38.9V45H40.3332V34.08H41.7332V36.02ZM53.9993 33.88C55.306 33.88 56.3726 34.2867 57.1993 35.1C58.026 35.9 58.4393 37.0667 58.4393 38.6V45H57.0593V38.76C57.0593 37.5733 56.7593 36.6667 56.1593 36.04C55.5726 35.4133 54.766 35.1 53.7393 35.1C52.686 35.1 51.846 35.4333 51.2193 36.1C50.5926 36.7667 50.2793 37.7467 50.2793 39.04V45H48.8793V34.08H50.2793V35.94C50.626 35.2733 51.126 34.7667 51.7793 34.42C52.4326 34.06 53.1726 33.88 53.9993 33.88ZM62.1955 39.52C62.1955 38.4 62.4155 37.42 62.8555 36.58C63.3089 35.7267 63.9289 35.0733 64.7156 34.62C65.5156 34.1533 66.4156 33.92 67.4156 33.92C68.4556 33.92 69.3489 34.16 70.0956 34.64C70.8556 35.12 71.4022 35.7333 71.7356 36.48V34.08H73.1356V45H71.7356V42.58C71.3889 43.3267 70.8356 43.9467 70.0756 44.44C69.3289 44.92 68.4356 45.16 67.3956 45.16C66.4089 45.16 65.5156 44.9267 64.7156 44.46C63.9289 43.9933 63.3089 43.3333 62.8555 42.48C62.4155 41.6267 62.1955 40.64 62.1955 39.52ZM71.7356 39.54C71.7356 38.66 71.5556 37.8867 71.1956 37.22C70.8356 36.5533 70.3422 36.04 69.7156 35.68C69.1022 35.32 68.4222 35.14 67.6756 35.14C66.9022 35.14 66.2089 35.3133 65.5956 35.66C64.9822 36.0067 64.4956 36.5133 64.1356 37.18C63.7889 37.8333 63.6155 38.6133 63.6155 39.52C63.6155 40.4133 63.7889 41.2 64.1356 41.88C64.4956 42.5467 64.9822 43.06 65.5956 43.42C66.2089 43.7667 66.9022 43.94 67.6756 43.94C68.4222 43.94 69.1022 43.76 69.7156 43.4C70.3422 43.04 70.8356 42.5267 71.1956 41.86C71.5556 41.1933 71.7356 40.42 71.7356 39.54ZM79.0316 30.2V45H77.6316V30.2H79.0316ZM87.262 45.16C86.0086 45.16 84.982 44.8733 84.182 44.3C83.3953 43.7133 82.9553 42.92 82.862 41.92H84.302C84.3686 42.5333 84.6553 43.0333 85.162 43.42C85.682 43.7933 86.3753 43.98 87.242 43.98C88.002 43.98 88.5953 43.8 89.022 43.44C89.462 43.08 89.682 42.6333 89.682 42.1C89.682 41.7267 89.562 41.42 89.322 41.18C89.082 40.94 88.7753 40.7533 88.402 40.62C88.042 40.4733 87.5486 40.32 86.922 40.16C86.1086 39.9467 85.4486 39.7333 84.942 39.52C84.4353 39.3067 84.002 38.9933 83.642 38.58C83.2953 38.1533 83.122 37.5867 83.122 36.88C83.122 36.3467 83.282 35.8533 83.602 35.4C83.922 34.9467 84.3753 34.5867 84.962 34.32C85.5486 34.0533 86.2153 33.92 86.962 33.92C88.1353 33.92 89.082 34.22 89.802 34.82C90.522 35.4067 90.9086 36.22 90.962 37.26H89.562C89.522 36.62 89.2686 36.1067 88.802 35.72C88.3486 35.32 87.722 35.12 86.922 35.12C86.2153 35.12 85.642 35.2867 85.202 35.62C84.762 35.9533 84.542 36.3667 84.542 36.86C84.542 37.2867 84.6686 37.64 84.922 37.92C85.1886 38.1867 85.5153 38.4 85.902 38.56C86.2886 38.7067 86.8086 38.8733 87.462 39.06C88.2486 39.2733 88.8753 39.48 89.342 39.68C89.8086 39.88 90.2086 40.1733 90.542 40.56C90.8753 40.9467 91.0486 41.46 91.062 42.1C91.062 42.6867 90.902 43.2133 90.582 43.68C90.262 44.1333 89.8153 44.4933 89.242 44.76C88.6686 45.0267 88.0086 45.16 87.262 45.16ZM112.166 31.02V45H110.766V38.46H103.186V45H101.786V31.02H103.186V37.3H110.766V31.02H112.166ZM126.54 38.98C126.54 39.46 126.526 39.8267 126.5 40.08H117.44C117.48 40.9067 117.68 41.6133 118.04 42.2C118.4 42.7867 118.873 43.2333 119.46 43.54C120.046 43.8333 120.686 43.98 121.38 43.98C122.286 43.98 123.046 43.76 123.66 43.32C124.286 42.88 124.7 42.2867 124.9 41.54H126.38C126.113 42.6067 125.54 43.48 124.66 44.16C123.793 44.8267 122.7 45.16 121.38 45.16C120.353 45.16 119.433 44.9333 118.62 44.48C117.806 44.0133 117.166 43.36 116.7 42.52C116.246 41.6667 116.02 40.6733 116.02 39.54C116.02 38.4067 116.246 37.4133 116.7 36.56C117.153 35.7067 117.786 35.0533 118.6 34.6C119.413 34.1467 120.34 33.92 121.38 33.92C122.42 33.92 123.326 34.1467 124.1 34.6C124.886 35.0533 125.486 35.6667 125.9 36.44C126.326 37.2 126.54 38.0467 126.54 38.98ZM125.12 38.94C125.133 38.1267 124.966 37.4333 124.62 36.86C124.286 36.2867 123.826 35.8533 123.24 35.56C122.653 35.2667 122.013 35.12 121.32 35.12C120.28 35.12 119.393 35.4533 118.66 36.12C117.926 36.7867 117.52 37.7267 117.44 38.94H125.12ZM131.801 36.02C132.108 35.34 132.575 34.8133 133.201 34.44C133.841 34.0667 134.621 33.88 135.541 33.88V35.34H135.161C134.148 35.34 133.335 35.6133 132.721 36.16C132.108 36.7067 131.801 37.62 131.801 38.9V45H130.401V34.08H131.801V36.02ZM148.827 38.98C148.827 39.46 148.814 39.8267 148.787 40.08H139.727C139.767 40.9067 139.967 41.6133 140.327 42.2C140.687 42.7867 141.161 43.2333 141.747 43.54C142.334 43.8333 142.974 43.98 143.667 43.98C144.574 43.98 145.334 43.76 145.947 43.32C146.574 42.88 146.987 42.2867 147.187 41.54H148.667C148.401 42.6067 147.827 43.48 146.947 44.16C146.081 44.8267 144.987 45.16 143.667 45.16C142.641 45.16 141.721 44.9333 140.907 44.48C140.094 44.0133 139.454 43.36 138.987 42.52C138.534 41.6667 138.307 40.6733 138.307 39.54C138.307 38.4067 138.534 37.4133 138.987 36.56C139.441 35.7067 140.074 35.0533 140.887 34.6C141.701 34.1467 142.627 33.92 143.667 33.92C144.707 33.92 145.614 34.1467 146.387 34.6C147.174 35.0533 147.774 35.6667 148.187 36.44C148.614 37.2 148.827 38.0467 148.827 38.98ZM147.407 38.94C147.421 38.1267 147.254 37.4333 146.907 36.86C146.574 36.2867 146.114 35.8533 145.527 35.56C144.941 35.2667 144.301 35.12 143.607 35.12C142.567 35.12 141.681 35.4533 140.947 36.12C140.214 36.7867 139.807 37.7267 139.727 38.94H147.407ZM154.569 31.02L154.389 41.3H153.209L153.049 31.02H154.569ZM153.869 45.1C153.575 45.1 153.329 45 153.129 44.8C152.942 44.6 152.849 44.3533 152.849 44.06C152.849 43.7667 152.942 43.5267 153.129 43.34C153.329 43.14 153.575 43.04 153.869 43.04C154.149 43.04 154.382 43.14 154.569 43.34C154.769 43.5267 154.869 43.7667 154.869 44.06C154.869 44.3533 154.769 44.6 154.569 44.8C154.382 45 154.149 45.1 153.869 45.1Z" fill="#00008F"/>
</svg>
