<svg width="317" height="79" viewBox="0 0 317 79" fill="none" xmlns="http://www.w3.org/2000/svg">
<path d="M143.031 17.932C141.783 17.932 140.775 17.596 140.007 16.924C139.263 16.228 138.891 15.364 138.891 14.332C138.891 13.276 139.263 12.4 140.007 11.704C140.775 11.008 141.783 10.66 143.031 10.66C144.255 10.66 145.239 11.008 145.983 11.704C146.751 12.4 147.135 13.276 147.135 14.332C147.135 15.364 146.751 16.228 145.983 16.924C145.239 17.596 144.255 17.932 143.031 17.932ZM146.523 19.804V40H139.467V19.804H146.523ZM172.177 29.668C172.177 30.22 172.141 30.772 172.069 31.324H158.713C158.785 32.428 159.085 33.256 159.613 33.808C160.165 34.336 160.861 34.6 161.701 34.6C162.877 34.6 163.717 34.072 164.221 33.016H171.745C171.433 34.408 170.821 35.656 169.909 36.76C169.021 37.84 167.893 38.692 166.525 39.316C165.157 39.94 163.645 40.252 161.989 40.252C159.997 40.252 158.221 39.832 156.661 38.992C155.125 38.152 153.913 36.952 153.025 35.392C152.161 33.832 151.729 31.996 151.729 29.884C151.729 27.772 152.161 25.948 153.025 24.412C153.889 22.852 155.089 21.652 156.625 20.812C158.185 19.972 159.973 19.552 161.989 19.552C163.981 19.552 165.745 19.96 167.281 20.776C168.817 21.592 170.017 22.768 170.881 24.304C171.745 25.816 172.177 27.604 172.177 29.668ZM164.977 27.904C164.977 27.04 164.689 26.368 164.113 25.888C163.537 25.384 162.817 25.132 161.953 25.132C161.089 25.132 160.381 25.372 159.829 25.852C159.277 26.308 158.917 26.992 158.749 27.904H164.977ZM207.249 19.804L202.101 40H194.181L191.373 27.76L188.457 40H180.573L175.461 19.804H182.481L184.749 33.196L187.737 19.804H195.297L198.393 33.232L200.625 19.804H207.249Z" fill="#00008F"/>
<path d="M131.417 6.00424C128.848 6.24721 123.742 7.13158 120.591 10.3472C120.373 10.5691 120.25 10.9636 120.25 11.3761V39.8033C120.25 40.7056 120.842 41.2759 121.341 40.8572C124.584 38.1369 129.274 37.3947 131.593 37.1916C132.385 37.1221 133 36.0643 133 34.7963V8.40267C133 7.01908 132.28 5.92299 131.417 6.00424ZM118.409 10.3472C115.258 7.13158 110.152 6.24799 107.583 6.00424C106.72 5.92299 106 7.01908 106 8.40267V34.7971C106 36.0658 106.615 37.1236 107.407 37.1924C109.727 37.3955 114.419 38.1385 117.662 40.8603C118.16 41.2783 118.75 40.7088 118.75 39.8088V11.362C118.75 10.9487 118.627 10.5698 118.409 10.3472Z" fill="#00008F"/>
<path d="M97.851 51.62V68.432C97.851 71.288 97.071 73.472 95.511 74.984C93.975 76.496 91.851 77.252 89.139 77.252C86.259 77.252 83.955 76.448 82.227 74.84C80.523 73.232 79.671 70.916 79.671 67.892H86.655C86.679 69.884 87.411 70.88 88.851 70.88C90.147 70.88 90.795 70.064 90.795 68.432V51.62H97.851ZM113.798 77.252C111.782 77.252 109.97 76.832 108.362 75.992C106.778 75.152 105.53 73.952 104.618 72.392C103.706 70.832 103.25 68.996 103.25 66.884C103.25 64.796 103.706 62.972 104.618 61.412C105.554 59.852 106.814 58.652 108.398 57.812C110.006 56.972 111.818 56.552 113.834 56.552C115.85 56.552 117.65 56.972 119.234 57.812C120.842 58.652 122.102 59.852 123.014 61.412C123.95 62.972 124.418 64.796 124.418 66.884C124.418 68.972 123.95 70.808 123.014 72.392C122.102 73.952 120.842 75.152 119.234 75.992C117.626 76.832 115.814 77.252 113.798 77.252ZM113.798 71.132C114.782 71.132 115.598 70.772 116.246 70.052C116.918 69.308 117.254 68.252 117.254 66.884C117.254 65.516 116.918 64.472 116.246 63.752C115.598 63.032 114.794 62.672 113.834 62.672C112.874 62.672 112.07 63.032 111.422 63.752C110.774 64.472 110.45 65.516 110.45 66.884C110.45 68.276 110.762 69.332 111.386 70.052C112.01 70.772 112.814 71.132 113.798 71.132ZM150.293 56.804V77H143.201V74.12C142.601 75.032 141.773 75.776 140.717 76.352C139.661 76.904 138.449 77.18 137.081 77.18C134.729 77.18 132.869 76.412 131.501 74.876C130.157 73.316 129.485 71.204 129.485 68.54V56.804H136.505V67.64C136.505 68.792 136.805 69.704 137.405 70.376C138.029 71.024 138.845 71.348 139.853 71.348C140.885 71.348 141.701 71.024 142.301 70.376C142.901 69.704 143.201 68.792 143.201 67.64V56.804H150.293ZM163.705 60.368C164.497 59.216 165.457 58.304 166.585 57.632C167.713 56.96 168.925 56.624 170.221 56.624V64.148H168.241C166.705 64.148 165.565 64.448 164.821 65.048C164.077 65.648 163.705 66.692 163.705 68.18V77H156.649V56.804H163.705V60.368ZM188.302 56.624C190.63 56.624 192.478 57.404 193.846 58.964C195.214 60.5 195.898 62.588 195.898 65.228V77H188.842V66.164C188.842 65.012 188.542 64.112 187.942 63.464C187.342 62.792 186.538 62.456 185.53 62.456C184.474 62.456 183.646 62.792 183.046 63.464C182.446 64.112 182.146 65.012 182.146 66.164V77H175.09V56.804H182.146V59.684C182.77 58.772 183.61 58.04 184.666 57.488C185.722 56.912 186.934 56.624 188.302 56.624ZM200.958 66.884C200.958 64.796 201.33 62.972 202.074 61.412C202.842 59.852 203.874 58.652 205.17 57.812C206.49 56.972 207.954 56.552 209.562 56.552C210.954 56.552 212.154 56.828 213.162 57.38C214.17 57.932 214.95 58.676 215.502 59.612V56.804H222.558V77H215.502V74.192C214.95 75.128 214.158 75.872 213.126 76.424C212.118 76.976 210.93 77.252 209.562 77.252C207.954 77.252 206.49 76.832 205.17 75.992C203.874 75.152 202.842 73.952 202.074 72.392C201.33 70.808 200.958 68.972 200.958 66.884ZM215.502 66.884C215.502 65.588 215.142 64.568 214.422 63.824C213.726 63.08 212.862 62.708 211.83 62.708C210.774 62.708 209.898 63.08 209.202 63.824C208.506 64.544 208.158 65.564 208.158 66.884C208.158 68.18 208.506 69.212 209.202 69.98C209.898 70.724 210.774 71.096 211.83 71.096C212.862 71.096 213.726 70.724 214.422 69.98C215.142 69.236 215.502 68.204 215.502 66.884ZM235.975 50.36V77H228.919V50.36H235.975Z" fill="#00008F"/>
</svg>
