<svg width="291" height="46" viewBox="0 0 291 46" fill="none" xmlns="http://www.w3.org/2000/svg">
<g filter="url(#filter0_d_123_370)">
<rect x="4" width="283" height="38" rx="14" fill="#00008F"/>
</g>
<path d="M253.109 7C259.799 7 265.219 12.4199 265.219 19.1094C265.219 25.7988 259.799 31.2188 253.109 31.2188C246.42 31.2188 241 25.7988 241 19.1094C241 12.4199 246.42 7 253.109 7ZM251.698 14.0117L255.385 17.5469H246.469C245.819 17.5469 245.297 18.0693 245.297 18.7188V19.5C245.297 20.1494 245.819 20.6719 246.469 20.6719H255.385L251.698 24.207C251.225 24.6611 251.215 25.418 251.679 25.8818L252.216 26.4141C252.675 26.873 253.417 26.873 253.871 26.4141L260.351 19.9395C260.81 19.4805 260.81 18.7383 260.351 18.2842L253.871 11.7998C253.412 11.3408 252.67 11.3408 252.216 11.7998L251.679 12.332C251.215 12.8008 251.225 13.5576 251.698 14.0117Z" fill="white"/>
<path d="M23.3114 22.872H18.8634L18.1274 25H15.7754L19.7914 13.816H22.3994L26.4154 25H24.0474L23.3114 22.872ZM22.7034 21.08L21.0874 16.408L19.4714 21.08H22.7034ZM30.1565 17.432C30.4445 17.0053 30.8392 16.6587 31.3405 16.392C31.8525 16.1253 32.4338 15.992 33.0845 15.992C33.8418 15.992 34.5245 16.1787 35.1325 16.552C35.7512 16.9253 36.2365 17.4587 36.5885 18.152C36.9512 18.8347 37.1325 19.6293 37.1325 20.536C37.1325 21.4427 36.9512 22.248 36.5885 22.952C36.2365 23.6453 35.7512 24.184 35.1325 24.568C34.5245 24.952 33.8418 25.144 33.0845 25.144C32.4232 25.144 31.8418 25.016 31.3405 24.76C30.8498 24.4933 30.4552 24.152 30.1565 23.736V25H27.9165V13.16H30.1565V17.432ZM34.8445 20.536C34.8445 20.0027 34.7325 19.544 34.5085 19.16C34.2952 18.7653 34.0072 18.4667 33.6445 18.264C33.2925 18.0613 32.9085 17.96 32.4925 17.96C32.0872 17.96 31.7032 18.0667 31.3405 18.28C30.9885 18.4827 30.7005 18.7813 30.4765 19.176C30.2632 19.5707 30.1565 20.0347 30.1565 20.568C30.1565 21.1013 30.2632 21.5653 30.4765 21.96C30.7005 22.3547 30.9885 22.6587 31.3405 22.872C31.7032 23.0747 32.0872 23.176 32.4925 23.176C32.9085 23.176 33.2925 23.0693 33.6445 22.856C34.0072 22.6427 34.2952 22.3387 34.5085 21.944C34.7325 21.5493 34.8445 21.08 34.8445 20.536ZM42.6963 25.144C41.8429 25.144 41.0749 24.9573 40.3923 24.584C39.7096 24.2 39.1709 23.6613 38.7763 22.968C38.3923 22.2747 38.2003 21.4747 38.2003 20.568C38.2003 19.6613 38.3976 18.8613 38.7923 18.168C39.1976 17.4747 39.7469 16.9413 40.4403 16.568C41.1336 16.184 41.9069 15.992 42.7603 15.992C43.6136 15.992 44.3869 16.184 45.0803 16.568C45.7736 16.9413 46.3176 17.4747 46.7123 18.168C47.1176 18.8613 47.3203 19.6613 47.3203 20.568C47.3203 21.4747 47.1123 22.2747 46.6962 22.968C46.2909 23.6613 45.7363 24.2 45.0323 24.584C44.3389 24.9573 43.5603 25.144 42.6963 25.144ZM42.6963 23.192C43.1016 23.192 43.4803 23.096 43.8323 22.904C44.1949 22.7013 44.4829 22.4027 44.6963 22.008C44.9096 21.6133 45.0163 21.1333 45.0163 20.568C45.0163 19.7253 44.7923 19.08 44.3443 18.632C43.9069 18.1733 43.3683 17.944 42.7283 17.944C42.0883 17.944 41.5496 18.1733 41.1123 18.632C40.6856 19.08 40.4723 19.7253 40.4723 20.568C40.4723 21.4107 40.6803 22.0613 41.0963 22.52C41.5229 22.968 42.0563 23.192 42.6963 23.192ZM57.3314 16.136V25H55.0754V23.88C54.7874 24.264 54.4087 24.568 53.9394 24.792C53.4807 25.0053 52.9794 25.112 52.4354 25.112C51.742 25.112 51.1287 24.968 50.5954 24.68C50.062 24.3813 49.6407 23.9493 49.3314 23.384C49.0327 22.808 48.8834 22.1253 48.8834 21.336V16.136H51.1234V21.016C51.1234 21.72 51.2994 22.264 51.6514 22.648C52.0034 23.0213 52.4834 23.208 53.0914 23.208C53.71 23.208 54.1954 23.0213 54.5474 22.648C54.8994 22.264 55.0754 21.72 55.0754 21.016V16.136H57.3314ZM62.1495 17.976V22.264C62.1495 22.5627 62.2188 22.7813 62.3575 22.92C62.5068 23.048 62.7522 23.112 63.0935 23.112H64.1335V25H62.7255C60.8375 25 59.8935 24.0827 59.8935 22.248V17.976H58.8375V16.136H59.8935V13.944H62.1495V16.136H64.1335V17.976H62.1495Z" fill="white"/>
<defs>
<filter id="filter0_d_123_370" x="0" y="0" width="291" height="46" filterUnits="userSpaceOnUse" color-interpolation-filters="sRGB">
<feFlood flood-opacity="0" result="BackgroundImageFix"/>
<feColorMatrix in="SourceAlpha" type="matrix" values="0 0 0 0 0 0 0 0 0 0 0 0 0 0 0 0 0 0 127 0" result="hardAlpha"/>
<feOffset dy="4"/>
<feGaussianBlur stdDeviation="2"/>
<feComposite in2="hardAlpha" operator="out"/>
<feColorMatrix type="matrix" values="0 0 0 0 0 0 0 0 0 0 0 0 0 0 0 0 0 0 0.25 0"/>
<feBlend mode="normal" in2="BackgroundImageFix" result="effect1_dropShadow_123_370"/>
<feBlend mode="normal" in="SourceGraphic" in2="effect1_dropShadow_123_370" result="shape"/>
</filter>
</defs>
</svg>
