<svg width="167" height="28" viewBox="0 0 167 28" fill="none" xmlns="http://www.w3.org/2000/svg">
<path d="M18.4001 22.86H9.40013L8.03213 27H0.616125L9.86813 1.62H18.0041L27.2201 27H19.7681L18.4001 22.86ZM16.6361 17.46L13.9001 9.252L11.2001 17.46H16.6361ZM36.5759 9.612C37.1279 8.652 37.9079 7.908 38.9159 7.38C39.9239 6.828 41.1119 6.552 42.4799 6.552C44.0879 6.552 45.5399 6.972 46.8359 7.812C48.1559 8.652 49.1879 9.852 49.9319 11.412C50.6999 12.972 51.0839 14.796 51.0839 16.884C51.0839 18.972 50.6999 20.808 49.9319 22.392C49.1879 23.952 48.1559 25.152 46.8359 25.992C45.5399 26.832 44.0879 27.252 42.4799 27.252C41.1119 27.252 39.9239 26.988 38.9159 26.46C37.9079 25.908 37.1279 25.152 36.5759 24.192V27H29.5199V0.36H36.5759V9.612ZM43.9199 16.884C43.9199 15.564 43.5599 14.544 42.8399 13.824C42.1439 13.08 41.2799 12.708 40.2479 12.708C39.2159 12.708 38.3399 13.08 37.6199 13.824C36.9239 14.568 36.5759 15.588 36.5759 16.884C36.5759 18.204 36.9239 19.236 37.6199 19.98C38.3399 20.724 39.2159 21.096 40.2479 21.096C41.2799 21.096 42.1439 20.724 42.8399 19.98C43.5599 19.212 43.9199 18.18 43.9199 16.884ZM63.3847 27.252C61.3687 27.252 59.5567 26.832 57.9487 25.992C56.3647 25.152 55.1167 23.952 54.2047 22.392C53.2927 20.832 52.8367 18.996 52.8367 16.884C52.8367 14.796 53.2927 12.972 54.2047 11.412C55.1407 9.852 56.4007 8.652 57.9847 7.812C59.5927 6.972 61.4047 6.552 63.4207 6.552C65.4367 6.552 67.2367 6.972 68.8207 7.812C70.4287 8.652 71.6887 9.852 72.6007 11.412C73.5367 12.972 74.0047 14.796 74.0047 16.884C74.0047 18.972 73.5367 20.808 72.6007 22.392C71.6887 23.952 70.4287 25.152 68.8207 25.992C67.2127 26.832 65.4007 27.252 63.3847 27.252ZM63.3847 21.132C64.3687 21.132 65.1847 20.772 65.8327 20.052C66.5047 19.308 66.8407 18.252 66.8407 16.884C66.8407 15.516 66.5047 14.472 65.8327 13.752C65.1847 13.032 64.3807 12.672 63.4207 12.672C62.4607 12.672 61.6567 13.032 61.0087 13.752C60.3607 14.472 60.0367 15.516 60.0367 16.884C60.0367 18.276 60.3487 19.332 60.9727 20.052C61.5967 20.772 62.4007 21.132 63.3847 21.132ZM97.5394 6.804V27H90.4474V24.12C89.8474 25.032 89.0194 25.776 87.9634 26.352C86.9074 26.904 85.6954 27.18 84.3274 27.18C81.9754 27.18 80.1154 26.412 78.7474 24.876C77.4034 23.316 76.7314 21.204 76.7314 18.54V6.804H83.7514V17.64C83.7514 18.792 84.0514 19.704 84.6514 20.376C85.2754 21.024 86.0914 21.348 87.0994 21.348C88.1314 21.348 88.9474 21.024 89.5474 20.376C90.1474 19.704 90.4474 18.792 90.4474 17.64V6.804H97.5394ZM113.471 20.988V27H110.411C105.251 27 102.671 24.444 102.671 19.332V12.672H100.187V6.804H102.671V1.908H109.763V6.804H113.435V12.672H109.763V19.44C109.763 19.992 109.883 20.388 110.123 20.628C110.387 20.868 110.819 20.988 111.419 20.988H113.471ZM130.51 1.62V16.344C130.51 17.712 130.822 18.768 131.446 19.512C132.094 20.256 133.066 20.628 134.362 20.628C135.658 20.628 136.63 20.256 137.278 19.512C137.95 18.744 138.286 17.688 138.286 16.344V1.62H145.342V16.344C145.342 18.672 144.85 20.664 143.866 22.32C142.882 23.952 141.538 25.188 139.834 26.028C138.154 26.844 136.282 27.252 134.218 27.252C132.154 27.252 130.306 26.844 128.674 26.028C127.066 25.188 125.794 23.952 124.858 22.32C123.946 20.688 123.49 18.696 123.49 16.344V1.62H130.51ZM157.831 27.252C156.007 27.252 154.375 26.952 152.935 26.352C151.519 25.728 150.391 24.888 149.551 23.832C148.735 22.752 148.279 21.54 148.183 20.196H155.023C155.119 20.844 155.419 21.348 155.923 21.708C156.427 22.068 157.051 22.248 157.795 22.248C158.371 22.248 158.827 22.128 159.163 21.888C159.499 21.648 159.667 21.336 159.667 20.952C159.667 20.448 159.391 20.076 158.839 19.836C158.287 19.596 157.375 19.332 156.103 19.044C154.663 18.756 153.463 18.432 152.503 18.072C151.543 17.712 150.703 17.124 149.983 16.308C149.287 15.492 148.939 14.388 148.939 12.996C148.939 11.796 149.263 10.716 149.911 9.756C150.559 8.772 151.507 7.992 152.755 7.416C154.027 6.84 155.551 6.552 157.327 6.552C159.967 6.552 162.043 7.2 163.555 8.496C165.067 9.792 165.943 11.496 166.183 13.608H159.811C159.691 12.96 159.403 12.468 158.947 12.132C158.515 11.772 157.927 11.592 157.183 11.592C156.607 11.592 156.163 11.7 155.851 11.916C155.563 12.132 155.419 12.432 155.419 12.816C155.419 13.296 155.695 13.668 156.247 13.932C156.799 14.172 157.687 14.424 158.911 14.688C160.375 15 161.587 15.348 162.547 15.732C163.531 16.116 164.383 16.74 165.103 17.604C165.847 18.444 166.219 19.596 166.219 21.06C166.219 22.236 165.871 23.292 165.175 24.228C164.503 25.164 163.531 25.908 162.259 26.46C161.011 26.988 159.535 27.252 157.831 27.252Z" fill="#00008F"/>
</svg>
