<svg width="21" height="21" viewBox="0 0 21 21" fill="none" xmlns="http://www.w3.org/2000/svg">
<path d="M2.19388 21C1.63623 21 1.07861 20.7946 0.638363 20.3545C-0.212788 19.5037 -0.212788 18.0954 0.638363 17.2445L17.2505 0.638143C18.1017 -0.212714 19.5105 -0.212714 20.3616 0.638143C21.2128 1.489 21.2128 2.89732 20.3616 3.74817L3.74944 20.3545C3.33854 20.7946 2.75153 21 2.19388 21Z" fill="white"/>
<path d="M18.8061 21C18.2484 21 17.6908 20.7946 17.2505 20.3545L0.638363 3.74817C-0.212788 2.89732 -0.212788 1.489 0.638363 0.638143C1.48948 -0.212714 2.89829 -0.212714 3.74944 0.638143L20.3616 17.2445C21.2128 18.0954 21.2128 19.5037 20.3616 20.3545C19.9214 20.7946 19.3637 21 18.8061 21Z" fill="white"/>
</svg>
