<svg width="194" height="23" viewBox="0 0 194 23" fill="none" xmlns="http://www.w3.org/2000/svg">
<path d="M13.5285 1.644V17H10.4485V10.466H3.87046V17H0.790461V1.644H3.87046V7.958H10.4485V1.644H13.5285ZM27.89 10.642C27.89 11.082 27.8607 11.478 27.802 11.83H18.892C18.9653 12.71 19.2733 13.3993 19.816 13.898C20.3587 14.3967 21.026 14.646 21.818 14.646C22.962 14.646 23.776 14.1547 24.26 13.172H27.582C27.23 14.3453 26.5553 15.3133 25.558 16.076C24.5607 16.824 23.336 17.198 21.884 17.198C20.7107 17.198 19.6547 16.9413 18.716 16.428C17.792 15.9 17.066 15.1593 16.538 14.206C16.0247 13.2527 15.768 12.1527 15.768 10.906C15.768 9.64467 16.0247 8.53733 16.538 7.584C17.0513 6.63067 17.77 5.89733 18.694 5.384C19.618 4.87067 20.6813 4.614 21.884 4.614C23.0427 4.614 24.0767 4.86333 24.986 5.362C25.91 5.86067 26.6213 6.572 27.12 7.496C27.6333 8.40533 27.89 9.454 27.89 10.642ZM24.7 9.762C24.6853 8.97 24.3993 8.33933 23.842 7.87C23.2847 7.386 22.6027 7.144 21.796 7.144C21.0333 7.144 20.388 7.37867 19.86 7.848C19.3467 8.30267 19.0313 8.94067 18.914 9.762H24.7ZM33.2181 0.72V17H30.1381V0.72H33.2181ZM39.3412 6.572C39.7372 6.01467 40.2798 5.55267 40.9692 5.186C41.6732 4.80467 42.4725 4.614 43.3672 4.614C44.4085 4.614 45.3472 4.87067 46.1832 5.384C47.0338 5.89733 47.7012 6.63067 48.1852 7.584C48.6838 8.52267 48.9332 9.61533 48.9332 10.862C48.9332 12.1087 48.6838 13.216 48.1852 14.184C47.7012 15.1373 47.0338 15.878 46.1832 16.406C45.3472 16.934 44.4085 17.198 43.3672 17.198C42.4725 17.198 41.6805 17.0147 40.9912 16.648C40.3165 16.2813 39.7665 15.8193 39.3412 15.262V22.808H36.2612V4.812H39.3412V6.572ZM45.7872 10.862C45.7872 10.1287 45.6332 9.498 45.3252 8.97C45.0318 8.42733 44.6358 8.01667 44.1372 7.738C43.6532 7.45933 43.1252 7.32 42.5532 7.32C41.9958 7.32 41.4678 7.46667 40.9692 7.76C40.4852 8.03867 40.0892 8.44933 39.7812 8.992C39.4878 9.53467 39.3412 10.1727 39.3412 10.906C39.3412 11.6393 39.4878 12.2773 39.7812 12.82C40.0892 13.3627 40.4852 13.7807 40.9692 14.074C41.4678 14.3527 41.9958 14.492 42.5532 14.492C43.1252 14.492 43.6532 14.3453 44.1372 14.052C44.6358 13.7587 45.0318 13.3407 45.3252 12.798C45.6332 12.2553 45.7872 11.61 45.7872 10.862ZM55.6215 10.862C55.6215 9.63 55.8635 8.53733 56.3475 7.584C56.8462 6.63067 57.5135 5.89733 58.3495 5.384C59.2002 4.87067 60.1462 4.614 61.1875 4.614C62.0968 4.614 62.8888 4.79733 63.5635 5.164C64.2528 5.53067 64.8028 5.99267 65.2135 6.55V4.812H68.3155V17H65.2135V15.218C64.8175 15.79 64.2675 16.2667 63.5635 16.648C62.8742 17.0147 62.0748 17.198 61.1655 17.198C60.1388 17.198 59.2002 16.934 58.3495 16.406C57.5135 15.878 56.8462 15.1373 56.3475 14.184C55.8635 13.216 55.6215 12.1087 55.6215 10.862ZM65.2135 10.906C65.2135 10.158 65.0668 9.52 64.7735 8.992C64.4802 8.44933 64.0842 8.03867 63.5855 7.76C63.0868 7.46667 62.5515 7.32 61.9795 7.32C61.4075 7.32 60.8795 7.45933 60.3955 7.738C59.9115 8.01667 59.5155 8.42733 59.2075 8.97C58.9142 9.498 58.7675 10.1287 58.7675 10.862C58.7675 11.5953 58.9142 12.2407 59.2075 12.798C59.5155 13.3407 59.9115 13.7587 60.3955 14.052C60.8942 14.3453 61.4222 14.492 61.9795 14.492C62.5515 14.492 63.0868 14.3527 63.5855 14.074C64.0842 13.7807 64.4802 13.37 64.7735 12.842C65.0668 12.2993 65.2135 11.654 65.2135 10.906ZM78.0777 4.636C79.5297 4.636 80.703 5.098 81.5977 6.022C82.4923 6.93133 82.9397 8.20733 82.9397 9.85V17H79.8597V10.268C79.8597 9.3 79.6177 8.55933 79.1337 8.046C78.6497 7.518 77.9897 7.254 77.1537 7.254C76.303 7.254 75.6283 7.518 75.1297 8.046C74.6457 8.55933 74.4037 9.3 74.4037 10.268V17H71.3237V4.812H74.4037V6.33C74.8143 5.802 75.335 5.39133 75.9657 5.098C76.611 4.79 77.315 4.636 78.0777 4.636ZM85.0766 10.862C85.0766 9.63 85.3186 8.53733 85.8026 7.584C86.3013 6.63067 86.9759 5.89733 87.8266 5.384C88.6773 4.87067 89.6233 4.614 90.6646 4.614C91.4566 4.614 92.2119 4.79 92.9306 5.142C93.6493 5.47933 94.2213 5.934 94.6466 6.506V0.72H97.7706V17H94.6466V15.196C94.2653 15.7973 93.7299 16.2813 93.0406 16.648C92.3513 17.0147 91.5519 17.198 90.6426 17.198C89.6159 17.198 88.6773 16.934 87.8266 16.406C86.9759 15.878 86.3013 15.1373 85.8026 14.184C85.3186 13.216 85.0766 12.1087 85.0766 10.862ZM94.6686 10.906C94.6686 10.158 94.5219 9.52 94.2286 8.992C93.9353 8.44933 93.5393 8.03867 93.0406 7.76C92.5419 7.46667 92.0066 7.32 91.4346 7.32C90.8626 7.32 90.3346 7.45933 89.8506 7.738C89.3666 8.01667 88.9706 8.42733 88.6626 8.97C88.3693 9.498 88.2226 10.1287 88.2226 10.862C88.2226 11.5953 88.3693 12.2407 88.6626 12.798C88.9706 13.3407 89.3666 13.7587 89.8506 14.052C90.3493 14.3453 90.8773 14.492 91.4346 14.492C92.0066 14.492 92.5419 14.3527 93.0406 14.074C93.5393 13.7807 93.9353 13.37 94.2286 12.842C94.5219 12.2993 94.6686 11.654 94.6686 10.906ZM111.323 17.154C110.252 17.154 109.284 16.9707 108.419 16.604C107.568 16.2373 106.894 15.7093 106.395 15.02C105.896 14.3307 105.64 13.5167 105.625 12.578H108.925C108.969 13.2087 109.189 13.7073 109.585 14.074C109.996 14.4407 110.553 14.624 111.257 14.624C111.976 14.624 112.54 14.4553 112.951 14.118C113.362 13.766 113.567 13.3113 113.567 12.754C113.567 12.2993 113.428 11.9253 113.149 11.632C112.87 11.3387 112.518 11.1113 112.093 10.95C111.682 10.774 111.11 10.5833 110.377 10.378C109.38 10.0847 108.566 9.79867 107.935 9.52C107.319 9.22667 106.784 8.794 106.329 8.222C105.889 7.63533 105.669 6.858 105.669 5.89C105.669 4.98067 105.896 4.18867 106.351 3.514C106.806 2.83933 107.444 2.326 108.265 1.974C109.086 1.60733 110.025 1.424 111.081 1.424C112.665 1.424 113.948 1.81267 114.931 2.59C115.928 3.35267 116.478 4.42333 116.581 5.802H113.193C113.164 5.274 112.936 4.84133 112.511 4.504C112.1 4.152 111.55 3.976 110.861 3.976C110.26 3.976 109.776 4.13 109.409 4.438C109.057 4.746 108.881 5.19333 108.881 5.78C108.881 6.19067 109.013 6.53533 109.277 6.814C109.556 7.078 109.893 7.298 110.289 7.474C110.7 7.63533 111.272 7.826 112.005 8.046C113.002 8.33933 113.816 8.63267 114.447 8.926C115.078 9.21933 115.62 9.65933 116.075 10.246C116.53 10.8327 116.757 11.6027 116.757 12.556C116.757 13.3773 116.544 14.14 116.119 14.844C115.694 15.548 115.07 16.1127 114.249 16.538C113.428 16.9487 112.452 17.154 111.323 17.154ZM130.933 4.812V17H127.831V15.46C127.435 15.988 126.915 16.406 126.269 16.714C125.639 17.0073 124.949 17.154 124.201 17.154C123.248 17.154 122.405 16.956 121.671 16.56C120.938 16.1493 120.359 15.5553 119.933 14.778C119.523 13.986 119.317 13.0473 119.317 11.962V4.812H122.397V11.522C122.397 12.49 122.639 13.238 123.123 13.766C123.607 14.2793 124.267 14.536 125.103 14.536C125.954 14.536 126.621 14.2793 127.105 13.766C127.589 13.238 127.831 12.49 127.831 11.522V4.812H130.933ZM137.052 6.572C137.448 6.01467 137.991 5.55267 138.68 5.186C139.384 4.80467 140.183 4.614 141.078 4.614C142.119 4.614 143.058 4.87067 143.894 5.384C144.745 5.89733 145.412 6.63067 145.896 7.584C146.395 8.52267 146.644 9.61533 146.644 10.862C146.644 12.1087 146.395 13.216 145.896 14.184C145.412 15.1373 144.745 15.878 143.894 16.406C143.058 16.934 142.119 17.198 141.078 17.198C140.183 17.198 139.391 17.0147 138.702 16.648C138.027 16.2813 137.477 15.8193 137.052 15.262V22.808H133.972V4.812H137.052V6.572ZM143.498 10.862C143.498 10.1287 143.344 9.498 143.036 8.97C142.743 8.42733 142.347 8.01667 141.848 7.738C141.364 7.45933 140.836 7.32 140.264 7.32C139.707 7.32 139.179 7.46667 138.68 7.76C138.196 8.03867 137.8 8.44933 137.492 8.992C137.199 9.53467 137.052 10.1727 137.052 10.906C137.052 11.6393 137.199 12.2773 137.492 12.82C137.8 13.3627 138.196 13.7807 138.68 14.074C139.179 14.3527 139.707 14.492 140.264 14.492C140.836 14.492 141.364 14.3453 141.848 14.052C142.347 13.7587 142.743 13.3407 143.036 12.798C143.344 12.2553 143.498 11.61 143.498 10.862ZM151.962 6.572C152.358 6.01467 152.901 5.55267 153.59 5.186C154.294 4.80467 155.094 4.614 155.988 4.614C157.03 4.614 157.968 4.87067 158.804 5.384C159.655 5.89733 160.322 6.63067 160.806 7.584C161.305 8.52267 161.554 9.61533 161.554 10.862C161.554 12.1087 161.305 13.216 160.806 14.184C160.322 15.1373 159.655 15.878 158.804 16.406C157.968 16.934 157.03 17.198 155.988 17.198C155.094 17.198 154.302 17.0147 153.612 16.648C152.938 16.2813 152.388 15.8193 151.962 15.262V22.808H148.882V4.812H151.962V6.572ZM158.408 10.862C158.408 10.1287 158.254 9.498 157.946 8.97C157.653 8.42733 157.257 8.01667 156.758 7.738C156.274 7.45933 155.746 7.32 155.174 7.32C154.617 7.32 154.089 7.46667 153.59 7.76C153.106 8.03867 152.71 8.44933 152.402 8.992C152.109 9.53467 151.962 10.1727 151.962 10.906C151.962 11.6393 152.109 12.2773 152.402 12.82C152.71 13.3627 153.106 13.7807 153.59 14.074C154.089 14.3527 154.617 14.492 155.174 14.492C155.746 14.492 156.274 14.3453 156.758 14.052C157.257 13.7587 157.653 13.3407 157.946 12.798C158.254 12.2553 158.408 11.61 158.408 10.862ZM169.204 17.198C168.031 17.198 166.975 16.9413 166.036 16.428C165.098 15.9 164.357 15.1593 163.814 14.206C163.286 13.2527 163.022 12.1527 163.022 10.906C163.022 9.65933 163.294 8.55933 163.836 7.606C164.394 6.65267 165.149 5.91933 166.102 5.406C167.056 4.878 168.119 4.614 169.292 4.614C170.466 4.614 171.529 4.878 172.482 5.406C173.436 5.91933 174.184 6.65267 174.726 7.606C175.284 8.55933 175.562 9.65933 175.562 10.906C175.562 12.1527 175.276 13.2527 174.704 14.206C174.147 15.1593 173.384 15.9 172.416 16.428C171.463 16.9413 170.392 17.198 169.204 17.198ZM169.204 14.514C169.762 14.514 170.282 14.382 170.766 14.118C171.265 13.8393 171.661 13.4287 171.954 12.886C172.248 12.3433 172.394 11.6833 172.394 10.906C172.394 9.74733 172.086 8.86 171.47 8.244C170.869 7.61333 170.128 7.298 169.248 7.298C168.368 7.298 167.628 7.61333 167.026 8.244C166.44 8.86 166.146 9.74733 166.146 10.906C166.146 12.0647 166.432 12.9593 167.004 13.59C167.591 14.206 168.324 14.514 169.204 14.514ZM180.902 6.704C181.298 6.05867 181.811 5.55267 182.442 5.186C183.087 4.81933 183.82 4.636 184.642 4.636V7.87H183.828C182.86 7.87 182.126 8.09733 181.628 8.552C181.144 9.00667 180.902 9.79867 180.902 10.928V17H177.822V4.812H180.902V6.704ZM190.302 7.342V13.238C190.302 13.6487 190.398 13.9493 190.588 14.14C190.794 14.316 191.131 14.404 191.6 14.404H193.03V17H191.094C188.498 17 187.2 15.7387 187.2 13.216V7.342H185.748V4.812H187.2V1.798H190.302V4.812H193.03V7.342H190.302Z" fill="black"/>
</svg>
