<svg width="140" height="19" viewBox="0 0 140 19" fill="none" xmlns="http://www.w3.org/2000/svg">
<path d="M13.6891 18H10.6091L3.63511 7.462V18H0.55511V2.622H3.63511L10.6091 13.182V2.622H13.6891V18ZM22.1448 18.198C20.9715 18.198 19.9155 17.9413 18.9768 17.428C18.0382 16.9 17.2975 16.1593 16.7548 15.206C16.2268 14.2527 15.9628 13.1527 15.9628 11.906C15.9628 10.6593 16.2342 9.55933 16.7768 8.606C17.3342 7.65267 18.0895 6.91933 19.0428 6.406C19.9962 5.878 21.0595 5.614 22.2328 5.614C23.4062 5.614 24.4695 5.878 25.4228 6.406C26.3762 6.91933 27.1242 7.65267 27.6668 8.606C28.2242 9.55933 28.5028 10.6593 28.5028 11.906C28.5028 13.1527 28.2168 14.2527 27.6448 15.206C27.0875 16.1593 26.3248 16.9 25.3568 17.428C24.4035 17.9413 23.3328 18.198 22.1448 18.198ZM22.1448 15.514C22.7022 15.514 23.2228 15.382 23.7068 15.118C24.2055 14.8393 24.6015 14.4287 24.8948 13.886C25.1882 13.3433 25.3348 12.6833 25.3348 11.906C25.3348 10.7473 25.0268 9.86 24.4108 9.244C23.8095 8.61333 23.0688 8.298 22.1888 8.298C21.3088 8.298 20.5682 8.61333 19.9668 9.244C19.3802 9.86 19.0868 10.7473 19.0868 11.906C19.0868 13.0647 19.3728 13.9593 19.9448 14.59C20.5315 15.206 21.2648 15.514 22.1448 15.514ZM34.3481 8.342V14.238C34.3481 14.6487 34.4435 14.9493 34.6341 15.14C34.8395 15.316 35.1768 15.404 35.6461 15.404H37.0761V18H35.1401C32.5441 18 31.2461 16.7387 31.2461 14.216V8.342H29.7941V5.812H31.2461V2.798H34.3481V5.812H37.0761V8.342H34.3481ZM40.8534 4.36C40.3108 4.36 39.8561 4.19133 39.4894 3.854C39.1374 3.502 38.9614 3.06933 38.9614 2.556C38.9614 2.04267 39.1374 1.61733 39.4894 1.28C39.8561 0.927999 40.3108 0.751999 40.8534 0.751999C41.3961 0.751999 41.8434 0.927999 42.1954 1.28C42.5621 1.61733 42.7454 2.04267 42.7454 2.556C42.7454 3.06933 42.5621 3.502 42.1954 3.854C41.8434 4.19133 41.3961 4.36 40.8534 4.36ZM42.3714 5.812V18H39.2914V5.812H42.3714ZM51.0025 8.342H48.8685V18H45.7445V8.342H44.3585V5.812H45.7445V5.196C45.7445 3.7 46.1698 2.6 47.0205 1.896C47.8712 1.192 49.1545 0.861999 50.8705 0.906V3.502C50.1225 3.48733 49.6018 3.612 49.3085 3.876C49.0152 4.14 48.8685 4.61667 48.8685 5.306V5.812H51.0025V8.342ZM54.5605 4.36C54.0178 4.36 53.5631 4.19133 53.1965 3.854C52.8445 3.502 52.6685 3.06933 52.6685 2.556C52.6685 2.04267 52.8445 1.61733 53.1965 1.28C53.5631 0.927999 54.0178 0.751999 54.5605 0.751999C55.1031 0.751999 55.5505 0.927999 55.9025 1.28C56.2691 1.61733 56.4525 2.04267 56.4525 2.556C56.4525 3.06933 56.2691 3.502 55.9025 3.854C55.5505 4.19133 55.1031 4.36 54.5605 4.36ZM56.0785 5.812V18H52.9985V5.812H56.0785ZM58.3295 11.906C58.3295 10.6447 58.5862 9.54467 59.0995 8.606C59.6128 7.65267 60.3242 6.91933 61.2335 6.406C62.1428 5.878 63.1842 5.614 64.3575 5.614C65.8682 5.614 67.1148 5.99533 68.0975 6.758C69.0948 7.506 69.7622 8.562 70.0995 9.926H66.7775C66.6015 9.398 66.3008 8.98733 65.8755 8.694C65.4648 8.386 64.9515 8.232 64.3355 8.232C63.4555 8.232 62.7588 8.55467 62.2455 9.2C61.7322 9.83067 61.4755 10.7327 61.4755 11.906C61.4755 13.0647 61.7322 13.9667 62.2455 14.612C62.7588 15.2427 63.4555 15.558 64.3355 15.558C65.5822 15.558 66.3962 15.0007 66.7775 13.886H70.0995C69.7622 15.206 69.0948 16.2547 68.0975 17.032C67.1002 17.8093 65.8535 18.198 64.3575 18.198C63.1842 18.198 62.1428 17.9413 61.2335 17.428C60.3242 16.9 59.6128 16.1667 59.0995 15.228C58.5862 14.2747 58.3295 13.1673 58.3295 11.906ZM71.5639 11.862C71.5639 10.63 71.8059 9.53733 72.2899 8.584C72.7886 7.63067 73.4559 6.89733 74.2919 6.384C75.1426 5.87067 76.0886 5.614 77.1299 5.614C78.0392 5.614 78.8312 5.79733 79.5059 6.164C80.1952 6.53067 80.7452 6.99267 81.1559 7.55V5.812H84.2579V18H81.1559V16.218C80.7599 16.79 80.2099 17.2667 79.5059 17.648C78.8166 18.0147 78.0172 18.198 77.1079 18.198C76.0812 18.198 75.1426 17.934 74.2919 17.406C73.4559 16.878 72.7886 16.1373 72.2899 15.184C71.8059 14.216 71.5639 13.1087 71.5639 11.862ZM81.1559 11.906C81.1559 11.158 81.0092 10.52 80.7159 9.992C80.4226 9.44933 80.0266 9.03867 79.5279 8.76C79.0292 8.46667 78.4939 8.32 77.9219 8.32C77.3499 8.32 76.8219 8.45933 76.3379 8.738C75.8539 9.01667 75.4579 9.42733 75.1499 9.97C74.8566 10.498 74.7099 11.1287 74.7099 11.862C74.7099 12.5953 74.8566 13.2407 75.1499 13.798C75.4579 14.3407 75.8539 14.7587 76.3379 15.052C76.8366 15.3453 77.3646 15.492 77.9219 15.492C78.4939 15.492 79.0292 15.3527 79.5279 15.074C80.0266 14.7807 80.4226 14.37 80.7159 13.842C81.0092 13.2993 81.1559 12.654 81.1559 11.906ZM90.852 8.342V14.238C90.852 14.6487 90.9474 14.9493 91.138 15.14C91.3434 15.316 91.6807 15.404 92.15 15.404H93.58V18H91.644C89.048 18 87.75 16.7387 87.75 14.216V8.342H86.298V5.812H87.75V2.798H90.852V5.812H93.58V8.342H90.852ZM97.3573 4.36C96.8147 4.36 96.36 4.19133 95.9933 3.854C95.6413 3.502 95.4653 3.06933 95.4653 2.556C95.4653 2.04267 95.6413 1.61733 95.9933 1.28C96.36 0.927999 96.8147 0.751999 97.3573 0.751999C97.9 0.751999 98.3473 0.927999 98.6993 1.28C99.066 1.61733 99.2493 2.04267 99.2493 2.556C99.2493 3.06933 99.066 3.502 98.6993 3.854C98.3473 4.19133 97.9 4.36 97.3573 4.36ZM98.8753 5.812V18H95.7953V5.812H98.8753ZM107.33 18.198C106.157 18.198 105.101 17.9413 104.162 17.428C103.224 16.9 102.483 16.1593 101.94 15.206C101.412 14.2527 101.148 13.1527 101.148 11.906C101.148 10.6593 101.42 9.55933 101.962 8.606C102.52 7.65267 103.275 6.91933 104.228 6.406C105.182 5.878 106.245 5.614 107.418 5.614C108.592 5.614 109.655 5.878 110.608 6.406C111.562 6.91933 112.31 7.65267 112.852 8.606C113.41 9.55933 113.688 10.6593 113.688 11.906C113.688 13.1527 113.402 14.2527 112.83 15.206C112.273 16.1593 111.51 16.9 110.542 17.428C109.589 17.9413 108.518 18.198 107.33 18.198ZM107.33 15.514C107.888 15.514 108.408 15.382 108.892 15.118C109.391 14.8393 109.787 14.4287 110.08 13.886C110.374 13.3433 110.52 12.6833 110.52 11.906C110.52 10.7473 110.212 9.86 109.596 9.244C108.995 8.61333 108.254 8.298 107.374 8.298C106.494 8.298 105.754 8.61333 105.152 9.244C104.566 9.86 104.272 10.7473 104.272 11.906C104.272 13.0647 104.558 13.9593 105.13 14.59C105.717 15.206 106.45 15.514 107.33 15.514ZM122.702 5.636C124.154 5.636 125.327 6.098 126.222 7.022C127.116 7.93133 127.564 9.20733 127.564 10.85V18H124.484V11.268C124.484 10.3 124.242 9.55933 123.758 9.046C123.274 8.518 122.614 8.254 121.778 8.254C120.927 8.254 120.252 8.518 119.754 9.046C119.27 9.55933 119.028 10.3 119.028 11.268V18H115.948V5.812H119.028V7.33C119.438 6.802 119.959 6.39133 120.59 6.098C121.235 5.79 121.939 5.636 122.702 5.636ZM135.157 18.198C134.159 18.198 133.265 18.022 132.473 17.67C131.681 17.3033 131.05 16.812 130.581 16.196C130.126 15.58 129.877 14.898 129.833 14.15H132.935C132.993 14.6193 133.221 15.008 133.617 15.316C134.027 15.624 134.533 15.778 135.135 15.778C135.721 15.778 136.176 15.6607 136.499 15.426C136.836 15.1913 137.005 14.8907 137.005 14.524C137.005 14.128 136.799 13.8347 136.389 13.644C135.993 13.4387 135.355 13.2187 134.475 12.984C133.565 12.764 132.817 12.5367 132.231 12.302C131.659 12.0673 131.16 11.708 130.735 11.224C130.324 10.74 130.119 10.0873 130.119 9.266C130.119 8.59133 130.309 7.97533 130.691 7.418C131.087 6.86067 131.644 6.42067 132.363 6.098C133.096 5.77533 133.954 5.614 134.937 5.614C136.389 5.614 137.547 5.98067 138.413 6.714C139.278 7.43267 139.755 8.408 139.843 9.64H136.895C136.851 9.156 136.645 8.77467 136.279 8.496C135.927 8.20267 135.45 8.056 134.849 8.056C134.291 8.056 133.859 8.15867 133.551 8.364C133.257 8.56933 133.111 8.85533 133.111 9.222C133.111 9.63267 133.316 9.948 133.727 10.168C134.137 10.3733 134.775 10.586 135.641 10.806C136.521 11.026 137.247 11.2533 137.819 11.488C138.391 11.7227 138.882 12.0893 139.293 12.588C139.718 13.072 139.938 13.7173 139.953 14.524C139.953 15.228 139.755 15.8587 139.359 16.416C138.977 16.9733 138.42 17.4133 137.687 17.736C136.968 18.044 136.125 18.198 135.157 18.198Z" fill="black"/>
</svg>
