<svg width="229" height="24" viewBox="0 0 229 24" fill="none" xmlns="http://www.w3.org/2000/svg">
<path d="M11.9572 7.396C11.9572 8.21733 11.7592 8.98733 11.3632 9.706C10.9819 10.4247 10.3732 11.004 9.53721 11.444C8.71588 11.884 7.67454 12.104 6.41321 12.104H3.83921V18H0.759211V2.644H6.41321C7.60121 2.644 8.61321 2.84933 9.44921 3.26C10.2852 3.67067 10.9085 4.23533 11.3192 4.954C11.7445 5.67267 11.9572 6.48667 11.9572 7.396ZM6.28121 9.618C7.13188 9.618 7.76254 9.42733 8.17321 9.046C8.58388 8.65 8.78921 8.1 8.78921 7.396C8.78921 5.9 7.95321 5.152 6.28121 5.152H3.83921V9.618H6.28121ZM17.224 7.704C17.62 7.05867 18.1333 6.55267 18.764 6.186C19.4093 5.81933 20.1426 5.636 20.964 5.636V8.87H20.15C19.182 8.87 18.4486 9.09733 17.95 9.552C17.466 10.0067 17.224 10.7987 17.224 11.928V18H14.144V5.812H17.224V7.704ZM24.6005 4.36C24.0578 4.36 23.6032 4.19133 23.2365 3.854C22.8845 3.502 22.7085 3.06933 22.7085 2.556C22.7085 2.04267 22.8845 1.61733 23.2365 1.28C23.6032 0.927999 24.0578 0.751999 24.6005 0.751999C25.1432 0.751999 25.5905 0.927999 25.9425 1.28C26.3092 1.61733 26.4925 2.04267 26.4925 2.556C26.4925 3.06933 26.3092 3.502 25.9425 3.854C25.5905 4.19133 25.1432 4.36 24.6005 4.36ZM26.1185 5.812V18H23.0385V5.812H26.1185ZM34.2436 15.162L37.3236 5.812H40.6016L36.0916 18H32.3516L27.8636 5.812H31.1636L34.2436 15.162ZM41.5395 11.862C41.5395 10.63 41.7815 9.53733 42.2655 8.584C42.7641 7.63067 43.4315 6.89733 44.2675 6.384C45.1181 5.87067 46.0641 5.614 47.1055 5.614C48.0148 5.614 48.8068 5.79733 49.4815 6.164C50.1708 6.53067 50.7208 6.99267 51.1315 7.55V5.812H54.2335V18H51.1315V16.218C50.7355 16.79 50.1855 17.2667 49.4815 17.648C48.7921 18.0147 47.9928 18.198 47.0835 18.198C46.0568 18.198 45.1181 17.934 44.2675 17.406C43.4315 16.878 42.7641 16.1373 42.2655 15.184C41.7815 14.216 41.5395 13.1087 41.5395 11.862ZM51.1315 11.906C51.1315 11.158 50.9848 10.52 50.6915 9.992C50.3981 9.44933 50.0021 9.03867 49.5035 8.76C49.0048 8.46667 48.4695 8.32 47.8975 8.32C47.3255 8.32 46.7975 8.45933 46.3135 8.738C45.8295 9.01667 45.4335 9.42733 45.1255 9.97C44.8321 10.498 44.6855 11.1287 44.6855 11.862C44.6855 12.5953 44.8321 13.2407 45.1255 13.798C45.4335 14.3407 45.8295 14.7587 46.3135 15.052C46.8121 15.3453 47.3401 15.492 47.8975 15.492C48.4695 15.492 49.0048 15.3527 49.5035 15.074C50.0021 14.7807 50.3981 14.37 50.6915 13.842C50.9848 13.2993 51.1315 12.654 51.1315 11.906ZM56.4496 11.906C56.4496 10.6447 56.7063 9.54467 57.2196 8.606C57.733 7.65267 58.4443 6.91933 59.3536 6.406C60.263 5.878 61.3043 5.614 62.4776 5.614C63.9883 5.614 65.235 5.99533 66.2176 6.758C67.215 7.506 67.8823 8.562 68.2196 9.926H64.8976C64.7216 9.398 64.421 8.98733 63.9956 8.694C63.585 8.386 63.0716 8.232 62.4556 8.232C61.5756 8.232 60.879 8.55467 60.3656 9.2C59.8523 9.83067 59.5956 10.7327 59.5956 11.906C59.5956 13.0647 59.8523 13.9667 60.3656 14.612C60.879 15.2427 61.5756 15.558 62.4556 15.558C63.7023 15.558 64.5163 15.0007 64.8976 13.886H68.2196C67.8823 15.206 67.215 16.2547 66.2176 17.032C65.2203 17.8093 63.9736 18.198 62.4776 18.198C61.3043 18.198 60.263 17.9413 59.3536 17.428C58.4443 16.9 57.733 16.1667 57.2196 15.228C56.7063 14.2747 56.4496 13.1673 56.4496 11.906ZM82.136 5.812L74.59 23.764H71.312L73.952 17.692L69.068 5.812H72.522L75.668 14.326L78.858 5.812H82.136ZM88.2465 11.862C88.2465 10.63 88.4885 9.53733 88.9725 8.584C89.4712 7.63067 90.1385 6.89733 90.9745 6.384C91.8252 5.87067 92.7712 5.614 93.8125 5.614C94.7218 5.614 95.5138 5.79733 96.1885 6.164C96.8778 6.53067 97.4278 6.99267 97.8385 7.55V5.812H100.941V18H97.8385V16.218C97.4425 16.79 96.8925 17.2667 96.1885 17.648C95.4992 18.0147 94.6998 18.198 93.7905 18.198C92.7638 18.198 91.8252 17.934 90.9745 17.406C90.1385 16.878 89.4712 16.1373 88.9725 15.184C88.4885 14.216 88.2465 13.1087 88.2465 11.862ZM97.8385 11.906C97.8385 11.158 97.6918 10.52 97.3985 9.992C97.1052 9.44933 96.7092 9.03867 96.2105 8.76C95.7118 8.46667 95.1765 8.32 94.6045 8.32C94.0325 8.32 93.5045 8.45933 93.0205 8.738C92.5365 9.01667 92.1405 9.42733 91.8325 9.97C91.5392 10.498 91.3925 11.1287 91.3925 11.862C91.3925 12.5953 91.5392 13.2407 91.8325 13.798C92.1405 14.3407 92.5365 14.7587 93.0205 15.052C93.5192 15.3453 94.0472 15.492 94.6045 15.492C95.1765 15.492 95.7118 15.3527 96.2105 15.074C96.7092 14.7807 97.1052 14.37 97.3985 13.842C97.6918 13.2993 97.8385 12.654 97.8385 11.906ZM110.703 5.636C112.155 5.636 113.328 6.098 114.223 7.022C115.117 7.93133 115.565 9.20733 115.565 10.85V18H112.485V11.268C112.485 10.3 112.243 9.55933 111.759 9.046C111.275 8.518 110.615 8.254 109.779 8.254C108.928 8.254 108.253 8.518 107.755 9.046C107.271 9.55933 107.029 10.3 107.029 11.268V18H103.949V5.812H107.029V7.33C107.439 6.802 107.96 6.39133 108.591 6.098C109.236 5.79 109.94 5.636 110.703 5.636ZM117.702 11.862C117.702 10.63 117.944 9.53733 118.428 8.584C118.926 7.63067 119.601 6.89733 120.452 6.384C121.302 5.87067 122.248 5.614 123.29 5.614C124.082 5.614 124.837 5.79 125.556 6.142C126.274 6.47933 126.846 6.934 127.272 7.506V1.72H130.396V18H127.272V16.196C126.89 16.7973 126.355 17.2813 125.666 17.648C124.976 18.0147 124.177 18.198 123.268 18.198C122.241 18.198 121.302 17.934 120.452 17.406C119.601 16.878 118.926 16.1373 118.428 15.184C117.944 14.216 117.702 13.1087 117.702 11.862ZM127.294 11.906C127.294 11.158 127.147 10.52 126.854 9.992C126.56 9.44933 126.164 9.03867 125.666 8.76C125.167 8.46667 124.632 8.32 124.06 8.32C123.488 8.32 122.96 8.45933 122.476 8.738C121.992 9.01667 121.596 9.42733 121.288 9.97C120.994 10.498 120.848 11.1287 120.848 11.862C120.848 12.5953 120.994 13.2407 121.288 13.798C121.596 14.3407 121.992 14.7587 122.476 15.052C122.974 15.3453 123.502 15.492 124.06 15.492C124.632 15.492 125.167 15.3527 125.666 15.074C126.164 14.7807 126.56 14.37 126.854 13.842C127.147 13.2993 127.294 12.654 127.294 11.906ZM143.948 18.154C142.877 18.154 141.909 17.9707 141.044 17.604C140.193 17.2373 139.519 16.7093 139.02 16.02C138.521 15.3307 138.265 14.5167 138.25 13.578H141.55C141.594 14.2087 141.814 14.7073 142.21 15.074C142.621 15.4407 143.178 15.624 143.882 15.624C144.601 15.624 145.165 15.4553 145.576 15.118C145.987 14.766 146.192 14.3113 146.192 13.754C146.192 13.2993 146.053 12.9253 145.774 12.632C145.495 12.3387 145.143 12.1113 144.718 11.95C144.307 11.774 143.735 11.5833 143.002 11.378C142.005 11.0847 141.191 10.7987 140.56 10.52C139.944 10.2267 139.409 9.794 138.954 9.222C138.514 8.63533 138.294 7.858 138.294 6.89C138.294 5.98067 138.521 5.18867 138.976 4.514C139.431 3.83933 140.069 3.326 140.89 2.974C141.711 2.60733 142.65 2.424 143.706 2.424C145.29 2.424 146.573 2.81267 147.556 3.59C148.553 4.35267 149.103 5.42333 149.206 6.802H145.818C145.789 6.274 145.561 5.84133 145.136 5.504C144.725 5.152 144.175 4.976 143.486 4.976C142.885 4.976 142.401 5.13 142.034 5.438C141.682 5.746 141.506 6.19333 141.506 6.78C141.506 7.19067 141.638 7.53533 141.902 7.814C142.181 8.078 142.518 8.298 142.914 8.474C143.325 8.63533 143.897 8.826 144.63 9.046C145.627 9.33933 146.441 9.63267 147.072 9.926C147.703 10.2193 148.245 10.6593 148.7 11.246C149.155 11.8327 149.382 12.6027 149.382 13.556C149.382 14.3773 149.169 15.14 148.744 15.844C148.319 16.548 147.695 17.1127 146.874 17.538C146.053 17.9487 145.077 18.154 143.948 18.154ZM163.382 11.642C163.382 12.082 163.353 12.478 163.294 12.83H154.384C154.458 13.71 154.766 14.3993 155.308 14.898C155.851 15.3967 156.518 15.646 157.31 15.646C158.454 15.646 159.268 15.1547 159.752 14.172H163.074C162.722 15.3453 162.048 16.3133 161.05 17.076C160.053 17.824 158.828 18.198 157.376 18.198C156.203 18.198 155.147 17.9413 154.208 17.428C153.284 16.9 152.558 16.1593 152.03 15.206C151.517 14.2527 151.26 13.1527 151.26 11.906C151.26 10.6447 151.517 9.53733 152.03 8.584C152.544 7.63067 153.262 6.89733 154.186 6.384C155.11 5.87067 156.174 5.614 157.376 5.614C158.535 5.614 159.569 5.86333 160.478 6.362C161.402 6.86067 162.114 7.572 162.612 8.496C163.126 9.40533 163.382 10.454 163.382 11.642ZM160.192 10.762C160.178 9.97 159.892 9.33933 159.334 8.87C158.777 8.386 158.095 8.144 157.288 8.144C156.526 8.144 155.88 8.37867 155.352 8.848C154.839 9.30267 154.524 9.94067 154.406 10.762H160.192ZM164.838 11.906C164.838 10.6447 165.095 9.54467 165.608 8.606C166.122 7.65267 166.833 6.91933 167.742 6.406C168.652 5.878 169.693 5.614 170.866 5.614C172.377 5.614 173.624 5.99533 174.606 6.758C175.604 7.506 176.271 8.562 176.608 9.926H173.286C173.11 9.398 172.81 8.98733 172.384 8.694C171.974 8.386 171.46 8.232 170.844 8.232C169.964 8.232 169.268 8.55467 168.754 9.2C168.241 9.83067 167.984 10.7327 167.984 11.906C167.984 13.0647 168.241 13.9667 168.754 14.612C169.268 15.2427 169.964 15.558 170.844 15.558C172.091 15.558 172.905 15.0007 173.286 13.886H176.608C176.271 15.206 175.604 16.2547 174.606 17.032C173.609 17.8093 172.362 18.198 170.866 18.198C169.693 18.198 168.652 17.9413 167.742 17.428C166.833 16.9 166.122 16.1667 165.608 15.228C165.095 14.2747 164.838 13.1673 164.838 11.906ZM190.371 5.812V18H187.269V16.46C186.873 16.988 186.352 17.406 185.707 17.714C185.076 18.0073 184.387 18.154 183.639 18.154C182.685 18.154 181.842 17.956 181.109 17.56C180.375 17.1493 179.796 16.5553 179.371 15.778C178.96 14.986 178.755 14.0473 178.755 12.962V5.812H181.835V12.522C181.835 13.49 182.077 14.238 182.561 14.766C183.045 15.2793 183.705 15.536 184.541 15.536C185.391 15.536 186.059 15.2793 186.543 14.766C187.027 14.238 187.269 13.49 187.269 12.522V5.812H190.371ZM196.49 7.704C196.886 7.05867 197.399 6.55267 198.03 6.186C198.675 5.81933 199.408 5.636 200.23 5.636V8.87H199.416C198.448 8.87 197.714 9.09733 197.216 9.552C196.732 10.0067 196.49 10.7987 196.49 11.928V18H193.41V5.812H196.49V7.704ZM203.866 4.36C203.323 4.36 202.869 4.19133 202.502 3.854C202.15 3.502 201.974 3.06933 201.974 2.556C201.974 2.04267 202.15 1.61733 202.502 1.28C202.869 0.927999 203.323 0.751999 203.866 0.751999C204.409 0.751999 204.856 0.927999 205.208 1.28C205.575 1.61733 205.758 2.04267 205.758 2.556C205.758 3.06933 205.575 3.502 205.208 3.854C204.856 4.19133 204.409 4.36 203.866 4.36ZM205.384 5.812V18H202.304V5.812H205.384ZM212.013 8.342V14.238C212.013 14.6487 212.109 14.9493 212.299 15.14C212.505 15.316 212.842 15.404 213.311 15.404H214.741V18H212.805C210.209 18 208.911 16.7387 208.911 14.216V8.342H207.459V5.812H208.911V2.798H212.013V5.812H214.741V8.342H212.013ZM228.616 5.812L221.07 23.764H217.792L220.432 17.692L215.548 5.812H219.002L222.148 14.326L225.338 5.812H228.616Z" fill="black"/>
</svg>
