<svg width="262" height="40" viewBox="0 0 262 40" fill="none" xmlns="http://www.w3.org/2000/svg">
<path d="M20.2496 13.08C20.2496 14.616 19.8896 16.02 19.1696 17.292C18.4736 18.54 17.4056 19.548 15.9656 20.316C14.5496 21.06 12.8096 21.432 10.7456 21.432H7.25364V30H0.197641V4.62H10.7456C12.7856 4.62 14.5136 4.98 15.9296 5.7C17.3696 6.42 18.4496 7.416 19.1696 8.688C19.8896 9.96 20.2496 11.424 20.2496 13.08ZM10.0616 15.816C12.0536 15.816 13.0496 14.904 13.0496 13.08C13.0496 11.232 12.0536 10.308 10.0616 10.308H7.25364V15.816H10.0616ZM30.1404 13.368C30.9324 12.216 31.8924 11.304 33.0204 10.632C34.1484 9.96 35.3604 9.624 36.6564 9.624V17.148H34.6764C33.1404 17.148 32.0004 17.448 31.2564 18.048C30.5124 18.648 30.1404 19.692 30.1404 21.18V30H23.0844V9.804H30.1404V13.368ZM42.7499 7.932C41.5019 7.932 40.4939 7.596 39.7259 6.924C38.9819 6.228 38.6099 5.364 38.6099 4.332C38.6099 3.276 38.9819 2.4 39.7259 1.704C40.4939 1.008 41.5019 0.659998 42.7499 0.659998C43.9739 0.659998 44.9579 1.008 45.7019 1.704C46.4699 2.4 46.8539 3.276 46.8539 4.332C46.8539 5.364 46.4699 6.228 45.7019 6.924C44.9579 7.596 43.9739 7.932 42.7499 7.932ZM46.2419 9.804V30H39.1859V9.804H46.2419ZM59.9441 23.34L63.7241 9.804H71.2481L64.3001 30H55.5161L48.5681 9.804H56.0921L59.9441 23.34ZM72.487 19.884C72.487 17.796 72.859 15.972 73.603 14.412C74.371 12.852 75.403 11.652 76.699 10.812C78.019 9.972 79.483 9.552 81.091 9.552C82.483 9.552 83.683 9.828 84.691 10.38C85.699 10.932 86.479 11.676 87.031 12.612V9.804H94.087V30H87.031V27.192C86.479 28.128 85.687 28.872 84.655 29.424C83.647 29.976 82.459 30.252 81.091 30.252C79.483 30.252 78.019 29.832 76.699 28.992C75.403 28.152 74.371 26.952 73.603 25.392C72.859 23.808 72.487 21.972 72.487 19.884ZM87.031 19.884C87.031 18.588 86.671 17.568 85.951 16.824C85.255 16.08 84.391 15.708 83.359 15.708C82.303 15.708 81.427 16.08 80.731 16.824C80.035 17.544 79.687 18.564 79.687 19.884C79.687 21.18 80.035 22.212 80.731 22.98C81.427 23.724 82.303 24.096 83.359 24.096C84.391 24.096 85.255 23.724 85.951 22.98C86.671 22.236 87.031 21.204 87.031 19.884ZM96.9558 19.884C96.9558 17.796 97.3878 15.972 98.2518 14.412C99.1158 12.852 100.316 11.652 101.852 10.812C103.412 9.972 105.188 9.552 107.18 9.552C109.748 9.552 111.908 10.26 113.66 11.676C115.412 13.068 116.54 15.024 117.044 17.544H109.556C109.124 16.224 108.284 15.564 107.036 15.564C106.148 15.564 105.44 15.936 104.912 16.68C104.408 17.4 104.156 18.468 104.156 19.884C104.156 21.3 104.408 22.38 104.912 23.124C105.44 23.868 106.148 24.24 107.036 24.24C108.308 24.24 109.148 23.58 109.556 22.26H117.044C116.54 24.756 115.412 26.712 113.66 28.128C111.908 29.544 109.748 30.252 107.18 30.252C105.188 30.252 103.412 29.832 101.852 28.992C100.316 28.152 99.1158 26.952 98.2518 25.392C97.3878 23.832 96.9558 21.996 96.9558 19.884ZM141.719 9.804L128.903 39.612H121.235L126.059 29.136L117.779 9.804H125.627L129.875 21.252L133.979 9.804H141.719ZM170.507 13.08C170.507 14.616 170.147 16.02 169.427 17.292C168.731 18.54 167.663 19.548 166.223 20.316C164.807 21.06 163.067 21.432 161.003 21.432H157.511V30H150.455V4.62H161.003C163.043 4.62 164.771 4.98 166.187 5.7C167.627 6.42 168.707 7.416 169.427 8.688C170.147 9.96 170.507 11.424 170.507 13.08ZM160.319 15.816C162.311 15.816 163.307 14.904 163.307 13.08C163.307 11.232 162.311 10.308 160.319 10.308H157.511V15.816H160.319ZM182.738 30.252C180.722 30.252 178.91 29.832 177.302 28.992C175.718 28.152 174.47 26.952 173.558 25.392C172.646 23.832 172.19 21.996 172.19 19.884C172.19 17.796 172.646 15.972 173.558 14.412C174.494 12.852 175.754 11.652 177.338 10.812C178.946 9.972 180.758 9.552 182.774 9.552C184.79 9.552 186.59 9.972 188.174 10.812C189.782 11.652 191.042 12.852 191.954 14.412C192.89 15.972 193.358 17.796 193.358 19.884C193.358 21.972 192.89 23.808 191.954 25.392C191.042 26.952 189.782 28.152 188.174 28.992C186.566 29.832 184.754 30.252 182.738 30.252ZM182.738 24.132C183.722 24.132 184.538 23.772 185.186 23.052C185.858 22.308 186.194 21.252 186.194 19.884C186.194 18.516 185.858 17.472 185.186 16.752C184.538 16.032 183.734 15.672 182.774 15.672C181.814 15.672 181.01 16.032 180.362 16.752C179.714 17.472 179.39 18.516 179.39 19.884C179.39 21.276 179.702 22.332 180.326 23.052C180.95 23.772 181.754 24.132 182.738 24.132ZM203.285 3.36V30H196.229V3.36H203.285ZM210.867 7.932C209.619 7.932 208.611 7.596 207.843 6.924C207.099 6.228 206.727 5.364 206.727 4.332C206.727 3.276 207.099 2.4 207.843 1.704C208.611 1.008 209.619 0.659998 210.867 0.659998C212.091 0.659998 213.075 1.008 213.819 1.704C214.587 2.4 214.971 3.276 214.971 4.332C214.971 5.364 214.587 6.228 213.819 6.924C213.075 7.596 212.091 7.932 210.867 7.932ZM214.359 9.804V30H207.303V9.804H214.359ZM217.225 19.884C217.225 17.796 217.657 15.972 218.521 14.412C219.385 12.852 220.585 11.652 222.121 10.812C223.681 9.972 225.457 9.552 227.449 9.552C230.017 9.552 232.177 10.26 233.929 11.676C235.681 13.068 236.809 15.024 237.313 17.544H229.825C229.393 16.224 228.553 15.564 227.305 15.564C226.417 15.564 225.709 15.936 225.181 16.68C224.677 17.4 224.425 18.468 224.425 19.884C224.425 21.3 224.677 22.38 225.181 23.124C225.709 23.868 226.417 24.24 227.305 24.24C228.577 24.24 229.417 23.58 229.825 22.26H237.313C236.809 24.756 235.681 26.712 233.929 28.128C232.177 29.544 230.017 30.252 227.449 30.252C225.457 30.252 223.681 29.832 222.121 28.992C220.585 28.152 219.385 26.952 218.521 25.392C217.657 23.832 217.225 21.996 217.225 19.884ZM261.989 9.804L249.173 39.612H241.505L246.329 29.136L238.049 9.804H245.897L250.145 21.252L254.249 9.804H261.989Z" fill="white"/>
</svg>
