<svg width="154" height="40" viewBox="0 0 154 40" fill="none" xmlns="http://www.w3.org/2000/svg">
<path d="M10.844 30.252C7.89195 30.252 5.46795 29.556 3.57195 28.164C1.67595 26.748 0.655953 24.732 0.511953 22.116H8.03595C8.10795 23.004 8.37195 23.652 8.82795 24.06C9.28395 24.468 9.87195 24.672 10.592 24.672C11.24 24.672 11.768 24.516 12.176 24.204C12.608 23.868 12.824 23.412 12.824 22.836C12.824 22.092 12.476 21.516 11.78 21.108C11.084 20.7 9.95595 20.244 8.39595 19.74C6.73995 19.188 5.39595 18.66 4.36395 18.156C3.35595 17.628 2.46795 16.872 1.69995 15.888C0.955953 14.88 0.583953 13.572 0.583953 11.964C0.583953 10.332 0.991953 8.94 1.80795 7.788C2.62395 6.612 3.75195 5.724 5.19195 5.124C6.63195 4.524 8.26395 4.224 10.088 4.224C13.04 4.224 15.392 4.92 17.144 6.312C18.92 7.68 19.868 9.612 19.988 12.108H12.32C12.296 11.34 12.056 10.764 11.6 10.38C11.168 9.996 10.604 9.804 9.90795 9.804C9.37995 9.804 8.94795 9.96 8.61195 10.272C8.27595 10.584 8.10795 11.028 8.10795 11.604C8.10795 12.084 8.28795 12.504 8.64795 12.864C9.03195 13.2 9.49995 13.5 10.052 13.764C10.604 14.004 11.42 14.316 12.5 14.7C14.108 15.252 15.428 15.804 16.46 16.356C17.516 16.884 18.416 17.64 19.16 18.624C19.928 19.584 20.312 20.808 20.312 22.296C20.312 23.808 19.928 25.164 19.16 26.364C18.416 27.564 17.324 28.512 15.884 29.208C14.468 29.904 12.788 30.252 10.844 30.252ZM42.8882 19.668C42.8882 20.22 42.8522 20.772 42.7802 21.324H29.4242C29.4962 22.428 29.7962 23.256 30.3242 23.808C30.8762 24.336 31.5722 24.6 32.4122 24.6C33.5882 24.6 34.4282 24.072 34.9322 23.016H42.4562C42.1442 24.408 41.5322 25.656 40.6202 26.76C39.7322 27.84 38.6042 28.692 37.2362 29.316C35.8682 29.94 34.3562 30.252 32.7002 30.252C30.7082 30.252 28.9322 29.832 27.3722 28.992C25.8362 28.152 24.6242 26.952 23.7362 25.392C22.8722 23.832 22.4402 21.996 22.4402 19.884C22.4402 17.772 22.8722 15.948 23.7362 14.412C24.6002 12.852 25.8002 11.652 27.3362 10.812C28.8962 9.972 30.6842 9.552 32.7002 9.552C34.6922 9.552 36.4562 9.96 37.9922 10.776C39.5282 11.592 40.7282 12.768 41.5922 14.304C42.4562 15.816 42.8882 17.604 42.8882 19.668ZM35.6882 17.904C35.6882 17.04 35.4002 16.368 34.8242 15.888C34.2482 15.384 33.5282 15.132 32.6642 15.132C31.8002 15.132 31.0922 15.372 30.5402 15.852C29.9882 16.308 29.6282 16.992 29.4602 17.904H35.6882ZM57.6918 23.988V30H54.6318C49.4718 30 46.8918 27.444 46.8918 22.332V15.672H44.4078V9.804H46.8918V4.908H53.9838V9.804H57.6558V15.672H53.9838V22.44C53.9838 22.992 54.1038 23.388 54.3438 23.628C54.6078 23.868 55.0398 23.988 55.6398 23.988H57.6918ZM72.8441 23.988V30H69.7841C64.6241 30 62.0441 27.444 62.0441 22.332V15.672H59.5601V9.804H62.0441V4.908H69.1361V9.804H72.8081V15.672H69.1361V22.44C69.1361 22.992 69.2561 23.388 69.4961 23.628C69.7601 23.868 70.1921 23.988 70.7921 23.988H72.8441ZM79.6445 7.932C78.3965 7.932 77.3885 7.596 76.6205 6.924C75.8765 6.228 75.5045 5.364 75.5045 4.332C75.5045 3.276 75.8765 2.4 76.6205 1.704C77.3885 1.008 78.3965 0.659998 79.6445 0.659998C80.8685 0.659998 81.8525 1.008 82.5965 1.704C83.3645 2.4 83.7485 3.276 83.7485 4.332C83.7485 5.364 83.3645 6.228 82.5965 6.924C81.8525 7.596 80.8685 7.932 79.6445 7.932ZM83.1365 9.804V30H76.0805V9.804H83.1365ZM100.367 9.624C102.695 9.624 104.543 10.404 105.911 11.964C107.279 13.5 107.963 15.588 107.963 18.228V30H100.907V19.164C100.907 18.012 100.607 17.112 100.007 16.464C99.4067 15.792 98.6027 15.456 97.5947 15.456C96.5387 15.456 95.7107 15.792 95.1107 16.464C94.5107 17.112 94.2107 18.012 94.2107 19.164V30H87.1547V9.804H94.2107V12.684C94.8347 11.772 95.6747 11.04 96.7307 10.488C97.7867 9.912 98.9987 9.624 100.367 9.624ZM119.286 9.552C120.654 9.552 121.842 9.828 122.85 10.38C123.882 10.932 124.674 11.676 125.226 12.612V9.804H132.282V29.784C132.282 31.68 131.922 33.384 131.202 34.896C130.482 36.432 129.354 37.656 127.818 38.568C126.306 39.48 124.386 39.936 122.058 39.936C118.938 39.936 116.442 39.204 114.57 37.74C112.698 36.276 111.63 34.284 111.366 31.764H118.314C118.458 32.412 118.818 32.916 119.394 33.276C119.97 33.636 120.714 33.816 121.626 33.816C124.026 33.816 125.226 32.472 125.226 29.784V27.192C124.674 28.128 123.882 28.872 122.85 29.424C121.842 29.976 120.654 30.252 119.286 30.252C117.678 30.252 116.214 29.832 114.894 28.992C113.598 28.152 112.566 26.952 111.798 25.392C111.054 23.808 110.682 21.972 110.682 19.884C110.682 17.796 111.054 15.972 111.798 14.412C112.566 12.852 113.598 11.652 114.894 10.812C116.214 9.972 117.678 9.552 119.286 9.552ZM125.226 19.884C125.226 18.588 124.866 17.568 124.146 16.824C123.45 16.08 122.586 15.708 121.554 15.708C120.498 15.708 119.622 16.08 118.926 16.824C118.23 17.544 117.882 18.564 117.882 19.884C117.882 21.18 118.23 22.212 118.926 22.98C119.622 23.724 120.498 24.096 121.554 24.096C122.586 24.096 123.45 23.724 124.146 22.98C124.866 22.236 125.226 21.204 125.226 19.884ZM144.907 30.252C143.083 30.252 141.451 29.952 140.011 29.352C138.595 28.728 137.467 27.888 136.627 26.832C135.811 25.752 135.355 24.54 135.259 23.196H142.099C142.195 23.844 142.495 24.348 142.999 24.708C143.503 25.068 144.127 25.248 144.871 25.248C145.447 25.248 145.903 25.128 146.239 24.888C146.575 24.648 146.743 24.336 146.743 23.952C146.743 23.448 146.467 23.076 145.915 22.836C145.363 22.596 144.451 22.332 143.179 22.044C141.739 21.756 140.539 21.432 139.579 21.072C138.619 20.712 137.779 20.124 137.059 19.308C136.363 18.492 136.015 17.388 136.015 15.996C136.015 14.796 136.339 13.716 136.987 12.756C137.635 11.772 138.583 10.992 139.831 10.416C141.103 9.84 142.627 9.552 144.403 9.552C147.043 9.552 149.119 10.2 150.631 11.496C152.143 12.792 153.019 14.496 153.259 16.608H146.887C146.767 15.96 146.479 15.468 146.023 15.132C145.591 14.772 145.003 14.592 144.259 14.592C143.683 14.592 143.239 14.7 142.927 14.916C142.639 15.132 142.495 15.432 142.495 15.816C142.495 16.296 142.771 16.668 143.323 16.932C143.875 17.172 144.763 17.424 145.987 17.688C147.451 18 148.663 18.348 149.623 18.732C150.607 19.116 151.459 19.74 152.179 20.604C152.923 21.444 153.295 22.596 153.295 24.06C153.295 25.236 152.947 26.292 152.251 27.228C151.579 28.164 150.607 28.908 149.335 29.46C148.087 29.988 146.611 30.252 144.907 30.252Z" fill="black"/>
</svg>
