<svg width="17" height="22" viewBox="0 0 17 22" fill="none" xmlns="http://www.w3.org/2000/svg">
<path d="M1.776 21.0293C1.32457 21.0293 0.873163 20.8236 0.51677 20.3829C-0.172257 19.5309 -0.172257 18.1206 0.51677 17.2686L13.9647 0.639033C14.6537 -0.213011 15.7942 -0.213011 16.4832 0.639033C17.1723 1.49108 17.1723 2.90136 16.4832 3.7534L3.03526 20.3829C2.70262 20.8236 2.22743 21.0293 1.776 21.0293Z" fill="#00008F"/>
<path d="M15.224 21.0293C14.7725 21.0293 14.3211 20.8236 13.9647 20.3829L0.51677 3.7534C-0.172257 2.90136 -0.172257 1.49108 0.51677 0.639033C1.20577 -0.213011 2.34623 -0.213011 3.03526 0.639033L16.4832 17.2686C17.1723 18.1206 17.1723 19.5309 16.4832 20.3829C16.1268 20.8236 15.6754 21.0293 15.224 21.0293Z" fill="#00008F"/>
</svg>
